  0
SECTION
  2
HEADER
  9
$ACADVER
  1
AC1009
  9
$DWGCODEPAGE
  3
ansi_1252
  9
$INSBASE
 10
0.0
 20
0.0
 30
0.0
  9
$EXTMIN
 10
97.21645182990656
 20
-5.207
 30
0.0
  9
$EXTMAX
 10
174.6664518299065
 20
100.635
 30
0.0
  9
$LIMMIN
 10
0.0
 20
0.0
  9
$LIMMAX
 10
12.0
 20
9.0
  9
$ORTHOMODE
 70
     0
  9
$REGENMODE
 70
     1
  9
$FILLMODE
 70
     1
  9
$QTEXTMODE
 70
     0
  9
$MIRRTEXT
 70
     1
  9
$DRAGMODE
 70
     2
  9
$LTSCALE
 40
1.0
  9
$OSMODE
 70
    37
  9
$ATTMODE
 70
     1
  9
$TEXTSIZE
 40
0.2
  9
$TRACEWID
 40
0.05
  9
$TEXTSTYLE
  7
STANDARD
  9
$CLAYER
  8
DEFAULT
  9
$CELTYPE
  6
BYLAYER
  9
$CECOLOR
 62
   256
  9
$DIMSCALE
 40
1.0
  9
$DIMASZ
 40
0.18
  9
$DIMEXO
 40
0.0625
  9
$DIMDLI
 40
0.38
  9
$DIMRND
 40
0.0
  9
$DIMDLE
 40
0.0
  9
$DIMEXE
 40
0.18
  9
$DIMTP
 40
0.0
  9
$DIMTM
 40
0.0
  9
$DIMTXT
 40
0.18
  9
$DIMCEN
 40
0.09
  9
$DIMTSZ
 40
0.0
  9
$DIMTOL
 70
     0
  9
$DIMLIM
 70
     0
  9
$DIMTIH
 70
     1
  9
$DIMTOH
 70
     1
  9
$DIMSE1
 70
     0
  9
$DIMSE2
 70
     0
  9
$DIMTAD
 70
     0
  9
$DIMZIN
 70
     0
  9
$DIMBLK
  1

  9
$DIMASO
 70
     1
  9
$DIMSHO
 70
     1
  9
$DIMPOST
  1

  9
$DIMAPOST
  1

  9
$DIMALT
 70
     0
  9
$DIMALTD
 70
     2
  9
$DIMALTF
 40
25.4
  9
$DIMLFAC
 40
1.0
  9
$DIMTOFL
 70
     0
  9
$DIMTVP
 40
0.0
  9
$DIMTIX
 70
     0
  9
$DIMSOXD
 70
     0
  9
$DIMSAH
 70
     0
  9
$DIMBLK1
  1

  9
$DIMBLK2
  1

  9
$DIMSTYLE
  2
STANDARD
  9
$DIMCLRD
 70
     0
  9
$DIMCLRE
 70
     0
  9
$DIMCLRT
 70
     0
  9
$DIMTFAC
 40
1.0
  9
$DIMGAP
 40
0.09
  9
$LUNITS
 70
     2
  9
$LUPREC
 70
     3
  9
$SKETCHINC
 40
0.1
  9
$FILLETRAD
 40
0.5
  9
$AUNITS
 70
     0
  9
$AUPREC
 70
     0
  9
$MENU
  1
.
  9
$ELEVATION
 40
0.0
  9
$PELEVATION
 40
0.0
  9
$THICKNESS
 40
0.0
  9
$LIMCHECK
 70
     0
  9
$CHAMFERA
 40
0.0
  9
$CHAMFERB
 40
0.0
  9
$SKPOLY
 70
     0
  9
$TDCREATE
 40
2458260.55528963
  9
$TDUPDATE
 40
2458260.555475127
  9
$TDINDWG
 40
0.0000000116
  9
$TDUSRTIMER
 40
0.0000000116
  9
$USRTIMER
 70
     1
  9
$ANGBASE
 50
0.0
  9
$ANGDIR
 70
     0
  9
$PDMODE
 70
     0
  9
$PDSIZE
 40
0.0
  9
$PLINEWID
 40
0.0
  9
$COORDS
 70
     1
  9
$SPLFRAME
 70
     0
  9
$SPLINETYPE
 70
     6
  9
$SPLINESEGS
 70
     8
  9
$ATTDIA
 70
     0
  9
$ATTREQ
 70
     1
  9
$HANDLING
 70
     1
  9
$HANDSEED
  5
92E
  9
$SURFTAB1
 70
     6
  9
$SURFTAB2
 70
     6
  9
$SURFTYPE
 70
     6
  9
$SURFU
 70
     6
  9
$SURFV
 70
     6
  9
$UCSNAME
  2

  9
$UCSORG
 10
0.0
 20
0.0
 30
0.0
  9
$UCSXDIR
 10
1.0
 20
0.0
 30
0.0
  9
$UCSYDIR
 10
0.0
 20
1.0
 30
0.0
  9
$PUCSNAME
  2

  9
$PUCSORG
 10
0.0
 20
0.0
 30
0.0
  9
$PUCSXDIR
 10
1.0
 20
0.0
 30
0.0
  9
$PUCSYDIR
 10
0.0
 20
1.0
 30
0.0
  9
$USERI1
 70
     0
  9
$USERI2
 70
     0
  9
$USERI3
 70
     0
  9
$USERI4
 70
     0
  9
$USERI5
 70
     0
  9
$USERR1
 40
0.0
  9
$USERR2
 40
0.0
  9
$USERR3
 40
0.0
  9
$USERR4
 40
0.0
  9
$USERR5
 40
0.0
  9
$WORLDVIEW
 70
     1
  9
$SHADEDGE
 70
     3
  9
$SHADEDIF
 70
    70
  9
$TILEMODE
 70
     1
  9
$MAXACTVP
 70
    64
  9
$PLIMCHECK
 70
     0
  9
$PEXTMIN
 10
1.000000000000000E+20
 20
1.000000000000000E+20
 30
1.000000000000000E+20
  9
$PEXTMAX
 10
-1.000000000000000E+20
 20
-1.000000000000000E+20
 30
-1.000000000000000E+20
  9
$PLIMMIN
 10
0.0
 20
0.0
  9
$PLIMMAX
 10
12.0
 20
9.0
  9
$UNITMODE
 70
     0
  9
$VISRETAIN
 70
     1
  9
$PLINEGEN
 70
     0
  9
$PSLTSCALE
 70
     1
  0
ENDSEC
  0
SECTION
  2
TABLES
  0
TABLE
  2
VPORT
 70
     1
  0
VPORT
  2
*ACTIVE
 70
     0
 10
0.0
 20
0.0
 11
1.0
 21
1.0
 12
135.9414518299066
 22
47.71399999999999
 13
0.0
 23
0.0
 14
0.5
 24
0.5
 15
0.5
 25
0.5
 16
0.0
 26
0.0
 36
1.0
 17
0.0
 27
0.0
 37
0.0
 40
107.95884
 41
0.7317511006972658
 42
50.0
 43
0.0
 44
0.0
 50
0.0
 51
0.0
 71
     0
 72
   100
 73
     1
 74
     3
 75
     0
 76
     0
 77
     0
 78
     0
  0
ENDTAB
  0
TABLE
  2
LTYPE
 70
     1
  0
LTYPE
  2
CONTINUOUS
 70
     0
  3
Solid line
 72
    65
 73
     0
 40
0.0
  0
ENDTAB
  0
TABLE
  2
LAYER
 70
     5
  0
LAYER
  2
0
 70
     0
 62
     7
  6
CONTINUOUS
  0
LAYER
  2
DEFAULT
 70
     0
 62
     7
  6
CONTINUOUS
  0
LAYER
  2
16
 70
     0
 62
   177
  6
CONTINUOUS
  0
LAYER
  2
20
 70
     0
 62
    30
  6
CONTINUOUS
  0
LAYER
  2
44
 70
     0
 62
     4
  6
CONTINUOUS
  0
ENDTAB
  0
TABLE
  2
STYLE
 70
     1
  0
STYLE
  2
STANDARD
 70
     0
 40
0.0
 41
1.0
 50
0.0
 71
     0
 42
0.2
  3
txt
  4

  0
ENDTAB
  0
TABLE
  2
VIEW
 70
     0
  0
ENDTAB
  0
TABLE
  2
UCS
 70
     0
  0
ENDTAB
  0
TABLE
  2
APPID
 70
     1
  0
APPID
  2
ACAD
 70
     0
  0
ENDTAB
  0
TABLE
  2
DIMSTYLE
 70
     1
  0
DIMSTYLE
  2
STANDARD
 70
     0
  3

  4

  5

  6

  7

 40
1.0
 41
0.18
 42
0.0625
 43
0.38
 44
0.18
 45
0.0
 46
0.0
 47
0.0
 48
0.0
140
0.18
141
0.09
142
0.0
143
25.4
144
1.0
145
0.0
146
1.0
147
0.09
 71
     0
 72
     0
 73
     1
 74
     1
 75
     0
 76
     0
 77
     0
 78
     0
170
     0
171
     2
172
     0
173
     0
174
     0
175
     0
176
     0
177
     0
178
     0
  0
ENDTAB
  0
ENDSEC
  0
SECTION
  2
BLOCKS
  0
BLOCK
  8
0
  2
$MODEL_SPACE
 70
     0
 10
0.0
 20
0.0
 30
0.0
  3
$MODEL_SPACE
  1

  0
ENDBLK
  5
21
  8
0
  0
BLOCK
 67
     1
  8
0
  2
$PAPER_SPACE
 70
     0
 10
0.0
 20
0.0
 30
0.0
  3
$PAPER_SPACE
  1

  0
ENDBLK
  5
1D
 67
     1
  8
0
  0
ENDSEC
  0
SECTION
  2
ENTITIES
  0
POLYLINE
  5
6B
  8
DEFAULT
 66
     1
 10
0.0
 20
0.0
 30
0.0
  0
VERTEX
  5
6C
  8
DEFAULT
 10
164.0210518299066
 20
84.709
 30
0.0
  0
VERTEX
  5
6D
  8
DEFAULT
 10
164.054744811842
 20
84.74269298193543
 30
0.0
 42
-1.966154116082908
  0
VERTEX
  5
6E
  8
DEFAULT
 10
165.311944811842
 20
83.48549298193545
 30
0.0
  0
VERTEX
  5
6F
  8
DEFAULT
 10
165.0225994657975
 20
83.19614763589097
 30
0.0
 42
-0.2008759561914922
  0
VERTEX
  5
70
  8
DEFAULT
 10
164.3892518299066
 20
82.931
 30
0.0
  0
VERTEX
  5
71
  8
DEFAULT
 10
149.9142781955324
 20
82.931
 30
0.0
 42
-1.966058903966039
  0
VERTEX
  5
72
  8
DEFAULT
 10
149.9142781955323
 20
84.70899999999999
 30
0.0
  0
VERTEX
  5
73
  8
DEFAULT
 10
164.0210518299066
 20
84.709
 30
0.0
  0
SEQEND
  5
74
  8
DEFAULT
  0
POLYLINE
  5
75
  8
DEFAULT
 66
     1
 10
0.0
 20
0.0
 30
0.0
  0
VERTEX
  5
76
  8
DEFAULT
 10
158.3192518299066
 20
89.31678732275032
 30
0.0
  0
VERTEX
  5
77
  8
DEFAULT
 10
164.4936253074107
 20
89.31679988584153
 30
0.0
 42
-1.966059118598555
  0
VERTEX
  5
78
  8
DEFAULT
 10
164.4936254642807
 20
87.53879999999992
 30
0.0
  0
VERTEX
  5
79
  8
DEFAULT
 10
158.6874518299066
 20
87.5388
 30
0.0
  0
VERTEX
  5
7A
  8
DEFAULT
 10
156.8800518299066
 20
85.7314
 30
0.0
  0
VERTEX
  5
7B
  8
DEFAULT
 10
156.865944596869
 20
85.71760248117683
 30
0.0
  0
VERTEX
  5
7C
  8
DEFAULT
 10
156.8514037357035
 20
85.70400176540115
 30
0.0
  0
VERTEX
  5
7D
  8
DEFAULT
 10
156.8364304052969
 20
85.69061512597422
 30
0.0
  0
VERTEX
  5
7E
  8
DEFAULT
 10
156.8210265742982
 20
85.67746006969908
 30
0.0
  0
VERTEX
  5
7F
  8
DEFAULT
 10
156.8051950509075
 20
85.6645542948856
 30
0.0
  0
VERTEX
  5
80
  8
DEFAULT
 10
156.7889395104346
 20
85.6519156462914
 30
0.0
  0
VERTEX
  5
81
  8
DEFAULT
 10
156.7722645203168
 20
85.63956206709997
 30
0.0
  0
VERTEX
  5
82
  8
DEFAULT
 10
156.7551755622851
 20
85.62751154807052
 30
0.0
  0
VERTEX
  5
83
  8
DEFAULT
 10
156.7376790513745
 20
85.61578207402584
 30
0.0
  0
VERTEX
  5
84
  8
DEFAULT
 10
156.7197823514769
 20
85.60439156788013
 30
0.0
  0
VERTEX
  5
85
  8
DEFAULT
 10
156.7014937871531
 20
85.59335783244121
 30
0.0
  0
VERTEX
  5
86
  8
DEFAULT
 10
156.6828226514308
 20
85.58269849025648
 30
0.0
  0
VERTEX
  5
87
  8
DEFAULT
 10
156.6637792093371
 20
85.57243092180408
 30
0.0
  0
VERTEX
  5
88
  8
DEFAULT
 10
156.6443746969385
 20
85.56257220236294
 30
0.0
  0
VERTEX
  5
89
  8
DEFAULT
 10
156.6246213156888
 20
85.55313903792448
 30
0.0
  0
VERTEX
  5
8A
  8
DEFAULT
 10
156.6045322219164
 20
85.54414770053685
 30
0.0
  0
VERTEX
  5
8B
  8
DEFAULT
 10
156.5841215113199
 20
85.53561396349609
 30
0.0
  0
VERTEX
  5
8C
  8
DEFAULT
 10
156.5634041983791
 20
85.52755303681994
 30
0.0
  0
VERTEX
  5
8D
  8
DEFAULT
 10
156.5423961906309
 20
85.51997950345604
 30
0.0
  0
VERTEX
  5
8E
  8
DEFAULT
 10
156.5211142578032
 20
85.5129072566898
 30
0.0
  0
VERTEX
  5
8F
  8
DEFAULT
 10
156.4995759958516
 20
85.50634943922273
 30
0.0
  0
VERTEX
  5
90
  8
DEFAULT
 10
156.4777997859849
 20
85.50031838439538
 30
0.0
  0
VERTEX
  5
91
  8
DEFAULT
 10
156.4558047488222
 20
85.4948255600252
 30
0.0
  0
VERTEX
  5
92
  8
DEFAULT
 10
156.4336106938692
 20
85.4898815153195
 30
0.0
  0
VERTEX
  5
93
  8
DEFAULT
 10
156.4112380645526
 20
85.48549583130988
 30
0.0
  0
VERTEX
  5
94
  8
DEFAULT
 10
156.388707879098
 20
85.48167707523228
 30
0.0
  0
VERTEX
  5
95
  8
DEFAULT
 10
156.3660416675842
 20
85.47843275925122
 30
0.0
  0
VERTEX
  5
96
  8
DEFAULT
 10
156.3432614055478
 20
85.47576930389356
 30
0.0
  0
VERTEX
  5
97
  8
DEFAULT
 10
156.3203894445519
 20
85.47369200652082
 30
0.0
  0
VERTEX
  5
98
  8
DEFAULT
 10
156.297448440169
 20
85.47220501512679
 30
0.0
  0
VERTEX
  5
99
  8
DEFAULT
 10
156.2744612778564
 20
85.47131130770052
 30
0.0
  0
VERTEX
  5
9A
  8
DEFAULT
 10
149.2664518299065
 20
85.471
 30
0.0
  0
VERTEX
  5
9B
  8
DEFAULT
 10
149.2467196359025
 20
85.47121901431244
 30
0.0
  0
VERTEX
  5
9C
  8
DEFAULT
 10
149.2268199928584
 20
85.47188383783866
 30
0.0
  0
VERTEX
  5
9D
  8
DEFAULT
 10
149.2067659350894
 20
85.47300586588193
 30
0.0
  0
VERTEX
  5
9E
  8
DEFAULT
 10
149.1865712346155
 20
85.47459608624314
 30
0.0
  0
VERTEX
  5
9F
  8
DEFAULT
 10
149.1662503925289
 20
85.47666502845892
 30
0.0
  0
VERTEX
  5
A0
  8
DEFAULT
 10
149.1458186266168
 20
85.47922271244992
 30
0.0
  0
VERTEX
  5
A1
  8
DEFAULT
 10
149.1252918550929
 20
85.48227859687107
 30
0.0
  0
VERTEX
  5
A2
  8
DEFAULT
 10
149.1046866763122
 20
85.48584152747767
 30
0.0
  0
VERTEX
  5
A3
  8
DEFAULT
 10
149.0840203443716
 20
85.48991968584187
 30
0.0
  0
VERTEX
  5
A4
  8
DEFAULT
 10
149.0633107405272
 20
85.49452053877299
 30
0.0
  0
VERTEX
  5
A5
  8
DEFAULT
 10
149.0425763403915
 20
85.49965078881048
 30
0.0
  0
VERTEX
  5
A6
  8
DEFAULT
 10
149.021836176909
 20
85.50531632617172
 30
0.0
  0
VERTEX
  5
A7
  8
DEFAULT
 10
149.0011097991461
 20
85.51152218254575
 30
0.0
  0
VERTEX
  5
A8
  8
DEFAULT
 10
148.9804172269697
 20
85.51827248712975
 30
0.0
  0
VERTEX
  5
A9
  8
DEFAULT
 10
148.95977890173
 20
85.52557042530624
 30
0.0
  0
VERTEX
  5
AA
  8
DEFAULT
 10
148.939215633106
 20
85.5334182003555
 30
0.0
  0
VERTEX
  5
AB
  8
DEFAULT
 10
148.9187485423125
 20
85.54181699859
 30
0.0
  0
VERTEX
  5
AC
  8
DEFAULT
 10
148.8983990019111
 20
85.55076695828426
 30
0.0
  0
VERTEX
  5
AD
  8
DEFAULT
 10
148.8781885725106
 20
85.5602671427556
 30
0.0
  0
VERTEX
  5
AE
  8
DEFAULT
 10
148.8581389366798
 20
85.57031551792836
 30
0.0
  0
VERTEX
  5
AF
  8
DEFAULT
 10
148.8382718304356
 20
85.58090893468541
 30
0.0
  0
VERTEX
  5
B0
  8
DEFAULT
 10
148.8186089727068
 20
85.59204311627853
 30
0.0
  0
VERTEX
  5
B1
  8
DEFAULT
 10
148.7991719932027
 20
85.60371265103133
 30
0.0
  0
VERTEX
  5
B2
  8
DEFAULT
 10
148.7799823591472
 20
85.61591099052661
 30
0.0
  0
VERTEX
  5
B3
  8
DEFAULT
 10
148.7610613013618
 20
85.62863045342505
 30
0.0
  0
VERTEX
  5
B4
  8
DEFAULT
 10
148.7424297402008
 20
85.64186223501308
 30
0.0
  0
VERTEX
  5
B5
  8
DEFAULT
 10
148.7241082118534
 20
85.65559642252681
 30
0.0
  0
VERTEX
  5
B6
  8
DEFAULT
 10
148.7061167955376
 20
85.66982201624594
 30
0.0
  0
VERTEX
  5
B7
  8
DEFAULT
 10
148.6884750421109
 20
85.68452695629699
 30
0.0
  0
VERTEX
  5
B8
  8
DEFAULT
 10
148.6712019046169
 20
85.6996981550513
 30
0.0
  0
VERTEX
  5
B9
  8
DEFAULT
 10
148.6543156712792
 20
85.71532153494867
 30
0.0
  0
VERTEX
  5
BA
  8
DEFAULT
 10
148.6378339014317
 20
85.73138207152515
 30
0.0
  0
VERTEX
  5
BB
  8
DEFAULT
 10
148.6217733648553
 20
85.74786384137265
 30
0.0
  0
VERTEX
  5
BC
  8
DEFAULT
 10
148.6061499849579
 20
85.76475007471035
 30
0.0
  0
VERTEX
  5
BD
  8
DEFAULT
 10
148.5909787862036
 20
85.78202321220432
 30
0.0
  0
VERTEX
  5
BE
  8
DEFAULT
 10
148.5762738461525
 20
85.79966496563108
 30
0.0
  0
VERTEX
  5
BF
  8
DEFAULT
 10
148.5620482524334
 20
85.81765638194682
 30
0.0
  0
VERTEX
  5
C0
  8
DEFAULT
 10
148.5483140649197
 20
85.83597791029422
 30
0.0
  0
VERTEX
  5
C1
  8
DEFAULT
 10
148.5350822833316
 20
85.85460947145522
 30
0.0
  0
VERTEX
  5
C2
  8
DEFAULT
 10
148.5223628204332
 20
85.87353052924061
 30
0.0
  0
VERTEX
  5
C3
  8
DEFAULT
 10
148.5101644809379
 20
85.89272016329618
 30
0.0
  0
VERTEX
  5
C4
  8
DEFAULT
 10
148.4984949461851
 20
85.91215714280027
 30
0.0
  0
VERTEX
  5
C5
  8
DEFAULT
 10
148.487360764592
 20
85.93182000052903
 30
0.0
  0
VERTEX
  5
C6
  8
DEFAULT
 10
148.4767673478349
 20
85.9516871067732
 30
0.0
  0
VERTEX
  5
C7
  8
DEFAULT
 10
148.4667189726622
 20
85.97173674260408
 30
0.0
  0
VERTEX
  5
C8
  8
DEFAULT
 10
148.4572187881908
 20
85.99194717200454
 30
0.0
  0
VERTEX
  5
C9
  8
DEFAULT
 10
148.4482688284966
 20
86.01229671240594
 30
0.0
  0
VERTEX
  5
CA
  8
DEFAULT
 10
148.4398700302621
 20
86.0327638031995
 30
0.0
  0
VERTEX
  5
CB
  8
DEFAULT
 10
148.4320222552128
 20
86.05332707182345
 30
0.0
  0
VERTEX
  5
CC
  8
DEFAULT
 10
148.4247243170363
 20
86.07396539706312
 30
0.0
  0
VERTEX
  5
CD
  8
DEFAULT
 10
148.4179740124523
 20
86.09465796923958
 30
0.0
  0
VERTEX
  5
CE
  8
DEFAULT
 10
148.4117681560783
 20
86.11538434700248
 30
0.0
  0
VERTEX
  5
CF
  8
DEFAULT
 10
148.4061026187171
 20
86.13612451048496
 30
0.0
  0
VERTEX
  5
D0
  8
DEFAULT
 10
148.4009723686796
 20
86.15685891062066
 30
0.0
  0
VERTEX
  5
D1
  8
DEFAULT
 10
148.3963715157484
 20
86.17756851446502
 30
0.0
  0
VERTEX
  5
D2
  8
DEFAULT
 10
148.3922933573842
 20
86.19823484640561
 30
0.0
  0
VERTEX
  5
D3
  8
DEFAULT
 10
148.3887304267776
 20
86.21884002518634
 30
0.0
  0
VERTEX
  5
D4
  8
DEFAULT
 10
148.3856745423565
 20
86.23936679671027
 30
0.0
  0
VERTEX
  5
D5
  8
DEFAULT
 10
148.3831168583655
 20
86.25979856262236
 30
0.0
  0
VERTEX
  5
D6
  8
DEFAULT
 10
148.3810479161497
 20
86.28011940470894
 30
0.0
  0
VERTEX
  5
D7
  8
DEFAULT
 10
148.3794576957885
 20
86.30031410518284
 30
0.0
  0
VERTEX
  5
D8
  8
DEFAULT
 10
148.3783356677452
 20
86.32036816295187
 30
0.0
  0
VERTEX
  5
D9
  8
DEFAULT
 10
148.377670844219
 20
86.34026780599595
 30
0.0
  0
VERTEX
  5
DA
  8
DEFAULT
 10
148.3774518299066
 20
86.36
 30
0.0
  0
VERTEX
  5
DB
  8
DEFAULT
 10
148.377670844219
 20
86.37973219400406
 30
0.0
  0
VERTEX
  5
DC
  8
DEFAULT
 10
148.3783356677452
 20
86.39963183704813
 30
0.0
  0
VERTEX
  5
DD
  8
DEFAULT
 10
148.3794576957885
 20
86.41968589481715
 30
0.0
  0
VERTEX
  5
DE
  8
DEFAULT
 10
148.3810479161497
 20
86.43988059529104
 30
0.0
  0
VERTEX
  5
DF
  8
DEFAULT
 10
148.3831168583655
 20
86.46020143737765
 30
0.0
  0
VERTEX
  5
E0
  8
DEFAULT
 10
148.3856745423565
 20
86.48063320328973
 30
0.0
  0
VERTEX
  5
E1
  8
DEFAULT
 10
148.3887304267776
 20
86.50115997481365
 30
0.0
  0
VERTEX
  5
E2
  8
DEFAULT
 10
148.3922933573842
 20
86.52176515359439
 30
0.0
  0
VERTEX
  5
E3
  8
DEFAULT
 10
148.3963715157484
 20
86.54243148553495
 30
0.0
  0
VERTEX
  5
E4
  8
DEFAULT
 10
148.4009723686796
 20
86.5631410893793
 30
0.0
  0
VERTEX
  5
E5
  8
DEFAULT
 10
148.4061026187171
 20
86.58387548951501
 30
0.0
  0
VERTEX
  5
E6
  8
DEFAULT
 10
148.4117681560783
 20
86.60461565299751
 30
0.0
  0
VERTEX
  5
E7
  8
DEFAULT
 10
148.4179740124523
 20
86.62534203076041
 30
0.0
  0
VERTEX
  5
E8
  8
DEFAULT
 10
148.4247243170363
 20
86.64603460293688
 30
0.0
  0
VERTEX
  5
E9
  8
DEFAULT
 10
148.4320222552128
 20
86.66667292817655
 30
0.0
  0
VERTEX
  5
EA
  8
DEFAULT
 10
148.4398700302621
 20
86.68723619680048
 30
0.0
  0
VERTEX
  5
EB
  8
DEFAULT
 10
148.4482688284966
 20
86.70770328759404
 30
0.0
  0
VERTEX
  5
EC
  8
DEFAULT
 10
148.4572187881908
 20
86.72805282799546
 30
0.0
  0
VERTEX
  5
ED
  8
DEFAULT
 10
148.4667189726622
 20
86.74826325739589
 30
0.0
  0
VERTEX
  5
EE
  8
DEFAULT
 10
148.4767673478349
 20
86.76831289322676
 30
0.0
  0
VERTEX
  5
EF
  8
DEFAULT
 10
148.487360764592
 20
86.78817999947096
 30
0.0
  0
VERTEX
  5
F0
  8
DEFAULT
 10
148.4984949461851
 20
86.8078428571997
 30
0.0
  0
VERTEX
  5
F1
  8
DEFAULT
 10
148.5101644809379
 20
86.8272798367038
 30
0.0
  0
VERTEX
  5
F2
  8
DEFAULT
 10
148.5223628204332
 20
86.84646947075937
 30
0.0
  0
VERTEX
  5
F3
  8
DEFAULT
 10
148.5350822833316
 20
86.86539052854476
 30
0.0
  0
VERTEX
  5
F4
  8
DEFAULT
 10
148.5483140649197
 20
86.88402208970577
 30
0.0
  0
VERTEX
  5
F5
  8
DEFAULT
 10
148.5620482524334
 20
86.90234361805318
 30
0.0
  0
VERTEX
  5
F6
  8
DEFAULT
 10
148.5762738461525
 20
86.92033503436892
 30
0.0
  0
VERTEX
  5
F7
  8
DEFAULT
 10
148.5909787862036
 20
86.93797678779568
 30
0.0
  0
VERTEX
  5
F8
  8
DEFAULT
 10
148.6061499849579
 20
86.95524992528965
 30
0.0
  0
VERTEX
  5
F9
  8
DEFAULT
 10
148.6217733648553
 20
86.97213615862735
 30
0.0
  0
VERTEX
  5
FA
  8
DEFAULT
 10
148.6378339014317
 20
86.98861792847484
 30
0.0
  0
VERTEX
  5
FB
  8
DEFAULT
 10
148.6543156712792
 20
87.00467846505133
 30
0.0
  0
VERTEX
  5
FC
  8
DEFAULT
 10
148.6712019046169
 20
87.02030184494869
 30
0.0
  0
VERTEX
  5
FD
  8
DEFAULT
 10
148.6884750421109
 20
87.03547304370299
 30
0.0
  0
VERTEX
  5
FE
  8
DEFAULT
 10
148.7061167955376
 20
87.05017798375403
 30
0.0
  0
VERTEX
  5
FF
  8
DEFAULT
 10
148.7241082118534
 20
87.06440357747316
 30
0.0
  0
VERTEX
  5
100
  8
DEFAULT
 10
148.7424297402008
 20
87.0781377649869
 30
0.0
  0
VERTEX
  5
101
  8
DEFAULT
 10
148.7610613013618
 20
87.09136954657494
 30
0.0
  0
VERTEX
  5
102
  8
DEFAULT
 10
148.7799823591472
 20
87.10408900947337
 30
0.0
  0
VERTEX
  5
103
  8
DEFAULT
 10
148.7991719932027
 20
87.11628734896864
 30
0.0
  0
VERTEX
  5
104
  8
DEFAULT
 10
148.8186089727068
 20
87.12795688372145
 30
0.0
  0
VERTEX
  5
105
  8
DEFAULT
 10
148.8382718304356
 20
87.13909106531459
 30
0.0
  0
VERTEX
  5
106
  8
DEFAULT
 10
148.8581389366798
 20
87.14968448207165
 30
0.0
  0
VERTEX
  5
107
  8
DEFAULT
 10
148.8781885725106
 20
87.1597328572444
 30
0.0
  0
VERTEX
  5
108
  8
DEFAULT
 10
148.8983990019111
 20
87.16923304171576
 30
0.0
  0
VERTEX
  5
109
  8
DEFAULT
 10
148.9187485423125
 20
87.17818300140999
 30
0.0
  0
VERTEX
  5
10A
  8
DEFAULT
 10
148.939215633106
 20
87.18658179964449
 30
0.0
  0
VERTEX
  5
10B
  8
DEFAULT
 10
148.95977890173
 20
87.19442957469376
 30
0.0
  0
VERTEX
  5
10C
  8
DEFAULT
 10
148.9804172269697
 20
87.20172751287024
 30
0.0
  0
VERTEX
  5
10D
  8
DEFAULT
 10
149.0011097991461
 20
87.20847781745422
 30
0.0
  0
VERTEX
  5
10E
  8
DEFAULT
 10
149.021836176909
 20
87.21468367382825
 30
0.0
  0
VERTEX
  5
10F
  8
DEFAULT
 10
149.0425763403915
 20
87.22034921118947
 30
0.0
  0
VERTEX
  5
110
  8
DEFAULT
 10
149.0633107405272
 20
87.22547946122697
 30
0.0
  0
VERTEX
  5
111
  8
DEFAULT
 10
149.0840203443716
 20
87.2300803141581
 30
0.0
  0
VERTEX
  5
112
  8
DEFAULT
 10
149.1046866763122
 20
87.23415847252232
 30
0.0
  0
VERTEX
  5
113
  8
DEFAULT
 10
149.1252918550929
 20
87.2377214031289
 30
0.0
  0
VERTEX
  5
114
  8
DEFAULT
 10
149.1458186266168
 20
87.24077728755006
 30
0.0
  0
VERTEX
  5
115
  8
DEFAULT
 10
149.1662503925289
 20
87.24333497154105
 30
0.0
  0
VERTEX
  5
116
  8
DEFAULT
 10
149.1865712346155
 20
87.24540391375682
 30
0.0
  0
VERTEX
  5
117
  8
DEFAULT
 10
149.2067659350894
 20
87.24699413411805
 30
0.0
  0
VERTEX
  5
118
  8
DEFAULT
 10
149.2268199928584
 20
87.24811616216131
 30
0.0
  0
VERTEX
  5
119
  8
DEFAULT
 10
149.2467196359025
 20
87.24878098568756
 30
0.0
  0
VERTEX
  5
11A
  8
DEFAULT
 10
149.2664518299065
 20
87.249
 30
0.0
  0
VERTEX
  5
11B
  8
DEFAULT
 10
155.8832518299065
 20
87.249
 30
0.0
  0
VERTEX
  5
11C
  8
DEFAULT
 10
157.6906518299065
 20
89.05640000000001
 30
0.0
 42
-0.1989026345414807
  0
VERTEX
  5
11D
  8
DEFAULT
 10
158.3192518299066
 20
89.31678732275033
 30
0.0
  0
SEQEND
  5
11E
  8
DEFAULT
  0
POLYLINE
  5
11F
  8
DEFAULT
 66
     1
 10
0.0
 20
0.0
 30
0.0
  0
VERTEX
  5
120
  8
DEFAULT
 10
155.1506518299066
 20
72.5464
 30
0.0
  0
VERTEX
  5
121
  8
DEFAULT
 10
155.1647590622437
 20
72.56019751882316
 30
0.0
  0
VERTEX
  5
122
  8
DEFAULT
 10
155.1792999212832
 20
72.57379823459887
 30
0.0
  0
VERTEX
  5
123
  8
DEFAULT
 10
155.1942732481017
 20
72.58718487402581
 30
0.0
  0
VERTEX
  5
124
  8
DEFAULT
 10
155.209677074015
 20
72.60033993030092
 30
0.0
  0
VERTEX
  5
125
  8
DEFAULT
 10
155.2255085907894
 20
72.6132457051144
 30
0.0
  0
VERTEX
  5
126
  8
DEFAULT
 10
155.2417641230831
 20
72.6258843537086
 30
0.0
  0
VERTEX
  5
127
  8
DEFAULT
 10
155.2584391034285
 20
72.63823793290001
 30
0.0
  0
VERTEX
  5
128
  8
DEFAULT
 10
155.2755280500662
 20
72.65028845192947
 30
0.0
  0
VERTEX
  5
129
  8
DEFAULT
 10
155.2930245479352
 20
72.66201792597413
 30
0.0
  0
VERTEX
  5
12A
  8
DEFAULT
 10
155.3109212331198
 20
72.67340843211986
 30
0.0
  0
VERTEX
  5
12B
  8
DEFAULT
 10
155.3292097810375
 20
72.6844421675588
 30
0.0
  0
VERTEX
  5
12C
  8
DEFAULT
 10
155.347880898642
 20
72.69510150974352
 30
0.0
  0
VERTEX
  5
12D
  8
DEFAULT
 10
155.36692432089
 20
72.70536907819591
 30
0.0
  0
VERTEX
  5
12E
  8
DEFAULT
 10
155.3863288117017
 20
72.71522779763706
 30
0.0
  0
VERTEX
  5
12F
  8
DEFAULT
 10
155.4060821696133
 20
72.7246609620755
 30
0.0
  0
VERTEX
  5
130
  8
DEFAULT
 10
155.4261712382893
 20
72.73365229946315
 30
0.0
  0
VERTEX
  5
131
  8
DEFAULT
 10
155.4465819220273
 20
72.74218603650388
 30
0.0
  0
VERTEX
  5
132
  8
DEFAULT
 10
155.4672992063469
 20
72.75024696318006
 30
0.0
  0
VERTEX
  5
133
  8
DEFAULT
 10
155.4883071837145
 20
72.75782049654396
 30
0.0
  0
VERTEX
  5
134
  8
DEFAULT
 10
155.5095890844084
 20
72.7648927433102
 30
0.0
  0
VERTEX
  5
135
  8
DEFAULT
 10
155.5311273124833
 20
72.77145056077728
 30
0.0
  0
VERTEX
  5
136
  8
DEFAULT
 10
155.552903486744
 20
72.77748161560461
 30
0.0
  0
VERTEX
  5
137
  8
DEFAULT
 10
155.5748984865886
 20
72.7829744399748
 30
0.0
  0
VERTEX
  5
138
  8
DEFAULT
 10
155.5970925025324
 20
72.78791848468049
 30
0.0
  0
VERTEX
  5
139
  8
DEFAULT
 10
155.6194650911735
 20
72.79230416869014
 30
0.0
  0
VERTEX
  5
13A
  8
DEFAULT
 10
155.6419952343141
 20
72.7961229247677
 30
0.0
  0
VERTEX
  5
13B
  8
DEFAULT
 10
155.6646614019072
 20
72.79936724074878
 30
0.0
  0
VERTEX
  5
13C
  8
DEFAULT
 10
155.6874416184515
 20
72.80203069610646
 30
0.0
  0
VERTEX
  5
13D
  8
DEFAULT
 10
155.7103135324225
 20
72.8041079934792
 30
0.0
  0
VERTEX
  5
13E
  8
DEFAULT
 10
155.7332544882894
 20
72.80559498487321
 30
0.0
  0
VERTEX
  5
13F
  8
DEFAULT
 10
155.7562416006398
 20
72.80648869229948
 30
0.0
  0
VERTEX
  5
140
  8
DEFAULT
 10
164.493625380983
 20
72.80679993929985
 30
0.0
 42
-1.966059017935557
  0
VERTEX
  5
141
  8
DEFAULT
 10
164.4936254642807
 20
71.02880000000002
 30
0.0
  0
VERTEX
  5
142
  8
DEFAULT
 10
156.1474518299066
 20
71.02879999999999
 30
0.0
  0
VERTEX
  5
143
  8
DEFAULT
 10
155.2354519386254
 20
70.11680010871888
 30
0.0
  0
VERTEX
  5
144
  8
DEFAULT
 10
155.2354518299066
 20
54.61
 30
0.0
 42
-0.200875956226527
  0
VERTEX
  5
145
  8
DEFAULT
 10
154.9703041939827
 20
53.97665236415013
 30
0.0
  0
VERTEX
  5
146
  8
DEFAULT
 10
153.7050518299066
 20
52.7114
 30
0.0
  0
VERTEX
  5
147
  8
DEFAULT
 10
153.6909446008368
 20
52.69760248444361
 30
0.0
  0
VERTEX
  5
148
  8
DEFAULT
 10
153.6764037449707
 20
52.68400177183678
 30
0.0
  0
VERTEX
  5
149
  8
DEFAULT
 10
153.6614304212228
 20
52.67061513546831
 30
0.0
  0
VERTEX
  5
14A
  8
DEFAULT
 10
153.6460265982678
 20
52.65746008212859
 30
0.0
  0
VERTEX
  5
14B
  8
DEFAULT
 10
153.6301950843298
 20
52.64455431011472
 30
0.0
  0
VERTEX
  5
14C
  8
DEFAULT
 10
153.6139395547401
 20
52.63191566417134
 30
0.0
  0
VERTEX
  5
14D
  8
DEFAULT
 10
153.5972645769556
 20
52.61956208746911
 30
0.0
  0
VERTEX
  5
14E
  8
DEFAULT
 10
153.5801756327243
 20
52.60751157075427
 30
0.0
  0
VERTEX
  5
14F
  8
DEFAULT
 10
153.5626791370954
 20
52.59578209883686
 30
0.0
  0
VERTEX
  5
150
  8
DEFAULT
 10
153.5447824539724
 20
52.58439159461842
 30
0.0
  0
VERTEX
  5
151
  8
DEFAULT
 10
153.526493907925
 20
52.57335786089438
 30
0.0
  0
VERTEX
  5
152
  8
DEFAULT
 10
153.5078227919868
 20
52.5626985202001
 30
0.0
  0
VERTEX
  5
153
  8
DEFAULT
 10
153.4887793711874
 20
52.55243095300203
 30
0.0
  0
VERTEX
  5
154
  8
DEFAULT
 10
153.4693748815929
 20
52.54257223456785
 30
0.0
  0
VERTEX
  5
155
  8
DEFAULT
 10
153.4496215246533
 20
52.53313907087837
 30
0.0
  0
VERTEX
  5
156
  8
DEFAULT
 10
153.4295324566897
 20
52.5241477339717
 30
0.0
  0
VERTEX
  5
157
  8
DEFAULT
 10
153.4091217733904
 20
52.51561399713459
 30
0.0
  0
VERTEX
  5
158
  8
DEFAULT
 10
153.3884044892214
 20
52.5075530703762
 30
0.0
  0
VERTEX
  5
159
  8
DEFAULT
 10
153.3673965117017
 20
52.49997953663654
 30
0.0
  0
VERTEX
  5
15A
  8
DEFAULT
 10
153.3461146105387
 20
52.49290728919424
 30
0.0
  0
VERTEX
  5
15B
  8
DEFAULT
 10
153.3245763816636
 20
52.48634947074503
 30
0.0
  0
VERTEX
  5
15C
  8
DEFAULT
 10
153.3028002062576
 20
52.4803184146248
 30
0.0
  0
VERTEX
  5
15D
  8
DEFAULT
 10
153.2808052049088
 20
52.4748255886473
 30
0.0
  0
VERTEX
  5
15E
  8
DEFAULT
 10
153.2586111870887
 20
52.4698815420174
 30
0.0
  0
VERTEX
  5
15F
  8
DEFAULT
 10
153.2362385961864
 20
52.46549585576538
 30
0.0
  0
VERTEX
  5
160
  8
DEFAULT
 10
153.2137084503873
 20
52.46167709712712
 30
0.0
  0
VERTEX
  5
161
  8
DEFAULT
 10
153.1910422797268
 20
52.4584327782683
 30
0.0
  0
VERTEX
  5
162
  8
DEFAULT
 10
153.1682620596953
 20
52.45576931971816
 30
0.0
  0
VERTEX
  5
163
  8
DEFAULT
 10
153.1453901418074
 20
52.45369201884196
 30
0.0
  0
VERTEX
  5
164
  8
DEFAULT
 10
153.1224491815846
 20
52.45220502363836
 30
0.0
  0
VERTEX
  5
165
  8
DEFAULT
 10
153.099462064431
 20
52.45131131210259
 30
0.0
  0
VERTEX
  5
166
  8
DEFAULT
 10
149.9142786984991
 20
52.45100036651882
 30
0.0
 42
-1.966059592134972
  0
VERTEX
  5
167
  8
DEFAULT
 10
149.9142781955323
 20
54.22899999999996
 30
0.0
  0
VERTEX
  5
168
  8
DEFAULT
 10
152.7082518299066
 20
54.229
 30
0.0
  0
VERTEX
  5
169
  8
DEFAULT
 10
153.4574518299066
 20
54.9782
 30
0.0
  0
VERTEX
  5
16A
  8
DEFAULT
 10
153.4577631422046
 20
70.50801037534961
 30
0.0
  0
VERTEX
  5
16B
  8
DEFAULT
 10
153.4586568543261
 20
70.53099748409635
 30
0.0
  0
VERTEX
  5
16C
  8
DEFAULT
 10
153.4601438505046
 20
70.55393843656171
 30
0.0
  0
VERTEX
  5
16D
  8
DEFAULT
 10
153.462221152743
 20
70.57681034734772
 30
0.0
  0
VERTEX
  5
16E
  8
DEFAULT
 10
153.4648846130399
 20
70.59959056093776
 30
0.0
  0
VERTEX
  5
16F
  8
DEFAULT
 10
153.4681289340265
 20
70.62225672582076
 30
0.0
  0
VERTEX
  5
170
  8
DEFAULT
 10
153.4719476951695
 20
70.64478686650843
 30
0.0
  0
VERTEX
  5
171
  8
DEFAULT
 10
153.476333384298
 20
70.667159452966
 30
0.0
  0
VERTEX
  5
172
  8
DEFAULT
 10
153.4812774341708
 20
70.68935346700772
 30
0.0
  0
VERTEX
  5
173
  8
DEFAULT
 10
153.4867702637511
 20
70.71134846524248
 30
0.0
  0
VERTEX
  5
174
  8
DEFAULT
 10
153.4928013238273
 20
70.73312463819566
 30
0.0
  0
VERTEX
  5
175
  8
DEFAULT
 10
153.4993591465781
 20
70.75466286527478
 30
0.0
  0
VERTEX
  5
176
  8
DEFAULT
 10
153.5064313986594
 20
70.77594476529293
 30
0.0
  0
VERTEX
  5
177
  8
DEFAULT
 10
153.5140049373669
 20
70.79695274231226
 30
0.0
  0
VERTEX
  5
178
  8
DEFAULT
 10
153.5220658694129
 20
70.8176700266174
 30
0.0
  0
VERTEX
  5
179
  8
DEFAULT
 10
153.5305996118478
 20
70.83808071068017
 30
0.0
  0
VERTEX
  5
17A
  8
DEFAULT
 10
153.5395909546524
 20
70.85816978002455
 30
0.0
  0
VERTEX
  5
17B
  8
DEFAULT
 10
153.5490241245297
 20
70.87792313895139
 30
0.0
  0
VERTEX
  5
17C
  8
DEFAULT
 10
153.5588828494309
 20
70.89732763112744
 30
0.0
  0
VERTEX
  5
17D
  8
DEFAULT
 10
153.5691504233642
 20
70.91637105509001
 30
0.0
  0
VERTEX
  5
17E
  8
DEFAULT
 10
153.5798097710507
 20
70.93504217475947
 30
0.0
  0
VERTEX
  5
17F
  8
DEFAULT
 10
153.5908435120126
 20
70.9533307250917
 30
0.0
  0
VERTEX
  5
180
  8
DEFAULT
 10
153.6022340237029
 20
70.97122741303835
 30
0.0
  0
VERTEX
  5
181
  8
DEFAULT
 10
153.6139635033146
 20
70.98872391401422
 30
0.0
  0
VERTEX
  5
182
  8
DEFAULT
 10
153.6260140279344
 20
71.00581286409958
 30
0.0
  0
VERTEX
  5
183
  8
DEFAULT
 10
153.6383676127403
 20
71.02248784822892
 30
0.0
  0
VERTEX
  5
184
  8
DEFAULT
 10
153.6510062669745
 20
71.03874338463712
 30
0.0
  0
VERTEX
  5
185
  8
DEFAULT
 10
153.6639120474543
 20
71.05457490585033
 30
0.0
  0
VERTEX
  5
186
  8
DEFAULT
 10
153.6770671094236
 20
71.06997873651953
 30
0.0
  0
VERTEX
  5
187
  8
DEFAULT
 10
153.6904537545735
 20
71.08495206840307
 30
0.0
  0
VERTEX
  5
188
  8
DEFAULT
 10
153.7040544761023
 20
71.0994929328084
 30
0.0
  0
VERTEX
  5
189
  8
DEFAULT
 10
153.7178520007097
 20
71.11360017080307
 30
0.0
  0
VERTEX
  5
18A
  8
DEFAULT
 10
155.1506518299066
 20
72.5464
 30
0.0
  0
SEQEND
  5
18B
  8
DEFAULT
  0
POLYLINE
  5
18C
  8
DEFAULT
 66
     1
 10
0.0
 20
0.0
 30
0.0
  0
VERTEX
  5
18D
  8
DEFAULT
 10
157.0100518299066
 20
68.6908
 30
0.0
  0
VERTEX
  5
18E
  8
DEFAULT
 10
157.0241590589763
 20
68.70459751555639
 30
0.0
  0
VERTEX
  5
18F
  8
DEFAULT
 10
157.0386999148424
 20
68.71819822816322
 30
0.0
  0
VERTEX
  5
190
  8
DEFAULT
 10
157.0536732385903
 20
68.73158486453168
 30
0.0
  0
VERTEX
  5
191
  8
DEFAULT
 10
157.0690770615453
 20
68.7447399178714
 30
0.0
  0
VERTEX
  5
192
  8
DEFAULT
 10
157.0849085754834
 20
68.75764568988528
 30
0.0
  0
VERTEX
  5
193
  8
DEFAULT
 10
157.101164105073
 20
68.77028433582866
 30
0.0
  0
VERTEX
  5
194
  8
DEFAULT
 10
157.1178390828575
 20
68.78263791253087
 30
0.0
  0
VERTEX
  5
195
  8
DEFAULT
 10
157.1349280270888
 20
68.79468842924571
 30
0.0
  0
VERTEX
  5
196
  8
DEFAULT
 10
157.1524245227178
 20
68.80641790116312
 30
0.0
  0
VERTEX
  5
197
  8
DEFAULT
 10
157.1703212058408
 20
68.81780840538157
 30
0.0
  0
VERTEX
  5
198
  8
DEFAULT
 10
157.1886097518881
 20
68.8288421391056
 30
0.0
  0
VERTEX
  5
199
  8
DEFAULT
 10
157.2072808678263
 20
68.83950147979989
 30
0.0
  0
VERTEX
  5
19A
  8
DEFAULT
 10
157.2263242886257
 20
68.84976904699795
 30
0.0
  0
VERTEX
  5
19B
  8
DEFAULT
 10
157.2457287782202
 20
68.85962776543214
 30
0.0
  0
VERTEX
  5
19C
  8
DEFAULT
 10
157.2654821351599
 20
68.86906092912163
 30
0.0
  0
VERTEX
  5
19D
  8
DEFAULT
 10
157.2855712031234
 20
68.87805226602829
 30
0.0
  0
VERTEX
  5
19E
  8
DEFAULT
 10
157.3059818864227
 20
68.8865860028654
 30
0.0
  0
VERTEX
  5
19F
  8
DEFAULT
 10
157.3266991705918
 20
68.89464692962379
 30
0.0
  0
VERTEX
  5
1A0
  8
DEFAULT
 10
157.3477071481115
 20
68.90222046336346
 30
0.0
  0
VERTEX
  5
1A1
  8
DEFAULT
 10
157.3689890492744
 20
68.90929271080574
 30
0.0
  0
VERTEX
  5
1A2
  8
DEFAULT
 10
157.3905272781495
 20
68.91585052925497
 30
0.0
  0
VERTEX
  5
1A3
  8
DEFAULT
 10
157.4123034535555
 20
68.9218815853752
 30
0.0
  0
VERTEX
  5
1A4
  8
DEFAULT
 10
157.4342984549043
 20
68.9273744113527
 30
0.0
  0
VERTEX
  5
1A5
  8
DEFAULT
 10
157.4564924727244
 20
68.9323184579826
 30
0.0
  0
VERTEX
  5
1A6
  8
DEFAULT
 10
157.4788650636267
 20
68.93670414423464
 30
0.0
  0
VERTEX
  5
1A7
  8
DEFAULT
 10
157.5013952094259
 20
68.9405229028729
 30
0.0
  0
VERTEX
  5
1A8
  8
DEFAULT
 10
157.5240613800864
 20
68.94376722173172
 30
0.0
  0
VERTEX
  5
1A9
  8
DEFAULT
 10
157.5468416001178
 20
68.94643068028185
 30
0.0
  0
VERTEX
  5
1AA
  8
DEFAULT
 10
157.5697135180057
 20
68.94850798115803
 30
0.0
  0
VERTEX
  5
1AB
  8
DEFAULT
 10
157.5926544782286
 20
68.94999497636165
 30
0.0
  0
VERTEX
  5
1AC
  8
DEFAULT
 10
157.6156415953822
 20
68.95088868789745
 30
0.0
  0
VERTEX
  5
1AD
  8
DEFAULT
 10
164.4936253345801
 20
68.95119990548534
 30
0.0
 42
-1.966059081424933
  0
VERTEX
  5
1AE
  8
DEFAULT
 10
164.4936254642807
 20
67.1731999999999
 30
0.0
  0
VERTEX
  5
1AF
  8
DEFAULT
 10
158.0068518299066
 20
67.1732
 30
0.0
  0
VERTEX
  5
1B0
  8
DEFAULT
 10
157.7754518299066
 20
66.9418
 30
0.0
  0
VERTEX
  5
1B1
  8
DEFAULT
 10
157.7751405178039
 20
52.68198962484578
 30
0.0
  0
VERTEX
  5
1B2
  8
DEFAULT
 10
157.7742468062682
 20
52.65900251668481
 30
0.0
  0
VERTEX
  5
1B3
  8
DEFAULT
 10
157.7727598110646
 20
52.63606156519439
 30
0.0
  0
VERTEX
  5
1B4
  8
DEFAULT
 10
157.7706825101884
 20
52.6131896557706
 30
0.0
  0
VERTEX
  5
1B5
  8
DEFAULT
 10
157.7680190516382
 20
52.59040944392731
 30
0.0
  0
VERTEX
  5
1B6
  8
DEFAULT
 10
157.7647747327794
 20
52.56774328117211
 30
0.0
  0
VERTEX
  5
1B7
  8
DEFAULT
 10
157.7609559741412
 20
52.54521314298908
 30
0.0
  0
VERTEX
  5
1B8
  8
DEFAULT
 10
157.7565702878891
 20
52.52284055940805
 30
0.0
  0
VERTEX
  5
1B9
  8
DEFAULT
 10
157.7516262412592
 20
52.50064654860921
 30
0.0
  0
VERTEX
  5
1BA
  8
DEFAULT
 10
157.7461334152817
 20
52.4786515539773
 30
0.0
  0
VERTEX
  5
1BB
  8
DEFAULT
 10
157.7401023591615
 20
52.45687538498005
 30
0.0
  0
VERTEX
  5
1BC
  8
DEFAULT
 10
157.7335445407123
 20
52.43533716220248
 30
0.0
  0
VERTEX
  5
1BD
  8
DEFAULT
 10
157.72647229327
 20
52.41405526682333
 30
0.0
  0
VERTEX
  5
1BE
  8
DEFAULT
 10
157.7188987595303
 20
52.39304729477185
 30
0.0
  0
VERTEX
  5
1BF
  8
DEFAULT
 10
157.7108378327719
 20
52.37233001575429
 30
0.0
  0
VERTEX
  5
1C0
  8
DEFAULT
 10
157.7023040959348
 20
52.35191933728931
 30
0.0
  0
VERTEX
  5
1C1
  8
DEFAULT
 10
157.6933127590282
 20
52.33183027384291
 30
0.0
  0
VERTEX
  5
1C2
  8
DEFAULT
 10
157.6838795953387
 20
52.31207692110391
 30
0.0
  0
VERTEX
  5
1C3
  8
DEFAULT
 10
157.6740208769045
 20
52.29267243539486
 30
0.0
  0
VERTEX
  5
1C4
  8
DEFAULT
 10
157.6637533097065
 20
52.2736290181675
 30
0.0
  0
VERTEX
  5
1C5
  8
DEFAULT
 10
157.6530939690122
 20
52.25495790549028
 30
0.0
  0
VERTEX
  5
1C6
  8
DEFAULT
 10
157.6420602352881
 20
52.23666936239589
 30
0.0
  0
VERTEX
  5
1C7
  8
DEFAULT
 10
157.6306697310697
 20
52.21877268192115
 30
0.0
  0
VERTEX
  5
1C8
  8
DEFAULT
 10
157.6189402591523
 20
52.20127618863957
 30
0.0
  0
VERTEX
  5
1C9
  8
DEFAULT
 10
157.6068897424375
 20
52.1841872464591
 30
0.0
  0
VERTEX
  5
1CA
  8
DEFAULT
 10
157.5945361657352
 20
52.16751227043351
 30
0.0
  0
VERTEX
  5
1CB
  8
DEFAULT
 10
157.5818975197918
 20
52.15125674231604
 30
0.0
  0
VERTEX
  5
1CC
  8
DEFAULT
 10
157.568991747778
 20
52.13542522956882
 30
0.0
  0
VERTEX
  5
1CD
  8
DEFAULT
 10
157.5558366944383
 20
52.12002140752917
 30
0.0
  0
VERTEX
  5
1CE
  8
DEFAULT
 10
157.5424500580698
 20
52.10504808442707
 30
0.0
  0
VERTEX
  5
1CF
  8
DEFAULT
 10
157.5288493454629
 20
52.09050722894363
 30
0.0
  0
VERTEX
  5
1D0
  8
DEFAULT
 10
157.5150518299066
 20
52.07639999999999
 30
0.0
  0
VERTEX
  5
1D1
  8
DEFAULT
 10
155.6147994657959
 20
50.17614763588939
 30
0.0
 42
-0.2008759561908178
  0
VERTEX
  5
1D2
  8
DEFAULT
 10
154.9814518299066
 20
49.911
 30
0.0
  0
VERTEX
  5
1D3
  8
DEFAULT
 10
149.9142781955324
 20
49.911
 30
0.0
 42
-1.966058903965839
  0
VERTEX
  5
1D4
  8
DEFAULT
 10
149.9142781955324
 20
51.68899999999999
 30
0.0
  0
VERTEX
  5
1D5
  8
DEFAULT
 10
154.6132518299065
 20
51.689
 30
0.0
  0
VERTEX
  5
1D6
  8
DEFAULT
 10
155.9974518299066
 20
53.07320000000001
 30
0.0
  0
VERTEX
  5
1D7
  8
DEFAULT
 10
155.9974518299066
 20
67.31
 30
0.0
 42
-0.200875956226834
  0
VERTEX
  5
1D8
  8
DEFAULT
 10
156.2625994658313
 20
67.94334763585073
 30
0.0
  0
VERTEX
  5
1D9
  8
DEFAULT
 10
157.0100518299066
 20
68.6908
 30
0.0
  0
SEQEND
  5
1DA
  8
DEFAULT
  0
POLYLINE
  5
1DB
  8
DEFAULT
 66
     1
 10
0.0
 20
0.0
 30
0.0
  0
VERTEX
  5
1DC
  8
DEFAULT
 10
160.8592518299066
 20
56.29678732261527
 30
0.0
  0
VERTEX
  5
1DD
  8
DEFAULT
 10
164.493625066123
 20
56.29679970983221
 30
0.0
 42
-1.966059448733487
  0
VERTEX
  5
1DE
  8
DEFAULT
 10
164.4936254642807
 20
54.51880000000003
 30
0.0
  0
VERTEX
  5
1DF
  8
DEFAULT
 10
161.2274518299066
 20
54.5188
 30
0.0
  0
VERTEX
  5
1E0
  8
DEFAULT
 10
160.3154518299066
 20
53.6068
 30
0.0
  0
VERTEX
  5
1E1
  8
DEFAULT
 10
160.315140517804
 20
51.41198962484577
 30
0.0
  0
VERTEX
  5
1E2
  8
DEFAULT
 10
160.3142468062682
 20
51.38900251668481
 30
0.0
  0
VERTEX
  5
1E3
  8
DEFAULT
 10
160.3127598110646
 20
51.36606156519439
 30
0.0
  0
VERTEX
  5
1E4
  8
DEFAULT
 10
160.3106825101884
 20
51.34318965577061
 30
0.0
  0
VERTEX
  5
1E5
  8
DEFAULT
 10
160.3080190516383
 20
51.32040944392732
 30
0.0
  0
VERTEX
  5
1E6
  8
DEFAULT
 10
160.3047747327795
 20
51.29774328117212
 30
0.0
  0
VERTEX
  5
1E7
  8
DEFAULT
 10
160.3009559741412
 20
51.2752131429891
 30
0.0
  0
VERTEX
  5
1E8
  8
DEFAULT
 10
160.2965702878892
 20
51.25284055940806
 30
0.0
  0
VERTEX
  5
1E9
  8
DEFAULT
 10
160.2916262412592
 20
51.23064654860921
 30
0.0
  0
VERTEX
  5
1EA
  8
DEFAULT
 10
160.2861334152818
 20
51.20865155397731
 30
0.0
  0
VERTEX
  5
1EB
  8
DEFAULT
 10
160.2801023591615
 20
51.18687538498008
 30
0.0
  0
VERTEX
  5
1EC
  8
DEFAULT
 10
160.2735445407124
 20
51.1653371622025
 30
0.0
  0
VERTEX
  5
1ED
  8
DEFAULT
 10
160.26647229327
 20
51.14405526682333
 30
0.0
  0
VERTEX
  5
1EE
  8
DEFAULT
 10
160.2588987595304
 20
51.12304729477187
 30
0.0
  0
VERTEX
  5
1EF
  8
DEFAULT
 10
160.250837832772
 20
51.10233001575431
 30
0.0
  0
VERTEX
  5
1F0
  8
DEFAULT
 10
160.2423040959349
 20
51.08191933728933
 30
0.0
  0
VERTEX
  5
1F1
  8
DEFAULT
 10
160.2333127590282
 20
51.06183027384293
 30
0.0
  0
VERTEX
  5
1F2
  8
DEFAULT
 10
160.2238795953387
 20
51.04207692110393
 30
0.0
  0
VERTEX
  5
1F3
  8
DEFAULT
 10
160.2140208769045
 20
51.02267243539487
 30
0.0
  0
VERTEX
  5
1F4
  8
DEFAULT
 10
160.2037533097064
 20
51.00362901816751
 30
0.0
  0
VERTEX
  5
1F5
  8
DEFAULT
 10
160.1930939690121
 20
50.98495790549028
 30
0.0
  0
VERTEX
  5
1F6
  8
DEFAULT
 10
160.1820602352881
 20
50.9666693623959
 30
0.0
  0
VERTEX
  5
1F7
  8
DEFAULT
 10
160.1706697310697
 20
50.94877268192116
 30
0.0
  0
VERTEX
  5
1F8
  8
DEFAULT
 10
160.1589402591523
 20
50.93127618863958
 30
0.0
  0
VERTEX
  5
1F9
  8
DEFAULT
 10
160.1468897424374
 20
50.91418724645909
 30
0.0
  0
VERTEX
  5
1FA
  8
DEFAULT
 10
160.1345361657352
 20
50.8975122704335
 30
0.0
  0
VERTEX
  5
1FB
  8
DEFAULT
 10
160.1218975197918
 20
50.88125674231604
 30
0.0
  0
VERTEX
  5
1FC
  8
DEFAULT
 10
160.108991747778
 20
50.86542522956881
 30
0.0
  0
VERTEX
  5
1FD
  8
DEFAULT
 10
160.0958366944382
 20
50.85002140752916
 30
0.0
  0
VERTEX
  5
1FE
  8
DEFAULT
 10
160.0824500580698
 20
50.83504808442706
 30
0.0
  0
VERTEX
  5
1FF
  8
DEFAULT
 10
160.068849345463
 20
50.82050722894364
 30
0.0
  0
VERTEX
  5
200
  8
DEFAULT
 10
160.0550518299066
 20
50.80639999999999
 30
0.0
  0
VERTEX
  5
201
  8
DEFAULT
 10
156.8847994657943
 20
47.63614763588776
 30
0.0
 42
-0.2008759561870735
  0
VERTEX
  5
202
  8
DEFAULT
 10
156.2514518299066
 20
47.37100000000001
 30
0.0
  0
VERTEX
  5
203
  8
DEFAULT
 10
149.9142781955324
 20
47.37100000000003
 30
0.0
 42
-1.966058903966104
  0
VERTEX
  5
204
  8
DEFAULT
 10
149.9142781955324
 20
49.14899999999998
 30
0.0
  0
VERTEX
  5
205
  8
DEFAULT
 10
155.8832518299066
 20
49.14900000000001
 30
0.0
  0
VERTEX
  5
206
  8
DEFAULT
 10
158.5374518299066
 20
51.8032
 30
0.0
  0
VERTEX
  5
207
  8
DEFAULT
 10
158.5374518299066
 20
53.975
 30
0.0
 42
-0.200875956227854
  0
VERTEX
  5
208
  8
DEFAULT
 10
158.8025994658337
 20
54.60834763585306
 30
0.0
  0
VERTEX
  5
209
  8
DEFAULT
 10
160.2306518299065
 20
56.03640000000001
 30
0.0
 42
-0.1989026346447277
  0
VERTEX
  5
20A
  8
DEFAULT
 10
160.8592518299066
 20
56.29678732261527
 30
0.0
  0
SEQEND
  5
20B
  8
DEFAULT
  0
POLYLINE
  5
20C
  8
DEFAULT
 66
     1
 10
0.0
 20
0.0
 30
0.0
  0
VERTEX
  5
20D
  8
DEFAULT
 10
128.9898782664818
 20
38.76562643657518
 30
0.0
 42
-0.4060810805385404
  0
VERTEX
  5
20E
  8
DEFAULT
 10
130.0894520153527
 20
39.83499999999997
 30
0.0
  0
VERTEX
  5
20F
  8
DEFAULT
 10
131.6134516444598
 20
39.83499999999997
 30
0.0
 42
-0.999999999999987
  0
VERTEX
  5
210
  8
DEFAULT
 10
131.6134520153533
 20
37.63500000000001
 30
0.0
  0
VERTEX
  5
211
  8
DEFAULT
 10
130.3736518299066
 20
37.63500000000001
 30
0.0
  0
VERTEX
  5
212
  8
DEFAULT
 10
124.3181588479711
 20
31.57950701806455
 30
0.0
 42
-0.3257262024398079
  0
VERTEX
  5
213
  8
DEFAULT
 10
123.401944811842
 20
30.66329298193545
 30
0.0
  0
VERTEX
  5
214
  8
DEFAULT
 10
117.3778518299066
 20
24.6392
 30
0.0
  0
VERTEX
  5
215
  8
DEFAULT
 10
117.3637446009629
 20
24.62540248444363
 30
0.0
  0
VERTEX
  5
216
  8
DEFAULT
 10
117.3492037454795
 20
24.61180177183679
 30
0.0
  0
VERTEX
  5
217
  8
DEFAULT
 10
117.3342304223774
 20
24.59841513546831
 30
0.0
  0
VERTEX
  5
218
  8
DEFAULT
 10
117.3188266003378
 20
24.5852600821286
 30
0.0
  0
VERTEX
  5
219
  8
DEFAULT
 10
117.3029950875905
 20
24.57235431011472
 30
0.0
  0
VERTEX
  5
21A
  8
DEFAULT
 10
117.2867395594731
 20
24.55971566417134
 30
0.0
  0
VERTEX
  5
21B
  8
DEFAULT
 10
117.2700645834475
 20
24.54736208746911
 30
0.0
  0
VERTEX
  5
21C
  8
DEFAULT
 10
117.252975641267
 20
24.53531157075428
 30
0.0
  0
VERTEX
  5
21D
  8
DEFAULT
 10
117.2354791479854
 20
24.52358209883688
 30
0.0
  0
VERTEX
  5
21E
  8
DEFAULT
 10
117.2175824675106
 20
24.51219159461843
 30
0.0
  0
VERTEX
  5
21F
  8
DEFAULT
 10
117.1992939244162
 20
24.50115786089439
 30
0.0
  0
VERTEX
  5
220
  8
DEFAULT
 10
117.180622811739
 20
24.4904985202001
 30
0.0
  0
VERTEX
  5
221
  8
DEFAULT
 10
117.1615793945117
 20
24.48023095300203
 30
0.0
  0
VERTEX
  5
222
  8
DEFAULT
 10
117.1421749088027
 20
24.47037223456786
 30
0.0
  0
VERTEX
  5
223
  8
DEFAULT
 10
117.1224215560636
 20
24.46093907087837
 30
0.0
  0
VERTEX
  5
224
  8
DEFAULT
 10
117.1023324926172
 20
24.4519477339717
 30
0.0
  0
VERTEX
  5
225
  8
DEFAULT
 10
117.0819218141523
 20
24.44341399713461
 30
0.0
  0
VERTEX
  5
226
  8
DEFAULT
 10
117.0612045351347
 20
24.43535307037621
 30
0.0
  0
VERTEX
  5
227
  8
DEFAULT
 10
117.0401965630832
 20
24.42777953663655
 30
0.0
  0
VERTEX
  5
228
  8
DEFAULT
 10
117.0189146677041
 20
24.42070728919425
 30
0.0
  0
VERTEX
  5
229
  8
DEFAULT
 10
116.9973764449265
 20
24.41414947074504
 30
0.0
  0
VERTEX
  5
22A
  8
DEFAULT
 10
116.9756002759293
 20
24.40811841462481
 30
0.0
  0
VERTEX
  5
22B
  8
DEFAULT
 10
116.9536052812974
 20
24.40262558864731
 30
0.0
  0
VERTEX
  5
22C
  8
DEFAULT
 10
116.9314112704985
 20
24.39768154201741
 30
0.0
  0
VERTEX
  5
22D
  8
DEFAULT
 10
116.9090386869175
 20
24.39329585576537
 30
0.0
  0
VERTEX
  5
22E
  8
DEFAULT
 10
116.8865085487345
 20
24.38947709712712
 30
0.0
  0
VERTEX
  5
22F
  8
DEFAULT
 10
116.8638423859793
 20
24.3862327782683
 30
0.0
  0
VERTEX
  5
230
  8
DEFAULT
 10
116.841062174136
 20
24.38356931971817
 30
0.0
  0
VERTEX
  5
231
  8
DEFAULT
 10
116.8181902647122
 20
24.38149201884197
 30
0.0
  0
VERTEX
  5
232
  8
DEFAULT
 10
116.7952493132217
 20
24.38000502363838
 30
0.0
  0
VERTEX
  5
233
  8
DEFAULT
 10
116.7722622050607
 20
24.3791113121026
 30
0.0
  0
VERTEX
  5
234
  8
DEFAULT
 10
114.7732518299066
 20
24.3788
 30
0.0
  0
VERTEX
  5
235
  8
DEFAULT
 10
114.7732518299066
 20
17.15782636562587
 30
0.0
 42
-0.3257045578812724
  0
VERTEX
  5
236
  8
DEFAULT
 10
114.7732518299065
 20
15.86217363437412
 30
0.0
  0
VERTEX
  5
237
  8
DEFAULT
 10
114.7732518299066
 20
14.16040000000001
 30
0.0
  0
VERTEX
  5
238
  8
DEFAULT
 10
116.6146518299066
 20
12.319
 30
0.0
  0
VERTEX
  5
239
  8
DEFAULT
 10
120.4374665520003
 20
12.319
 30
0.0
  0
VERTEX
  5
23A
  8
DEFAULT
 10
120.437451837389
 20
16.24178781540636
 30
0.0
 42
-1.800916345663615
  0
VERTEX
  5
23B
  8
DEFAULT
 10
122.2154505764147
 20
15.67083592606937
 30
0.0
 42
-0.0000224634821671
  0
VERTEX
  5
23C
  8
DEFAULT
 10
122.2152725106353
 20
12.319
 30
0.0
  0
VERTEX
  5
23D
  8
DEFAULT
 10
128.0574665520002
 20
12.319
 30
0.0
  0
VERTEX
  5
23E
  8
DEFAULT
 10
128.057451837389
 20
16.24178781540632
 30
0.0
 42
-1.80091634566256
  0
VERTEX
  5
23F
  8
DEFAULT
 10
129.8354505764093
 20
15.67083592607354
 30
0.0
 42
-0.0000224634871321
  0
VERTEX
  5
240
  8
DEFAULT
 10
129.8352725106379
 20
12.319
 30
0.0
  0
VERTEX
  5
241
  8
DEFAULT
 10
135.8552518299065
 20
12.319
 30
0.0
  0
VERTEX
  5
242
  8
DEFAULT
 10
135.8552518299066
 20
15.86217363437416
 30
0.0
 42
-1.966058903966154
  0
VERTEX
  5
243
  8
DEFAULT
 10
137.6332518299065
 20
15.86217363437415
 30
0.0
  0
VERTEX
  5
244
  8
DEFAULT
 10
137.6332518299065
 20
12.319
 30
0.0
  0
VERTEX
  5
245
  8
DEFAULT
 10
141.9132518299065
 20
12.319
 30
0.0
  0
VERTEX
  5
246
  8
DEFAULT
 10
143.4752518299065
 20
13.88100000000001
 30
0.0
  0
VERTEX
  5
247
  8
DEFAULT
 10
143.4752518299065
 20
15.86217363437414
 30
0.0
 42
-1.966060015990369
  0
VERTEX
  5
248
  8
DEFAULT
 10
145.2532512376424
 20
15.86217282162198
 30
0.0
  0
VERTEX
  5
249
  8
DEFAULT
 10
145.2529405222061
 20
13.48979010598925
 30
0.0
  0
VERTEX
  5
24A
  8
DEFAULT
 10
145.2520468147798
 20
13.46680297220051
 30
0.0
  0
VERTEX
  5
24B
  8
DEFAULT
 10
145.2505598233858
 20
13.44386199551582
 30
0.0
  0
VERTEX
  5
24C
  8
DEFAULT
 10
145.248482526013
 20
13.42099006136691
 30
0.0
  0
VERTEX
  5
24D
  8
DEFAULT
 10
145.2458190706553
 20
13.39820982530232
 30
0.0
  0
VERTEX
  5
24E
  8
DEFAULT
 10
145.2425747546743
 20
13.37554363886323
 30
0.0
  0
VERTEX
  5
24F
  8
DEFAULT
 10
145.2387559985967
 20
13.35301347756604
 30
0.0
  0
VERTEX
  5
250
  8
DEFAULT
 10
145.234370314587
 20
13.3306408714715
 30
0.0
  0
VERTEX
  5
251
  8
DEFAULT
 10
145.2294262698813
 20
13.30844683878921
 30
0.0
  0
VERTEX
  5
252
  8
DEFAULT
 10
145.2239334455112
 20
13.28645182293173
 30
0.0
  0
VERTEX
  5
253
  8
DEFAULT
 10
145.2179023906838
 20
13.26467563339282
 30
0.0
  0
VERTEX
  5
254
  8
DEFAULT
 10
145.2113445732168
 20
13.24313739078174
 30
0.0
  0
VERTEX
  5
255
  8
DEFAULT
 10
145.2042723264505
 20
13.22185547629954
 30
0.0
  0
VERTEX
  5
256
  8
DEFAULT
 10
145.1966987930866
 20
13.20084748589586
 30
0.0
  0
VERTEX
  5
257
  8
DEFAULT
 10
145.1886378664104
 20
13.1801301892952
 30
0.0
  0
VERTEX
  5
258
  8
DEFAULT
 10
145.1801041293697
 20
13.15971949403248
 30
0.0
  0
VERTEX
  5
259
  8
DEFAULT
 10
145.1711127919821
 20
13.13963041458781
 30
0.0
  0
VERTEX
  5
25A
  8
DEFAULT
 10
145.1616796275436
 20
13.11987704666205
 30
0.0
  0
VERTEX
  5
25B
  8
DEFAULT
 10
145.1518209081025
 20
13.10047254658762
 30
0.0
  0
VERTEX
  5
25C
  8
DEFAULT
 10
145.1415533396501
 20
13.081429115824
 30
0.0
  0
VERTEX
  5
25D
  8
DEFAULT
 10
145.1308939974653
 20
13.06275799044534
 30
0.0
  0
VERTEX
  5
25E
  8
DEFAULT
 10
145.1198602620264
 20
13.04446943548791
 30
0.0
  0
VERTEX
  5
25F
  8
DEFAULT
 10
145.1084697558807
 20
13.0265727439901
 30
0.0
  0
VERTEX
  5
260
  8
DEFAULT
 10
145.096740281836
 20
13.00907624052503
 30
0.0
  0
VERTEX
  5
261
  8
DEFAULT
 10
145.0846897628066
 20
12.99198728899837
 30
0.0
  0
VERTEX
  5
262
  8
DEFAULT
 10
145.0723361836151
 20
12.97531230445969
 30
0.0
  0
VERTEX
  5
263
  8
DEFAULT
 10
145.0596975350209
 20
12.95905676865639
 30
0.0
  0
VERTEX
  5
264
  8
DEFAULT
 10
145.0467917602075
 20
12.94322524904296
 30
0.0
  0
VERTEX
  5
265
  8
DEFAULT
 10
145.0336367039323
 20
12.92782142094755
 30
0.0
  0
VERTEX
  5
266
  8
DEFAULT
 10
145.0202500645054
 20
12.91284809258946
 30
0.0
  0
VERTEX
  5
267
  8
DEFAULT
 10
145.0066493487298
 20
12.8983072326377
 30
0.0
  0
VERTEX
  5
268
  8
DEFAULT
 10
144.9928518299066
 20
12.8842
 30
0.0
  0
VERTEX
  5
269
  8
DEFAULT
 10
142.9100518299066
 20
10.8014
 30
0.0
  0
VERTEX
  5
26A
  8
DEFAULT
 10
142.8959446008369
 20
10.78760248444362
 30
0.0
  0
VERTEX
  5
26B
  8
DEFAULT
 10
142.8814037449708
 20
10.77400177183678
 30
0.0
  0
VERTEX
  5
26C
  8
DEFAULT
 10
142.8664304212228
 20
10.76061513546831
 30
0.0
  0
VERTEX
  5
26D
  8
DEFAULT
 10
142.8510265982679
 20
10.74746008212859
 30
0.0
  0
VERTEX
  5
26E
  8
DEFAULT
 10
142.8351950843298
 20
10.73455431011471
 30
0.0
  0
VERTEX
  5
26F
  8
DEFAULT
 10
142.8189395547401
 20
10.72191566417133
 30
0.0
  0
VERTEX
  5
270
  8
DEFAULT
 10
142.8022645769556
 20
10.70956208746911
 30
0.0
  0
VERTEX
  5
271
  8
DEFAULT
 10
142.7851756327243
 20
10.69751157075427
 30
0.0
  0
VERTEX
  5
272
  8
DEFAULT
 10
142.7676791370953
 20
10.68578209883686
 30
0.0
  0
VERTEX
  5
273
  8
DEFAULT
 10
142.7497824539724
 20
10.67439159461842
 30
0.0
  0
VERTEX
  5
274
  8
DEFAULT
 10
142.7314939079251
 20
10.66335786089439
 30
0.0
  0
VERTEX
  5
275
  8
DEFAULT
 10
142.7128227919868
 20
10.6526985202001
 30
0.0
  0
VERTEX
  5
276
  8
DEFAULT
 10
142.6937793711874
 20
10.64243095300203
 30
0.0
  0
VERTEX
  5
277
  8
DEFAULT
 10
142.6743748815929
 20
10.63257223456785
 30
0.0
  0
VERTEX
  5
278
  8
DEFAULT
 10
142.6546215246533
 20
10.62313907087836
 30
0.0
  0
VERTEX
  5
279
  8
DEFAULT
 10
142.6345324566898
 20
10.6141477339717
 30
0.0
  0
VERTEX
  5
27A
  8
DEFAULT
 10
142.6141217733905
 20
10.6056139971346
 30
0.0
  0
VERTEX
  5
27B
  8
DEFAULT
 10
142.5934044892213
 20
10.5975530703762
 30
0.0
  0
VERTEX
  5
27C
  8
DEFAULT
 10
142.5723965117016
 20
10.58997953663654
 30
0.0
  0
VERTEX
  5
27D
  8
DEFAULT
 10
142.5511146105387
 20
10.58290728919424
 30
0.0
  0
VERTEX
  5
27E
  8
DEFAULT
 10
142.5295763816636
 20
10.57634947074503
 30
0.0
  0
VERTEX
  5
27F
  8
DEFAULT
 10
142.5078002062576
 20
10.57031841462479
 30
0.0
  0
VERTEX
  5
280
  8
DEFAULT
 10
142.4858052049088
 20
10.5648255886473
 30
0.0
  0
VERTEX
  5
281
  8
DEFAULT
 10
142.4636111870887
 20
10.55988154201739
 30
0.0
  0
VERTEX
  5
282
  8
DEFAULT
 10
142.4412385961865
 20
10.55549585576536
 30
0.0
  0
VERTEX
  5
283
  8
DEFAULT
 10
142.4187084503873
 20
10.55167709712711
 30
0.0
  0
VERTEX
  5
284
  8
DEFAULT
 10
142.3960422797268
 20
10.54843277826828
 30
0.0
  0
VERTEX
  5
285
  8
DEFAULT
 10
142.3732620596953
 20
10.54576931971815
 30
0.0
  0
VERTEX
  5
286
  8
DEFAULT
 10
142.3503901418075
 20
10.54369201884196
 30
0.0
  0
VERTEX
  5
287
  8
DEFAULT
 10
142.3274491815846
 20
10.54220502363835
 30
0.0
  0
VERTEX
  5
288
  8
DEFAULT
 10
142.3044620644309
 20
10.54131131210258
 30
0.0
  0
VERTEX
  5
289
  8
DEFAULT
 10
128.9860836669547
 20
10.54144191891933
 30
0.0
  0
VERTEX
  5
28A
  8
DEFAULT
 10
128.9068199928584
 20
10.54144191891465
 30
0.0
 42
-0.0000586042119942
  0
VERTEX
  5
28B
  8
DEFAULT
 10
121.3660836669547
 20
10.54144191891828
 30
0.0
  0
VERTEX
  5
28C
  8
DEFAULT
 10
121.2868199928584
 20
10.54144191891933
 30
0.0
  0
VERTEX
  5
28D
  8
DEFAULT
 10
116.2234414547523
 20
10.5413113121026
 30
0.0
  0
VERTEX
  5
28E
  8
DEFAULT
 10
116.2004543465914
 20
10.54220502363838
 30
0.0
  0
VERTEX
  5
28F
  8
DEFAULT
 10
116.177513395101
 20
10.54369201884197
 30
0.0
  0
VERTEX
  5
290
  8
DEFAULT
 10
116.1546414856772
 20
10.54576931971817
 30
0.0
  0
VERTEX
  5
291
  8
DEFAULT
 10
116.1318612738338
 20
10.5484327782683
 30
0.0
  0
VERTEX
  5
292
  8
DEFAULT
 10
116.1091951110787
 20
10.55167709712713
 30
0.0
  0
VERTEX
  5
293
  8
DEFAULT
 10
116.0866649728956
 20
10.55549585576537
 30
0.0
  0
VERTEX
  5
294
  8
DEFAULT
 10
116.0642923893146
 20
10.55988154201741
 30
0.0
  0
VERTEX
  5
295
  8
DEFAULT
 10
116.0420983785158
 20
10.56482558864731
 30
0.0
  0
VERTEX
  5
296
  8
DEFAULT
 10
116.0201033838839
 20
10.57031841462481
 30
0.0
  0
VERTEX
  5
297
  8
DEFAULT
 10
115.9983272148866
 20
10.57634947074504
 30
0.0
  0
VERTEX
  5
298
  8
DEFAULT
 10
115.9767889921091
 20
10.58290728919425
 30
0.0
  0
VERTEX
  5
299
  8
DEFAULT
 10
115.9555070967299
 20
10.58997953663655
 30
0.0
  0
VERTEX
  5
29A
  8
DEFAULT
 10
115.9344991246784
 20
10.59755307037621
 30
0.0
  0
VERTEX
  5
29B
  8
DEFAULT
 10
115.9137818456609
 20
10.60561399713461
 30
0.0
  0
VERTEX
  5
29C
  8
DEFAULT
 10
115.8933711671959
 20
10.6141477339717
 30
0.0
  0
VERTEX
  5
29D
  8
DEFAULT
 10
115.8732821037495
 20
10.62313907087836
 30
0.0
  0
VERTEX
  5
29E
  8
DEFAULT
 10
115.8535287510105
 20
10.63257223456785
 30
0.0
  0
VERTEX
  5
29F
  8
DEFAULT
 10
115.8341242653014
 20
10.64243095300202
 30
0.0
  0
VERTEX
  5
2A0
  8
DEFAULT
 10
115.8150808480741
 20
10.6526985202001
 30
0.0
  0
VERTEX
  5
2A1
  8
DEFAULT
 10
115.7964097353968
 20
10.66335786089439
 30
0.0
  0
VERTEX
  5
2A2
  8
DEFAULT
 10
115.7781211923025
 20
10.67439159461843
 30
0.0
  0
VERTEX
  5
2A3
  8
DEFAULT
 10
115.7602245118277
 20
10.68578209883687
 30
0.0
  0
VERTEX
  5
2A4
  8
DEFAULT
 10
115.7427280185461
 20
10.69751157075427
 30
0.0
  0
VERTEX
  5
2A5
  8
DEFAULT
 10
115.7256390763657
 20
10.70956208746911
 30
0.0
  0
VERTEX
  5
2A6
  8
DEFAULT
 10
115.7089641003401
 20
10.72191566417133
 30
0.0
  0
VERTEX
  5
2A7
  8
DEFAULT
 10
115.6927085722226
 20
10.73455431011471
 30
0.0
  0
VERTEX
  5
2A8
  8
DEFAULT
 10
115.6768770594754
 20
10.74746008212859
 30
0.0
  0
VERTEX
  5
2A9
  8
DEFAULT
 10
115.6614732374357
 20
10.76061513546831
 30
0.0
  0
VERTEX
  5
2AA
  8
DEFAULT
 10
115.6464999143336
 20
10.77400177183678
 30
0.0
  0
VERTEX
  5
2AB
  8
DEFAULT
 10
115.6319590588502
 20
10.78760248444363
 30
0.0
  0
VERTEX
  5
2AC
  8
DEFAULT
 10
115.6178518299066
 20
10.8014
 30
0.0
  0
VERTEX
  5
2AD
  8
DEFAULT
 10
113.2603994657964
 20
13.15885236411024
 30
0.0
 42
-0.2008759561880228
  0
VERTEX
  5
2AE
  8
DEFAULT
 10
112.9952518299066
 20
13.7922
 30
0.0
  0
VERTEX
  5
2AF
  8
DEFAULT
 10
112.9952518299066
 20
15.86217363437416
 30
0.0
 42
-0.3257045578813016
  0
VERTEX
  5
2B0
  8
DEFAULT
 10
112.9952518299066
 20
17.15782636562584
 30
0.0
  0
VERTEX
  5
2B1
  8
DEFAULT
 10
112.9952518299066
 20
24.37879999999999
 30
0.0
  0
VERTEX
  5
2B2
  8
DEFAULT
 10
102.9242781955324
 20
24.37879999999999
 30
0.0
 42
-1.966058980429318
  0
VERTEX
  5
2B3
  8
DEFAULT
 10
102.9242782514176
 20
26.15679995927572
 30
0.0
  0
VERTEX
  5
2B4
  8
DEFAULT
 10
116.3810518299066
 20
26.1568
 30
0.0
  0
VERTEX
  5
2B5
  8
DEFAULT
 10
122.144744811842
 20
31.92049298193542
 30
0.0
 42
-0.3257262024398203
  0
VERTEX
  5
2B6
  8
DEFAULT
 10
123.0609588479711
 20
32.83670701806457
 30
0.0
  0
VERTEX
  5
2B7
  8
DEFAULT
 10
128.9898782664818
 20
38.76562643657518
 30
0.0
  0
SEQEND
  5
2B8
  8
DEFAULT
  0
POLYLINE
  5
2B9
  8
DEFAULT
 66
     1
 10
0.0
 20
0.0
 30
0.0
  0
VERTEX
  5
2BA
  8
DEFAULT
 10
163.3536518299066
 20
52.44118732264906
 30
0.0
  0
VERTEX
  5
2BB
  8
DEFAULT
 10
164.4936231797147
 20
52.44119833530473
 30
0.0
 42
-1.966062030084973
  0
VERTEX
  5
2BC
  8
DEFAULT
 10
164.4936254640432
 20
50.66320000017308
 30
0.0
  0
VERTEX
  5
2BD
  8
DEFAULT
 10
163.7218518299066
 20
50.6632
 30
0.0
  0
VERTEX
  5
2BE
  8
DEFAULT
 10
158.1547994657946
 20
45.09614763588797
 30
0.0
 42
-0.2008759561871894
  0
VERTEX
  5
2BF
  8
DEFAULT
 10
157.5214518299066
 20
44.83100000000002
 30
0.0
  0
VERTEX
  5
2C0
  8
DEFAULT
 10
149.9142781955324
 20
44.83100000000001
 30
0.0
 42
-1.966058903966093
  0
VERTEX
  5
2C1
  8
DEFAULT
 10
149.9142781955324
 20
46.60899999999999
 30
0.0
  0
VERTEX
  5
2C2
  8
DEFAULT
 10
157.1532518299065
 20
46.609
 30
0.0
  0
VERTEX
  5
2C3
  8
DEFAULT
 10
162.7250518299065
 20
52.1808
 30
0.0
 42
-0.1989025854007603
  0
VERTEX
  5
2C4
  8
DEFAULT
 10
163.3536518299066
 20
52.44118732264904
 30
0.0
  0
SEQEND
  5
2C5
  8
DEFAULT
  0
POLYLINE
  5
2C6
  8
DEFAULT
 66
     1
 10
0.0
 20
0.0
 30
0.0
  0
VERTEX
  5
2C7
  8
DEFAULT
 10
149.9142781955324
 20
40.76699999999999
 30
0.0
 42
-1.966058996076724
  0
VERTEX
  5
2C8
  8
DEFAULT
 10
149.9142782628539
 20
42.54499995094191
 30
0.0
  0
VERTEX
  5
2C9
  8
DEFAULT
 10
159.7034608943009
 20
42.54468869229949
 30
0.0
  0
VERTEX
  5
2CA
  8
DEFAULT
 10
159.7264480811403
 20
42.54379498487322
 30
0.0
  0
VERTEX
  5
2CB
  8
DEFAULT
 10
159.7493891093402
 20
42.54230799347919
 30
0.0
  0
VERTEX
  5
2CC
  8
DEFAULT
 10
159.7722610934211
 20
42.54023069610646
 30
0.0
  0
VERTEX
  5
2CD
  8
DEFAULT
 10
159.79504137779
 20
42.53756724074878
 30
0.0
  0
VERTEX
  5
2CE
  8
DEFAULT
 10
159.8177076108648
 20
42.53432292476771
 30
0.0
  0
VERTEX
  5
2CF
  8
DEFAULT
 10
159.8402378170917
 20
42.53050416869011
 30
0.0
  0
VERTEX
  5
2D0
  8
DEFAULT
 10
159.8626104663764
 20
42.52611848468047
 30
0.0
  0
VERTEX
  5
2D1
  8
DEFAULT
 10
159.8848045404793
 20
42.52117443997478
 30
0.0
  0
VERTEX
  5
2D2
  8
DEFAULT
 10
159.9067995959617
 20
42.5156816156046
 30
0.0
  0
VERTEX
  5
2D3
  8
DEFAULT
 10
159.9285758233078
 20
42.50965056077727
 30
0.0
  0
VERTEX
  5
2D4
  8
DEFAULT
 10
159.9501141018898
 20
42.50309274331018
 30
0.0
  0
VERTEX
  5
2D5
  8
DEFAULT
 10
159.9713960504921
 20
42.49602049654394
 30
0.0
  0
VERTEX
  5
2D6
  8
DEFAULT
 10
159.9924040731546
 20
42.48844696318005
 30
0.0
  0
VERTEX
  5
2D7
  8
DEFAULT
 10
160.0131214001457
 20
42.48038603650387
 30
0.0
  0
VERTEX
  5
2D8
  8
DEFAULT
 10
160.0335321239273
 20
42.47185229946314
 30
0.0
  0
VERTEX
  5
2D9
  8
DEFAULT
 10
160.0536212300198
 20
42.46286096207551
 30
0.0
  0
VERTEX
  5
2DA
  8
DEFAULT
 10
160.0733746227264
 20
42.45342779763704
 30
0.0
  0
VERTEX
  5
2DB
  8
DEFAULT
 10
160.0927791457221
 20
42.44356907819589
 30
0.0
  0
VERTEX
  5
2DC
  8
DEFAULT
 10
160.1118225975583
 20
42.43330150974351
 30
0.0
  0
VERTEX
  5
2DD
  8
DEFAULT
 10
160.1304937421748
 20
42.42264216755878
 30
0.0
  0
VERTEX
  5
2DE
  8
DEFAULT
 10
160.1487823145525
 20
42.41160843211986
 30
0.0
  0
VERTEX
  5
2DF
  8
DEFAULT
 10
160.1666790216729
 20
42.40021792597413
 30
0.0
  0
VERTEX
  5
2E0
  8
DEFAULT
 10
160.1841755389858
 20
42.38848845192946
 30
0.0
  0
VERTEX
  5
2E1
  8
DEFAULT
 10
160.2012645026107
 20
42.3764379329
 30
0.0
  0
VERTEX
  5
2E2
  8
DEFAULT
 10
160.2179394975259
 20
42.3640843537086
 30
0.0
  0
VERTEX
  5
2E3
  8
DEFAULT
 10
160.2341950420141
 20
42.35144570511438
 30
0.0
  0
VERTEX
  5
2E4
  8
DEFAULT
 10
160.2500265686528
 20
42.33853993030091
 30
0.0
  0
VERTEX
  5
2E5
  8
DEFAULT
 10
160.2654304021479
 20
42.32538487402579
 30
0.0
  0
VERTEX
  5
2E6
  8
DEFAULT
 10
160.280403734316
 20
42.31199823459887
 30
0.0
  0
VERTEX
  5
2E7
  8
DEFAULT
 10
160.2949445965252
 20
42.29839751882317
 30
0.0
  0
VERTEX
  5
2E8
  8
DEFAULT
 10
162.8068381047801
 20
39.78680457503442
 30
0.0
  0
VERTEX
  5
2E9
  8
DEFAULT
 10
164.4936259477012
 20
39.78680035227443
 30
0.0
 42
-1.966059610010825
  0
VERTEX
  5
2EA
  8
DEFAULT
 10
164.493624464829
 20
38.00880072831485
 30
0.0
  0
VERTEX
  5
2EB
  8
DEFAULT
 10
162.4156414547524
 20
38.0091113121026
 30
0.0
  0
VERTEX
  5
2EC
  8
DEFAULT
 10
162.3926543465914
 20
38.01000502363837
 30
0.0
  0
VERTEX
  5
2ED
  8
DEFAULT
 10
162.369713395101
 20
38.01149201884196
 30
0.0
  0
VERTEX
  5
2EE
  8
DEFAULT
 10
162.3468414856772
 20
38.01356931971817
 30
0.0
  0
VERTEX
  5
2EF
  8
DEFAULT
 10
162.3240612738339
 20
38.0162327782683
 30
0.0
  0
VERTEX
  5
2F0
  8
DEFAULT
 10
162.3013951110787
 20
38.01947709712712
 30
0.0
  0
VERTEX
  5
2F1
  8
DEFAULT
 10
162.2788649728957
 20
38.02329585576537
 30
0.0
  0
VERTEX
  5
2F2
  8
DEFAULT
 10
162.2564923893146
 20
38.0276815420174
 30
0.0
  0
VERTEX
  5
2F3
  8
DEFAULT
 10
162.2342983785158
 20
38.03262558864731
 30
0.0
  0
VERTEX
  5
2F4
  8
DEFAULT
 10
162.2123033838839
 20
38.03811841462481
 30
0.0
  0
VERTEX
  5
2F5
  8
DEFAULT
 10
162.1905272148867
 20
38.04414947074504
 30
0.0
  0
VERTEX
  5
2F6
  8
DEFAULT
 10
162.1689889921091
 20
38.05070728919425
 30
0.0
  0
VERTEX
  5
2F7
  8
DEFAULT
 10
162.1477070967298
 20
38.05777953663654
 30
0.0
  0
VERTEX
  5
2F8
  8
DEFAULT
 10
162.1266991246784
 20
38.0653530703762
 30
0.0
  0
VERTEX
  5
2F9
  8
DEFAULT
 10
162.1059818456609
 20
38.0734139971346
 30
0.0
  0
VERTEX
  5
2FA
  8
DEFAULT
 10
162.0855711671959
 20
38.0819477339717
 30
0.0
  0
VERTEX
  5
2FB
  8
DEFAULT
 10
162.0654821037495
 20
38.09093907087836
 30
0.0
  0
VERTEX
  5
2FC
  8
DEFAULT
 10
162.0457287510105
 20
38.10037223456785
 30
0.0
  0
VERTEX
  5
2FD
  8
DEFAULT
 10
162.0263242653014
 20
38.11023095300202
 30
0.0
  0
VERTEX
  5
2FE
  8
DEFAULT
 10
162.007280848074
 20
38.1204985202001
 30
0.0
  0
VERTEX
  5
2FF
  8
DEFAULT
 10
161.9886097353968
 20
38.13115786089439
 30
0.0
  0
VERTEX
  5
300
  8
DEFAULT
 10
161.9703211923024
 20
38.14219159461842
 30
0.0
  0
VERTEX
  5
301
  8
DEFAULT
 10
161.9524245118277
 20
38.15358209883686
 30
0.0
  0
VERTEX
  5
302
  8
DEFAULT
 10
161.9349280185461
 20
38.16531157075427
 30
0.0
  0
VERTEX
  5
303
  8
DEFAULT
 10
161.9178390763656
 20
38.1773620874691
 30
0.0
  0
VERTEX
  5
304
  8
DEFAULT
 10
161.90116410034
 20
38.18971566417133
 30
0.0
  0
VERTEX
  5
305
  8
DEFAULT
 10
161.8849085722226
 20
38.20235431011471
 30
0.0
  0
VERTEX
  5
306
  8
DEFAULT
 10
161.8690770594753
 20
38.21526008212859
 30
0.0
  0
VERTEX
  5
307
  8
DEFAULT
 10
161.8536732374357
 20
38.2284151354683
 30
0.0
  0
VERTEX
  5
308
  8
DEFAULT
 10
161.8386999143336
 20
38.24180177183678
 30
0.0
  0
VERTEX
  5
309
  8
DEFAULT
 10
161.8241590588502
 20
38.25540248444361
 30
0.0
  0
VERTEX
  5
30A
  8
DEFAULT
 10
161.8100518299065
 20
38.2692
 30
0.0
  0
VERTEX
  5
30B
  8
DEFAULT
 10
159.3122518299066
 20
40.767
 30
0.0
  0
VERTEX
  5
30C
  8
DEFAULT
 10
149.9142781955324
 20
40.76699999999999
 30
0.0
  0
SEQEND
  5
30D
  8
DEFAULT
  0
POLYLINE
  5
30E
  8
DEFAULT
 66
     1
 10
0.0
 20
0.0
 30
0.0
  0
VERTEX
  5
30F
  8
DEFAULT
 10
149.9142781955324
 20
38.22699999999999
 30
0.0
 42
-1.966059023439767
  0
VERTEX
  5
310
  8
DEFAULT
 10
149.914278282853
 20
40.00499993636835
 30
0.0
  0
VERTEX
  5
311
  8
DEFAULT
 10
158.4334610363585
 20
40.0046886922995
 30
0.0
  0
VERTEX
  5
312
  8
DEFAULT
 10
158.4564482141139
 20
40.00379498487322
 30
0.0
  0
VERTEX
  5
313
  8
DEFAULT
 10
158.4793892334927
 20
40.00230799347919
 30
0.0
  0
VERTEX
  5
314
  8
DEFAULT
 10
158.5022612090236
 20
40.00023069610646
 30
0.0
  0
VERTEX
  5
315
  8
DEFAULT
 10
158.5250414851212
 20
39.99756724074877
 30
0.0
  0
VERTEX
  5
316
  8
DEFAULT
 10
158.5477077102104
 20
39.9943229247677
 30
0.0
  0
VERTEX
  5
317
  8
DEFAULT
 10
158.5702379087439
 20
39.9905041686901
 30
0.0
  0
VERTEX
  5
318
  8
DEFAULT
 10
158.592610550633
 20
39.98611848468047
 30
0.0
  0
VERTEX
  5
319
  8
DEFAULT
 10
158.6148046176433
 20
39.98117443997479
 30
0.0
  0
VERTEX
  5
31A
  8
DEFAULT
 10
158.6367996663407
 20
39.97568161560461
 30
0.0
  0
VERTEX
  5
31B
  8
DEFAULT
 10
158.6585758872129
 20
39.96965056077727
 30
0.0
  0
VERTEX
  5
31C
  8
DEFAULT
 10
158.6801141596355
 20
39.96309274331018
 30
0.0
  0
VERTEX
  5
31D
  8
DEFAULT
 10
158.7013961023954
 20
39.95602049654396
 30
0.0
  0
VERTEX
  5
31E
  8
DEFAULT
 10
158.7224041195341
 20
39.94844696318005
 30
0.0
  0
VERTEX
  5
31F
  8
DEFAULT
 10
158.7431214413213
 20
39.94038603650388
 30
0.0
  0
VERTEX
  5
320
  8
DEFAULT
 10
158.7635321602195
 20
39.93185229946314
 30
0.0
  0
VERTEX
  5
321
  8
DEFAULT
 10
158.7836212617491
 20
39.92286096207551
 30
0.0
  0
VERTEX
  5
322
  8
DEFAULT
 10
158.8033746502124
 20
39.91342779763704
 30
0.0
  0
VERTEX
  5
323
  8
DEFAULT
 10
158.8227791692832
 20
39.90356907819589
 30
0.0
  0
VERTEX
  5
324
  8
DEFAULT
 10
158.8418226175111
 20
39.89330150974351
 30
0.0
  0
VERTEX
  5
325
  8
DEFAULT
 10
158.8604937588334
 20
39.88264216755877
 30
0.0
  0
VERTEX
  5
326
  8
DEFAULT
 10
158.8787823282282
 20
39.87160843211986
 30
0.0
  0
VERTEX
  5
327
  8
DEFAULT
 10
158.8966790326735
 20
39.86021792597414
 30
0.0
  0
VERTEX
  5
328
  8
DEFAULT
 10
158.9141755476152
 20
39.84848845192946
 30
0.0
  0
VERTEX
  5
329
  8
DEFAULT
 10
158.9312645091685
 20
39.83643793290001
 30
0.0
  0
VERTEX
  5
32A
  8
DEFAULT
 10
158.9479395023069
 20
39.82408435370859
 30
0.0
  0
VERTEX
  5
32B
  8
DEFAULT
 10
158.9641950453079
 20
39.81144570511437
 30
0.0
  0
VERTEX
  5
32C
  8
DEFAULT
 10
158.9800265707437
 20
39.79853993030091
 30
0.0
  0
VERTEX
  5
32D
  8
DEFAULT
 10
158.9954304033142
 20
39.78538487402579
 30
0.0
  0
VERTEX
  5
32E
  8
DEFAULT
 10
159.0104037348299
 20
39.77199823459887
 30
0.0
  0
VERTEX
  5
32F
  8
DEFAULT
 10
159.0249445966525
 20
39.75839751882317
 30
0.0
  0
VERTEX
  5
330
  8
DEFAULT
 10
162.8524428279475
 20
35.93120309173374
 30
0.0
  0
VERTEX
  5
331
  8
DEFAULT
 10
164.4936258041013
 20
35.93120024772361
 30
0.0
 42
-1.966059853824258
  0
VERTEX
  5
332
  8
DEFAULT
 10
164.4936244302313
 20
34.15320075352673
 30
0.0
  0
VERTEX
  5
333
  8
DEFAULT
 10
162.4612418978646
 20
34.15351130770051
 30
0.0
  0
VERTEX
  5
334
  8
DEFAULT
 10
162.4382547665078
 20
34.15440501512678
 30
0.0
  0
VERTEX
  5
335
  8
DEFAULT
 10
162.4153137921847
 20
34.15589200652081
 30
0.0
  0
VERTEX
  5
336
  8
DEFAULT
 10
162.3924418603247
 20
34.15796930389354
 30
0.0
  0
VERTEX
  5
337
  8
DEFAULT
 10
162.3696616264746
 20
34.16063275925122
 30
0.0
  0
VERTEX
  5
338
  8
DEFAULT
 10
162.3469954421734
 20
34.16387707523229
 30
0.0
  0
VERTEX
  5
339
  8
DEFAULT
 10
162.3244652829358
 20
34.1676958313099
 30
0.0
  0
VERTEX
  5
33A
  8
DEFAULT
 10
162.3020926788212
 20
34.17208151531953
 30
0.0
  0
VERTEX
  5
33B
  8
DEFAULT
 10
162.2798986480377
 20
34.17702556002523
 30
0.0
  0
VERTEX
  5
33C
  8
DEFAULT
 10
162.2579036339967
 20
34.18251838439539
 30
0.0
  0
VERTEX
  5
33D
  8
DEFAULT
 10
162.2361274461909
 20
34.18854943922273
 30
0.0
  0
VERTEX
  5
33E
  8
DEFAULT
 10
162.2145892052288
 20
34.19510725668982
 30
0.0
  0
VERTEX
  5
33F
  8
DEFAULT
 10
162.1933072923107
 20
34.20217950345604
 30
0.0
  0
VERTEX
  5
340
  8
DEFAULT
 10
162.1722993033858
 20
34.20975303681995
 30
0.0
  0
VERTEX
  5
341
  8
DEFAULT
 10
162.1515820081783
 20
34.21781396349613
 30
0.0
  0
VERTEX
  5
342
  8
DEFAULT
 10
162.131171314223
 20
34.22634770053686
 30
0.0
  0
VERTEX
  5
343
  8
DEFAULT
 10
162.1110822359999
 20
34.2353390379245
 30
0.0
  0
VERTEX
  5
344
  8
DEFAULT
 10
162.0913288692102
 20
34.24477220236297
 30
0.0
  0
VERTEX
  5
345
  8
DEFAULT
 10
162.0719243701865
 20
34.25463092180411
 30
0.0
  0
VERTEX
  5
346
  8
DEFAULT
 10
162.0528809403889
 20
34.26489849025649
 30
0.0
  0
VERTEX
  5
347
  8
DEFAULT
 10
162.0342098158921
 20
34.27555783244122
 30
0.0
  0
VERTEX
  5
348
  8
DEFAULT
 10
162.0159212617332
 20
34.28659156788015
 30
0.0
  0
VERTEX
  5
349
  8
DEFAULT
 10
161.9980245709516
 20
34.29798207402587
 30
0.0
  0
VERTEX
  5
34A
  8
DEFAULT
 10
161.9805280681214
 20
34.30971154807055
 30
0.0
  0
VERTEX
  5
34B
  8
DEFAULT
 10
161.9634391171493
 20
34.3217620671
 30
0.0
  0
VERTEX
  5
34C
  8
DEFAULT
 10
161.9467641330863
 20
34.33411564629142
 30
0.0
  0
VERTEX
  5
34D
  8
DEFAULT
 10
161.9305085976812
 20
34.34675429488563
 30
0.0
  0
VERTEX
  5
34E
  8
DEFAULT
 10
161.9146770783898
 20
34.35966006969909
 30
0.0
  0
VERTEX
  5
34F
  8
DEFAULT
 10
161.8992732505419
 20
34.37281512597421
 30
0.0
  0
VERTEX
  5
350
  8
DEFAULT
 10
161.8842999223584
 20
34.38620176540113
 30
0.0
  0
VERTEX
  5
351
  8
DEFAULT
 10
161.8697590625102
 20
34.39980248117683
 30
0.0
  0
VERTEX
  5
352
  8
DEFAULT
 10
161.8556518299065
 20
34.4136
 30
0.0
  0
VERTEX
  5
353
  8
DEFAULT
 10
158.0422518299066
 20
38.227
 30
0.0
  0
VERTEX
  5
354
  8
DEFAULT
 10
149.9142781955324
 20
38.22699999999999
 30
0.0
  0
SEQEND
  5
355
  8
DEFAULT
  0
POLYLINE
  5
356
  8
DEFAULT
 66
     1
 10
0.0
 20
0.0
 30
0.0
  0
VERTEX
  5
357
  8
DEFAULT
 10
149.9142781955324
 20
35.68699999999999
 30
0.0
 42
-1.966059065087633
  0
VERTEX
  5
358
  8
DEFAULT
 10
149.9142783132925
 20
37.46499991418659
 30
0.0
  0
VERTEX
  5
359
  8
DEFAULT
 10
157.1634620591733
 20
37.4646886922995
 30
0.0
  0
VERTEX
  5
35A
  8
DEFAULT
 10
157.1864491715237
 20
37.46379498487324
 30
0.0
  0
VERTEX
  5
35B
  8
DEFAULT
 10
157.2093901273906
 20
37.46230799347919
 30
0.0
  0
VERTEX
  5
35C
  8
DEFAULT
 10
157.2322620413615
 20
37.46023069610646
 30
0.0
  0
VERTEX
  5
35D
  8
DEFAULT
 10
157.2550422579059
 20
37.45756724074877
 30
0.0
  0
VERTEX
  5
35E
  8
DEFAULT
 10
157.277708425499
 20
37.45432292476771
 30
0.0
  0
VERTEX
  5
35F
  8
DEFAULT
 10
157.3002385686397
 20
37.45050416869012
 30
0.0
  0
VERTEX
  5
360
  8
DEFAULT
 10
157.3226111572807
 20
37.44611848468048
 30
0.0
  0
VERTEX
  5
361
  8
DEFAULT
 10
157.3448051732245
 20
37.44117443997479
 30
0.0
  0
VERTEX
  5
362
  8
DEFAULT
 10
157.3668001730692
 20
37.43568161560461
 30
0.0
  0
VERTEX
  5
363
  8
DEFAULT
 10
157.3885763473299
 20
37.42965056077728
 30
0.0
  0
VERTEX
  5
364
  8
DEFAULT
 10
157.4101145754048
 20
37.4230927433102
 30
0.0
  0
VERTEX
  5
365
  8
DEFAULT
 10
157.4313964760986
 20
37.41602049654395
 30
0.0
  0
VERTEX
  5
366
  8
DEFAULT
 10
157.4524044534662
 20
37.40844696318005
 30
0.0
  0
VERTEX
  5
367
  8
DEFAULT
 10
157.4731217377859
 20
37.40038603650387
 30
0.0
  0
VERTEX
  5
368
  8
DEFAULT
 10
157.4935324215238
 20
37.39185229946314
 30
0.0
  0
VERTEX
  5
369
  8
DEFAULT
 10
157.5136214901998
 20
37.3828609620755
 30
0.0
  0
VERTEX
  5
36A
  8
DEFAULT
 10
157.5333748481114
 20
37.37342779763704
 30
0.0
  0
VERTEX
  5
36B
  8
DEFAULT
 10
157.5527793389232
 20
37.36356907819589
 30
0.0
  0
VERTEX
  5
36C
  8
DEFAULT
 10
157.5718227611711
 20
37.35330150974351
 30
0.0
  0
VERTEX
  5
36D
  8
DEFAULT
 10
157.5904938787756
 20
37.34264216755879
 30
0.0
  0
VERTEX
  5
36E
  8
DEFAULT
 10
157.6087824266934
 20
37.33160843211986
 30
0.0
  0
VERTEX
  5
36F
  8
DEFAULT
 10
157.6266791118779
 20
37.32021792597413
 30
0.0
  0
VERTEX
  5
370
  8
DEFAULT
 10
157.644175609747
 20
37.30848845192946
 30
0.0
  0
VERTEX
  5
371
  8
DEFAULT
 10
157.6612645563846
 20
37.29643793290001
 30
0.0
  0
VERTEX
  5
372
  8
DEFAULT
 10
157.67793953673
 20
37.28408435370859
 30
0.0
  0
VERTEX
  5
373
  8
DEFAULT
 10
157.6941950690237
 20
37.27144570511438
 30
0.0
  0
VERTEX
  5
374
  8
DEFAULT
 10
157.7100265857981
 20
37.25853993030092
 30
0.0
  0
VERTEX
  5
375
  8
DEFAULT
 10
157.7254304117115
 20
37.2453848740258
 30
0.0
  0
VERTEX
  5
376
  8
DEFAULT
 10
157.7404037385299
 20
37.23199823459886
 30
0.0
  0
VERTEX
  5
377
  8
DEFAULT
 10
157.7549445975694
 20
37.21839751882317
 30
0.0
  0
VERTEX
  5
378
  8
DEFAULT
 10
157.7690518299066
 20
37.2046
 30
0.0
  0
VERTEX
  5
379
  8
DEFAULT
 10
162.5950518299066
 20
32.3786
 30
0.0
  0
VERTEX
  5
37A
  8
DEFAULT
 10
162.6088493487297
 20
32.36449276696244
 30
0.0
  0
VERTEX
  5
37B
  8
DEFAULT
 10
162.6224500645054
 20
32.34995190579691
 30
0.0
  0
VERTEX
  5
37C
  8
DEFAULT
 10
162.6358367039324
 20
32.33497857539032
 30
0.0
  0
VERTEX
  5
37D
  8
DEFAULT
 10
162.6489917602075
 20
32.31957474439162
 30
0.0
  0
VERTEX
  5
37E
  8
DEFAULT
 10
162.661897535021
 20
32.30374322100089
 30
0.0
  0
VERTEX
  5
37F
  8
DEFAULT
 10
162.6745361836151
 20
32.28748768052799
 30
0.0
  0
VERTEX
  5
380
  8
DEFAULT
 10
162.6868897628066
 20
32.27081269041015
 30
0.0
  0
VERTEX
  5
381
  8
DEFAULT
 10
162.698940281836
 20
32.2537237323786
 30
0.0
  0
VERTEX
  5
382
  8
DEFAULT
 10
162.7106697558807
 20
32.23622722146798
 30
0.0
  0
VERTEX
  5
383
  8
DEFAULT
 10
162.7220602620264
 20
32.21833052157034
 30
0.0
  0
VERTEX
  5
384
  8
DEFAULT
 10
162.7330939974653
 20
32.20004195724655
 30
0.0
  0
VERTEX
  5
385
  8
DEFAULT
 10
162.7437533396501
 20
32.18137082152425
 30
0.0
  0
VERTEX
  5
386
  8
DEFAULT
 10
162.7540209081025
 20
32.16232737943052
 30
0.0
  0
VERTEX
  5
387
  8
DEFAULT
 10
162.7638796275436
 20
32.14292286703196
 30
0.0
  0
VERTEX
  5
388
  8
DEFAULT
 10
162.7733127919821
 20
32.12316948578226
 30
0.0
  0
VERTEX
  5
389
  8
DEFAULT
 10
162.7823041293697
 20
32.10308039200982
 30
0.0
  0
VERTEX
  5
38A
  8
DEFAULT
 10
162.7908378664105
 20
32.08266968141331
 30
0.0
  0
VERTEX
  5
38B
  8
DEFAULT
 10
162.7988987930866
 20
32.0619523684726
 30
0.0
  0
VERTEX
  5
38C
  8
DEFAULT
 10
162.8064723264505
 20
32.04094436072432
 30
0.0
  0
VERTEX
  5
38D
  8
DEFAULT
 10
162.8135445732167
 20
32.01966242789667
 30
0.0
  0
VERTEX
  5
38E
  8
DEFAULT
 10
162.8201023906838
 20
31.99812416594505
 30
0.0
  0
VERTEX
  5
38F
  8
DEFAULT
 10
162.8261334455111
 20
31.97634795607833
 30
0.0
  0
VERTEX
  5
390
  8
DEFAULT
 10
162.8316262698813
 20
31.95435291891564
 30
0.0
  0
VERTEX
  5
391
  8
DEFAULT
 10
162.836570314587
 20
31.93215886396269
 30
0.0
  0
VERTEX
  5
392
  8
DEFAULT
 10
162.8409559985967
 20
31.90978623464606
 30
0.0
  0
VERTEX
  5
393
  8
DEFAULT
 10
162.8447747546742
 20
31.88725604919144
 30
0.0
  0
VERTEX
  5
394
  8
DEFAULT
 10
162.8480190706553
 20
31.86458983767767
 30
0.0
  0
VERTEX
  5
395
  8
DEFAULT
 10
162.850682526013
 20
31.84180957564124
 30
0.0
  0
VERTEX
  5
396
  8
DEFAULT
 10
162.8527598233858
 20
31.81893761464533
 30
0.0
  0
VERTEX
  5
397
  8
DEFAULT
 10
162.8542468147798
 20
31.7959966102624
 30
0.0
  0
VERTEX
  5
398
  8
DEFAULT
 10
162.8551405222061
 20
31.77300944794986
 30
0.0
  0
VERTEX
  5
399
  8
DEFAULT
 10
162.8554518299065
 20
25.1332
 30
0.0
  0
VERTEX
  5
39A
  8
DEFAULT
 10
163.4418518299066
 20
24.5468
 30
0.0
  0
VERTEX
  5
39B
  8
DEFAULT
 10
164.4936254639811
 20
24.5468
 30
0.0
 42
-1.966058904701859
  0
VERTEX
  5
39C
  8
DEFAULT
 10
164.4936254640426
 20
22.7688000001735
 30
0.0
  0
VERTEX
  5
39D
  8
DEFAULT
 10
163.0736518299066
 20
22.7688
 30
0.0
 42
-0.1988847796279248
  0
VERTEX
  5
39E
  8
DEFAULT
 10
162.445051697918
 20
23.02920013198853
 30
0.0
  0
VERTEX
  5
39F
  8
DEFAULT
 10
161.3425994657962
 20
24.13165236411036
 30
0.0
 42
-0.2008759561879336
  0
VERTEX
  5
3A0
  8
DEFAULT
 10
161.0774518299066
 20
24.765
 30
0.0
  0
VERTEX
  5
3A1
  8
DEFAULT
 10
161.0774518299066
 20
31.38180000000001
 30
0.0
  0
VERTEX
  5
3A2
  8
DEFAULT
 10
156.7722518299066
 20
35.687
 30
0.0
  0
VERTEX
  5
3A3
  8
DEFAULT
 10
149.9142781955324
 20
35.68699999999999
 30
0.0
  0
SEQEND
  5
3A4
  8
DEFAULT
  0
POLYLINE
  5
3A5
  8
DEFAULT
 66
     1
 10
0.0
 20
0.0
 30
0.0
  0
VERTEX
  5
3A6
  8
DEFAULT
 10
165.7892781955324
 20
94.5388
 30
0.0
 42
-1.966058903966033
  0
VERTEX
  5
3A7
  8
DEFAULT
 10
165.7892781955324
 20
96.31679999999999
 30
0.0
  0
VERTEX
  5
3A8
  8
DEFAULT
 10
168.7736518299066
 20
96.31680000000003
 30
0.0
 42
-0.2008759562275177
  0
VERTEX
  5
3A9
  8
DEFAULT
 10
169.4069994657588
 20
96.05165236407369
 30
0.0
  0
VERTEX
  5
3AA
  8
DEFAULT
 10
170.8500518299065
 20
94.60859999999998
 30
0.0
  0
VERTEX
  5
3AB
  8
DEFAULT
 10
170.8638493487298
 20
94.5944927661347
 30
0.0
  0
VERTEX
  5
3AC
  8
DEFAULT
 10
170.8774500645054
 20
94.57995190245657
 30
0.0
  0
VERTEX
  5
3AD
  8
DEFAULT
 10
170.8908367039323
 20
94.56497856780943
 30
0.0
  0
VERTEX
  5
3AE
  8
DEFAULT
 10
170.9039917602074
 20
94.54957473080076
 30
0.0
  0
VERTEX
  5
3AF
  8
DEFAULT
 10
170.9168975350209
 20
94.53374319959082
 30
0.0
  0
VERTEX
  5
3B0
  8
DEFAULT
 10
170.9295361836151
 20
94.51748764945155
 30
0.0
  0
VERTEX
  5
3B1
  8
DEFAULT
 10
170.9418897628065
 20
94.50081264778447
 30
0.0
  0
VERTEX
  5
3B2
  8
DEFAULT
 10
170.953940281836
 20
94.48372367628738
 30
0.0
  0
VERTEX
  5
3B3
  8
DEFAULT
 10
170.9656697558807
 20
94.46622714996406
 30
0.0
  0
VERTEX
  5
3B4
  8
DEFAULT
 10
170.9770602620264
 20
94.44833043267822
 30
0.0
  0
VERTEX
  5
3B5
  8
DEFAULT
 10
170.9880939974653
 20
94.43004184896547
 30
0.0
  0
VERTEX
  5
3B6
  8
DEFAULT
 10
170.9987533396501
 20
94.41137069183114
 30
0.0
  0
VERTEX
  5
3B7
  8
DEFAULT
 10
171.0090209081025
 20
94.39232722628337
 30
0.0
  0
VERTEX
  5
3B8
  8
DEFAULT
 10
171.0188796275436
 20
94.37292268837312
 30
0.0
  0
VERTEX
  5
3B9
  8
DEFAULT
 10
171.028312791982
 20
94.35316927954202
 30
0.0
  0
VERTEX
  5
3BA
  8
DEFAULT
 10
171.0373041293697
 20
94.33308015611017
 30
0.0
  0
VERTEX
  5
3BB
  8
DEFAULT
 10
171.0458378664104
 20
94.31266941377173
 30
0.0
  0
VERTEX
  5
3BC
  8
DEFAULT
 10
171.0538987930866
 20
94.29195206700606
 30
0.0
  0
VERTEX
  5
3BD
  8
DEFAULT
 10
171.0614723264505
 20
94.27094402335334
 30
0.0
  0
VERTEX
  5
3BE
  8
DEFAULT
 10
171.0685445732167
 20
94.24966205254947
 30
0.0
  0
VERTEX
  5
3BF
  8
DEFAULT
 10
171.0751023906838
 20
94.22812375056172
 30
0.0
  0
VERTEX
  5
3C0
  8
DEFAULT
 10
171.0811334455111
 20
94.20634749861512
 30
0.0
  0
VERTEX
  5
3C1
  8
DEFAULT
 10
171.0866262698813
 20
94.18435241734926
 30
0.0
  0
VERTEX
  5
3C2
  8
DEFAULT
 10
171.091570314587
 20
94.16215831629464
 30
0.0
  0
VERTEX
  5
3C3
  8
DEFAULT
 10
171.0959559985967
 20
94.13978563890682
 30
0.0
  0
VERTEX
  5
3C4
  8
DEFAULT
 10
171.0997747546743
 20
94.11725540344479
 30
0.0
  0
VERTEX
  5
3C5
  8
DEFAULT
 10
171.1030190706553
 20
94.09458914002482
 30
0.0
  0
VERTEX
  5
3C6
  8
DEFAULT
 10
171.105682526013
 20
94.07180882422502
 30
0.0
  0
VERTEX
  5
3C7
  8
DEFAULT
 10
171.1077598233857
 20
94.04893680765412
 30
0.0
  0
VERTEX
  5
3C8
  8
DEFAULT
 10
171.1092468147798
 20
94.02599574593405
 30
0.0
  0
VERTEX
  5
3C9
  8
DEFAULT
 10
171.1101405222061
 20
94.00300852457543
 30
0.0
  0
VERTEX
  5
3CA
  8
DEFAULT
 10
171.1100099109872
 20
78.77963183704814
 30
0.0
  0
VERTEX
  5
3CB
  8
DEFAULT
 10
171.1100099109871
 20
78.70036816295183
 30
0.0
 42
-0.0001184535100851
  0
VERTEX
  5
3CC
  8
DEFAULT
 10
171.1100099109872
 20
74.96963183704817
 30
0.0
  0
VERTEX
  5
3CD
  8
DEFAULT
 10
171.1100099109872
 20
74.89036816295184
 30
0.0
  0
VERTEX
  5
3CE
  8
DEFAULT
 10
171.1100670078396
 20
58.4574753908325
 30
0.0
  0
VERTEX
  5
3CF
  8
DEFAULT
 10
171.1100201834206
 20
58.38036783971036
 30
0.0
  0
VERTEX
  5
3D0
  8
DEFAULT
 10
171.1100265755029
 20
45.68036767488289
 30
0.0
  0
VERTEX
  5
3D1
  8
DEFAULT
 10
171.1100265755028
 20
30.44036767488291
 30
0.0
  0
VERTEX
  5
3D2
  8
DEFAULT
 10
171.1104518299066
 20
13.97
 30
0.0
  0
VERTEX
  5
3D3
  8
DEFAULT
 10
171.1104518299065
 20
1.27
 30
0.0
 42
-0.2008759562272669
  0
VERTEX
  5
3D4
  8
DEFAULT
 10
170.8453041939807
 20
0.6366523641481732
 30
0.0
  0
VERTEX
  5
3D5
  8
DEFAULT
 10
168.3147994657956
 20
-1.893852364111006
 30
0.0
  0
VERTEX
  5
3D6
  8
DEFAULT
 10
168.2982878243332
 20
-1.910183064495655
 30
0.0
  0
VERTEX
  5
3D7
  8
DEFAULT
 10
168.2813594017979
 20
-1.926073094455981
 30
0.0
  0
VERTEX
  5
3D8
  8
DEFAULT
 10
168.2640320225214
 20
-1.941506752943665
 30
0.0
  0
VERTEX
  5
3D9
  8
DEFAULT
 10
168.2463242842356
 20
-1.956469307697725
 30
0.0
  0
VERTEX
  5
3DA
  8
DEFAULT
 10
168.2282554919426
 20
-1.970947041686717
 30
0.0
  0
VERTEX
  5
3DB
  8
DEFAULT
 10
168.2098455885496
 20
-1.98492729412676
 30
0.0
  0
VERTEX
  5
3DC
  8
DEFAULT
 10
168.1911150827857
 20
-1.998398495824994
 30
0.0
  0
VERTEX
  5
3DD
  8
DEFAULT
 10
168.1720849749406
 20
-2.011350198654239
 30
0.0
  0
VERTEX
  5
3DE
  8
DEFAULT
 10
168.1527766809767
 20
-2.023773099022445
 30
0.0
  0
VERTEX
  5
3DF
  8
DEFAULT
 10
168.1332119555724
 20
-2.035659055259111
 30
0.0
  0
VERTEX
  5
3E0
  8
DEFAULT
 10
168.1134128146576
 20
-2.047001098899225
 30
0.0
  0
VERTEX
  5
3E1
  8
DEFAULT
 10
168.0934014579925
 20
-2.057793439902673
 30
0.0
  0
VERTEX
  5
3E2
  8
DEFAULT
 10
168.0732001923276
 20
-2.068031465902571
 30
0.0
  0
VERTEX
  5
3E3
  8
DEFAULT
 10
168.0528313556671
 20
-2.077711735628832
 30
0.0
  0
VERTEX
  5
3E4
  8
DEFAULT
 10
168.032317243129
 20
-2.086831966702891
 30
0.0
  0
VERTEX
  5
3E5
  8
DEFAULT
 10
168.0116800348665
 20
-2.095391018045
 30
0.0
  0
VERTEX
  5
3E6
  8
DEFAULT
 10
167.990941726484
 20
-2.103388867176777
 30
0.0
  0
VERTEX
  5
3E7
  8
DEFAULT
 10
167.9701240623374
 20
-2.110826582737813
 30
0.0
  0
VERTEX
  5
3E8
  8
DEFAULT
 10
167.9492484720743
 20
-2.11770629256633
 30
0.0
  0
VERTEX
  5
3E9
  8
DEFAULT
 10
167.9283360107196
 20
-2.124031147719454
 30
0.0
  0
VERTEX
  5
3EA
  8
DEFAULT
 10
167.9074073025738
 20
-2.129805282828936
 30
0.0
  0
VERTEX
  5
3EB
  8
DEFAULT
 10
167.88648248914
 20
-2.135033773202775
 30
0.0
  0
VERTEX
  5
3EC
  8
DEFAULT
 10
167.8655811812544
 20
-2.139722589092571
 30
0.0
  0
VERTEX
  5
3ED
  8
DEFAULT
 10
167.8447224155472
 20
-2.143878547550477
 30
0.0
  0
VERTEX
  5
3EE
  8
DEFAULT
 10
167.8239246153186
 20
-2.147509262298809
 30
0.0
  0
VERTEX
  5
3EF
  8
DEFAULT
 10
167.8032055558703
 20
-2.150623092029886
 30
0.0
  0
VERTEX
  5
3F0
  8
DEFAULT
 10
167.7825823342947
 20
-2.153229087543981
 30
0.0
  0
VERTEX
  5
3F1
  8
DEFAULT
 10
167.7620713436846
 20
-2.155336938119704
 30
0.0
  0
VERTEX
  5
3F2
  8
DEFAULT
 10
167.7416882516925
 20
-2.156956917494286
 30
0.0
  0
VERTEX
  5
3F3
  8
DEFAULT
 10
167.7214479833361
 20
-2.158099829811422
 30
0.0
  0
VERTEX
  5
3F4
  8
DEFAULT
 10
167.7013647079185
 20
-2.158776955872135
 30
0.0
  0
VERTEX
  5
3F5
  8
DEFAULT
 10
159.4264528139793
 20
-2.158987322653863
 30
0.0
  0
VERTEX
  5
3F6
  8
DEFAULT
 10
159.4034425240143
 20
-2.158688692299495
 30
0.0
  0
VERTEX
  5
3F7
  8
DEFAULT
 10
159.3804553526178
 20
-2.157794984873223
 30
0.0
  0
VERTEX
  5
3F8
  8
DEFAULT
 10
159.3575143394137
 20
-2.156307993479189
 30
0.0
  0
VERTEX
  5
3F9
  8
DEFAULT
 10
159.3346423698678
 20
-2.154230696106459
 30
0.0
  0
VERTEX
  5
3FA
  8
DEFAULT
 10
159.3118620995601
 20
-2.151567240748775
 30
0.0
  0
VERTEX
  5
3FB
  8
DEFAULT
 10
159.2891958800607
 20
-2.148322924767707
 30
0.0
  0
VERTEX
  5
3FC
  8
DEFAULT
 10
159.2666656869127
 20
-2.144504168690112
 30
0.0
  0
VERTEX
  5
3FD
  8
DEFAULT
 10
159.2442930502005
 20
-2.140118484680472
 30
0.0
  0
VERTEX
  5
3FE
  8
DEFAULT
 10
159.222098988155
 20
-2.135174439974778
 30
0.0
  0
VERTEX
  5
3FF
  8
DEFAULT
 10
159.2001039442072
 20
-2.129681615604602
 30
0.0
  0
VERTEX
  5
400
  8
DEFAULT
 10
159.1783277278667
 20
-2.123650560777275
 30
0.0
  0
VERTEX
  5
401
  8
DEFAULT
 10
159.1567894597557
 20
-2.117092743310188
 30
0.0
  0
VERTEX
  5
402
  8
DEFAULT
 10
159.1355075210855
 20
-2.110020496543949
 30
0.0
  0
VERTEX
  5
403
  8
DEFAULT
 10
159.1144995078135
 20
-2.102446963180051
 30
0.0
  0
VERTEX
  5
404
  8
DEFAULT
 10
159.0937821896689
 20
-2.094386036503873
 30
0.0
  0
VERTEX
  5
405
  8
DEFAULT
 10
159.073371474189
 20
-2.085852299463135
 30
0.0
  0
VERTEX
  5
406
  8
DEFAULT
 10
159.0532823758536
 20
-2.076860962075504
 30
0.0
  0
VERTEX
  5
407
  8
DEFAULT
 10
159.0335289903606
 20
-2.067427797637036
 30
0.0
  0
VERTEX
  5
408
  8
DEFAULT
 10
159.0141244740372
 20
-2.057569078195891
 30
0.0
  0
VERTEX
  5
409
  8
DEFAULT
 10
158.9950810283352
 20
-2.047301509743511
 30
0.0
  0
VERTEX
  5
40A
  8
DEFAULT
 10
158.9764098893187
 20
-2.036642167558778
 30
0.0
  0
VERTEX
  5
40B
  8
DEFAULT
 10
158.958121322012
 20
-2.025608432119854
 30
0.0
  0
VERTEX
  5
40C
  8
DEFAULT
 10
158.9402246194392
 20
-2.014217925974133
 30
0.0
  0
VERTEX
  5
40D
  8
DEFAULT
 10
158.9227281061574
 20
-2.002488451929461
 30
0.0
  0
VERTEX
  5
40E
  8
DEFAULT
 10
158.9056391460542
 20
-1.990437932900006
 30
0.0
  0
VERTEX
  5
40F
  8
DEFAULT
 10
158.8889641541596
 20
-1.978084353708595
 30
0.0
  0
VERTEX
  5
410
  8
DEFAULT
 10
158.8727086121995
 20
-1.965445705114377
 30
0.0
  0
VERTEX
  5
411
  8
DEFAULT
 10
158.8568770876059
 20
-1.952539930300919
 30
0.0
  0
VERTEX
  5
412
  8
DEFAULT
 10
158.8414732556826
 20
-1.939384874025792
 30
0.0
  0
VERTEX
  5
413
  8
DEFAULT
 10
158.8264999246236
 20
-1.925998234598865
 30
0.0
  0
VERTEX
  5
414
  8
DEFAULT
 10
158.8119590630715
 20
-1.912397518823175
 30
0.0
  0
VERTEX
  5
415
  8
DEFAULT
 10
158.7978518299065
 20
-1.8986
 30
0.0
  0
VERTEX
  5
416
  8
DEFAULT
 10
149.2775994657958
 20
7.62165236411066
 30
0.0
 42
-0.2008759561877021
  0
VERTEX
  5
417
  8
DEFAULT
 10
149.0124518299066
 20
8.255
 30
0.0
  0
VERTEX
  5
418
  8
DEFAULT
 10
149.0124518299066
 20
16.7768
 30
0.0
  0
VERTEX
  5
419
  8
DEFAULT
 10
141.0225994657951
 20
24.76665236411141
 30
0.0
 42
-0.2008759561874729
  0
VERTEX
  5
41A
  8
DEFAULT
 10
140.7574518299066
 20
25.4
 30
0.0
  0
VERTEX
  5
41B
  8
DEFAULT
 10
140.7574518299066
 20
38.36680000000001
 30
0.0
  0
VERTEX
  5
41C
  8
DEFAULT
 10
136.1982518299066
 20
42.92600000000001
 30
0.0
  0
VERTEX
  5
41D
  8
DEFAULT
 10
132.2612781955324
 20
42.92599999999999
 30
0.0
 42
-0.1587481500481553
  0
VERTEX
  5
41E
  8
DEFAULT
 10
131.6134520153701
 20
42.71500000000004
 30
0.0
  0
VERTEX
  5
41F
  8
DEFAULT
 10
130.0894518299066
 20
42.71500000000002
 30
0.0
 42
-0.5568113860104619
  0
VERTEX
  5
420
  8
DEFAULT
 10
129.1044954874641
 20
44.30475606528399
 30
0.0
  0
VERTEX
  5
421
  8
DEFAULT
 10
126.7238099266776
 20
46.68543917402238
 30
0.0
  0
VERTEX
  5
422
  8
DEFAULT
 10
125.1159445975694
 20
45.07760248117683
 30
0.0
  0
VERTEX
  5
423
  8
DEFAULT
 10
125.1014037385299
 20
45.06400176540114
 30
0.0
  0
VERTEX
  5
424
  8
DEFAULT
 10
125.0864304117115
 20
45.05061512597421
 30
0.0
  0
VERTEX
  5
425
  8
DEFAULT
 10
125.0710265857982
 20
45.03746006969909
 30
0.0
  0
VERTEX
  5
426
  8
DEFAULT
 10
125.0551950690237
 20
45.02455429488563
 30
0.0
  0
VERTEX
  5
427
  8
DEFAULT
 10
125.03893953673
 20
45.01191564629141
 30
0.0
  0
VERTEX
  5
428
  8
DEFAULT
 10
125.0222645563846
 20
44.99956206709999
 30
0.0
  0
VERTEX
  5
429
  8
DEFAULT
 10
125.0051756097469
 20
44.98751154807054
 30
0.0
  0
VERTEX
  5
42A
  8
DEFAULT
 10
124.9876791118779
 20
44.97578207402587
 30
0.0
  0
VERTEX
  5
42B
  8
DEFAULT
 10
124.9697824266933
 20
44.96439156788014
 30
0.0
  0
VERTEX
  5
42C
  8
DEFAULT
 10
124.9514938787755
 20
44.95335783244121
 30
0.0
  0
VERTEX
  5
42D
  8
DEFAULT
 10
124.9328227611711
 20
44.94269849025649
 30
0.0
  0
VERTEX
  5
42E
  8
DEFAULT
 10
124.9137793389232
 20
44.93243092180411
 30
0.0
  0
VERTEX
  5
42F
  8
DEFAULT
 10
124.8943748481114
 20
44.92257220236296
 30
0.0
  0
VERTEX
  5
430
  8
DEFAULT
 10
124.8746214901998
 20
44.91313903792449
 30
0.0
  0
VERTEX
  5
431
  8
DEFAULT
 10
124.8545324215238
 20
44.90414770053686
 30
0.0
  0
VERTEX
  5
432
  8
DEFAULT
 10
124.8341217377858
 20
44.89561396349612
 30
0.0
  0
VERTEX
  5
433
  8
DEFAULT
 10
124.8134044534662
 20
44.88755303681994
 30
0.0
  0
VERTEX
  5
434
  8
DEFAULT
 10
124.7923964760986
 20
44.87997950345605
 30
0.0
  0
VERTEX
  5
435
  8
DEFAULT
 10
124.7711145754047
 20
44.87290725668981
 30
0.0
  0
VERTEX
  5
436
  8
DEFAULT
 10
124.7495763473298
 20
44.86634943922272
 30
0.0
  0
VERTEX
  5
437
  8
DEFAULT
 10
124.7278001730692
 20
44.8603183843954
 30
0.0
  0
VERTEX
  5
438
  8
DEFAULT
 10
124.7058051732245
 20
44.85482556002523
 30
0.0
  0
VERTEX
  5
439
  8
DEFAULT
 10
124.6836111572807
 20
44.84988151531952
 30
0.0
  0
VERTEX
  5
43A
  8
DEFAULT
 10
124.6612385686397
 20
44.84549583130988
 30
0.0
  0
VERTEX
  5
43B
  8
DEFAULT
 10
124.6387084254991
 20
44.84167707523229
 30
0.0
  0
VERTEX
  5
43C
  8
DEFAULT
 10
124.6160422579059
 20
44.83843275925123
 30
0.0
  0
VERTEX
  5
43D
  8
DEFAULT
 10
124.5932620413616
 20
44.83576930389354
 30
0.0
  0
VERTEX
  5
43E
  8
DEFAULT
 10
124.5703901273906
 20
44.8336920065208
 30
0.0
  0
VERTEX
  5
43F
  8
DEFAULT
 10
124.5474491715237
 20
44.83220501512677
 30
0.0
  0
VERTEX
  5
440
  8
DEFAULT
 10
124.5244620591732
 20
44.83131130770049
 30
0.0
  0
VERTEX
  5
441
  8
DEFAULT
 10
101.6542782087587
 20
44.83100000963817
 30
0.0
 42
-1.966058922062485
  0
VERTEX
  5
442
  8
DEFAULT
 10
101.6542781955324
 20
46.60899999999998
 30
0.0
  0
VERTEX
  5
443
  8
DEFAULT
 10
124.1332518299065
 20
46.609
 30
0.0
  0
VERTEX
  5
444
  8
DEFAULT
 10
125.4667518299066
 20
47.9425
 30
0.0
  0
VERTEX
  5
445
  8
DEFAULT
 10
124.1332518299065
 20
49.276
 30
0.0
  0
VERTEX
  5
446
  8
DEFAULT
 10
123.8792781957699
 20
49.27600000017311
 30
0.0
 42
-0.3257505690536378
  0
VERTEX
  5
447
  8
DEFAULT
 10
122.5834775519977
 20
49.27610780452935
 30
0.0
 42
-0.1951124243249274
  0
VERTEX
  5
448
  8
DEFAULT
 10
121.9678518299066
 20
49.5364
 30
0.0
  0
VERTEX
  5
449
  8
DEFAULT
 10
120.0675994657961
 20
51.43665236411043
 30
0.0
 42
-0.200875956187845
  0
VERTEX
  5
44A
  8
DEFAULT
 10
119.8024518299066
 20
52.07000000000001
 30
0.0
  0
VERTEX
  5
44B
  8
DEFAULT
 10
119.802451829929
 20
57.41680000009844
 30
0.0
  0
VERTEX
  5
44C
  8
DEFAULT
 10
117.8196317557595
 20
59.39961219549878
 30
0.0
  0
VERTEX
  5
44D
  8
DEFAULT
 10
117.7939550680719
 20
59.38369917227678
 30
0.0
  0
VERTEX
  5
44E
  8
DEFAULT
 10
117.7675025015986
 20
59.36853002218178
 30
0.0
  0
VERTEX
  5
44F
  8
DEFAULT
 10
117.7403031728193
 20
59.35415445652704
 30
0.0
  0
VERTEX
  5
450
  8
DEFAULT
 10
117.7123901310561
 20
59.34062091387977
 30
0.0
  0
VERTEX
  5
451
  8
DEFAULT
 10
117.6981773615494
 20
59.33418459930308
 30
0.0
  0
VERTEX
  5
452
  8
DEFAULT
 10
117.683800316314
 20
59.32797619030635
 30
0.0
  0
VERTEX
  5
453
  8
DEFAULT
 10
117.6692642072529
 20
59.32200121862905
 30
0.0
  0
VERTEX
  5
454
  8
DEFAULT
 10
117.654574476876
 20
59.3162650668735
 30
0.0
  0
VERTEX
  5
455
  8
DEFAULT
 10
117.6397367934474
 20
59.31077295706751
 30
0.0
  0
VERTEX
  5
456
  8
DEFAULT
 10
117.6247570454781
 20
59.3055299393861
 30
0.0
  0
VERTEX
  5
457
  8
DEFAULT
 10
117.6096413355641
 20
59.30054088107472
 30
0.0
  0
VERTEX
  5
458
  8
DEFAULT
 10
117.5943959735788
 20
59.29581045561702
 30
0.0
  0
VERTEX
  5
459
  8
DEFAULT
 10
117.5790274692292
 20
59.29134313219041
 30
0.0
  0
VERTEX
  5
45A
  8
DEFAULT
 10
117.5635425239882
 20
59.2871431654514
 30
0.0
  0
VERTEX
  5
45B
  8
DEFAULT
 10
117.5479480224194
 20
59.28321458569326
 30
0.0
  0
VERTEX
  5
45C
  8
DEFAULT
 10
117.5322510229151
 20
59.27956118941697
 30
0.0
  0
VERTEX
  5
45D
  8
DEFAULT
 10
117.516458747867
 20
59.27618653035549
 30
0.0
  0
VERTEX
  5
45E
  8
DEFAULT
 10
117.5005785732997
 20
59.27309391099016
 30
0.0
  0
VERTEX
  5
45F
  8
DEFAULT
 10
117.48461801799
 20
59.27028637459624
 30
0.0
  0
VERTEX
  5
460
  8
DEFAULT
 10
117.4685847321092
 20
59.2677666978528
 30
0.0
  0
VERTEX
  5
461
  8
DEFAULT
 10
117.4524864854178
 20
59.26553738404998
 30
0.0
  0
VERTEX
  5
462
  8
DEFAULT
 10
117.4363311550519
 20
59.26360065692425
 30
0.0
  0
VERTEX
  5
463
  8
DEFAULT
 10
117.4201267129401
 20
59.26195845514989
 30
0.0
  0
VERTEX
  5
464
  8
DEFAULT
 10
117.4038812128916
 20
59.26061242751175
 30
0.0
  0
VERTEX
  5
465
  8
DEFAULT
 10
117.3876027773984
 20
59.25956392878197
 30
0.0
  0
VERTEX
  5
466
  8
DEFAULT
 10
117.3712995841974
 20
59.25881401631938
 30
0.0
  0
VERTEX
  5
467
  8
DEFAULT
 10
117.3549798526388
 20
59.25836344740792
 30
0.0
  0
VERTEX
  5
468
  8
DEFAULT
 10
115.6242795039805
 20
59.2582009534853
 30
0.0
 42
-1.966060694537066
  0
VERTEX
  5
469
  8
DEFAULT
 10
115.6242781957699
 20
61.03619999982692
 30
0.0
  0
VERTEX
  5
46A
  8
DEFAULT
 10
116.9704518299066
 20
61.0362
 30
0.0
 42
-0.0007552179633711
  0
VERTEX
  5
46B
  8
DEFAULT
 10
117.1776411633871
 20
61.24276438357575
 30
0.0
  0
VERTEX
  5
46C
  8
DEFAULT
 10
117.2336874463302
 20
61.2988106665219
 30
0.0
 42
-0.0000664141871013
  0
VERTEX
  5
46D
  8
DEFAULT
 10
119.8024230661249
 20
63.86811370865689
 30
0.0
  0
VERTEX
  5
46E
  8
DEFAULT
 10
119.8024518299066
 20
72.65680000000009
 30
0.0
 42
-0.0001591698696568
  0
VERTEX
  5
46F
  8
DEFAULT
 10
118.8211874463309
 20
73.63868933348067
 30
0.0
  0
VERTEX
  5
470
  8
DEFAULT
 10
118.7651411633872
 20
73.69473561642421
 30
0.0
 42
-0.0002420169119721
  0
VERTEX
  5
471
  8
DEFAULT
 10
117.961281348965
 20
74.49812349364697
 30
0.0
  0
VERTEX
  5
472
  8
DEFAULT
 10
115.6242732499809
 20
74.49819639613054
 30
0.0
 42
-1.966053026043098
  0
VERTEX
  5
473
  8
DEFAULT
 10
115.6242788450246
 20
76.27619952670578
 30
0.0
  0
VERTEX
  5
474
  8
DEFAULT
 10
118.3522620644309
 20
76.27588868789744
 30
0.0
  0
VERTEX
  5
475
  8
DEFAULT
 10
118.3752491815846
 20
76.27499497636164
 30
0.0
  0
VERTEX
  5
476
  8
DEFAULT
 10
118.3981901418075
 20
76.27350798115806
 30
0.0
  0
VERTEX
  5
477
  8
DEFAULT
 10
118.4210620596953
 20
76.27143068028185
 30
0.0
  0
VERTEX
  5
478
  8
DEFAULT
 10
118.4438422797268
 20
76.26876722173172
 30
0.0
  0
VERTEX
  5
479
  8
DEFAULT
 10
118.4665084503873
 20
76.2655229028729
 30
0.0
  0
VERTEX
  5
47A
  8
DEFAULT
 10
118.4890385961864
 20
76.26170414423466
 30
0.0
  0
VERTEX
  5
47B
  8
DEFAULT
 10
118.5114111870887
 20
76.25731845798262
 30
0.0
  0
VERTEX
  5
47C
  8
DEFAULT
 10
118.5336052049088
 20
76.25237441135272
 30
0.0
  0
VERTEX
  5
47D
  8
DEFAULT
 10
118.5556002062576
 20
76.24688158537522
 30
0.0
  0
VERTEX
  5
47E
  8
DEFAULT
 10
118.5773763816636
 20
76.24085052925497
 30
0.0
  0
VERTEX
  5
47F
  8
DEFAULT
 10
118.5989146105387
 20
76.23429271080578
 30
0.0
  0
VERTEX
  5
480
  8
DEFAULT
 10
118.6201965117016
 20
76.22722046336348
 30
0.0
  0
VERTEX
  5
481
  8
DEFAULT
 10
118.6412044892213
 20
76.2196469296238
 30
0.0
  0
VERTEX
  5
482
  8
DEFAULT
 10
118.6619217733904
 20
76.21158600286542
 30
0.0
  0
VERTEX
  5
483
  8
DEFAULT
 10
118.6823324566897
 20
76.20305226602831
 30
0.0
  0
VERTEX
  5
484
  8
DEFAULT
 10
118.7024215246533
 20
76.19406092912165
 30
0.0
  0
VERTEX
  5
485
  8
DEFAULT
 10
118.7221748815929
 20
76.18462776543215
 30
0.0
  0
VERTEX
  5
486
  8
DEFAULT
 10
118.7415793711874
 20
76.174769046998
 30
0.0
  0
VERTEX
  5
487
  8
DEFAULT
 10
118.7606227919868
 20
76.16450147979992
 30
0.0
  0
VERTEX
  5
488
  8
DEFAULT
 10
118.7792939079251
 20
76.15384213910562
 30
0.0
  0
VERTEX
  5
489
  8
DEFAULT
 10
118.7975824539724
 20
76.1428084053816
 30
0.0
  0
VERTEX
  5
48A
  8
DEFAULT
 10
118.8154791370954
 20
76.13141790116316
 30
0.0
  0
VERTEX
  5
48B
  8
DEFAULT
 10
118.8329756327243
 20
76.11968842924576
 30
0.0
  0
VERTEX
  5
48C
  8
DEFAULT
 10
118.8500645769556
 20
76.10763791253092
 30
0.0
  0
VERTEX
  5
48D
  8
DEFAULT
 10
118.8667395547401
 20
76.09528433582868
 30
0.0
  0
VERTEX
  5
48E
  8
DEFAULT
 10
118.8829950843298
 20
76.08264568988531
 30
0.0
  0
VERTEX
  5
48F
  8
DEFAULT
 10
118.8988265982679
 20
76.06973991787143
 30
0.0
  0
VERTEX
  5
490
  8
DEFAULT
 10
118.9142304212228
 20
76.0565848645317
 30
0.0
  0
VERTEX
  5
491
  8
DEFAULT
 10
118.9292037449708
 20
76.04319822816323
 30
0.0
  0
VERTEX
  5
492
  8
DEFAULT
 10
118.9437446008369
 20
76.0295975155564
 30
0.0
  0
VERTEX
  5
493
  8
DEFAULT
 10
118.9578518299066
 20
76.01580000000001
 30
0.0
  0
VERTEX
  5
494
  8
DEFAULT
 10
119.4216053664468
 20
75.55204646347048
 30
0.0
 42
-0.0000183174117019
  0
VERTEX
  5
495
  8
DEFAULT
 10
123.6124518299039
 20
79.74319999999716
 30
0.0
  0
VERTEX
  5
496
  8
DEFAULT
 10
123.6124518299065
 20
83.3628
 30
0.0
 42
-0.2008759562263127
  0
VERTEX
  5
497
  8
DEFAULT
 10
123.8775994658301
 20
83.9961476358495
 30
0.0
  0
VERTEX
  5
498
  8
DEFAULT
 10
126.4119448118417
 20
86.53049298193336
 30
0.0
 42
-1.966154116085325
  0
VERTEX
  5
499
  8
DEFAULT
 10
127.669144811842
 20
85.27329298193547
 30
0.0
  0
VERTEX
  5
49A
  8
DEFAULT
 10
125.3904518299066
 20
82.99459999999999
 30
0.0
  0
VERTEX
  5
49B
  8
DEFAULT
 10
125.3904518299066
 20
79.375
 30
0.0
  0
VERTEX
  5
49C
  8
DEFAULT
 10
125.3902287857787
 20
79.35508712198823
 30
0.0
  0
VERTEX
  5
49D
  8
DEFAULT
 10
125.3895516597179
 20
79.33500384657086
 30
0.0
  0
VERTEX
  5
49E
  8
DEFAULT
 10
125.3884087474006
 20
79.3147635782147
 30
0.0
  0
VERTEX
  5
49F
  8
DEFAULT
 10
125.3867887680258
 20
79.2943804862229
 30
0.0
  0
VERTEX
  5
4A0
  8
DEFAULT
 10
125.3846809174498
 20
79.2738694956132
 30
0.0
  0
VERTEX
  5
4A1
  8
DEFAULT
 10
125.3820749219354
 20
79.25324627403809
 30
0.0
  0
VERTEX
  5
4A2
  8
DEFAULT
 10
125.3789610922039
 20
79.23252721459038
 30
0.0
  0
VERTEX
  5
4A3
  8
DEFAULT
 10
125.3753303774551
 20
79.21172941436241
 30
0.0
  0
VERTEX
  5
4A4
  8
DEFAULT
 10
125.3711744189967
 20
79.19087064865592
 30
0.0
  0
VERTEX
  5
4A5
  8
DEFAULT
 10
125.3664856031063
 20
79.16996934077105
 30
0.0
  0
VERTEX
  5
4A6
  8
DEFAULT
 10
125.3612571127317
 20
79.14904452733812
 30
0.0
  0
VERTEX
  5
4A7
  8
DEFAULT
 10
125.3554829776215
 20
79.12811581919327
 30
0.0
  0
VERTEX
  5
4A8
  8
DEFAULT
 10
125.3491581224676
 20
79.10720335783961
 30
0.0
  0
VERTEX
  5
4A9
  8
DEFAULT
 10
125.3422784126382
 20
79.08632776757752
 30
0.0
  0
VERTEX
  5
4AA
  8
DEFAULT
 10
125.3348406970762
 20
79.06551010343208
 30
0.0
  0
VERTEX
  5
4AB
  8
DEFAULT
 10
125.3268428479434
 20
79.0447717950507
 30
0.0
  0
VERTEX
  5
4AC
  8
DEFAULT
 10
125.3182837966003
 20
79.02413458678957
 30
0.0
  0
VERTEX
  5
4AD
  8
DEFAULT
 10
125.309163565525
 20
79.00362047425281
 30
0.0
  0
VERTEX
  5
4AE
  8
DEFAULT
 10
125.2994832957976
 20
78.98325163759384
 30
0.0
  0
VERTEX
  5
4AF
  8
DEFAULT
 10
125.2892452697963
 20
78.96305037193044
 30
0.0
  0
VERTEX
  5
4B0
  8
DEFAULT
 10
125.2784529287915
 20
78.94303901526688
 30
0.0
  0
VERTEX
  5
4B1
  8
DEFAULT
 10
125.2671108851499
 20
78.92323987435384
 30
0.0
  0
VERTEX
  5
4B2
  8
DEFAULT
 10
125.2552249289118
 20
78.90367514895125
 30
0.0
  0
VERTEX
  5
4B3
  8
DEFAULT
 10
125.242802028542
 20
78.88436685498911
 30
0.0
  0
VERTEX
  5
4B4
  8
DEFAULT
 10
125.229850325711
 20
78.86533674714595
 30
0.0
  0
VERTEX
  5
4B5
  8
DEFAULT
 10
125.2163791240111
 20
78.84660624138397
 30
0.0
  0
VERTEX
  5
4B6
  8
DEFAULT
 10
125.2023988715693
 20
78.82819633799295
 30
0.0
  0
VERTEX
  5
4B7
  8
DEFAULT
 10
125.1879211375784
 20
78.81012754570209
 30
0.0
  0
VERTEX
  5
4B8
  8
DEFAULT
 10
125.1729585828224
 20
78.79241980741841
 30
0.0
  0
VERTEX
  5
4B9
  8
DEFAULT
 10
125.1575249243328
 20
78.77509242814409
 30
0.0
  0
VERTEX
  5
4BA
  8
DEFAULT
 10
125.1416348943704
 20
78.7581640056111
 30
0.0
  0
VERTEX
  5
4BB
  8
DEFAULT
 10
120.6786443065728
 20
74.29501639688476
 30
0.0
 42
0.000003484399153
  0
VERTEX
  5
4BC
  8
DEFAULT
 10
121.3153041940168
 20
73.65834763588646
 30
0.0
  0
VERTEX
  5
4BD
  8
DEFAULT
 10
121.3316348956682
 20
73.64183598059051
 30
0.0
  0
VERTEX
  5
4BE
  8
DEFAULT
 10
121.3475249266568
 20
73.62490754528987
 30
0.0
  0
VERTEX
  5
4BF
  8
DEFAULT
 10
121.3629585859557
 20
73.60758015431706
 30
0.0
  0
VERTEX
  5
4C0
  8
DEFAULT
 10
121.3779211413247
 20
73.58987240540166
 30
0.0
  0
VERTEX
  5
4C1
  8
DEFAULT
 10
121.3923988757532
 20
73.57180360354032
 30
0.0
  0
VERTEX
  5
4C2
  8
DEFAULT
 10
121.4063791284773
 20
73.55339369163127
 30
0.0
  0
VERTEX
  5
4C3
  8
DEFAULT
 10
121.4198503303237
 20
73.53466317839192
 30
0.0
  0
VERTEX
  5
4C4
  8
DEFAULT
 10
121.4328020331841
 20
73.51563306409734
 30
0.0
  0
VERTEX
  5
4C5
  8
DEFAULT
 10
121.4452249334843
 20
73.49632476469228
 30
0.0
  0
VERTEX
  5
4C6
  8
DEFAULT
 10
121.4571108895708
 20
73.47676003483511
 30
0.0
  0
VERTEX
  5
4C7
  8
DEFAULT
 10
121.4684529329945
 20
73.45696089043328
 30
0.0
  0
VERTEX
  5
4C8
  8
DEFAULT
 10
121.4792452737302
 20
73.43694953122193
 30
0.0
  0
VERTEX
  5
4C9
  8
DEFAULT
 10
121.4894832994247
 20
73.41674826392477
 30
0.0
  0
VERTEX
  5
4CA
  8
DEFAULT
 10
121.4991635688205
 20
73.39637942651733
 30
0.0
  0
VERTEX
  5
4CB
  8
DEFAULT
 10
121.5082837995501
 20
73.37586531408694
 30
0.0
  0
VERTEX
  5
4CC
  8
DEFAULT
 10
121.5168428505438
 20
73.35522810675512
 30
0.0
  0
VERTEX
  5
4CD
  8
DEFAULT
 10
121.524840699332
 20
73.3344898000929
 30
0.0
  0
VERTEX
  5
4CE
  8
DEFAULT
 10
121.5322784145617
 20
73.31367213842216
 30
0.0
  0
VERTEX
  5
4CF
  8
DEFAULT
 10
121.5391581240772
 20
73.29279655135535
 30
0.0
  0
VERTEX
  5
4D0
  8
DEFAULT
 10
121.5454829789408
 20
73.27188409388187
 30
0.0
  0
VERTEX
  5
4D1
  8
DEFAULT
 10
121.5512571137878
 20
73.25095539026601
 30
0.0
  0
VERTEX
  5
4D2
  8
DEFAULT
 10
121.556485603929
 20
73.2300305819745
 30
0.0
  0
VERTEX
  5
4D3
  8
DEFAULT
 10
121.5611744196174
 20
73.20912927980709
 30
0.0
  0
VERTEX
  5
4D4
  8
DEFAULT
 10
121.5653303779057
 20
73.18827052035776
 30
0.0
  0
VERTEX
  5
4D5
  8
DEFAULT
 10
121.5689610925156
 20
73.16747272689064
 30
0.0
  0
VERTEX
  5
4D6
  8
DEFAULT
 10
121.572074922138
 20
73.1467536746718
 30
0.0
  0
VERTEX
  5
4D7
  8
DEFAULT
 10
121.574680917571
 20
73.1261304607585
 30
0.0
  0
VERTEX
  5
4D8
  8
DEFAULT
 10
121.5767887680902
 20
73.10561947820914
 30
0.0
  0
VERTEX
  5
4D9
  8
DEFAULT
 10
121.578408747429
 20
73.08523639464259
 30
0.0
  0
VERTEX
  5
4DA
  8
DEFAULT
 10
121.5795516597269
 20
73.06499613504383
 30
0.0
  0
VERTEX
  5
4DB
  8
DEFAULT
 10
121.58022878578
 20
73.04491286868426
 30
0.0
  0
VERTEX
  5
4DC
  8
DEFAULT
 10
121.5804391525604
 20
63.5
 30
0.0
  0
VERTEX
  5
4DD
  8
DEFAULT
 10
121.5801405174143
 20
63.47698976508599
 30
0.0
  0
VERTEX
  5
4DE
  8
DEFAULT
 10
121.5792468047103
 20
63.45400264676408
 30
0.0
  0
VERTEX
  5
4DF
  8
DEFAULT
 10
121.5777598075623
 20
63.43106168459681
 30
0.0
  0
VERTEX
  5
4E0
  8
DEFAULT
 10
121.5756825039694
 20
63.40818976399221
 30
0.0
  0
VERTEX
  5
4E1
  8
DEFAULT
 10
121.5730190419356
 20
63.38540954047715
 30
0.0
  0
VERTEX
  5
4E2
  8
DEFAULT
 10
121.5697747188332
 20
63.36274336557306
 30
0.0
  0
VERTEX
  5
4E3
  8
DEFAULT
 10
121.5659559551998
 20
63.34021321477879
 30
0.0
  0
VERTEX
  5
4E4
  8
DEFAULT
 10
121.561570263211
 20
63.31784061813968
 30
0.0
  0
VERTEX
  5
4E5
  8
DEFAULT
 10
121.5566262101137
 20
63.29564659385218
 30
0.0
  0
VERTEX
  5
4E6
  8
DEFAULT
 10
121.5511333769509
 20
63.27365158531801
 30
0.0
  0
VERTEX
  5
4E7
  8
DEFAULT
 10
121.5451023129411
 20
63.25187540202246
 30
0.0
  0
VERTEX
  5
4E8
  8
DEFAULT
 10
121.5385444859131
 20
63.23033716456865
 30
0.0
  0
VERTEX
  5
4E9
  8
DEFAULT
 10
121.5314722292191
 20
63.20905525415394
 30
0.0
  0
VERTEX
  5
4EA
  8
DEFAULT
 10
121.5238986855718
 20
63.18804726672661
 30
0.0
  0
VERTEX
  5
4EB
  8
DEFAULT
 10
121.5158377482681
 20
63.16732997201221
 30
0.0
  0
VERTEX
  5
4EC
  8
DEFAULT
 10
121.5073040002671
 20
63.14691927754903
 30
0.0
  0
VERTEX
  5
4ED
  8
DEFAULT
 10
121.4983126515978
 20
63.1268301978229
 30
0.0
  0
VERTEX
  5
4EE
  8
DEFAULT
 10
121.4888794755677
 20
63.1070768285426
 30
0.0
  0
VERTEX
  5
4EF
  8
DEFAULT
 10
121.4790207442361
 20
63.08767232605067
 30
0.0
  0
VERTEX
  5
4F0
  8
DEFAULT
 10
121.4687531636056
 20
63.0686288918189
 30
0.0
  0
VERTEX
  5
4F1
  8
DEFAULT
 10
121.4580938089664
 20
63.04995776193567
 30
0.0
  0
VERTEX
  5
4F2
  8
DEFAULT
 10
121.4470600608075
 20
63.03166920145357
 30
0.0
  0
VERTEX
  5
4F3
  8
DEFAULT
 10
121.4356695416875
 20
63.01377250342904
 30
0.0
  0
VERTEX
  5
4F4
  8
DEFAULT
 10
121.423940054425
 20
62.99627599245502
 30
0.0
  0
VERTEX
  5
4F5
  8
DEFAULT
 10
121.4118895219451
 20
62.97918703245863
 30
0.0
  0
VERTEX
  5
4F6
  8
DEFAULT
 10
121.3995359290812
 20
62.96251203851244
 30
0.0
  0
VERTEX
  5
4F7
  8
DEFAULT
 10
121.3868972666032
 20
62.94625649238817
 30
0.0
  0
VERTEX
  5
4F8
  8
DEFAULT
 10
121.3739914777052
 20
62.93042496156597
 30
0.0
  0
VERTEX
  5
4F9
  8
DEFAULT
 10
121.3608364071552
 20
62.91502112140072
 30
0.0
  0
VERTEX
  5
4FA
  8
DEFAULT
 10
121.3474497532735
 20
62.90004778013952
 30
0.0
  0
VERTEX
  5
4FB
  8
DEFAULT
 10
121.3338490228733
 20
62.88550690648005
 30
0.0
  0
VERTEX
  5
4FC
  8
DEFAULT
 10
121.320051489266
 20
62.87139965935945
 30
0.0
  0
VERTEX
  5
4FD
  8
DEFAULT
 10
119.0910033728036
 20
60.64235154289702
 30
0.0
  0
VERTEX
  5
4FE
  8
DEFAULT
 10
121.3338493454629
 20
58.39949277093029
 30
0.0
  0
VERTEX
  5
4FF
  8
DEFAULT
 10
121.3474500580698
 20
58.38495191506419
 30
0.0
  0
VERTEX
  5
500
  8
DEFAULT
 10
121.3608366944382
 20
58.36997859131627
 30
0.0
  0
VERTEX
  5
501
  8
DEFAULT
 10
121.373991747778
 20
58.35457476836131
 30
0.0
  0
VERTEX
  5
502
  8
DEFAULT
 10
121.3868975197919
 20
58.33874325442321
 30
0.0
  0
VERTEX
  5
503
  8
DEFAULT
 10
121.3995361657352
 20
58.32248772483356
 30
0.0
  0
VERTEX
  5
504
  8
DEFAULT
 10
121.4118897424375
 20
58.305812747049
 30
0.0
  0
VERTEX
  5
505
  8
DEFAULT
 10
121.4239402591523
 20
58.28872380281774
 30
0.0
  0
VERTEX
  5
506
  8
DEFAULT
 10
121.4356697310697
 20
58.27122730718879
 30
0.0
  0
VERTEX
  5
507
  8
DEFAULT
 10
121.4470602352881
 20
58.25333062406581
 30
0.0
  0
VERTEX
  5
508
  8
DEFAULT
 10
121.4580939690121
 20
58.23504207801849
 30
0.0
  0
VERTEX
  5
509
  8
DEFAULT
 10
121.4687533097065
 20
58.21637096208023
 30
0.0
  0
VERTEX
  5
50A
  8
DEFAULT
 10
121.4790208769046
 20
58.19732754128083
 30
0.0
  0
VERTEX
  5
50B
  8
DEFAULT
 10
121.4888795953388
 20
58.17792305168636
 30
0.0
  0
VERTEX
  5
50C
  8
DEFAULT
 10
121.4983127590282
 20
58.15816969474671
 30
0.0
  0
VERTEX
  5
50D
  8
DEFAULT
 10
121.5073040959349
 20
58.13808062678316
 30
0.0
  0
VERTEX
  5
50E
  8
DEFAULT
 10
121.515837832772
 20
58.1176699434839
 30
0.0
  0
VERTEX
  5
50F
  8
DEFAULT
 10
121.5238987595304
 20
58.09695265931481
 30
0.0
  0
VERTEX
  5
510
  8
DEFAULT
 10
121.53147229327
 20
58.07594468179509
 30
0.0
  0
VERTEX
  5
511
  8
DEFAULT
 10
121.5385445407123
 20
58.05466278063215
 30
0.0
  0
VERTEX
  5
512
  8
DEFAULT
 10
121.5451023591615
 20
58.03312455175708
 30
0.0
  0
VERTEX
  5
513
  8
DEFAULT
 10
121.5511334152818
 20
58.01134837635106
 30
0.0
  0
VERTEX
  5
514
  8
DEFAULT
 10
121.5566262412593
 20
57.98935337500226
 30
0.0
  0
VERTEX
  5
515
  8
DEFAULT
 10
121.5615702878892
 20
57.96715935718213
 30
0.0
  0
VERTEX
  5
516
  8
DEFAULT
 10
121.5659559741412
 20
57.94478676627987
 30
0.0
  0
VERTEX
  5
517
  8
DEFAULT
 10
121.5697747327795
 20
57.92225662048071
 30
0.0
  0
VERTEX
  5
518
  8
DEFAULT
 10
121.5730190516383
 20
57.8995904498202
 30
0.0
  0
VERTEX
  5
519
  8
DEFAULT
 10
121.5756825101884
 20
57.87681022978875
 30
0.0
  0
VERTEX
  5
51A
  8
DEFAULT
 10
121.5777598110647
 20
57.8539383119009
 30
0.0
  0
VERTEX
  5
51B
  8
DEFAULT
 10
121.5792468062682
 20
57.83099735167804
 30
0.0
  0
VERTEX
  5
51C
  8
DEFAULT
 10
121.580140517804
 20
57.80801023452436
 30
0.0
  0
VERTEX
  5
51D
  8
DEFAULT
 10
121.5804518299066
 20
52.43819999999999
 30
0.0
  0
VERTEX
  5
51E
  8
DEFAULT
 10
122.8296585770278
 20
51.18899325287872
 30
0.0
 42
-0.2563160608195089
  0
VERTEX
  5
51F
  8
DEFAULT
 10
123.8792781957705
 20
51.05399999982648
 30
0.0
  0
VERTEX
  5
520
  8
DEFAULT
 10
124.5014518299066
 20
51.054
 30
0.0
  0
VERTEX
  5
521
  8
DEFAULT
 10
124.5213647079184
 20
51.0537769558721
 30
0.0
  0
VERTEX
  5
522
  8
DEFAULT
 10
124.5414479833359
 20
51.05309982981129
 30
0.0
  0
VERTEX
  5
523
  8
DEFAULT
 10
124.5616882516921
 20
51.051956917494
 30
0.0
  0
VERTEX
  5
524
  8
DEFAULT
 10
124.582071343684
 20
51.05033693811919
 30
0.0
  0
VERTEX
  5
525
  8
DEFAULT
 10
124.6025823342938
 20
51.04822908754318
 30
0.0
  0
VERTEX
  5
526
  8
DEFAULT
 10
124.623205555869
 20
51.04562309202873
 30
0.0
  0
VERTEX
  5
527
  8
DEFAULT
 10
124.6439246153168
 20
51.04250926229724
 30
0.0
  0
VERTEX
  5
528
  8
DEFAULT
 10
124.6647224155449
 20
51.0388785475484
 30
0.0
  0
VERTEX
  5
529
  8
DEFAULT
 10
124.6855811812515
 20
51.03472258908993
 30
0.0
  0
VERTEX
  5
52A
  8
DEFAULT
 10
124.7064824891364
 20
51.03003377319949
 30
0.0
  0
VERTEX
  5
52B
  8
DEFAULT
 10
124.7274073025695
 20
51.02480528282496
 30
0.0
  0
VERTEX
  5
52C
  8
DEFAULT
 10
124.7483360107144
 20
51.01903114771468
 30
0.0
  0
VERTEX
  5
52D
  8
DEFAULT
 10
124.7692484720682
 20
51.01270629256069
 30
0.0
  0
VERTEX
  5
52E
  8
DEFAULT
 10
124.7901240623303
 20
51.00582658273123
 30
0.0
  0
VERTEX
  5
52F
  8
DEFAULT
 10
124.8109417264759
 20
50.99838886716918
 30
0.0
  0
VERTEX
  5
530
  8
DEFAULT
 10
124.8316800348573
 20
50.99039101803631
 30
0.0
  0
VERTEX
  5
531
  8
DEFAULT
 10
124.8523172431186
 20
50.98183196669302
 30
0.0
  0
VERTEX
  5
532
  8
DEFAULT
 10
124.8728313556554
 20
50.97271173561771
 30
0.0
  0
VERTEX
  5
533
  8
DEFAULT
 10
124.8932001923145
 20
50.96303146589013
 30
0.0
  0
VERTEX
  5
534
  8
DEFAULT
 10
124.9134014579779
 20
50.95279343988884
 30
0.0
  0
VERTEX
  5
535
  8
DEFAULT
 10
124.9334128146415
 20
50.9420010988839
 30
0.0
  0
VERTEX
  5
536
  8
DEFAULT
 10
124.9532119555547
 20
50.93065905524224
 30
0.0
  0
VERTEX
  5
537
  8
DEFAULT
 10
124.9727766809573
 20
50.91877309900395
 30
0.0
  0
VERTEX
  5
538
  8
DEFAULT
 10
124.9920849749195
 20
50.90635019863404
 30
0.0
  0
VERTEX
  5
539
  8
DEFAULT
 10
125.0111150827627
 20
50.89339849580303
 30
0.0
  0
VERTEX
  5
53A
  8
DEFAULT
 10
125.0298455885247
 20
50.87992729410294
 30
0.0
  0
VERTEX
  5
53B
  8
DEFAULT
 10
125.0482554919158
 20
50.86594704166098
 30
0.0
  0
VERTEX
  5
53C
  8
DEFAULT
 10
125.0663242842067
 20
50.85146930767001
 30
0.0
  0
VERTEX
  5
53D
  8
DEFAULT
 10
125.0840320224904
 20
50.83650675291389
 30
0.0
  0
VERTEX
  5
53E
  8
DEFAULT
 10
125.1013594017647
 20
50.82107309442409
 30
0.0
  0
VERTEX
  5
53F
  8
DEFAULT
 10
125.1182878242978
 20
50.80518306446159
 30
0.0
  0
VERTEX
  5
540
  8
DEFAULT
 10
127.3242162134823
 20
48.59881066651944
 30
0.0
  0
VERTEX
  5
541
  8
DEFAULT
 10
127.380262496426
 20
48.54276438357574
 30
0.0
  0
VERTEX
  5
542
  8
DEFAULT
 10
131.0086546101091
 20
44.91500000000001
 30
0.0
  0
VERTEX
  5
543
  8
DEFAULT
 10
131.6134518299066
 20
44.91500000000001
 30
0.0
 42
-0.1587495788487509
  0
VERTEX
  5
544
  8
DEFAULT
 10
132.2612828458489
 20
44.70399661123264
 30
0.0
  0
VERTEX
  5
545
  8
DEFAULT
 10
136.5863647079185
 20
44.70377695587211
 30
0.0
  0
VERTEX
  5
546
  8
DEFAULT
 10
136.606447983336
 20
44.70309982981129
 30
0.0
  0
VERTEX
  5
547
  8
DEFAULT
 10
136.6266882516923
 20
44.70195691749399
 30
0.0
  0
VERTEX
  5
548
  8
DEFAULT
 10
136.6470713436843
 20
44.70033693811919
 30
0.0
  0
VERTEX
  5
549
  8
DEFAULT
 10
136.6675823342941
 20
44.69822908754316
 30
0.0
  0
VERTEX
  5
54A
  8
DEFAULT
 10
136.6882055558694
 20
44.69562309202869
 30
0.0
  0
VERTEX
  5
54B
  8
DEFAULT
 10
136.7089246153172
 20
44.69250926229717
 30
0.0
  0
VERTEX
  5
54C
  8
DEFAULT
 10
136.7297224155454
 20
44.68887854754831
 30
0.0
  0
VERTEX
  5
54D
  8
DEFAULT
 10
136.750581181252
 20
44.68472258908981
 30
0.0
  0
VERTEX
  5
54E
  8
DEFAULT
 10
136.771482489137
 20
44.68003377319933
 30
0.0
  0
VERTEX
  5
54F
  8
DEFAULT
 10
136.7924073025701
 20
44.67480528282476
 30
0.0
  0
VERTEX
  5
550
  8
DEFAULT
 10
136.8133360107151
 20
44.66903114771446
 30
0.0
  0
VERTEX
  5
551
  8
DEFAULT
 10
136.8342484720689
 20
44.66270629256042
 30
0.0
  0
VERTEX
  5
552
  8
DEFAULT
 10
136.8551240623312
 20
44.65582658273092
 30
0.0
  0
VERTEX
  5
553
  8
DEFAULT
 10
136.8759417264768
 20
44.64838886716882
 30
0.0
  0
VERTEX
  5
554
  8
DEFAULT
 10
136.8966800348583
 20
44.64039101803591
 30
0.0
  0
VERTEX
  5
555
  8
DEFAULT
 10
136.9173172431196
 20
44.63183196669258
 30
0.0
  0
VERTEX
  5
556
  8
DEFAULT
 10
136.9378313556564
 20
44.62271173561722
 30
0.0
  0
VERTEX
  5
557
  8
DEFAULT
 10
136.9582001923155
 20
44.61303146588957
 30
0.0
  0
VERTEX
  5
558
  8
DEFAULT
 10
136.9784014579791
 20
44.60279343988822
 30
0.0
  0
VERTEX
  5
559
  8
DEFAULT
 10
136.9984128146427
 20
44.59200109888322
 30
0.0
  0
VERTEX
  5
55A
  8
DEFAULT
 10
137.0182119555559
 20
44.58065905524148
 30
0.0
  0
VERTEX
  5
55B
  8
DEFAULT
 10
137.0377766809586
 20
44.56877309900312
 30
0.0
  0
VERTEX
  5
55C
  8
DEFAULT
 10
137.0570849749208
 20
44.55635019863315
 30
0.0
  0
VERTEX
  5
55D
  8
DEFAULT
 10
137.0761150827641
 20
44.54339849580205
 30
0.0
  0
VERTEX
  5
55E
  8
DEFAULT
 10
137.0948455885261
 20
44.52992729410189
 30
0.0
  0
VERTEX
  5
55F
  8
DEFAULT
 10
137.1132554919172
 20
44.51594704165986
 30
0.0
  0
VERTEX
  5
560
  8
DEFAULT
 10
137.1313242842081
 20
44.50146930766881
 30
0.0
  0
VERTEX
  5
561
  8
DEFAULT
 10
137.1490320224919
 20
44.48650675291263
 30
0.0
  0
VERTEX
  5
562
  8
DEFAULT
 10
137.1663594017662
 20
44.47107309442273
 30
0.0
  0
VERTEX
  5
563
  8
DEFAULT
 10
137.1832878242992
 20
44.45518306446014
 30
0.0
  0
VERTEX
  5
564
  8
DEFAULT
 10
137.1997994657594
 20
44.43885236407317
 30
0.0
  0
VERTEX
  5
565
  8
DEFAULT
 10
142.2703041940172
 20
39.36834763588936
 30
0.0
 42
-0.2008759561877023
  0
VERTEX
  5
566
  8
DEFAULT
 10
142.5354518299066
 20
38.735
 30
0.0
  0
VERTEX
  5
567
  8
DEFAULT
 10
142.5354518299066
 20
25.7682
 30
0.0
  0
VERTEX
  5
568
  8
DEFAULT
 10
150.5253041940174
 20
17.77834763588927
 30
0.0
 42
-0.2008759561876851
  0
VERTEX
  5
569
  8
DEFAULT
 10
150.7904518299066
 20
17.145
 30
0.0
  0
VERTEX
  5
56A
  8
DEFAULT
 10
150.7904518299066
 20
8.623199999999999
 30
0.0
  0
VERTEX
  5
56B
  8
DEFAULT
 10
159.7946518299066
 20
-0.3809999999999976
 30
0.0
  0
VERTEX
  5
56C
  8
DEFAULT
 10
167.3132518299066
 20
-0.381
 30
0.0
  0
VERTEX
  5
56D
  8
DEFAULT
 10
169.3324518299066
 20
1.638199999999999
 30
0.0
  0
VERTEX
  5
56E
  8
DEFAULT
 10
169.3324518299066
 20
13.081
 30
0.0
  0
VERTEX
  5
56F
  8
DEFAULT
 10
165.4096639847804
 20
13.08100000001035
 30
0.0
 42
-1.800917954515276
  0
VERTEX
  5
570
  8
DEFAULT
 10
165.9806170022549
 20
14.85899745045341
 30
0.0
 42
-0.0000456896394642
  0
VERTEX
  5
571
  8
DEFAULT
 10
169.3324518299066
 20
14.85863527317997
 30
0.0
  0
VERTEX
  5
572
  8
DEFAULT
 10
169.3324518299066
 20
25.9132
 30
0.0
  0
VERTEX
  5
573
  8
DEFAULT
 10
165.7892781955324
 20
25.91319999999999
 30
0.0
 42
-1.966058903966076
  0
VERTEX
  5
574
  8
DEFAULT
 10
165.7892781955324
 20
27.69119999999995
 30
0.0
  0
VERTEX
  5
575
  8
DEFAULT
 10
169.3324518299157
 20
27.69119999999999
 30
0.0
  0
VERTEX
  5
576
  8
DEFAULT
 10
169.3324420878198
 20
29.69354487928572
 30
0.0
 42
-0.0000646590512494
  0
VERTEX
  5
577
  8
DEFAULT
 10
168.7189946870494
 20
29.76880000000028
 30
0.0
  0
VERTEX
  5
578
  8
DEFAULT
 10
165.7892781955324
 20
29.76880000000001
 30
0.0
 42
-1.966058903966056
  0
VERTEX
  5
579
  8
DEFAULT
 10
165.7892781955324
 20
31.54679999999999
 30
0.0
  0
VERTEX
  5
57A
  8
DEFAULT
 10
168.7659498825335
 20
31.54680000000003
 30
0.0
 42
-0.0327361201211089
  0
VERTEX
  5
57B
  8
DEFAULT
 10
168.8820518299065
 20
31.54019999999999
 30
0.0
  0
VERTEX
  5
57C
  8
DEFAULT
 10
169.3324518299066
 20
31.48488771929824
 30
0.0
  0
VERTEX
  5
57D
  8
DEFAULT
 10
169.3324518299066
 20
41.15319999999998
 30
0.0
  0
VERTEX
  5
57E
  8
DEFAULT
 10
165.7892781955324
 20
41.15320000000001
 30
0.0
 42
-1.966058903966318
  0
VERTEX
  5
57F
  8
DEFAULT
 10
165.7892781955325
 20
42.93119999999998
 30
0.0
  0
VERTEX
  5
580
  8
DEFAULT
 10
169.3324518299115
 20
42.93119999999999
 30
0.0
  0
VERTEX
  5
581
  8
DEFAULT
 10
169.3324420878198
 20
44.93354487928598
 30
0.0
 42
-0.0000646590511581
  0
VERTEX
  5
582
  8
DEFAULT
 10
168.7189946870493
 20
45.00880000000052
 30
0.0
  0
VERTEX
  5
583
  8
DEFAULT
 10
165.7892781955324
 20
45.0088
 30
0.0
 42
-1.966058903965908
  0
VERTEX
  5
584
  8
DEFAULT
 10
165.7892781955325
 20
46.78679999999996
 30
0.0
  0
VERTEX
  5
585
  8
DEFAULT
 10
168.7659498825317
 20
46.78679999999999
 30
0.0
 42
-0.0327361201214622
  0
VERTEX
  5
586
  8
DEFAULT
 10
168.8820518299066
 20
46.7802
 30
0.0
  0
VERTEX
  5
587
  8
DEFAULT
 10
169.3324518299065
 20
46.72488771929824
 30
0.0
  0
VERTEX
  5
588
  8
DEFAULT
 10
169.3324429951273
 20
57.61094767688634
 30
0.0
 42
-0.0000843882421638
  0
VERTEX
  5
589
  8
DEFAULT
 10
168.7772177905721
 20
57.66319999999996
 30
0.0
  0
VERTEX
  5
58A
  8
DEFAULT
 10
165.7892781955324
 20
57.6632
 30
0.0
 42
-1.966081787160807
  0
VERTEX
  5
58B
  8
DEFAULT
 10
165.7892949200642
 20
59.44118781236426
 30
0.0
 42
-0.0000434491433374
  0
VERTEX
  5
58C
  8
DEFAULT
 10
168.7817764390741
 20
59.44081517792802
 30
0.0
  0
VERTEX
  5
58D
  8
DEFAULT
 10
169.3324668343158
 20
59.39661630108635
 30
0.0
 42
-0.0000035351460572
  0
VERTEX
  5
58E
  8
DEFAULT
 10
169.3324518299196
 20
61.51880000000001
 30
0.0
  0
VERTEX
  5
58F
  8
DEFAULT
 10
165.7892781955324
 20
61.51880000000001
 30
0.0
 42
-1.966058903966057
  0
VERTEX
  5
590
  8
DEFAULT
 10
165.7892781955325
 20
63.29679999999996
 30
0.0
  0
VERTEX
  5
591
  8
DEFAULT
 10
169.3324518299066
 20
63.2968
 30
0.0
  0
VERTEX
  5
592
  8
DEFAULT
 10
169.3324518299066
 20
74.04121931758729
 30
0.0
  0
VERTEX
  5
593
  8
DEFAULT
 10
165.5502948816202
 20
74.04100101886779
 30
0.0
 42
-1.887615391888198
  0
VERTEX
  5
594
  8
DEFAULT
 10
165.9397335846785
 20
75.81899999999888
 30
0.0
  0
VERTEX
  5
595
  8
DEFAULT
 10
169.3324518299065
 20
75.819
 30
0.0
  0
VERTEX
  5
596
  8
DEFAULT
 10
169.3324518299065
 20
77.85121904393333
 30
0.0
  0
VERTEX
  5
597
  8
DEFAULT
 10
165.4096644269731
 20
77.85100011118541
 30
0.0
 42
-1.800915171243935
  0
VERTEX
  5
598
  8
DEFAULT
 10
165.980614841496
 20
79.62899999998605
 30
0.0
  0
VERTEX
  5
599
  8
DEFAULT
 10
169.3324518299066
 20
79.629
 30
0.0
  0
VERTEX
  5
59A
  8
DEFAULT
 10
169.3324518299066
 20
93.61180000000002
 30
0.0
  0
VERTEX
  5
59B
  8
DEFAULT
 10
168.4054518299066
 20
94.5388
 30
0.0
  0
VERTEX
  5
59C
  8
DEFAULT
 10
165.7892781955324
 20
94.5388
 30
0.0
  0
SEQEND
  5
59D
  8
DEFAULT
  0
POLYLINE
  5
59E
  8
DEFAULT
 66
     1
 10
0.0
 20
0.0
 30
0.0
  0
VERTEX
  5
59F
  8
DEFAULT
 10
149.9142781955324
 20
33.147
 30
0.0
 42
-1.966059133016115
  0
VERTEX
  5
5A0
  8
DEFAULT
 10
149.9142783629399
 20
34.9249998780079
 30
0.0
  0
VERTEX
  5
5A1
  8
DEFAULT
 10
155.8934622050608
 20
34.92468868789739
 30
0.0
  0
VERTEX
  5
5A2
  8
DEFAULT
 10
155.9164493132217
 20
34.92379497636162
 30
0.0
  0
VERTEX
  5
5A3
  8
DEFAULT
 10
155.9393902647121
 20
34.92230798115802
 30
0.0
  0
VERTEX
  5
5A4
  8
DEFAULT
 10
155.9622621741359
 20
34.92023068028183
 30
0.0
  0
VERTEX
  5
5A5
  8
DEFAULT
 10
155.9850423859792
 20
34.91756722173171
 30
0.0
  0
VERTEX
  5
5A6
  8
DEFAULT
 10
156.0077085487344
 20
34.91432290287288
 30
0.0
  0
VERTEX
  5
5A7
  8
DEFAULT
 10
156.0302386869174
 20
34.91050414423462
 30
0.0
  0
VERTEX
  5
5A8
  8
DEFAULT
 10
156.0526112704985
 20
34.90611845798259
 30
0.0
  0
VERTEX
  5
5A9
  8
DEFAULT
 10
156.0748052812973
 20
34.90117441135269
 30
0.0
  0
VERTEX
  5
5AA
  8
DEFAULT
 10
156.0968002759292
 20
34.89568158537519
 30
0.0
  0
VERTEX
  5
5AB
  8
DEFAULT
 10
156.1185764449265
 20
34.88965052925496
 30
0.0
  0
VERTEX
  5
5AC
  8
DEFAULT
 10
156.140114667704
 20
34.88309271080575
 30
0.0
  0
VERTEX
  5
5AD
  8
DEFAULT
 10
156.1613965630832
 20
34.87602046336345
 30
0.0
  0
VERTEX
  5
5AE
  8
DEFAULT
 10
156.1824045351347
 20
34.8684469296238
 30
0.0
  0
VERTEX
  5
5AF
  8
DEFAULT
 10
156.2031218141522
 20
34.8603860028654
 30
0.0
  0
VERTEX
  5
5B0
  8
DEFAULT
 10
156.2235324926172
 20
34.8518522660283
 30
0.0
  0
VERTEX
  5
5B1
  8
DEFAULT
 10
156.2436215560637
 20
34.84286092912163
 30
0.0
  0
VERTEX
  5
5B2
  8
DEFAULT
 10
156.2633749088026
 20
34.83342776543214
 30
0.0
  0
VERTEX
  5
5B3
  8
DEFAULT
 10
156.2827793945117
 20
34.82356904699797
 30
0.0
  0
VERTEX
  5
5B4
  8
DEFAULT
 10
156.301822811739
 20
34.8133014797999
 30
0.0
  0
VERTEX
  5
5B5
  8
DEFAULT
 10
156.3204939244162
 20
34.80264213910561
 30
0.0
  0
VERTEX
  5
5B6
  8
DEFAULT
 10
156.3387824675106
 20
34.79160840538158
 30
0.0
  0
VERTEX
  5
5B7
  8
DEFAULT
 10
156.3566791479854
 20
34.78021790116313
 30
0.0
  0
VERTEX
  5
5B8
  8
DEFAULT
 10
156.374175641267
 20
34.76848842924572
 30
0.0
  0
VERTEX
  5
5B9
  8
DEFAULT
 10
156.3912645834475
 20
34.75643791253089
 30
0.0
  0
VERTEX
  5
5BA
  8
DEFAULT
 10
156.407939559473
 20
34.74408433582867
 30
0.0
  0
VERTEX
  5
5BB
  8
DEFAULT
 10
156.4241950875905
 20
34.7314456898853
 30
0.0
  0
VERTEX
  5
5BC
  8
DEFAULT
 10
156.4400266003377
 20
34.71853991787141
 30
0.0
  0
VERTEX
  5
5BD
  8
DEFAULT
 10
156.4554304223774
 20
34.70538486453169
 30
0.0
  0
VERTEX
  5
5BE
  8
DEFAULT
 10
156.4704037454795
 20
34.69199822816321
 30
0.0
  0
VERTEX
  5
5BF
  8
DEFAULT
 10
156.4849446009629
 20
34.67839751555638
 30
0.0
  0
VERTEX
  5
5C0
  8
DEFAULT
 10
156.4990518299066
 20
34.6646
 30
0.0
  0
VERTEX
  5
5C1
  8
DEFAULT
 10
160.0550518299066
 20
31.1086
 30
0.0
  0
VERTEX
  5
5C2
  8
DEFAULT
 10
160.0688493487297
 20
31.09449276670776
 30
0.0
  0
VERTEX
  5
5C3
  8
DEFAULT
 10
160.0824500645054
 20
31.07995190476912
 30
0.0
  0
VERTEX
  5
5C4
  8
DEFAULT
 10
160.0958367039323
 20
31.06497857305774
 30
0.0
  0
VERTEX
  5
5C5
  8
DEFAULT
 10
160.1089917602075
 20
31.04957474020982
 30
0.0
  0
VERTEX
  5
5C6
  8
DEFAULT
 10
160.121897535021
 20
31.03374321441318
 30
0.0
  0
VERTEX
  5
5C7
  8
DEFAULT
 10
160.1345361836152
 20
31.01748767096601
 30
0.0
  0
VERTEX
  5
5C8
  8
DEFAULT
 10
160.1468897628066
 20
31.00081267729456
 30
0.0
  0
VERTEX
  5
5C9
  8
DEFAULT
 10
160.158940281836
 20
30.98372371511977
 30
0.0
  0
VERTEX
  5
5CA
  8
DEFAULT
 10
160.1706697558807
 20
30.96622719946678
 30
0.0
  0
VERTEX
  5
5CB
  8
DEFAULT
 10
160.1820602620265
 20
30.94833049421892
 30
0.0
  0
VERTEX
  5
5CC
  8
DEFAULT
 10
160.1930939974654
 20
30.93004192392929
 30
0.0
  0
VERTEX
  5
5CD
  8
DEFAULT
 10
160.2037533396501
 20
30.91137078161868
 30
0.0
  0
VERTEX
  5
5CE
  8
DEFAULT
 10
160.2140209081025
 20
30.89232733230832
 30
0.0
  0
VERTEX
  5
5CF
  8
DEFAULT
 10
160.2238796275436
 20
30.87292281206002
 30
0.0
  0
VERTEX
  5
5D0
  8
DEFAULT
 10
160.2333127919821
 20
30.85316942232373
 30
0.0
  0
VERTEX
  5
5D1
  8
DEFAULT
 10
160.2423041293697
 20
30.83308031942532
 30
0.0
  0
VERTEX
  5
5D2
  8
DEFAULT
 10
160.2508378664104
 20
30.81266959906206
 30
0.0
  0
VERTEX
  5
5D3
  8
DEFAULT
 10
160.2588987930866
 20
30.79195227571366
 30
0.0
  0
VERTEX
  5
5D4
  8
DEFAULT
 10
160.2664723264505
 20
30.77094425691785
 30
0.0
  0
VERTEX
  5
5D5
  8
DEFAULT
 10
160.2735445732168
 20
30.74966231240522
 30
0.0
  0
VERTEX
  5
5D6
  8
DEFAULT
 10
160.2801023906838
 20
30.72812403813478
 30
0.0
  0
VERTEX
  5
5D7
  8
DEFAULT
 10
160.2861334455112
 20
30.70634781532041
 30
0.0
  0
VERTEX
  5
5D8
  8
DEFAULT
 10
160.2916262698813
 20
30.68435276458752
 30
0.0
  0
VERTEX
  5
5D9
  8
DEFAULT
 10
160.296570314587
 20
30.66215869544943
 30
0.0
  0
VERTEX
  5
5DA
  8
DEFAULT
 10
160.3009559985967
 20
30.63978605134167
 30
0.0
  0
VERTEX
  5
5DB
  8
DEFAULT
 10
160.3047747546742
 20
30.61725585050016
 30
0.0
  0
VERTEX
  5
5DC
  8
DEFAULT
 10
160.3080190706553
 20
30.59458962301526
 30
0.0
  0
VERTEX
  5
5DD
  8
DEFAULT
 10
160.310682526013
 20
30.57180934443625
 30
0.0
  0
VERTEX
  5
5DE
  8
DEFAULT
 10
160.3127598233858
 20
30.54893736634035
 30
0.0
  0
VERTEX
  5
5DF
  8
DEFAULT
 10
160.3142468147798
 20
30.52599634431522
 30
0.0
  0
VERTEX
  5
5E0
  8
DEFAULT
 10
160.315140522206
 20
30.50300916383465
 30
0.0
  0
VERTEX
  5
5E1
  8
DEFAULT
 10
160.3154518299066
 20
21.3232
 30
0.0
  0
VERTEX
  5
5E2
  8
DEFAULT
 10
160.9474517545663
 20
20.69120007534026
 30
0.0
  0
VERTEX
  5
5E3
  8
DEFAULT
 10
164.4936254642807
 20
20.69119999999999
 30
0.0
 42
-1.96605938391654
  0
VERTEX
  5
5E4
  8
DEFAULT
 10
164.4936251134961
 20
18.9132002556216
 30
0.0
  0
VERTEX
  5
5E5
  8
DEFAULT
 10
160.5562414547524
 20
18.9135113121026
 30
0.0
  0
VERTEX
  5
5E6
  8
DEFAULT
 10
160.5332543465914
 20
18.91440502363838
 30
0.0
  0
VERTEX
  5
5E7
  8
DEFAULT
 10
160.510313395101
 20
18.91589201884197
 30
0.0
  0
VERTEX
  5
5E8
  8
DEFAULT
 10
160.4874414856772
 20
18.91796931971817
 30
0.0
  0
VERTEX
  5
5E9
  8
DEFAULT
 10
160.4646612738339
 20
18.9206327782683
 30
0.0
  0
VERTEX
  5
5EA
  8
DEFAULT
 10
160.4419951110787
 20
18.92387709712713
 30
0.0
  0
VERTEX
  5
5EB
  8
DEFAULT
 10
160.4194649728957
 20
18.92769585576537
 30
0.0
  0
VERTEX
  5
5EC
  8
DEFAULT
 10
160.3970923893147
 20
18.93208154201741
 30
0.0
  0
VERTEX
  5
5ED
  8
DEFAULT
 10
160.3748983785158
 20
18.93702558864731
 30
0.0
  0
VERTEX
  5
5EE
  8
DEFAULT
 10
160.3529033838839
 20
18.94251841462481
 30
0.0
  0
VERTEX
  5
5EF
  8
DEFAULT
 10
160.3311272148866
 20
18.94854947074505
 30
0.0
  0
VERTEX
  5
5F0
  8
DEFAULT
 10
160.3095889921091
 20
18.95510728919425
 30
0.0
  0
VERTEX
  5
5F1
  8
DEFAULT
 10
160.2883070967299
 20
18.96217953663654
 30
0.0
  0
VERTEX
  5
5F2
  8
DEFAULT
 10
160.2672991246784
 20
18.9697530703762
 30
0.0
  0
VERTEX
  5
5F3
  8
DEFAULT
 10
160.2465818456608
 20
18.97781399713461
 30
0.0
  0
VERTEX
  5
5F4
  8
DEFAULT
 10
160.2261711671959
 20
18.98634773397171
 30
0.0
  0
VERTEX
  5
5F5
  8
DEFAULT
 10
160.2060821037495
 20
18.99533907087837
 30
0.0
  0
VERTEX
  5
5F6
  8
DEFAULT
 10
160.1863287510105
 20
19.00477223456786
 30
0.0
  0
VERTEX
  5
5F7
  8
DEFAULT
 10
160.1669242653014
 20
19.01463095300203
 30
0.0
  0
VERTEX
  5
5F8
  8
DEFAULT
 10
160.1478808480741
 20
19.0248985202001
 30
0.0
  0
VERTEX
  5
5F9
  8
DEFAULT
 10
160.1292097353969
 20
19.0355578608944
 30
0.0
  0
VERTEX
  5
5FA
  8
DEFAULT
 10
160.1109211923024
 20
19.04659159461843
 30
0.0
  0
VERTEX
  5
5FB
  8
DEFAULT
 10
160.0930245118277
 20
19.05798209883687
 30
0.0
  0
VERTEX
  5
5FC
  8
DEFAULT
 10
160.0755280185461
 20
19.06971157075427
 30
0.0
  0
VERTEX
  5
5FD
  8
DEFAULT
 10
160.0584390763656
 20
19.08176208746911
 30
0.0
  0
VERTEX
  5
5FE
  8
DEFAULT
 10
160.0417641003401
 20
19.09411566417134
 30
0.0
  0
VERTEX
  5
5FF
  8
DEFAULT
 10
160.0255085722226
 20
19.10675431011471
 30
0.0
  0
VERTEX
  5
600
  8
DEFAULT
 10
160.0096770594753
 20
19.1196600821286
 30
0.0
  0
VERTEX
  5
601
  8
DEFAULT
 10
159.9942732374357
 20
19.13281513546831
 30
0.0
  0
VERTEX
  5
602
  8
DEFAULT
 10
159.9792999143336
 20
19.14620177183678
 30
0.0
  0
VERTEX
  5
603
  8
DEFAULT
 10
159.9647590588502
 20
19.15980248444362
 30
0.0
  0
VERTEX
  5
604
  8
DEFAULT
 10
159.9506518299065
 20
19.1736
 30
0.0
  0
VERTEX
  5
605
  8
DEFAULT
 10
158.8025994657958
 20
20.32165236411075
 30
0.0
 42
-0.2008759561876653
  0
VERTEX
  5
606
  8
DEFAULT
 10
158.5374518299066
 20
20.955
 30
0.0
  0
VERTEX
  5
607
  8
DEFAULT
 10
158.5374518299066
 20
30.11180000000001
 30
0.0
  0
VERTEX
  5
608
  8
DEFAULT
 10
155.5022518299066
 20
33.147
 30
0.0
  0
VERTEX
  5
609
  8
DEFAULT
 10
149.9142781955324
 20
33.147
 30
0.0
  0
SEQEND
  5
60A
  8
DEFAULT
  0
POLYLINE
  5
60B
  8
DEFAULT
 66
     1
 10
0.0
 20
0.0
 30
0.0
  0
VERTEX
  5
60C
  8
DEFAULT
 10
149.9142781955324
 20
30.60699999999999
 30
0.0
 42
-1.966059255072538
  0
VERTEX
  5
60D
  8
DEFAULT
 10
149.9142784521481
 20
32.38499981300069
 30
0.0
  0
VERTEX
  5
60E
  8
DEFAULT
 10
154.6234614625313
 20
32.3846886922995
 30
0.0
  0
VERTEX
  5
60F
  8
DEFAULT
 10
154.6464486130347
 20
32.38379498487323
 30
0.0
  0
VERTEX
  5
610
  8
DEFAULT
 10
154.6693896059502
 20
32.38230799347919
 30
0.0
  0
VERTEX
  5
611
  8
DEFAULT
 10
154.6922615558311
 20
32.38023069610646
 30
0.0
  0
VERTEX
  5
612
  8
DEFAULT
 10
154.7150418071149
 20
32.37756724074877
 30
0.0
  0
VERTEX
  5
613
  8
DEFAULT
 10
154.7377080082474
 20
32.3743229247677
 30
0.0
  0
VERTEX
  5
614
  8
DEFAULT
 10
154.7602381837005
 20
32.37050416869011
 30
0.0
  0
VERTEX
  5
615
  8
DEFAULT
 10
154.7826108034029
 20
32.36611848468047
 30
0.0
  0
VERTEX
  5
616
  8
DEFAULT
 10
154.8048048491355
 20
32.36117443997477
 30
0.0
  0
VERTEX
  5
617
  8
DEFAULT
 10
154.8267998774776
 20
32.3556816156046
 30
0.0
  0
VERTEX
  5
618
  8
DEFAULT
 10
154.8485760789283
 20
32.34965056077727
 30
0.0
  0
VERTEX
  5
619
  8
DEFAULT
 10
154.8701143328727
 20
32.34309274331019
 30
0.0
  0
VERTEX
  5
61A
  8
DEFAULT
 10
154.8913962581051
 20
32.33602049654395
 30
0.0
  0
VERTEX
  5
61B
  8
DEFAULT
 10
154.9124042586725
 20
32.32844696318005
 30
0.0
  0
VERTEX
  5
61C
  8
DEFAULT
 10
154.9331215648482
 20
32.32038603650388
 30
0.0
  0
VERTEX
  5
61D
  8
DEFAULT
 10
154.9535322690963
 20
32.31185229946313
 30
0.0
  0
VERTEX
  5
61E
  8
DEFAULT
 10
154.9736213569369
 20
32.3028609620755
 30
0.0
  0
VERTEX
  5
61F
  8
DEFAULT
 10
154.9933747326703
 20
32.29342779763704
 30
0.0
  0
VERTEX
  5
620
  8
DEFAULT
 10
155.0127792399665
 20
32.28356907819588
 30
0.0
  0
VERTEX
  5
621
  8
DEFAULT
 10
155.0318226773694
 20
32.2733015097435
 30
0.0
  0
VERTEX
  5
622
  8
DEFAULT
 10
155.0504938088093
 20
32.26264216755877
 30
0.0
  0
VERTEX
  5
623
  8
DEFAULT
 10
155.0687823692553
 20
32.25160843211984
 30
0.0
  0
VERTEX
  5
624
  8
DEFAULT
 10
155.0866790656754
 20
32.24021792597413
 30
0.0
  0
VERTEX
  5
625
  8
DEFAULT
 10
155.1041755735034
 20
32.22848845192946
 30
0.0
  0
VERTEX
  5
626
  8
DEFAULT
 10
155.1212645288419
 20
32.21643793290001
 30
0.0
  0
VERTEX
  5
627
  8
DEFAULT
 10
155.1379395166499
 20
32.20408435370859
 30
0.0
  0
VERTEX
  5
628
  8
DEFAULT
 10
155.1541950551895
 20
32.19144570511438
 30
0.0
  0
VERTEX
  5
629
  8
DEFAULT
 10
155.1700265770164
 20
32.17853993030091
 30
0.0
  0
VERTEX
  5
62A
  8
DEFAULT
 10
155.1854304068131
 20
32.16538487402579
 30
0.0
  0
VERTEX
  5
62B
  8
DEFAULT
 10
155.2004037363716
 20
32.15199823459887
 30
0.0
  0
VERTEX
  5
62C
  8
DEFAULT
 10
155.2149445970346
 20
32.13839751882318
 30
0.0
  0
VERTEX
  5
62D
  8
DEFAULT
 10
155.2290518299066
 20
32.12459999999999
 30
0.0
  0
VERTEX
  5
62E
  8
DEFAULT
 10
157.5150518299066
 20
29.8386
 30
0.0
  0
VERTEX
  5
62F
  8
DEFAULT
 10
157.5288493487298
 20
29.82449276766283
 30
0.0
  0
VERTEX
  5
630
  8
DEFAULT
 10
157.5424500645055
 20
29.80995190862334
 30
0.0
  0
VERTEX
  5
631
  8
DEFAULT
 10
157.5558367039324
 20
29.79497858180489
 30
0.0
  0
VERTEX
  5
632
  8
DEFAULT
 10
157.5689917602075
 20
29.77957475589157
 30
0.0
  0
VERTEX
  5
633
  8
DEFAULT
 10
157.5818975350209
 20
29.76374323911712
 30
0.0
  0
VERTEX
  5
634
  8
DEFAULT
 10
157.5945361836152
 20
29.74748770682345
 30
0.0
  0
VERTEX
  5
635
  8
DEFAULT
 10
157.6068897628066
 20
29.73081272647803
 30
0.0
  0
VERTEX
  5
636
  8
DEFAULT
 10
157.618940281836
 20
29.71372377984038
 30
0.0
  0
VERTEX
  5
637
  8
DEFAULT
 10
157.6306697558807
 20
29.69622728197133
 30
0.0
  0
VERTEX
  5
638
  8
DEFAULT
 10
157.6420602620264
 20
29.67833059678678
 30
0.0
  0
VERTEX
  5
639
  8
DEFAULT
 10
157.6530939974654
 20
29.66004204886903
 30
0.0
  0
VERTEX
  5
63A
  8
DEFAULT
 10
157.6637533396501
 20
29.64137093126457
 30
0.0
  0
VERTEX
  5
63B
  8
DEFAULT
 10
157.6740209081024
 20
29.62232750901657
 30
0.0
  0
VERTEX
  5
63C
  8
DEFAULT
 10
157.6838796275436
 20
29.60292301820486
 30
0.0
  0
VERTEX
  5
63D
  8
DEFAULT
 10
157.6933127919821
 20
29.58316966029327
 30
0.0
  0
VERTEX
  5
63E
  8
DEFAULT
 10
157.7023041293697
 20
29.56308059161725
 30
0.0
  0
VERTEX
  5
63F
  8
DEFAULT
 10
157.7108378664105
 20
29.54266990787929
 30
0.0
  0
VERTEX
  5
640
  8
DEFAULT
 10
157.7188987930866
 20
29.5219526235597
 30
0.0
  0
VERTEX
  5
641
  8
DEFAULT
 10
157.7264723264505
 20
29.50094464619208
 30
0.0
  0
VERTEX
  5
642
  8
DEFAULT
 10
157.7335445732168
 20
29.47966274549819
 30
0.0
  0
VERTEX
  5
643
  8
DEFAULT
 10
157.7401023906839
 20
29.45812451742329
 30
0.0
  0
VERTEX
  5
644
  8
DEFAULT
 10
157.7461334455112
 20
29.43634834316262
 30
0.0
  0
VERTEX
  5
645
  8
DEFAULT
 10
157.7516262698813
 20
29.41435334331797
 30
0.0
  0
VERTEX
  5
646
  8
DEFAULT
 10
157.7565703145871
 20
29.39215932737415
 30
0.0
  0
VERTEX
  5
647
  8
DEFAULT
 10
157.7609559985967
 20
29.36978673873314
 30
0.0
  0
VERTEX
  5
648
  8
DEFAULT
 10
157.7647747546743
 20
29.34725659559249
 30
0.0
  0
VERTEX
  5
649
  8
DEFAULT
 10
157.7680190706554
 20
29.32459042799934
 30
0.0
  0
VERTEX
  5
64A
  8
DEFAULT
 10
157.770682526013
 20
29.30181021145499
 30
0.0
  0
VERTEX
  5
64B
  8
DEFAULT
 10
157.7727598233857
 20
29.27893829748406
 30
0.0
  0
VERTEX
  5
64C
  8
DEFAULT
 10
157.7742468147798
 20
29.25599734161717
 30
0.0
  0
VERTEX
  5
64D
  8
DEFAULT
 10
157.775140522206
 20
29.2330102292667
 30
0.0
  0
VERTEX
  5
64E
  8
DEFAULT
 10
157.7754518299066
 20
11.79819999999999
 30
0.0
  0
VERTEX
  5
64F
  8
DEFAULT
 10
161.5368518299065
 20
8.036800000000003
 30
0.0
  0
VERTEX
  5
650
  8
DEFAULT
 10
164.4936254642807
 20
8.036800000000003
 30
0.0
 42
-1.96605953689031
  0
VERTEX
  5
651
  8
DEFAULT
 10
164.4936250016912
 20
6.258800337095471
 30
0.0
  0
VERTEX
  5
652
  8
DEFAULT
 10
161.1456414547523
 20
6.259111312102601
 30
0.0
  0
VERTEX
  5
653
  8
DEFAULT
 10
161.1226543465914
 20
6.260005023638379
 30
0.0
  0
VERTEX
  5
654
  8
DEFAULT
 10
161.0997133951009
 20
6.261492018841978
 30
0.0
  0
VERTEX
  5
655
  8
DEFAULT
 10
161.0768414856772
 20
6.263569319718175
 30
0.0
  0
VERTEX
  5
656
  8
DEFAULT
 10
161.0540612738339
 20
6.266232778268304
 30
0.0
  0
VERTEX
  5
657
  8
DEFAULT
 10
161.0313951110787
 20
6.269477097127128
 30
0.0
  0
VERTEX
  5
658
  8
DEFAULT
 10
161.0088649728957
 20
6.273295855765376
 30
0.0
  0
VERTEX
  5
659
  8
DEFAULT
 10
160.9864923893147
 20
6.277681542017408
 30
0.0
  0
VERTEX
  5
65A
  8
DEFAULT
 10
160.9642983785158
 20
6.282625588647312
 30
0.0
  0
VERTEX
  5
65B
  8
DEFAULT
 10
160.9423033838839
 20
6.288118414624809
 30
0.0
  0
VERTEX
  5
65C
  8
DEFAULT
 10
160.9205272148866
 20
6.294149470745046
 30
0.0
  0
VERTEX
  5
65D
  8
DEFAULT
 10
160.8989889921091
 20
6.300707289194254
 30
0.0
  0
VERTEX
  5
65E
  8
DEFAULT
 10
160.8777070967299
 20
6.30777953663655
 30
0.0
  0
VERTEX
  5
65F
  8
DEFAULT
 10
160.8566991246784
 20
6.315353070376209
 30
0.0
  0
VERTEX
  5
660
  8
DEFAULT
 10
160.8359818456609
 20
6.323413997134609
 30
0.0
  0
VERTEX
  5
661
  8
DEFAULT
 10
160.8155711671959
 20
6.331947733971707
 30
0.0
  0
VERTEX
  5
662
  8
DEFAULT
 10
160.7954821037495
 20
6.34093907087837
 30
0.0
  0
VERTEX
  5
663
  8
DEFAULT
 10
160.7757287510105
 20
6.350372234567857
 30
0.0
  0
VERTEX
  5
664
  8
DEFAULT
 10
160.7563242653014
 20
6.36023095300203
 30
0.0
  0
VERTEX
  5
665
  8
DEFAULT
 10
160.7372808480741
 20
6.370498520200104
 30
0.0
  0
VERTEX
  5
666
  8
DEFAULT
 10
160.7186097353969
 20
6.381157860894397
 30
0.0
  0
VERTEX
  5
667
  8
DEFAULT
 10
160.7003211923025
 20
6.392191594618425
 30
0.0
  0
VERTEX
  5
668
  8
DEFAULT
 10
160.6824245118277
 20
6.40358209883687
 30
0.0
  0
VERTEX
  5
669
  8
DEFAULT
 10
160.6649280185462
 20
6.415311570754276
 30
0.0
  0
VERTEX
  5
66A
  8
DEFAULT
 10
160.6478390763657
 20
6.427362087469106
 30
0.0
  0
VERTEX
  5
66B
  8
DEFAULT
 10
160.6311641003401
 20
6.439715664171336
 30
0.0
  0
VERTEX
  5
66C
  8
DEFAULT
 10
160.6149085722226
 20
6.452354310114711
 30
0.0
  0
VERTEX
  5
66D
  8
DEFAULT
 10
160.5990770594754
 20
6.465260082128595
 30
0.0
  0
VERTEX
  5
66E
  8
DEFAULT
 10
160.5836732374357
 20
6.47841513546831
 30
0.0
  0
VERTEX
  5
66F
  8
DEFAULT
 10
160.5686999143336
 20
6.491801771836784
 30
0.0
  0
VERTEX
  5
670
  8
DEFAULT
 10
160.5541590588502
 20
6.505402484443625
 30
0.0
  0
VERTEX
  5
671
  8
DEFAULT
 10
160.5400518299066
 20
6.5192
 30
0.0
  0
VERTEX
  5
672
  8
DEFAULT
 10
156.2625994657957
 20
10.79665236411081
 30
0.0
 42
-0.2008759561875828
  0
VERTEX
  5
673
  8
DEFAULT
 10
155.9974518299066
 20
11.43
 30
0.0
  0
VERTEX
  5
674
  8
DEFAULT
 10
155.9974518299066
 20
28.84179999999999
 30
0.0
  0
VERTEX
  5
675
  8
DEFAULT
 10
154.2322518299066
 20
30.60699999999999
 30
0.0
  0
VERTEX
  5
676
  8
DEFAULT
 10
149.9142781955324
 20
30.60699999999999
 30
0.0
  0
SEQEND
  5
677
  8
DEFAULT
  0
POLYLINE
  5
678
  8
DEFAULT
 66
     1
 10
0.0
 20
0.0
 30
0.0
  0
VERTEX
  5
679
  8
DEFAULT
 10
149.9142781955324
 20
28.067
 30
0.0
 42
-1.9660595088023
  0
VERTEX
  5
67A
  8
DEFAULT
 10
149.9142786375931
 20
29.84499967786428
 30
0.0
  0
VERTEX
  5
67B
  8
DEFAULT
 10
153.3534616045889
 20
29.8446886922995
 30
0.0
  0
VERTEX
  5
67C
  8
DEFAULT
 10
153.3764487460082
 20
29.84379498487322
 30
0.0
  0
VERTEX
  5
67D
  8
DEFAULT
 10
153.3993897301027
 20
29.84230799347919
 30
0.0
  0
VERTEX
  5
67E
  8
DEFAULT
 10
153.4222616714336
 20
29.84023069610646
 30
0.0
  0
VERTEX
  5
67F
  8
DEFAULT
 10
153.445041914446
 20
29.83756724074877
 30
0.0
  0
VERTEX
  5
680
  8
DEFAULT
 10
153.467708107593
 20
29.83432292476771
 30
0.0
  0
VERTEX
  5
681
  8
DEFAULT
 10
153.4902382753527
 20
29.83050416869012
 30
0.0
  0
VERTEX
  5
682
  8
DEFAULT
 10
153.5126108876595
 20
29.82611848468047
 30
0.0
  0
VERTEX
  5
683
  8
DEFAULT
 10
153.5348049262995
 20
29.82117443997477
 30
0.0
  0
VERTEX
  5
684
  8
DEFAULT
 10
153.5567999478565
 20
29.8156816156046
 30
0.0
  0
VERTEX
  5
685
  8
DEFAULT
 10
153.5785761428334
 20
29.80965056077727
 30
0.0
  0
VERTEX
  5
686
  8
DEFAULT
 10
153.6001143906184
 20
29.80309274331019
 30
0.0
  0
VERTEX
  5
687
  8
DEFAULT
 10
153.6213963100083
 20
29.79602049654395
 30
0.0
  0
VERTEX
  5
688
  8
DEFAULT
 10
153.6424043050519
 20
29.78844696318005
 30
0.0
  0
VERTEX
  5
689
  8
DEFAULT
 10
153.6631216060238
 20
29.78038603650387
 30
0.0
  0
VERTEX
  5
68A
  8
DEFAULT
 10
153.6835323053886
 20
29.77185229946313
 30
0.0
  0
VERTEX
  5
68B
  8
DEFAULT
 10
153.7036213886662
 20
29.7628609620755
 30
0.0
  0
VERTEX
  5
68C
  8
DEFAULT
 10
153.7233747601563
 20
29.75342779763703
 30
0.0
  0
VERTEX
  5
68D
  8
DEFAULT
 10
153.7427792635276
 20
29.74356907819589
 30
0.0
  0
VERTEX
  5
68E
  8
DEFAULT
 10
153.7618226973223
 20
29.73330150974351
 30
0.0
  0
VERTEX
  5
68F
  8
DEFAULT
 10
153.780493825468
 20
29.72264216755878
 30
0.0
  0
VERTEX
  5
690
  8
DEFAULT
 10
153.7987823829311
 20
29.71160843211985
 30
0.0
  0
VERTEX
  5
691
  8
DEFAULT
 10
153.8166790766759
 20
29.70021792597413
 30
0.0
  0
VERTEX
  5
692
  8
DEFAULT
 10
153.8341755821328
 20
29.68848845192946
 30
0.0
  0
VERTEX
  5
693
  8
DEFAULT
 10
153.8512645353997
 20
29.6764379329
 30
0.0
  0
VERTEX
  5
694
  8
DEFAULT
 10
153.8679395214308
 20
29.66408435370859
 30
0.0
  0
VERTEX
  5
695
  8
DEFAULT
 10
153.8841950584833
 20
29.65144570511437
 30
0.0
  0
VERTEX
  5
696
  8
DEFAULT
 10
153.9000265791072
 20
29.63853993030091
 30
0.0
  0
VERTEX
  5
697
  8
DEFAULT
 10
153.9154304079793
 20
29.62538487402578
 30
0.0
  0
VERTEX
  5
698
  8
DEFAULT
 10
153.9304037368854
 20
29.61199823459886
 30
0.0
  0
VERTEX
  5
699
  8
DEFAULT
 10
153.9449445971619
 20
29.59839751882318
 30
0.0
  0
VERTEX
  5
69A
  8
DEFAULT
 10
153.9590518299066
 20
29.58459999999999
 30
0.0
  0
VERTEX
  5
69B
  8
DEFAULT
 10
154.9703041940168
 20
28.57334763588977
 30
0.0
 42
-0.2008759561880291
  0
VERTEX
  5
69C
  8
DEFAULT
 10
155.2354518299065
 20
27.94
 30
0.0
  0
VERTEX
  5
69D
  8
DEFAULT
 10
155.2354518299066
 20
10.5282
 30
0.0
  0
VERTEX
  5
69E
  8
DEFAULT
 10
161.6996518299066
 20
4.064000000000001
 30
0.0
  0
VERTEX
  5
69F
  8
DEFAULT
 10
164.320383339665
 20
4.064000012702578
 30
0.0
  0
VERTEX
  5
6A0
  8
DEFAULT
 10
164.3644900685631
 20
4.070872216921999
 30
0.0
 42
-1.966043763674891
  0
VERTEX
  5
6A1
  8
DEFAULT
 10
164.6382181635503
 20
2.314061013431354
 30
0.0
  0
VERTEX
  5
6A2
  8
DEFAULT
 10
164.5261518299066
 20
2.2966
 30
0.0
  0
VERTEX
  5
6A3
  8
DEFAULT
 10
164.3640299896039
 20
2.286176911253829
 30
0.0
  0
VERTEX
  5
6A4
  8
DEFAULT
 10
161.3115389518946
 20
2.286223044127897
 30
0.0
  0
VERTEX
  5
6A5
  8
DEFAULT
 10
161.2914556764771
 20
2.286900170188705
 30
0.0
  0
VERTEX
  5
6A6
  8
DEFAULT
 10
161.2712154081209
 20
2.288043082506003
 30
0.0
  0
VERTEX
  5
6A7
  8
DEFAULT
 10
161.2508323161289
 20
2.289663061880813
 30
0.0
  0
VERTEX
  5
6A8
  8
DEFAULT
 10
161.2303213255191
 20
2.291770912456834
 30
0.0
  0
VERTEX
  5
6A9
  8
DEFAULT
 10
161.2096981039438
 20
2.294376907971297
 30
0.0
  0
VERTEX
  5
6AA
  8
DEFAULT
 10
161.188979044496
 20
2.297490737702816
 30
0.0
  0
VERTEX
  5
6AB
  8
DEFAULT
 10
161.1681812442679
 20
2.301121452451662
 30
0.0
  0
VERTEX
  5
6AC
  8
DEFAULT
 10
161.1473224785612
 20
2.305277410910156
 30
0.0
  0
VERTEX
  5
6AD
  8
DEFAULT
 10
161.1264211706762
 20
2.309966226800616
 30
0.0
  0
VERTEX
  5
6AE
  8
DEFAULT
 10
161.1054963572431
 20
2.315194717175195
 30
0.0
  0
VERTEX
  5
6AF
  8
DEFAULT
 10
161.0845676490981
 20
2.320968852285493
 30
0.0
  0
VERTEX
  5
6B0
  8
DEFAULT
 10
161.0636551877443
 20
2.327293707439513
 30
0.0
  0
VERTEX
  5
6B1
  8
DEFAULT
 10
161.0427795974821
 20
2.334173417269004
 30
0.0
  0
VERTEX
  5
6B2
  8
DEFAULT
 10
161.0219619333365
 20
2.341611132831092
 30
0.0
  0
VERTEX
  5
6B3
  8
DEFAULT
 10
161.001223624955
 20
2.349608981964001
 30
0.0
  0
VERTEX
  5
6B4
  8
DEFAULT
 10
160.9805864166938
 20
2.358168033307322
 30
0.0
  0
VERTEX
  5
6B5
  8
DEFAULT
 10
160.9600723041569
 20
2.367288264382671
 30
0.0
  0
VERTEX
  5
6B6
  8
DEFAULT
 10
160.9397034674978
 20
2.376968534110303
 30
0.0
  0
VERTEX
  5
6B7
  8
DEFAULT
 10
160.9195022018343
 20
2.387206560111648
 30
0.0
  0
VERTEX
  5
6B8
  8
DEFAULT
 10
160.8994908451706
 20
2.397998901116623
 30
0.0
  0
VERTEX
  5
6B9
  8
DEFAULT
 10
160.8796917042575
 20
2.409340944758342
 30
0.0
  0
VERTEX
  5
6BA
  8
DEFAULT
 10
160.8601269788548
 20
2.421226900996689
 30
0.0
  0
VERTEX
  5
6BB
  8
DEFAULT
 10
160.8408186848926
 20
2.433649801366652
 30
0.0
  0
VERTEX
  5
6BC
  8
DEFAULT
 10
160.8217885770494
 20
2.446601504197728
 30
0.0
  0
VERTEX
  5
6BD
  8
DEFAULT
 10
160.8030580712873
 20
2.460072705897868
 30
0.0
  0
VERTEX
  5
6BE
  8
DEFAULT
 10
160.7846481678962
 20
2.474052958339886
 30
0.0
  0
VERTEX
  5
6BF
  8
DEFAULT
 10
160.7665793756053
 20
2.488530692330924
 30
0.0
  0
VERTEX
  5
6C0
  8
DEFAULT
 10
160.7488716373216
 20
2.503493247087098
 30
0.0
  0
VERTEX
  5
6C1
  8
DEFAULT
 10
160.7315442580472
 20
2.518926905576961
 30
0.0
  0
VERTEX
  5
6C2
  8
DEFAULT
 10
160.7146158355142
 20
2.534816935539532
 30
0.0
  0
VERTEX
  5
6C3
  8
DEFAULT
 10
160.6981041940541
 20
2.551147635926486
 30
0.0
  0
VERTEX
  5
6C4
  8
DEFAULT
 10
153.7225994657959
 20
9.526652364110676
 30
0.0
 42
-0.2008759561877451
  0
VERTEX
  5
6C5
  8
DEFAULT
 10
153.4574518299065
 20
10.16
 30
0.0
  0
VERTEX
  5
6C6
  8
DEFAULT
 10
153.4574518299065
 20
27.57179999999999
 30
0.0
  0
VERTEX
  5
6C7
  8
DEFAULT
 10
152.9622518299066
 20
28.067
 30
0.0
  0
VERTEX
  5
6C8
  8
DEFAULT
 10
149.9142781955324
 20
28.067
 30
0.0
  0
SEQEND
  5
6C9
  8
DEFAULT
  0
POLYLINE
  5
6CA
  8
DEFAULT
 66
     1
 10
0.0
 20
0.0
 30
0.0
  0
VERTEX
  5
6CB
  8
DEFAULT
 10
112.1328518299065
 20
64.4536
 30
0.0
  0
VERTEX
  5
6CC
  8
DEFAULT
 10
112.1469590589763
 20
64.46739751555636
 30
0.0
  0
VERTEX
  5
6CD
  8
DEFAULT
 10
112.1614999148424
 20
64.4809982281632
 30
0.0
  0
VERTEX
  5
6CE
  8
DEFAULT
 10
112.1764732385903
 20
64.49438486453168
 30
0.0
  0
VERTEX
  5
6CF
  8
DEFAULT
 10
112.1918770615452
 20
64.5075399178714
 30
0.0
  0
VERTEX
  5
6D0
  8
DEFAULT
 10
112.2077085754834
 20
64.52044568988529
 30
0.0
  0
VERTEX
  5
6D1
  8
DEFAULT
 10
112.223964105073
 20
64.53308433582866
 30
0.0
  0
VERTEX
  5
6D2
  8
DEFAULT
 10
112.2406390828576
 20
64.54543791253089
 30
0.0
  0
VERTEX
  5
6D3
  8
DEFAULT
 10
112.2577280270888
 20
64.55748842924572
 30
0.0
  0
VERTEX
  5
6D4
  8
DEFAULT
 10
112.2752245227177
 20
64.56921790116313
 30
0.0
  0
VERTEX
  5
6D5
  8
DEFAULT
 10
112.2931212058407
 20
64.58060840538158
 30
0.0
  0
VERTEX
  5
6D6
  8
DEFAULT
 10
112.3114097518881
 20
64.59164213910562
 30
0.0
  0
VERTEX
  5
6D7
  8
DEFAULT
 10
112.3300808678263
 20
64.60230147979989
 30
0.0
  0
VERTEX
  5
6D8
  8
DEFAULT
 10
112.3491242886257
 20
64.61256904699796
 30
0.0
  0
VERTEX
  5
6D9
  8
DEFAULT
 10
112.3685287782202
 20
64.62242776543214
 30
0.0
  0
VERTEX
  5
6DA
  8
DEFAULT
 10
112.3882821351599
 20
64.63186092912163
 30
0.0
  0
VERTEX
  5
6DB
  8
DEFAULT
 10
112.4083712031234
 20
64.6408522660283
 30
0.0
  0
VERTEX
  5
6DC
  8
DEFAULT
 10
112.4287818864227
 20
64.6493860028654
 30
0.0
  0
VERTEX
  5
6DD
  8
DEFAULT
 10
112.4494991705917
 20
64.65744692962379
 30
0.0
  0
VERTEX
  5
6DE
  8
DEFAULT
 10
112.4705071481114
 20
64.66502046336345
 30
0.0
  0
VERTEX
  5
6DF
  8
DEFAULT
 10
112.4917890492744
 20
64.67209271080576
 30
0.0
  0
VERTEX
  5
6E0
  8
DEFAULT
 10
112.5133272781495
 20
64.67865052925497
 30
0.0
  0
VERTEX
  5
6E1
  8
DEFAULT
 10
112.5351034535555
 20
64.6846815853752
 30
0.0
  0
VERTEX
  5
6E2
  8
DEFAULT
 10
112.5570984549043
 20
64.6901744113527
 30
0.0
  0
VERTEX
  5
6E3
  8
DEFAULT
 10
112.5792924727244
 20
64.69511845798262
 30
0.0
  0
VERTEX
  5
6E4
  8
DEFAULT
 10
112.6016650636267
 20
64.69950414423465
 30
0.0
  0
VERTEX
  5
6E5
  8
DEFAULT
 10
112.6241952094258
 20
64.7033229028729
 30
0.0
  0
VERTEX
  5
6E6
  8
DEFAULT
 10
112.6468613800863
 20
64.70656722173172
 30
0.0
  0
VERTEX
  5
6E7
  8
DEFAULT
 10
112.6696416001178
 20
64.70923068028186
 30
0.0
  0
VERTEX
  5
6E8
  8
DEFAULT
 10
112.6925135180056
 20
64.71130798115804
 30
0.0
  0
VERTEX
  5
6E9
  8
DEFAULT
 10
112.7154544782285
 20
64.71279497636165
 30
0.0
  0
VERTEX
  5
6EA
  8
DEFAULT
 10
112.7384415953822
 20
64.71368868789742
 30
0.0
  0
VERTEX
  5
6EB
  8
DEFAULT
 10
114.3286239761452
 20
64.71399891557351
 30
0.0
 42
-1.966060940390487
  0
VERTEX
  5
6EC
  8
DEFAULT
 10
114.3286254640426
 20
62.9360000001735
 30
0.0
  0
VERTEX
  5
6ED
  8
DEFAULT
 10
113.1296518299066
 20
62.936
 30
0.0
  0
VERTEX
  5
6EE
  8
DEFAULT
 10
112.6904518299065
 20
62.49680000000001
 30
0.0
  0
VERTEX
  5
6EF
  8
DEFAULT
 10
112.6901405178039
 20
57.12698962484577
 30
0.0
  0
VERTEX
  5
6F0
  8
DEFAULT
 10
112.6892468062682
 20
57.1040025166848
 30
0.0
  0
VERTEX
  5
6F1
  8
DEFAULT
 10
112.6877598110645
 20
57.08106156519439
 30
0.0
  0
VERTEX
  5
6F2
  8
DEFAULT
 10
112.6856825101884
 20
57.0581896557706
 30
0.0
  0
VERTEX
  5
6F3
  8
DEFAULT
 10
112.6830190516382
 20
57.03540944392732
 30
0.0
  0
VERTEX
  5
6F4
  8
DEFAULT
 10
112.6797747327794
 20
57.01274328117212
 30
0.0
  0
VERTEX
  5
6F5
  8
DEFAULT
 10
112.6759559741412
 20
56.99021314298911
 30
0.0
  0
VERTEX
  5
6F6
  8
DEFAULT
 10
112.6715702878891
 20
56.96784055940807
 30
0.0
  0
VERTEX
  5
6F7
  8
DEFAULT
 10
112.6666262412593
 20
56.94564654860923
 30
0.0
  0
VERTEX
  5
6F8
  8
DEFAULT
 10
112.6611334152818
 20
56.92365155397732
 30
0.0
  0
VERTEX
  5
6F9
  8
DEFAULT
 10
112.6551023591615
 20
56.90187538498008
 30
0.0
  0
VERTEX
  5
6FA
  8
DEFAULT
 10
112.6485445407123
 20
56.88033716220249
 30
0.0
  0
VERTEX
  5
6FB
  8
DEFAULT
 10
112.64147229327
 20
56.85905526682333
 30
0.0
  0
VERTEX
  5
6FC
  8
DEFAULT
 10
112.6338987595303
 20
56.83804729477186
 30
0.0
  0
VERTEX
  5
6FD
  8
DEFAULT
 10
112.6258378327719
 20
56.81733001575431
 30
0.0
  0
VERTEX
  5
6FE
  8
DEFAULT
 10
112.6173040959349
 20
56.79691933728934
 30
0.0
  0
VERTEX
  5
6FF
  8
DEFAULT
 10
112.6083127590282
 20
56.77683027384292
 30
0.0
  0
VERTEX
  5
700
  8
DEFAULT
 10
112.5988795953387
 20
56.75707692110392
 30
0.0
  0
VERTEX
  5
701
  8
DEFAULT
 10
112.5890208769045
 20
56.73767243539486
 30
0.0
  0
VERTEX
  5
702
  8
DEFAULT
 10
112.5787533097065
 20
56.71862901816752
 30
0.0
  0
VERTEX
  5
703
  8
DEFAULT
 10
112.5680939690122
 20
56.69995790549032
 30
0.0
  0
VERTEX
  5
704
  8
DEFAULT
 10
112.5570602352881
 20
56.68166936239592
 30
0.0
  0
VERTEX
  5
705
  8
DEFAULT
 10
112.5456697310697
 20
56.66377268192117
 30
0.0
  0
VERTEX
  5
706
  8
DEFAULT
 10
112.5339402591523
 20
56.6462761886396
 30
0.0
  0
VERTEX
  5
707
  8
DEFAULT
 10
112.5218897424375
 20
56.62918724645913
 30
0.0
  0
VERTEX
  5
708
  8
DEFAULT
 10
112.5095361657353
 20
56.61251227043352
 30
0.0
  0
VERTEX
  5
709
  8
DEFAULT
 10
112.4968975197919
 20
56.59625674231606
 30
0.0
  0
VERTEX
  5
70A
  8
DEFAULT
 10
112.483991747778
 20
56.58042522956882
 30
0.0
  0
VERTEX
  5
70B
  8
DEFAULT
 10
112.4708366944383
 20
56.56502140752917
 30
0.0
  0
VERTEX
  5
70C
  8
DEFAULT
 10
112.4574500580698
 20
56.55004808442708
 30
0.0
  0
VERTEX
  5
70D
  8
DEFAULT
 10
112.443849345463
 20
56.53550722894365
 30
0.0
  0
VERTEX
  5
70E
  8
DEFAULT
 10
112.4300518299066
 20
56.52140000000001
 30
0.0
  0
VERTEX
  5
70F
  8
DEFAULT
 10
111.1647994036043
 20
55.25614757278854
 30
0.0
 42
-0.200875905434989
  0
VERTEX
  5
710
  8
DEFAULT
 10
110.5314518299066
 20
54.99099999999999
 30
0.0
  0
VERTEX
  5
711
  8
DEFAULT
 10
101.6542781955324
 20
54.991
 30
0.0
 42
-1.966058903966069
  0
VERTEX
  5
712
  8
DEFAULT
 10
101.6542781955324
 20
56.76900000000004
 30
0.0
  0
VERTEX
  5
713
  8
DEFAULT
 10
110.1632518299066
 20
56.769
 30
0.0
  0
VERTEX
  5
714
  8
DEFAULT
 10
110.9124518299066
 20
57.51819999999999
 30
0.0
  0
VERTEX
  5
715
  8
DEFAULT
 10
110.9124518299066
 20
62.865
 30
0.0
 42
-0.2008759562270303
  0
VERTEX
  5
716
  8
DEFAULT
 10
111.1775994658318
 20
63.49834763585126
 30
0.0
  0
VERTEX
  5
717
  8
DEFAULT
 10
112.1328518299065
 20
64.4536
 30
0.0
  0
SEQEND
  5
718
  8
DEFAULT
  0
POLYLINE
  5
719
  8
DEFAULT
 66
     1
 10
0.0
 20
0.0
 30
0.0
  0
VERTEX
  5
71A
  8
DEFAULT
 10
110.8628518299066
 20
79.6936
 30
0.0
  0
VERTEX
  5
71B
  8
DEFAULT
 10
110.8769590589762
 20
79.70739751555637
 30
0.0
  0
VERTEX
  5
71C
  8
DEFAULT
 10
110.8914999148424
 20
79.7209982281632
 30
0.0
  0
VERTEX
  5
71D
  8
DEFAULT
 10
110.9064732385903
 20
79.73438486453169
 30
0.0
  0
VERTEX
  5
71E
  8
DEFAULT
 10
110.9218770615453
 20
79.74753991787139
 30
0.0
  0
VERTEX
  5
71F
  8
DEFAULT
 10
110.9377085754833
 20
79.76044568988526
 30
0.0
  0
VERTEX
  5
720
  8
DEFAULT
 10
110.953964105073
 20
79.77308433582863
 30
0.0
  0
VERTEX
  5
721
  8
DEFAULT
 10
110.9706390828575
 20
79.78543791253087
 30
0.0
  0
VERTEX
  5
722
  8
DEFAULT
 10
110.9877280270888
 20
79.79748842924572
 30
0.0
  0
VERTEX
  5
723
  8
DEFAULT
 10
111.0052245227178
 20
79.80921790116311
 30
0.0
  0
VERTEX
  5
724
  8
DEFAULT
 10
111.0231212058408
 20
79.82060840538156
 30
0.0
  0
VERTEX
  5
725
  8
DEFAULT
 10
111.0414097518881
 20
79.83164213910558
 30
0.0
  0
VERTEX
  5
726
  8
DEFAULT
 10
111.0600808678263
 20
79.84230147979987
 30
0.0
  0
VERTEX
  5
727
  8
DEFAULT
 10
111.0791242886257
 20
79.85256904699796
 30
0.0
  0
VERTEX
  5
728
  8
DEFAULT
 10
111.0985287782202
 20
79.86242776543213
 30
0.0
  0
VERTEX
  5
729
  8
DEFAULT
 10
111.1182821351599
 20
79.87186092912162
 30
0.0
  0
VERTEX
  5
72A
  8
DEFAULT
 10
111.1383712031234
 20
79.8808522660283
 30
0.0
  0
VERTEX
  5
72B
  8
DEFAULT
 10
111.1587818864227
 20
79.8893860028654
 30
0.0
  0
VERTEX
  5
72C
  8
DEFAULT
 10
111.1794991705918
 20
79.8974469296238
 30
0.0
  0
VERTEX
  5
72D
  8
DEFAULT
 10
111.2005071481115
 20
79.90502046336346
 30
0.0
  0
VERTEX
  5
72E
  8
DEFAULT
 10
111.2217890492744
 20
79.91209271080577
 30
0.0
  0
VERTEX
  5
72F
  8
DEFAULT
 10
111.2433272781495
 20
79.91865052925498
 30
0.0
  0
VERTEX
  5
730
  8
DEFAULT
 10
111.2651034535555
 20
79.9246815853752
 30
0.0
  0
VERTEX
  5
731
  8
DEFAULT
 10
111.2870984549043
 20
79.93017441135271
 30
0.0
  0
VERTEX
  5
732
  8
DEFAULT
 10
111.3092924727245
 20
79.93511845798261
 30
0.0
  0
VERTEX
  5
733
  8
DEFAULT
 10
111.3316650636267
 20
79.93950414423462
 30
0.0
  0
VERTEX
  5
734
  8
DEFAULT
 10
111.3541952094259
 20
79.94332290287286
 30
0.0
  0
VERTEX
  5
735
  8
DEFAULT
 10
111.3768613800864
 20
79.9465672217317
 30
0.0
  0
VERTEX
  5
736
  8
DEFAULT
 10
111.3996416001178
 20
79.94923068028183
 30
0.0
  0
VERTEX
  5
737
  8
DEFAULT
 10
111.4225135180057
 20
79.95130798115802
 30
0.0
  0
VERTEX
  5
738
  8
DEFAULT
 10
111.4454544782285
 20
79.95279497636162
 30
0.0
  0
VERTEX
  5
739
  8
DEFAULT
 10
111.4684415953822
 20
79.95368868789741
 30
0.0
  0
VERTEX
  5
73A
  8
DEFAULT
 10
114.3286248631296
 20
79.95399956193273
 30
0.0
 42
-1.966059726473165
  0
VERTEX
  5
73B
  8
DEFAULT
 10
114.3286254642807
 20
78.176
 30
0.0
  0
VERTEX
  5
73C
  8
DEFAULT
 10
111.8596518299066
 20
78.176
 30
0.0
  0
VERTEX
  5
73D
  8
DEFAULT
 10
111.4204518299066
 20
77.7368
 30
0.0
  0
VERTEX
  5
73E
  8
DEFAULT
 10
111.4204518299066
 20
65.405
 30
0.0
  0
VERTEX
  5
73F
  8
DEFAULT
 10
111.4202287857787
 20
65.38508712198814
 30
0.0
  0
VERTEX
  5
740
  8
DEFAULT
 10
111.4195516597179
 20
65.3650038465707
 30
0.0
  0
VERTEX
  5
741
  8
DEFAULT
 10
111.4184087474006
 20
65.34476357821445
 30
0.0
  0
VERTEX
  5
742
  8
DEFAULT
 10
111.4167887680258
 20
65.3243804862226
 30
0.0
  0
VERTEX
  5
743
  8
DEFAULT
 10
111.4146809174498
 20
65.3038694956128
 30
0.0
  0
VERTEX
  5
744
  8
DEFAULT
 10
111.4120749219353
 20
65.28324627403762
 30
0.0
  0
VERTEX
  5
745
  8
DEFAULT
 10
111.4089610922038
 20
65.26252721458982
 30
0.0
  0
VERTEX
  5
746
  8
DEFAULT
 10
111.405330377455
 20
65.24172941436177
 30
0.0
  0
VERTEX
  5
747
  8
DEFAULT
 10
111.4011744189965
 20
65.2208706486552
 30
0.0
  0
VERTEX
  5
748
  8
DEFAULT
 10
111.3964856031061
 20
65.19996934077024
 30
0.0
  0
VERTEX
  5
749
  8
DEFAULT
 10
111.3912571127315
 20
65.17904452733721
 30
0.0
  0
VERTEX
  5
74A
  8
DEFAULT
 10
111.3854829776213
 20
65.1581158191923
 30
0.0
  0
VERTEX
  5
74B
  8
DEFAULT
 10
111.3791581224673
 20
65.13720335783857
 30
0.0
  0
VERTEX
  5
74C
  8
DEFAULT
 10
111.3722784126378
 20
65.11632776757638
 30
0.0
  0
VERTEX
  5
74D
  8
DEFAULT
 10
111.3648406970758
 20
65.09551010343087
 30
0.0
  0
VERTEX
  5
74E
  8
DEFAULT
 10
111.356842847943
 20
65.07477179504944
 30
0.0
  0
VERTEX
  5
74F
  8
DEFAULT
 10
111.3482837965997
 20
65.05413458678822
 30
0.0
  0
VERTEX
  5
750
  8
DEFAULT
 10
111.3391635655244
 20
65.03362047425139
 30
0.0
  0
VERTEX
  5
751
  8
DEFAULT
 10
111.3294832957968
 20
65.01325163759233
 30
0.0
  0
VERTEX
  5
752
  8
DEFAULT
 10
111.3192452697955
 20
64.99305037192889
 30
0.0
  0
VERTEX
  5
753
  8
DEFAULT
 10
111.3084529287906
 20
64.97303901526527
 30
0.0
  0
VERTEX
  5
754
  8
DEFAULT
 10
111.297110885149
 20
64.95323987435218
 30
0.0
  0
VERTEX
  5
755
  8
DEFAULT
 10
111.2852249289107
 20
64.93367514894955
 30
0.0
  0
VERTEX
  5
756
  8
DEFAULT
 10
111.2728020285408
 20
64.91436685498735
 30
0.0
  0
VERTEX
  5
757
  8
DEFAULT
 10
111.2598503257098
 20
64.89533674714416
 30
0.0
  0
VERTEX
  5
758
  8
DEFAULT
 10
111.2463791240097
 20
64.87660624138212
 30
0.0
  0
VERTEX
  5
759
  8
DEFAULT
 10
111.2323988715678
 20
64.85819633799106
 30
0.0
  0
VERTEX
  5
75A
  8
DEFAULT
 10
111.2179211375769
 20
64.84012754570017
 30
0.0
  0
VERTEX
  5
75B
  8
DEFAULT
 10
111.2029585828208
 20
64.82241980741647
 30
0.0
  0
VERTEX
  5
75C
  8
DEFAULT
 10
111.187524924331
 20
64.80509242814213
 30
0.0
  0
VERTEX
  5
75D
  8
DEFAULT
 10
111.1716348943685
 20
64.78816400560913
 30
0.0
  0
VERTEX
  5
75E
  8
DEFAULT
 10
110.1504718436444
 20
63.76686004134386
 30
0.0
  0
VERTEX
  5
75F
  8
DEFAULT
 10
110.1504518298898
 20
59.69
 30
0.0
 42
-0.2008759562378275
  0
VERTEX
  5
760
  8
DEFAULT
 10
109.8853041939835
 20
59.05665236415092
 30
0.0
  0
VERTEX
  5
761
  8
DEFAULT
 10
108.6200518299065
 20
57.7914
 30
0.0
  0
VERTEX
  5
762
  8
DEFAULT
 10
108.6059446008368
 20
57.77760248444362
 30
0.0
  0
VERTEX
  5
763
  8
DEFAULT
 10
108.5914037449707
 20
57.7640017718368
 30
0.0
  0
VERTEX
  5
764
  8
DEFAULT
 10
108.5764304212228
 20
57.75061513546834
 30
0.0
  0
VERTEX
  5
765
  8
DEFAULT
 10
108.5610265982679
 20
57.73746008212861
 30
0.0
  0
VERTEX
  5
766
  8
DEFAULT
 10
108.5451950843297
 20
57.72455431011471
 30
0.0
  0
VERTEX
  5
767
  8
DEFAULT
 10
108.5289395547401
 20
57.71191566417135
 30
0.0
  0
VERTEX
  5
768
  8
DEFAULT
 10
108.5122645769556
 20
57.69956208746912
 30
0.0
  0
VERTEX
  5
769
  8
DEFAULT
 10
108.4951756327243
 20
57.68751157075427
 30
0.0
  0
VERTEX
  5
76A
  8
DEFAULT
 10
108.4776791370954
 20
57.67578209883688
 30
0.0
  0
VERTEX
  5
76B
  8
DEFAULT
 10
108.4597824539724
 20
57.66439159461843
 30
0.0
  0
VERTEX
  5
76C
  8
DEFAULT
 10
108.4414939079251
 20
57.65335786089441
 30
0.0
  0
VERTEX
  5
76D
  8
DEFAULT
 10
108.4228227919868
 20
57.64269852020011
 30
0.0
  0
VERTEX
  5
76E
  8
DEFAULT
 10
108.4037793711874
 20
57.63243095300204
 30
0.0
  0
VERTEX
  5
76F
  8
DEFAULT
 10
108.3843748815929
 20
57.62257223456786
 30
0.0
  0
VERTEX
  5
770
  8
DEFAULT
 10
108.3646215246532
 20
57.61313907087837
 30
0.0
  0
VERTEX
  5
771
  8
DEFAULT
 10
108.3445324566897
 20
57.60414773397171
 30
0.0
  0
VERTEX
  5
772
  8
DEFAULT
 10
108.3241217733905
 20
57.59561399713463
 30
0.0
  0
VERTEX
  5
773
  8
DEFAULT
 10
108.3034044892214
 20
57.58755307037622
 30
0.0
  0
VERTEX
  5
774
  8
DEFAULT
 10
108.2823965117017
 20
57.57997953663656
 30
0.0
  0
VERTEX
  5
775
  8
DEFAULT
 10
108.2611146105387
 20
57.57290728919427
 30
0.0
  0
VERTEX
  5
776
  8
DEFAULT
 10
108.2395763816636
 20
57.56634947074506
 30
0.0
  0
VERTEX
  5
777
  8
DEFAULT
 10
108.2178002062576
 20
57.56031841462482
 30
0.0
  0
VERTEX
  5
778
  8
DEFAULT
 10
108.1958052049088
 20
57.55482558864733
 30
0.0
  0
VERTEX
  5
779
  8
DEFAULT
 10
108.1736111870887
 20
57.54988154201742
 30
0.0
  0
VERTEX
  5
77A
  8
DEFAULT
 10
108.1512385961864
 20
57.54549585576538
 30
0.0
  0
VERTEX
  5
77B
  8
DEFAULT
 10
108.1287084503873
 20
57.54167709712712
 30
0.0
  0
VERTEX
  5
77C
  8
DEFAULT
 10
108.1060422797268
 20
57.53843277826829
 30
0.0
  0
VERTEX
  5
77D
  8
DEFAULT
 10
108.0832620596953
 20
57.53576931971816
 30
0.0
  0
VERTEX
  5
77E
  8
DEFAULT
 10
108.0603901418075
 20
57.53369201884195
 30
0.0
  0
VERTEX
  5
77F
  8
DEFAULT
 10
108.0374491815846
 20
57.53220502363837
 30
0.0
  0
VERTEX
  5
780
  8
DEFAULT
 10
108.0144620644309
 20
57.53131131210258
 30
0.0
  0
VERTEX
  5
781
  8
DEFAULT
 10
101.6542783451753
 20
57.53100010904682
 30
0.0
 42
-1.966059108710303
  0
VERTEX
  5
782
  8
DEFAULT
 10
101.6542781955324
 20
59.30900000000004
 30
0.0
  0
VERTEX
  5
783
  8
DEFAULT
 10
107.6232518299065
 20
59.309
 30
0.0
  0
VERTEX
  5
784
  8
DEFAULT
 10
108.3724518299065
 20
60.05820000000001
 30
0.0
  0
VERTEX
  5
785
  8
DEFAULT
 10
108.3727631376071
 20
64.1580097320651
 30
0.0
  0
VERTEX
  5
786
  8
DEFAULT
 10
108.3736568450333
 20
64.1809968762096
 30
0.0
  0
VERTEX
  5
787
  8
DEFAULT
 10
108.3751438364274
 20
64.20393786295034
 30
0.0
  0
VERTEX
  5
788
  8
DEFAULT
 10
108.3772211338001
 20
64.22680980684625
 30
0.0
  0
VERTEX
  5
789
  8
DEFAULT
 10
108.3798845891578
 20
64.24959005234011
 30
0.0
  0
VERTEX
  5
78A
  8
DEFAULT
 10
108.3831289051388
 20
64.27225624788275
 30
0.0
  0
VERTEX
  5
78B
  8
DEFAULT
 10
108.3869476612164
 20
64.29478641795046
 30
0.0
  0
VERTEX
  5
78C
  8
DEFAULT
 10
108.3913333452261
 20
64.31715903247596
 30
0.0
  0
VERTEX
  5
78D
  8
DEFAULT
 10
108.3962773899318
 20
64.33935307324376
 30
0.0
  0
VERTEX
  5
78E
  8
DEFAULT
 10
108.4017702143019
 20
64.36134809683625
 30
0.0
  0
VERTEX
  5
78F
  8
DEFAULT
 10
108.4078012691293
 20
64.38312429375532
 30
0.0
  0
VERTEX
  5
790
  8
DEFAULT
 10
108.4143590865963
 20
64.40466254338813
 30
0.0
  0
VERTEX
  5
791
  8
DEFAULT
 10
108.4214313333626
 20
64.42594446453077
 30
0.0
  0
VERTEX
  5
792
  8
DEFAULT
 10
108.4290048667265
 20
64.44695246123155
 30
0.0
  0
VERTEX
  5
793
  8
DEFAULT
 10
108.4370657934027
 20
64.46766976376459
 30
0.0
  0
VERTEX
  5
794
  8
DEFAULT
 10
108.4455995304434
 20
64.48808046459435
 30
0.0
  0
VERTEX
  5
795
  8
DEFAULT
 10
108.454590867831
 20
64.50816954924082
 30
0.0
  0
VERTEX
  5
796
  8
DEFAULT
 10
108.4640240322695
 20
64.52792292200394
 30
0.0
  0
VERTEX
  5
797
  8
DEFAULT
 10
108.4738827517107
 20
64.54732742655274
 30
0.0
  0
VERTEX
  5
798
  8
DEFAULT
 10
108.4841503201631
 20
64.56637086142982
 30
0.0
  0
VERTEX
  5
799
  8
DEFAULT
 10
108.4948096623478
 20
64.58504199056382
 30
0.0
  0
VERTEX
  5
79A
  8
DEFAULT
 10
108.5058433977867
 20
64.60333054892178
 30
0.0
  0
VERTEX
  5
79B
  8
DEFAULT
 10
108.5172339039325
 20
64.62122724346922
 30
0.0
  0
VERTEX
  5
79C
  8
DEFAULT
 10
108.5289633779771
 20
64.63872374963744
 30
0.0
  0
VERTEX
  5
79D
  8
DEFAULT
 10
108.5410138970066
 20
64.65581270352577
 30
0.0
  0
VERTEX
  5
79E
  8
DEFAULT
 10
108.553367476198
 20
64.67248769008998
 30
0.0
  0
VERTEX
  5
79F
  8
DEFAULT
 10
108.5660061247922
 20
64.68874322758862
 30
0.0
  0
VERTEX
  5
7A0
  8
DEFAULT
 10
108.5789118996056
 20
64.70457474857342
 30
0.0
  0
VERTEX
  5
7A1
  8
DEFAULT
 10
108.5920669558808
 20
64.7199785777229
 30
0.0
  0
VERTEX
  5
7A2
  8
DEFAULT
 10
108.6054535953077
 20
64.7349519068247
 30
0.0
  0
VERTEX
  5
7A3
  8
DEFAULT
 10
108.6190543110834
 20
64.74949276721712
 30
0.0
  0
VERTEX
  5
7A4
  8
DEFAULT
 10
108.6328518299066
 20
64.7636
 30
0.0
  0
VERTEX
  5
7A5
  8
DEFAULT
 10
109.6424518299066
 20
65.7732
 30
0.0
  0
VERTEX
  5
7A6
  8
DEFAULT
 10
109.6427631376071
 20
78.12800880869067
 30
0.0
  0
VERTEX
  5
7A7
  8
DEFAULT
 10
109.6436568450333
 20
78.15099601188125
 30
0.0
  0
VERTEX
  5
7A8
  8
DEFAULT
 10
109.6451438364274
 20
78.17393705595913
 30
0.0
  0
VERTEX
  5
7A9
  8
DEFAULT
 10
109.6472211338001
 20
78.19680905543002
 30
0.0
  0
VERTEX
  5
7AA
  8
DEFAULT
 10
109.6498845891578
 20
78.21958935468724
 30
0.0
  0
VERTEX
  5
7AB
  8
DEFAULT
 10
109.6531289051389
 20
78.24225560213605
 30
0.0
  0
VERTEX
  5
7AC
  8
DEFAULT
 10
109.6569476612165
 20
78.2647858222112
 30
0.0
  0
VERTEX
  5
7AD
  8
DEFAULT
 10
109.6613333452261
 20
78.28715848480788
 30
0.0
  0
VERTEX
  5
7AE
  8
DEFAULT
 10
109.6662773899318
 20
78.30935257167738
 30
0.0
  0
VERTEX
  5
7AF
  8
DEFAULT
 10
109.671770214302
 20
78.33134763937304
 30
0.0
  0
VERTEX
  5
7B0
  8
DEFAULT
 10
109.6778012691293
 20
78.35312387837196
 30
0.0
  0
VERTEX
  5
7B1
  8
DEFAULT
 10
109.6843590865964
 20
78.3746621680409
 30
0.0
  0
VERTEX
  5
7B2
  8
DEFAULT
 10
109.6914313333626
 20
78.3959441271598
 30
0.0
  0
VERTEX
  5
7B3
  8
DEFAULT
 10
109.6990048667265
 20
78.41695215976499
 30
0.0
  0
VERTEX
  5
7B4
  8
DEFAULT
 10
109.7070657934027
 20
78.437669496123
 30
0.0
  0
VERTEX
  5
7B5
  8
DEFAULT
 10
109.7155995304434
 20
78.45808022869468
 30
0.0
  0
VERTEX
  5
7B6
  8
DEFAULT
 10
109.7245908678311
 20
78.47816934300057
 30
0.0
  0
VERTEX
  5
7B7
  8
DEFAULT
 10
109.7340240322695
 20
78.49792274334509
 30
0.0
  0
VERTEX
  5
7B8
  8
DEFAULT
 10
109.7438827517107
 20
78.51732727340558
 30
0.0
  0
VERTEX
  5
7B9
  8
DEFAULT
 10
109.754150320163
 20
78.53637073173672
 30
0.0
  0
VERTEX
  5
7BA
  8
DEFAULT
 10
109.7648096623478
 20
78.55504188228271
 30
0.0
  0
VERTEX
  5
7BB
  8
DEFAULT
 10
109.7758433977867
 20
78.57333046002962
 30
0.0
  0
VERTEX
  5
7BC
  8
DEFAULT
 10
109.7872339039324
 20
78.59122717196526
 30
0.0
  0
VERTEX
  5
7BD
  8
DEFAULT
 10
109.7989633779771
 20
78.60872369354624
 30
0.0
  0
VERTEX
  5
7BE
  8
DEFAULT
 10
109.8110138970066
 20
78.6258126609001
 30
0.0
  0
VERTEX
  5
7BF
  8
DEFAULT
 10
109.823367476198
 20
78.64248765901354
 30
0.0
  0
VERTEX
  5
7C0
  8
DEFAULT
 10
109.8360061247922
 20
78.65874320617856
 30
0.0
  0
VERTEX
  5
7C1
  8
DEFAULT
 10
109.8489118996056
 20
78.67457473498258
 30
0.0
  0
VERTEX
  5
7C2
  8
DEFAULT
 10
109.8620669558807
 20
78.68997857014202
 30
0.0
  0
VERTEX
  5
7C3
  8
DEFAULT
 10
109.8754535953077
 20
78.70495190348437
 30
0.0
  0
VERTEX
  5
7C4
  8
DEFAULT
 10
109.8890543110834
 20
78.7194927663894
 30
0.0
  0
VERTEX
  5
7C5
  8
DEFAULT
 10
109.9028518299066
 20
78.73360000000001
 30
0.0
  0
VERTEX
  5
7C6
  8
DEFAULT
 10
110.8628518299066
 20
79.6936
 30
0.0
  0
SEQEND
  5
7C7
  8
DEFAULT
  0
POLYLINE
  5
7C8
  8
DEFAULT
 66
     1
 10
0.0
 20
0.0
 30
0.0
  0
VERTEX
  5
7C9
  8
DEFAULT
 10
133.6096518769717
 20
85.71217356978755
 30
0.0
 42
-1.966058992334852
  0
VERTEX
  5
7CA
  8
DEFAULT
 10
135.3876518299066
 20
85.71217363437411
 30
0.0
  0
VERTEX
  5
7CB
  8
DEFAULT
 10
135.3876518299066
 20
76.096
 30
0.0
  0
VERTEX
  5
7CC
  8
DEFAULT
 10
136.9346518299066
 20
74.549
 30
0.0
  0
VERTEX
  5
7CD
  8
DEFAULT
 10
148.6186254642808
 20
74.54900000000002
 30
0.0
 42
-1.966058965901135
  0
VERTEX
  5
7CE
  8
DEFAULT
 10
148.6186254190137
 20
72.77100003298662
 30
0.0
  0
VERTEX
  5
7CF
  8
DEFAULT
 10
136.5434430212159
 20
72.7713113077005
 30
0.0
  0
VERTEX
  5
7D0
  8
DEFAULT
 10
136.5204558180253
 20
72.77220501512679
 30
0.0
  0
VERTEX
  5
7D1
  8
DEFAULT
 10
136.4975147739474
 20
72.77369200652082
 30
0.0
  0
VERTEX
  5
7D2
  8
DEFAULT
 10
136.4746427744765
 20
72.77576930389354
 30
0.0
  0
VERTEX
  5
7D3
  8
DEFAULT
 10
136.4518624752193
 20
72.77843275925123
 30
0.0
  0
VERTEX
  5
7D4
  8
DEFAULT
 10
136.4291962277705
 20
72.7816770752323
 30
0.0
  0
VERTEX
  5
7D5
  8
DEFAULT
 10
136.4066660076953
 20
72.78549583130989
 30
0.0
  0
VERTEX
  5
7D6
  8
DEFAULT
 10
136.3842933450987
 20
72.78988151531952
 30
0.0
  0
VERTEX
  5
7D7
  8
DEFAULT
 10
136.3620992582292
 20
72.79482556002523
 30
0.0
  0
VERTEX
  5
7D8
  8
DEFAULT
 10
136.3401041905335
 20
72.80031838439541
 30
0.0
  0
VERTEX
  5
7D9
  8
DEFAULT
 10
136.3183279515346
 20
72.80634943922274
 30
0.0
  0
VERTEX
  5
7DA
  8
DEFAULT
 10
136.2967896618657
 20
72.81290725668981
 30
0.0
  0
VERTEX
  5
7DB
  8
DEFAULT
 10
136.2755077027468
 20
72.81997950345604
 30
0.0
  0
VERTEX
  5
7DC
  8
DEFAULT
 10
136.2544996701416
 20
72.82755303681995
 30
0.0
  0
VERTEX
  5
7DD
  8
DEFAULT
 10
136.2337823337836
 20
72.83561396349613
 30
0.0
  0
VERTEX
  5
7DE
  8
DEFAULT
 10
136.2133716012119
 20
72.84414770053685
 30
0.0
  0
VERTEX
  5
7DF
  8
DEFAULT
 10
136.193282486906
 20
72.85313903792448
 30
0.0
  0
VERTEX
  5
7E0
  8
DEFAULT
 10
136.1735290865615
 20
72.86257220236297
 30
0.0
  0
VERTEX
  5
7E1
  8
DEFAULT
 10
136.154124556501
 20
72.87243092180411
 30
0.0
  0
VERTEX
  5
7E2
  8
DEFAULT
 10
136.1350810981699
 20
72.88269849025647
 30
0.0
  0
VERTEX
  5
7E3
  8
DEFAULT
 10
136.1164099476239
 20
72.89335783244121
 30
0.0
  0
VERTEX
  5
7E4
  8
DEFAULT
 10
136.098121369877
 20
72.90439156788015
 30
0.0
  0
VERTEX
  5
7E5
  8
DEFAULT
 10
136.0802246579413
 20
72.91578207402586
 30
0.0
  0
VERTEX
  5
7E6
  8
DEFAULT
 10
136.0627281363603
 20
72.92751154807054
 30
0.0
  0
VERTEX
  5
7E7
  8
DEFAULT
 10
136.0456391690065
 20
72.9395620671
 30
0.0
  0
VERTEX
  5
7E8
  8
DEFAULT
 10
136.028964170893
 20
72.95191564629141
 30
0.0
  0
VERTEX
  5
7E9
  8
DEFAULT
 10
136.012708623728
 20
72.9645542948856
 30
0.0
  0
VERTEX
  5
7EA
  8
DEFAULT
 10
135.996877094924
 20
72.97746006969906
 30
0.0
  0
VERTEX
  5
7EB
  8
DEFAULT
 10
135.9814732597645
 20
72.99061512597419
 30
0.0
  0
VERTEX
  5
7EC
  8
DEFAULT
 10
135.9664999264222
 20
73.00400176540111
 30
0.0
  0
VERTEX
  5
7ED
  8
DEFAULT
 10
135.9519590635172
 20
73.01760248117681
 30
0.0
  0
VERTEX
  5
7EE
  8
DEFAULT
 10
135.9378518299065
 20
73.03139999999999
 30
0.0
  0
VERTEX
  5
7EF
  8
DEFAULT
 10
133.8700518299066
 20
75.0992
 30
0.0
  0
VERTEX
  5
7F0
  8
DEFAULT
 10
133.8562543143502
 20
75.11330722906969
 30
0.0
  0
VERTEX
  5
7F1
  8
DEFAULT
 10
133.8426536017433
 20
75.12784808493578
 30
0.0
  0
VERTEX
  5
7F2
  8
DEFAULT
 10
133.8292669653749
 20
75.14282140868372
 30
0.0
  0
VERTEX
  5
7F3
  8
DEFAULT
 10
133.8161119120352
 20
75.1582252316387
 30
0.0
  0
VERTEX
  5
7F4
  8
DEFAULT
 10
133.8032061400213
 20
75.17405674557678
 30
0.0
  0
VERTEX
  5
7F5
  8
DEFAULT
 10
133.7905674940779
 20
75.19031227516643
 30
0.0
  0
VERTEX
  5
7F6
  8
DEFAULT
 10
133.7782139173757
 20
75.206987252951
 30
0.0
  0
VERTEX
  5
7F7
  8
DEFAULT
 10
133.7661634006608
 20
75.22407619718226
 30
0.0
  0
VERTEX
  5
7F8
  8
DEFAULT
 10
133.7544339287434
 20
75.24157269281119
 30
0.0
  0
VERTEX
  5
7F9
  8
DEFAULT
 10
133.743043424525
 20
75.25946937593415
 30
0.0
  0
VERTEX
  5
7FA
  8
DEFAULT
 10
133.7320096908009
 20
75.27775792198148
 30
0.0
  0
VERTEX
  5
7FB
  8
DEFAULT
 10
133.7213503501067
 20
75.29642903791974
 30
0.0
  0
VERTEX
  5
7FC
  8
DEFAULT
 10
133.7110827829086
 20
75.31547245871916
 30
0.0
  0
VERTEX
  5
7FD
  8
DEFAULT
 10
133.7012240644744
 20
75.33487694831365
 30
0.0
  0
VERTEX
  5
7FE
  8
DEFAULT
 10
133.6917909007849
 20
75.35463030525328
 30
0.0
  0
VERTEX
  5
7FF
  8
DEFAULT
 10
133.6827995638783
 20
75.37471937321683
 30
0.0
  0
VERTEX
  5
800
  8
DEFAULT
 10
133.6742658270412
 20
75.39513005651607
 30
0.0
  0
VERTEX
  5
801
  8
DEFAULT
 10
133.6662049002828
 20
75.41584734068519
 30
0.0
  0
VERTEX
  5
802
  8
DEFAULT
 10
133.6586313665431
 20
75.43685531820489
 30
0.0
  0
VERTEX
  5
803
  8
DEFAULT
 10
133.6515591191008
 20
75.45813721936783
 30
0.0
  0
VERTEX
  5
804
  8
DEFAULT
 10
133.6450013006516
 20
75.47967544824289
 30
0.0
  0
VERTEX
  5
805
  8
DEFAULT
 10
133.6389702445313
 20
75.5014516236489
 30
0.0
  0
VERTEX
  5
806
  8
DEFAULT
 10
133.6334774185538
 20
75.52344662499772
 30
0.0
  0
VERTEX
  5
807
  8
DEFAULT
 10
133.6285333719239
 20
75.54564064281786
 30
0.0
  0
VERTEX
  5
808
  8
DEFAULT
 10
133.6241476856719
 20
75.56801323372014
 30
0.0
  0
VERTEX
  5
809
  8
DEFAULT
 10
133.6203289270337
 20
75.59054337951929
 30
0.0
  0
VERTEX
  5
80A
  8
DEFAULT
 10
133.6170846081749
 20
75.6132095501798
 30
0.0
  0
VERTEX
  5
80B
  8
DEFAULT
 10
133.6144211496247
 20
75.63598977021125
 30
0.0
  0
VERTEX
  5
80C
  8
DEFAULT
 10
133.6123438487485
 20
75.65886168809912
 30
0.0
  0
VERTEX
  5
80D
  8
DEFAULT
 10
133.6108568535449
 20
75.68180264832199
 30
0.0
  0
VERTEX
  5
80E
  8
DEFAULT
 10
133.6099631420091
 20
75.70478976547567
 30
0.0
  0
VERTEX
  5
80F
  8
DEFAULT
 10
133.6096518769717
 20
85.71217356978755
 30
0.0
  0
SEQEND
  5
810
  8
DEFAULT
  0
POLYLINE
  5
811
  8
DEFAULT
 66
     1
 10
0.0
 20
0.0
 30
0.0
  0
VERTEX
  5
812
  8
DEFAULT
 10
137.5824518299065
 20
85.57621127846849
 30
0.0
 42
-1.90625590855443
  0
VERTEX
  5
813
  8
DEFAULT
 10
139.360440120734
 20
85.91549451814245
 30
0.0
  0
VERTEX
  5
814
  8
DEFAULT
 10
139.3604518299066
 20
77.83820000000001
 30
0.0
  0
VERTEX
  5
815
  8
DEFAULT
 10
140.1096518299066
 20
77.089
 30
0.0
  0
VERTEX
  5
816
  8
DEFAULT
 10
148.6186254642808
 20
77.089
 30
0.0
 42
-1.966059014073131
  0
VERTEX
  5
817
  8
DEFAULT
 10
148.6186253838061
 20
75.311000058643
 30
0.0
  0
VERTEX
  5
818
  8
DEFAULT
 10
139.7184426660719
 20
75.31131130770049
 30
0.0
  0
VERTEX
  5
819
  8
DEFAULT
 10
139.6954554855914
 20
75.31220501512678
 30
0.0
  0
VERTEX
  5
81A
  8
DEFAULT
 10
139.6725144635662
 20
75.31369200652081
 30
0.0
  0
VERTEX
  5
81B
  8
DEFAULT
 10
139.6496424854703
 20
75.31576930389353
 30
0.0
  0
VERTEX
  5
81C
  8
DEFAULT
 10
139.6268622068913
 20
75.31843275925121
 30
0.0
  0
VERTEX
  5
81D
  8
DEFAULT
 10
139.6041959794064
 20
75.32167707523229
 30
0.0
  0
VERTEX
  5
81E
  8
DEFAULT
 10
139.5816657785649
 20
75.32549583130987
 30
0.0
  0
VERTEX
  5
81F
  8
DEFAULT
 10
139.5592931344571
 20
75.3298815153195
 30
0.0
  0
VERTEX
  5
820
  8
DEFAULT
 10
139.537099065319
 20
75.3348255600252
 30
0.0
  0
VERTEX
  5
821
  8
DEFAULT
 10
139.5151040145861
 20
75.34031838439537
 30
0.0
  0
VERTEX
  5
822
  8
DEFAULT
 10
139.4933277917717
 20
75.34634943922269
 30
0.0
  0
VERTEX
  5
823
  8
DEFAULT
 10
139.4717895175013
 20
75.35290725668979
 30
0.0
  0
VERTEX
  5
824
  8
DEFAULT
 10
139.4505075729887
 20
75.35997950345603
 30
0.0
  0
VERTEX
  5
825
  8
DEFAULT
 10
139.4294995541929
 20
75.36755303681993
 30
0.0
  0
VERTEX
  5
826
  8
DEFAULT
 10
139.4087822308445
 20
75.37561396349611
 30
0.0
  0
VERTEX
  5
827
  8
DEFAULT
 10
139.3883715104812
 20
75.38414770053684
 30
0.0
  0
VERTEX
  5
828
  8
DEFAULT
 10
139.3682824075829
 20
75.39313903792448
 30
0.0
  0
VERTEX
  5
829
  8
DEFAULT
 10
139.3485290178465
 20
75.40257220236293
 30
0.0
  0
VERTEX
  5
82A
  8
DEFAULT
 10
139.3291244975982
 20
75.41243092180406
 30
0.0
  0
VERTEX
  5
82B
  8
DEFAULT
 10
139.3100810482879
 20
75.42269849025647
 30
0.0
  0
VERTEX
  5
82C
  8
DEFAULT
 10
139.2914099059772
 20
75.4333578324412
 30
0.0
  0
VERTEX
  5
82D
  8
DEFAULT
 10
139.2731213356876
 20
75.44439156788013
 30
0.0
  0
VERTEX
  5
82E
  8
DEFAULT
 10
139.2552246304398
 20
75.45578207402585
 30
0.0
  0
VERTEX
  5
82F
  8
DEFAULT
 10
139.2377281147868
 20
75.46751154807053
 30
0.0
  0
VERTEX
  5
830
  8
DEFAULT
 10
139.220639152612
 20
75.47956206709999
 30
0.0
  0
VERTEX
  5
831
  8
DEFAULT
 10
139.2039641589406
 20
75.4919156462914
 30
0.0
  0
VERTEX
  5
832
  8
DEFAULT
 10
139.1877086154934
 20
75.5045542948856
 30
0.0
  0
VERTEX
  5
833
  8
DEFAULT
 10
139.1718770896967
 20
75.51746006969906
 30
0.0
  0
VERTEX
  5
834
  8
DEFAULT
 10
139.1564732568488
 20
75.53061512597418
 30
0.0
  0
VERTEX
  5
835
  8
DEFAULT
 10
139.1414999251375
 20
75.5440017654011
 30
0.0
  0
VERTEX
  5
836
  8
DEFAULT
 10
139.1269590631988
 20
75.5576024811768
 30
0.0
  0
VERTEX
  5
837
  8
DEFAULT
 10
139.1128518299066
 20
75.5714
 30
0.0
  0
VERTEX
  5
838
  8
DEFAULT
 10
137.8475994657954
 20
76.83665236411113
 30
0.0
 42
-0.2008759561875825
  0
VERTEX
  5
839
  8
DEFAULT
 10
137.5824518299065
 20
77.47
 30
0.0
  0
VERTEX
  5
83A
  8
DEFAULT
 10
137.5824518299065
 20
85.57621127846849
 30
0.0
  0
SEQEND
  5
83B
  8
DEFAULT
  0
POLYLINE
  5
83D
  8
16
 66
     1
 10
0.0
 20
0.0
 30
0.0
  0
VERTEX
  5
83E
  8
16
 10
100.9261651470725
 20
-2.003835675603337
 30
0.0
  0
VERTEX
  5
83F
  8
16
 10
100.8797086932097
 20
12.05358848638699
 30
0.0
 42
-0.4393900568314413
  0
VERTEX
  5
840
  8
16
 10
101.0064518299066
 20
12.19199999999998
 30
0.0
  0
VERTEX
  5
841
  8
16
 10
111.1664518299066
 20
12.19199999999998
 30
0.0
 42
-0.4393900568812399
  0
VERTEX
  5
842
  8
16
 10
111.2931949666006
 20
12.05358848638699
 30
0.0
 42
-0.0000214485101105
  0
VERTEX
  5
843
  8
16
 10
111.2931104738964
 20
-1.891884255506434
 30
0.0
  0
VERTEX
  5
844
  8
16
 10
110.6302875055099
 20
-2.620286682834029
 30
0.0
  0
VERTEX
  5
845
  8
16
 10
101.6545675744001
 20
-2.666658643997438
 30
0.0
  0
VERTEX
  5
846
  8
16
 10
100.9261651470725
 20
-2.003835675603337
 30
0.0
  0
SEQEND
  5
847
  8
16
  0
POLYLINE
  5
848
  8
16
 66
     1
 10
0.0
 20
0.0
 30
0.0
  0
VERTEX
  5
849
  8
16
 10
130.0897086932092
 20
10.14858848638699
 30
0.0
 42
-0.4393900568513508
  0
VERTEX
  5
84A
  8
16
 10
130.2164518299066
 20
10.287
 30
0.0
  0
VERTEX
  5
84B
  8
16
 10
142.9164518299066
 20
10.28699999999998
 30
0.0
 42
-0.4393900568812976
  0
VERTEX
  5
84C
  8
16
 10
143.0431949665866
 20
10.14858848638699
 30
0.0
 42
-0.0000168798259713
  0
VERTEX
  5
84D
  8
16
 10
143.0431949665945
 20
-5.068588486386992
 30
0.0
 42
-0.4393900568518472
  0
VERTEX
  5
84E
  8
16
 10
142.9164518299066
 20
-5.206999999999987
 30
0.0
  0
VERTEX
  5
84F
  8
16
 10
130.8514518299066
 20
-5.207
 30
0.0
  0
VERTEX
  5
850
  8
16
 10
130.7609726253532
 20
-5.169120788075669
 30
0.0
 42
-0.0004893010928297
  0
VERTEX
  5
851
  8
16
 10
130.5171651470725
 20
-4.924835675603333
 30
0.0
  0
VERTEX
  5
852
  8
16
 10
130.4986161543032
 20
-4.906286682834021
 30
0.0
 42
-0.0010143117550863
  0
VERTEX
  5
853
  8
16
 10
130.2631651470725
 20
-4.670835675603328
 30
0.0
  0
VERTEX
  5
854
  8
16
 10
130.2446161543032
 20
-4.652286682834019
 30
0.0
 42
-0.0022021075453328
  0
VERTEX
  5
855
  8
16
 10
130.1361651470725
 20
-4.543835675603326
 30
0.0
  0
VERTEX
  5
856
  8
16
 10
130.0894518298449
 20
-4.444999999999997
 30
0.0
 42
-0.0000088005584326
  0
VERTEX
  5
857
  8
16
 10
130.0897086931509
 20
10.14858848638699
 30
0.0
  0
SEQEND
  5
858
  8
16
  0
POLYLINE
  5
85A
  8
20
 66
     1
 10
0.0
 20
0.0
 30
0.0
  0
VERTEX
  5
85B
  8
20
 10
174.6664518299065
 20
-5.08
 30
0.0
  0
VERTEX
  5
85C
  8
20
 10
97.21645182990656
 20
-5.08
 30
0.0
  0
VERTEX
  5
85D
  8
20
 10
97.21645182990656
 20
100.635
 30
0.0
  0
VERTEX
  5
85E
  8
20
 10
174.6664518299065
 20
100.635
 30
0.0
  0
VERTEX
  5
85F
  8
20
 10
174.6664518299065
 20
-5.08
 30
0.0
  0
SEQEND
  5
860
  8
20
  0
CIRCLE
  5
862
  8
44
 10
-149.2664518299066
 20
63.5
 30
0.0
 40
0.508
210
0.0
220
0.0
230
-1.0
  0
CIRCLE
  5
863
  8
44
 10
-149.2664518299066
 20
60.96
 30
0.0
 40
0.508
210
0.0
220
0.0
230
-1.0
  0
CIRCLE
  5
864
  8
44
 10
-149.2664518299066
 20
58.42
 30
0.0
 40
0.508
210
0.0
220
0.0
230
-1.0
  0
CIRCLE
  5
865
  8
44
 10
-149.2664518299066
 20
55.88
 30
0.0
 40
0.508
210
0.0
220
0.0
230
-1.0
  0
CIRCLE
  5
866
  8
44
 10
-101.0064518299066
 20
35.56
 30
0.0
 40
0.508
210
0.0
220
0.0
230
-1.0
  0
CIRCLE
  5
867
  8
44
 10
-149.2664518299066
 20
53.34
 30
0.0
 40
0.508
210
0.0
220
0.0
230
-1.0
  0
CIRCLE
  5
868
  8
44
 10
-149.2664518299066
 20
50.8
 30
0.0
 40
0.508
210
0.0
220
0.0
230
-1.0
  0
CIRCLE
  5
869
  8
44
 10
-101.0064518299066
 20
38.1
 30
0.0
 40
0.508
210
0.0
220
0.0
230
-1.0
  0
CIRCLE
  5
86A
  8
44
 10
-149.2664518299066
 20
93.98
 30
0.0
 40
0.508
210
0.0
220
0.0
230
-1.0
  0
CIRCLE
  5
86B
  8
44
 10
-149.2664518299066
 20
96.52
 30
0.0
 40
0.508
210
0.0
220
0.0
230
-1.0
  0
CIRCLE
  5
86C
  8
44
 10
-149.2664518299066
 20
48.26
 30
0.0
 40
0.508
210
0.0
220
0.0
230
-1.0
  0
CIRCLE
  5
86D
  8
44
 10
-149.2664518299066
 20
45.72
 30
0.0
 40
0.508
210
0.0
220
0.0
230
-1.0
  0
CIRCLE
  5
86E
  8
44
 10
-149.2664518299066
 20
41.656
 30
0.0
 40
0.508
210
0.0
220
0.0
230
-1.0
  0
CIRCLE
  5
86F
  8
44
 10
-149.2664518299066
 20
39.116
 30
0.0
 40
0.508
210
0.0
220
0.0
230
-1.0
  0
CIRCLE
  5
870
  8
44
 10
-149.2664518299066
 20
36.576
 30
0.0
 40
0.508
210
0.0
220
0.0
230
-1.0
  0
CIRCLE
  5
871
  8
44
 10
-149.2664518299066
 20
34.036
 30
0.0
 40
0.508
210
0.0
220
0.0
230
-1.0
  0
CIRCLE
  5
872
  8
44
 10
-149.2664518299066
 20
31.496
 30
0.0
 40
0.508
210
0.0
220
0.0
230
-1.0
  0
CIRCLE
  5
873
  8
44
 10
-149.2664518299066
 20
28.956
 30
0.0
 40
0.508
210
0.0
220
0.0
230
-1.0
  0
CIRCLE
  5
874
  8
44
 10
-149.2664518299066
 20
68.58
 30
0.0
 40
0.508
210
0.0
220
0.0
230
-1.0
  0
CIRCLE
  5
875
  8
44
 10
-149.2664518299066
 20
71.12
 30
0.0
 40
0.508
210
0.0
220
0.0
230
-1.0
  0
CIRCLE
  5
876
  8
44
 10
-149.2664518299066
 20
73.66
 30
0.0
 40
0.508
210
0.0
220
0.0
230
-1.0
  0
CIRCLE
  5
877
  8
44
 10
-149.2664518299066
 20
76.2
 30
0.0
 40
0.508
210
0.0
220
0.0
230
-1.0
  0
CIRCLE
  5
878
  8
44
 10
-149.2664518299066
 20
78.74
 30
0.0
 40
0.508
210
0.0
220
0.0
230
-1.0
  0
CIRCLE
  5
879
  8
44
 10
-149.2664518299066
 20
81.28
 30
0.0
 40
0.508
210
0.0
220
0.0
230
-1.0
  0
CIRCLE
  5
87A
  8
44
 10
-149.2664518299066
 20
83.82
 30
0.0
 40
0.508
210
0.0
220
0.0
230
-1.0
  0
CIRCLE
  5
87B
  8
44
 10
-149.2664518299066
 20
86.36
 30
0.0
 40
0.508
210
0.0
220
0.0
230
-1.0
  0
CIRCLE
  5
87C
  8
44
 10
-146.7264518299066
 20
93.98
 30
0.0
 40
0.508
210
0.0
220
0.0
230
-1.0
  0
CIRCLE
  5
87D
  8
44
 10
-146.7264518299066
 20
96.52
 30
0.0
 40
0.508
210
0.0
220
0.0
230
-1.0
  0
CIRCLE
  5
87E
  8
44
 10
-144.1864518299066
 20
93.98
 30
0.0
 40
0.508
210
0.0
220
0.0
230
-1.0
  0
CIRCLE
  5
87F
  8
44
 10
-144.1864518299066
 20
96.52
 30
0.0
 40
0.508
210
0.0
220
0.0
230
-1.0
  0
CIRCLE
  5
880
  8
44
 10
-141.6464518299066
 20
93.98
 30
0.0
 40
0.508
210
0.0
220
0.0
230
-1.0
  0
CIRCLE
  5
881
  8
44
 10
-141.6464518299066
 20
96.52
 30
0.0
 40
0.508
210
0.0
220
0.0
230
-1.0
  0
CIRCLE
  5
882
  8
44
 10
-139.1064518299066
 20
93.98
 30
0.0
 40
0.508
210
0.0
220
0.0
230
-1.0
  0
CIRCLE
  5
883
  8
44
 10
-139.1064518299066
 20
96.52
 30
0.0
 40
0.508
210
0.0
220
0.0
230
-1.0
  0
CIRCLE
  5
884
  8
44
 10
-136.5664518299066
 20
93.98
 30
0.0
 40
0.508
210
0.0
220
0.0
230
-1.0
  0
CIRCLE
  5
885
  8
44
 10
-136.5664518299066
 20
96.52
 30
0.0
 40
0.508
210
0.0
220
0.0
230
-1.0
  0
CIRCLE
  5
886
  8
44
 10
-134.0264518299066
 20
93.98
 30
0.0
 40
0.508
210
0.0
220
0.0
230
-1.0
  0
CIRCLE
  5
887
  8
44
 10
-134.0264518299066
 20
96.52
 30
0.0
 40
0.508
210
0.0
220
0.0
230
-1.0
  0
CIRCLE
  5
888
  8
44
 10
-131.4864518299066
 20
93.98
 30
0.0
 40
0.508
210
0.0
220
0.0
230
-1.0
  0
CIRCLE
  5
889
  8
44
 10
-131.4864518299066
 20
96.52
 30
0.0
 40
0.508
210
0.0
220
0.0
230
-1.0
  0
CIRCLE
  5
88A
  8
44
 10
-128.9464518299066
 20
93.98
 30
0.0
 40
0.508
210
0.0
220
0.0
230
-1.0
  0
CIRCLE
  5
88B
  8
44
 10
-128.9464518299066
 20
96.52
 30
0.0
 40
0.508
210
0.0
220
0.0
230
-1.0
  0
CIRCLE
  5
88C
  8
44
 10
-126.4064518299066
 20
93.98
 30
0.0
 40
0.508
210
0.0
220
0.0
230
-1.0
  0
CIRCLE
  5
88D
  8
44
 10
-126.4064518299066
 20
96.52
 30
0.0
 40
0.508
210
0.0
220
0.0
230
-1.0
  0
CIRCLE
  5
88E
  8
44
 10
-123.8664518299066
 20
93.98
 30
0.0
 40
0.508
210
0.0
220
0.0
230
-1.0
  0
CIRCLE
  5
88F
  8
44
 10
-123.8664518299066
 20
96.52
 30
0.0
 40
0.508
210
0.0
220
0.0
230
-1.0
  0
CIRCLE
  5
890
  8
44
 10
-121.3264518299066
 20
93.98
 30
0.0
 40
0.508
210
0.0
220
0.0
230
-1.0
  0
CIRCLE
  5
891
  8
44
 10
-121.3264518299066
 20
96.52
 30
0.0
 40
0.508
210
0.0
220
0.0
230
-1.0
  0
CIRCLE
  5
892
  8
44
 10
-118.7864518299066
 20
93.98
 30
0.0
 40
0.508
210
0.0
220
0.0
230
-1.0
  0
CIRCLE
  5
893
  8
44
 10
-118.7864518299066
 20
96.52
 30
0.0
 40
0.508
210
0.0
220
0.0
230
-1.0
  0
CIRCLE
  5
894
  8
44
 10
-116.2464518299066
 20
93.98
 30
0.0
 40
0.508
210
0.0
220
0.0
230
-1.0
  0
CIRCLE
  5
895
  8
44
 10
-116.2464518299066
 20
96.52
 30
0.0
 40
0.508
210
0.0
220
0.0
230
-1.0
  0
CIRCLE
  5
896
  8
44
 10
-113.7064518299066
 20
93.98
 30
0.0
 40
0.508
210
0.0
220
0.0
230
-1.0
  0
CIRCLE
  5
897
  8
44
 10
-113.7064518299066
 20
96.52
 30
0.0
 40
0.508
210
0.0
220
0.0
230
-1.0
  0
CIRCLE
  5
898
  8
44
 10
-111.1664518299066
 20
93.98
 30
0.0
 40
0.508
210
0.0
220
0.0
230
-1.0
  0
CIRCLE
  5
899
  8
44
 10
-111.1664518299066
 20
96.52
 30
0.0
 40
0.508
210
0.0
220
0.0
230
-1.0
  0
CIRCLE
  5
89A
  8
44
 10
-108.6264518299066
 20
93.98
 30
0.0
 40
0.508
210
0.0
220
0.0
230
-1.0
  0
CIRCLE
  5
89B
  8
44
 10
-108.6264518299066
 20
96.52
 30
0.0
 40
0.508
210
0.0
220
0.0
230
-1.0
  0
CIRCLE
  5
89C
  8
44
 10
-101.0064518299066
 20
50.8
 30
0.0
 40
0.508
210
0.0
220
0.0
230
-1.0
  0
CIRCLE
  5
89D
  8
44
 10
-101.0064518299066
 20
53.34
 30
0.0
 40
0.508
210
0.0
220
0.0
230
-1.0
  0
CIRCLE
  5
89E
  8
44
 10
-101.0064518299066
 20
55.88
 30
0.0
 40
0.508
210
0.0
220
0.0
230
-1.0
  0
CIRCLE
  5
89F
  8
44
 10
-101.0064518299066
 20
58.42
 30
0.0
 40
0.508
210
0.0
220
0.0
230
-1.0
  0
CIRCLE
  5
8A0
  8
44
 10
-101.0064518299066
 20
60.96
 30
0.0
 40
0.508
210
0.0
220
0.0
230
-1.0
  0
CIRCLE
  5
8A1
  8
44
 10
-101.0064518299066
 20
63.5
 30
0.0
 40
0.508
210
0.0
220
0.0
230
-1.0
  0
CIRCLE
  5
8A2
  8
44
 10
-101.0064518299066
 20
66.04
 30
0.0
 40
0.508
210
0.0
220
0.0
230
-1.0
  0
CIRCLE
  5
8A3
  8
44
 10
-101.0064518299066
 20
68.58
 30
0.0
 40
0.508
210
0.0
220
0.0
230
-1.0
  0
CIRCLE
  5
8A4
  8
44
 10
-101.0064518299066
 20
73.66
 30
0.0
 40
0.508
210
0.0
220
0.0
230
-1.0
  0
CIRCLE
  5
8A5
  8
44
 10
-101.0064518299066
 20
76.2
 30
0.0
 40
0.508
210
0.0
220
0.0
230
-1.0
  0
CIRCLE
  5
8A6
  8
44
 10
-101.0064518299066
 20
78.74
 30
0.0
 40
0.508
210
0.0
220
0.0
230
-1.0
  0
CIRCLE
  5
8A7
  8
44
 10
-101.0064518299066
 20
81.28
 30
0.0
 40
0.508
210
0.0
220
0.0
230
-1.0
  0
CIRCLE
  5
8A8
  8
44
 10
-101.0064518299066
 20
83.82
 30
0.0
 40
0.508
210
0.0
220
0.0
230
-1.0
  0
CIRCLE
  5
8A9
  8
44
 10
-101.0064518299066
 20
86.36
 30
0.0
 40
0.508
210
0.0
220
0.0
230
-1.0
  0
CIRCLE
  5
8AA
  8
44
 10
-101.0064518299066
 20
88.9
 30
0.0
 40
0.508
210
0.0
220
0.0
230
-1.0
  0
CIRCLE
  5
8AB
  8
44
 10
-101.0064518299066
 20
91.44
 30
0.0
 40
0.508
210
0.0
220
0.0
230
-1.0
  0
CIRCLE
  5
8AC
  8
44
 10
-149.2664518299066
 20
23.876
 30
0.0
 40
0.508
210
0.0
220
0.0
230
-1.0
  0
CIRCLE
  5
8AD
  8
44
 10
-101.0064518299066
 20
40.64
 30
0.0
 40
0.508
210
0.0
220
0.0
230
-1.0
  0
CIRCLE
  5
8AE
  8
44
 10
-101.0064518299066
 20
43.18
 30
0.0
 40
0.508
210
0.0
220
0.0
230
-1.0
  0
CIRCLE
  5
8AF
  8
44
 10
-106.0864518299066
 20
93.98
 30
0.0
 40
0.508
210
0.0
220
0.0
230
-1.0
  0
CIRCLE
  5
8B0
  8
44
 10
-106.0864518299066
 20
96.52
 30
0.0
 40
0.508
210
0.0
220
0.0
230
-1.0
  0
CIRCLE
  5
8B1
  8
44
 10
-149.2664518299066
 20
26.416
 30
0.0
 40
0.508
210
0.0
220
0.0
230
-1.0
  0
CIRCLE
  5
8B2
  8
44
 10
-101.0064518299066
 20
33.02
 30
0.0
 40
0.508
210
0.0
220
0.0
230
-1.0
  0
CIRCLE
  5
8B3
  8
44
 10
-101.0064518299066
 20
45.72
 30
0.0
 40
0.508
210
0.0
220
0.0
230
-1.0
  0
CIRCLE
  5
8B4
  8
44
 10
-123.2314518299066
 20
31.75
 30
0.0
 40
0.4064
210
0.0
220
0.0
230
-1.0
  0
CIRCLE
  5
8B5
  8
44
 10
-118.1514518299066
 20
31.75
 30
0.0
 40
0.4064
210
0.0
220
0.0
230
-1.0
  0
CIRCLE
  5
8B6
  8
44
 10
-123.2314518299066
 20
50.165
 30
0.0
 40
0.4064
210
0.0
220
0.0
230
-1.0
  0
CIRCLE
  5
8B7
  8
44
 10
-118.1514518299066
 20
50.165
 30
0.0
 40
0.4064
210
0.0
220
0.0
230
-1.0
  0
CIRCLE
  5
8B8
  8
44
 10
-130.8514518299066
 20
38.735
 30
0.0
 40
0.508
210
0.0
220
0.0
230
-1.0
  0
CIRCLE
  5
8B9
  8
44
 10
-130.8514518299066
 20
41.275
 30
0.0
 40
0.508
210
0.0
220
0.0
230
-1.0
  0
CIRCLE
  5
8BA
  8
44
 10
-130.8514518299066
 20
43.815
 30
0.0
 40
0.508
210
0.0
220
0.0
230
-1.0
  0
CIRCLE
  5
8BB
  8
44
 10
-165.1414518299066
 20
62.4078
 30
0.0
 40
0.6
210
0.0
220
0.0
230
-1.0
  0
CIRCLE
  5
8BC
  8
44
 10
-165.1414518299066
 20
58.5522
 30
0.0
 40
0.6
210
0.0
220
0.0
230
-1.0
  0
CIRCLE
  5
8BD
  8
44
 10
-165.1414518299066
 20
55.4078
 30
0.0
 40
0.6
210
0.0
220
0.0
230
-1.0
  0
CIRCLE
  5
8BE
  8
44
 10
-165.1414518299066
 20
51.5522
 30
0.0
 40
0.6
210
0.0
220
0.0
230
-1.0
  0
CIRCLE
  5
8BF
  8
44
 10
-165.1414518299066
 20
45.8978
 30
0.0
 40
0.6
210
0.0
220
0.0
230
-1.0
  0
CIRCLE
  5
8C0
  8
44
 10
-165.1414518299066
 20
42.0422
 30
0.0
 40
0.6
210
0.0
220
0.0
230
-1.0
  0
CIRCLE
  5
8C1
  8
44
 10
-165.1414518299066
 20
38.8978
 30
0.0
 40
0.6
210
0.0
220
0.0
230
-1.0
  0
CIRCLE
  5
8C2
  8
44
 10
-165.1414518299066
 20
35.0422
 30
0.0
 40
0.6
210
0.0
220
0.0
230
-1.0
  0
CIRCLE
  5
8C3
  8
44
 10
-165.1414518299066
 20
30.6578
 30
0.0
 40
0.6
210
0.0
220
0.0
230
-1.0
  0
CIRCLE
  5
8C4
  8
44
 10
-165.1414518299066
 20
26.8022
 30
0.0
 40
0.6
210
0.0
220
0.0
230
-1.0
  0
CIRCLE
  5
8C5
  8
44
 10
-165.1414518299066
 20
23.6578
 30
0.0
 40
0.6
210
0.0
220
0.0
230
-1.0
  0
CIRCLE
  5
8C6
  8
44
 10
-165.1414518299066
 20
19.8022
 30
0.0
 40
0.6
210
0.0
220
0.0
230
-1.0
  0
CIRCLE
  5
8C7
  8
44
 10
-165.1414518299066
 20
78.9178
 30
0.0
 40
0.6
210
0.0
220
0.0
230
-1.0
  0
CIRCLE
  5
8C8
  8
44
 10
-165.1414518299066
 20
75.0622
 30
0.0
 40
0.6
210
0.0
220
0.0
230
-1.0
  0
CIRCLE
  5
8C9
  8
44
 10
-165.1414518299066
 20
71.9178
 30
0.0
 40
0.6
210
0.0
220
0.0
230
-1.0
  0
CIRCLE
  5
8CA
  8
44
 10
-165.1414518299066
 20
68.0622
 30
0.0
 40
0.6
210
0.0
220
0.0
230
-1.0
  0
CIRCLE
  5
8CB
  8
44
 10
-165.1414518299066
 20
14.1478
 30
0.0
 40
0.6
210
0.0
220
0.0
230
-1.0
  0
CIRCLE
  5
8CC
  8
44
 10
-165.1414518299066
 20
10.2922
 30
0.0
 40
0.6
210
0.0
220
0.0
230
-1.0
  0
CIRCLE
  5
8CD
  8
44
 10
-165.1414518299066
 20
7.1478
 30
0.0
 40
0.6
210
0.0
220
0.0
230
-1.0
  0
CIRCLE
  5
8CE
  8
44
 10
-165.1414518299066
 20
3.2922
 30
0.0
 40
0.6
210
0.0
220
0.0
230
-1.0
  0
CIRCLE
  5
8CF
  8
44
 10
-102.2764518299066
 20
21.4122
 30
0.0
 40
0.6
210
0.0
220
0.0
230
-1.0
  0
CIRCLE
  5
8D0
  8
44
 10
-102.2764518299066
 20
25.2678
 30
0.0
 40
0.6
210
0.0
220
0.0
230
-1.0
  0
CIRCLE
  5
8D1
  8
44
 10
-165.1414518299066
 20
95.4278
 30
0.0
 40
0.6
210
0.0
220
0.0
230
-1.0
  0
CIRCLE
  5
8D2
  8
44
 10
-165.1414518299066
 20
91.5722
 30
0.0
 40
0.6
210
0.0
220
0.0
230
-1.0
  0
CIRCLE
  5
8D3
  8
44
 10
-165.1414518299066
 20
88.4278
 30
0.0
 40
0.6
210
0.0
220
0.0
230
-1.0
  0
CIRCLE
  5
8D4
  8
44
 10
-165.1414518299066
 20
84.5722
 30
0.0
 40
0.6
210
0.0
220
0.0
230
-1.0
  0
CIRCLE
  5
8D5
  8
44
 10
-127.4986518299066
 20
86.36
 30
0.0
 40
0.6
210
0.0
220
0.0
230
-1.0
  0
CIRCLE
  5
8D6
  8
44
 10
-131.3542518299066
 20
86.36
 30
0.0
 40
0.6
210
0.0
220
0.0
230
-1.0
  0
CIRCLE
  5
8D7
  8
44
 10
-134.4986518299066
 20
86.36
 30
0.0
 40
0.6
210
0.0
220
0.0
230
-1.0
  0
CIRCLE
  5
8D8
  8
44
 10
-138.3542518299066
 20
86.36
 30
0.0
 40
0.6
210
0.0
220
0.0
230
-1.0
  0
CIRCLE
  5
8D9
  8
44
 10
-114.9764518299066
 20
60.1472
 30
0.0
 40
0.6
210
0.0
220
0.0
230
-1.0
  0
CIRCLE
  5
8DA
  8
44
 10
-114.9764518299066
 20
63.825
 30
0.0
 40
0.6
210
0.0
220
0.0
230
-1.0
  0
CIRCLE
  5
8DB
  8
44
 10
-114.9764518299066
 20
67.5028
 30
0.0
 40
0.6
210
0.0
220
0.0
230
-1.0
  0
CIRCLE
  5
8DC
  8
44
 10
-114.9764518299066
 20
75.3872
 30
0.0
 40
0.6
210
0.0
220
0.0
230
-1.0
  0
CIRCLE
  5
8DD
  8
44
 10
-114.9764518299066
 20
79.065
 30
0.0
 40
0.6
210
0.0
220
0.0
230
-1.0
  0
CIRCLE
  5
8DE
  8
44
 10
-114.9764518299066
 20
82.7428
 30
0.0
 40
0.6
210
0.0
220
0.0
230
-1.0
  0
CIRCLE
  5
8DF
  8
44
 10
-113.8842518299066
 20
16.51
 30
0.0
 40
0.6
210
0.0
220
0.0
230
-1.0
  0
CIRCLE
  5
8E0
  8
44
 10
-110.0286518299066
 20
16.51
 30
0.0
 40
0.6
210
0.0
220
0.0
230
-1.0
  0
CIRCLE
  5
8E1
  8
44
 10
-121.5042518299066
 20
16.51
 30
0.0
 40
0.6
210
0.0
220
0.0
230
-1.0
  0
CIRCLE
  5
8E2
  8
44
 10
-117.6486518299066
 20
16.51
 30
0.0
 40
0.6
210
0.0
220
0.0
230
-1.0
  0
CIRCLE
  5
8E3
  8
44
 10
-129.1242518299066
 20
16.51
 30
0.0
 40
0.6
210
0.0
220
0.0
230
-1.0
  0
CIRCLE
  5
8E4
  8
44
 10
-125.2686518299066
 20
16.51
 30
0.0
 40
0.6
210
0.0
220
0.0
230
-1.0
  0
CIRCLE
  5
8E5
  8
44
 10
-136.7442518299065
 20
16.51
 30
0.0
 40
0.6
210
0.0
220
0.0
230
-1.0
  0
CIRCLE
  5
8E6
  8
44
 10
-132.8886518299066
 20
16.51
 30
0.0
 40
0.6
210
0.0
220
0.0
230
-1.0
  0
CIRCLE
  5
8E7
  8
44
 10
-144.3642518299066
 20
16.51
 30
0.0
 40
0.6
210
0.0
220
0.0
230
-1.0
  0
CIRCLE
  5
8E8
  8
44
 10
-140.5086518299066
 20
16.51
 30
0.0
 40
0.6
210
0.0
220
0.0
230
-1.0
  0
CIRCLE
  5
8E9
  8
DEFAULT
 10
-108.6264518299065
 20
93.98
 30
0.0
 40
1.09999999999998
210
0.0
220
0.0
230
-1.0
  0
CIRCLE
  5
8EA
  8
DEFAULT
 10
-108.6264518299066
 20
96.52000000000001
 30
0.0
 40
1.099999999999994
210
0.0
220
0.0
230
-1.0
  0
CIRCLE
  5
8EB
  8
DEFAULT
 10
-111.1664518299065
 20
93.98000000000002
 30
0.0
 40
1.09999999999998
210
0.0
220
0.0
230
-1.0
  0
CIRCLE
  5
8EC
  8
DEFAULT
 10
-111.1664518299065
 20
96.52000000000001
 30
0.0
 40
1.09999999999998
210
0.0
220
0.0
230
-1.0
  0
CIRCLE
  5
8ED
  8
DEFAULT
 10
-113.7064518299066
 20
93.97999999999999
 30
0.0
 40
1.100000000000009
210
0.0
220
0.0
230
-1.0
  0
CIRCLE
  5
8EE
  8
DEFAULT
 10
-113.7064518299066
 20
96.52
 30
0.0
 40
1.099999999999994
210
0.0
220
0.0
230
-1.0
  0
CIRCLE
  5
8EF
  8
DEFAULT
 10
-116.2464518299066
 20
93.97999999999999
 30
0.0
 40
1.100000000000023
210
0.0
220
0.0
230
-1.0
  0
CIRCLE
  5
8F0
  8
DEFAULT
 10
-116.2464518299066
 20
96.52000000000001
 30
0.0
 40
1.099999999999994
210
0.0
220
0.0
230
-1.0
  0
CIRCLE
  5
8F1
  8
DEFAULT
 10
-118.7864518299066
 20
93.98
 30
0.0
 40
1.100000000000009
210
0.0
220
0.0
230
-1.0
  0
CIRCLE
  5
8F2
  8
DEFAULT
 10
-118.7864518299066
 20
96.52
 30
0.0
 40
1.100000000000009
210
0.0
220
0.0
230
-1.0
  0
CIRCLE
  5
8F3
  8
DEFAULT
 10
-121.3264518299066
 20
93.97999999999999
 30
0.0
 40
1.100000000000009
210
0.0
220
0.0
230
-1.0
  0
CIRCLE
  5
8F4
  8
DEFAULT
 10
-121.3264518299066
 20
96.52000000000001
 30
0.0
 40
1.100000000000009
210
0.0
220
0.0
230
-1.0
  0
CIRCLE
  5
8F5
  8
DEFAULT
 10
-123.8664518299066
 20
93.97999999999999
 30
0.0
 40
1.099999999999994
210
0.0
220
0.0
230
-1.0
  0
CIRCLE
  5
8F6
  8
DEFAULT
 10
-123.8664518299066
 20
96.52
 30
0.0
 40
1.100000000000009
210
0.0
220
0.0
230
-1.0
  0
CIRCLE
  5
8F7
  8
DEFAULT
 10
-126.4064518299066
 20
93.98000000000002
 30
0.0
 40
1.099999999999994
210
0.0
220
0.0
230
-1.0
  0
CIRCLE
  5
8F8
  8
DEFAULT
 10
-126.4064518299066
 20
96.52000000000001
 30
0.0
 40
1.099999999999994
210
0.0
220
0.0
230
-1.0
  0
CIRCLE
  5
8F9
  8
DEFAULT
 10
-128.9464518299066
 20
93.97999999999998
 30
0.0
 40
1.099999999999994
210
0.0
220
0.0
230
-1.0
  0
CIRCLE
  5
8FA
  8
DEFAULT
 10
-128.9464518299066
 20
96.51999999999998
 30
0.0
 40
1.099999999999994
210
0.0
220
0.0
230
-1.0
  0
CIRCLE
  5
8FB
  8
DEFAULT
 10
-131.4864518299066
 20
93.97999999999998
 30
0.0
 40
1.100000000000023
210
0.0
220
0.0
230
-1.0
  0
CIRCLE
  5
8FC
  8
DEFAULT
 10
-131.4864518299065
 20
96.51999999999998
 30
0.0
 40
1.099999999999994
210
0.0
220
0.0
230
-1.0
  0
CIRCLE
  5
8FD
  8
DEFAULT
 10
-134.0264518299066
 20
93.98000000000005
 30
0.0
 40
1.099999999999994
210
0.0
220
0.0
230
-1.0
  0
CIRCLE
  5
8FE
  8
DEFAULT
 10
-134.0264518299066
 20
96.52000000000001
 30
0.0
 40
1.099999999999994
210
0.0
220
0.0
230
-1.0
  0
CIRCLE
  5
8FF
  8
DEFAULT
 10
-136.5664518299066
 20
93.97999999999998
 30
0.0
 40
1.099999999999994
210
0.0
220
0.0
230
-1.0
  0
CIRCLE
  5
900
  8
DEFAULT
 10
-136.5664518299066
 20
96.51999999999998
 30
0.0
 40
1.099999999999994
210
0.0
220
0.0
230
-1.0
  0
CIRCLE
  5
901
  8
DEFAULT
 10
-139.1064518299066
 20
93.97999999999998
 30
0.0
 40
1.100000000000023
210
0.0
220
0.0
230
-1.0
  0
CIRCLE
  5
902
  8
DEFAULT
 10
-139.1064518299066
 20
96.51999999999998
 30
0.0
 40
1.100000000000023
210
0.0
220
0.0
230
-1.0
  0
CIRCLE
  5
903
  8
DEFAULT
 10
-141.6464518299066
 20
93.97999999999999
 30
0.0
 40
1.099999999999994
210
0.0
220
0.0
230
-1.0
  0
CIRCLE
  5
904
  8
DEFAULT
 10
-141.6464518299066
 20
96.52000000000001
 30
0.0
 40
1.099999999999994
210
0.0
220
0.0
230
-1.0
  0
CIRCLE
  5
905
  8
DEFAULT
 10
-144.1864518299066
 20
93.97999999999999
 30
0.0
 40
1.099999999999994
210
0.0
220
0.0
230
-1.0
  0
CIRCLE
  5
906
  8
DEFAULT
 10
-144.1864518299065
 20
96.51999999999998
 30
0.0
 40
1.099999999999966
210
0.0
220
0.0
230
-1.0
  0
CIRCLE
  5
907
  8
DEFAULT
 10
-146.7264518299066
 20
93.98000000000002
 30
0.0
 40
1.099999999999994
210
0.0
220
0.0
230
-1.0
  0
CIRCLE
  5
908
  8
DEFAULT
 10
-146.7264518299065
 20
96.52000000000001
 30
0.0
 40
1.099999999999966
210
0.0
220
0.0
230
-1.0
  0
CIRCLE
  5
909
  8
DEFAULT
 10
-149.2664518299065
 20
96.52
 30
0.0
 40
1.099999999999994
210
0.0
220
0.0
230
-1.0
  0
CIRCLE
  5
90A
  8
DEFAULT
 10
-149.2664518299065
 20
93.97999999999998
 30
0.0
 40
1.099999999999994
210
0.0
220
0.0
230
-1.0
  0
CIRCLE
  5
90B
  8
DEFAULT
 10
-101.0064518299066
 20
33.02000000000001
 30
0.0
 40
1.100000000000009
210
0.0
220
0.0
230
-1.0
  0
CIRCLE
  5
90C
  8
DEFAULT
 10
-101.0064518299066
 20
35.56
 30
0.0
 40
1.100000000000009
210
0.0
220
0.0
230
-1.0
  0
CIRCLE
  5
90D
  8
DEFAULT
 10
-101.0064518299066
 20
38.09999999999999
 30
0.0
 40
1.100000000000009
210
0.0
220
0.0
230
-1.0
  0
CIRCLE
  5
90E
  8
DEFAULT
 10
-101.0064518299066
 20
50.79999999999998
 30
0.0
 40
1.100000000000009
210
0.0
220
0.0
230
-1.0
  0
CIRCLE
  5
90F
  8
DEFAULT
 10
-101.0064518299066
 20
53.34
 30
0.0
 40
1.100000000000009
210
0.0
220
0.0
230
-1.0
  0
CIRCLE
  5
910
  8
DEFAULT
 10
-101.0064518299066
 20
60.96000000000001
 30
0.0
 40
1.100000000000009
210
0.0
220
0.0
230
-1.0
  0
CIRCLE
  5
911
  8
DEFAULT
 10
-101.0064518299066
 20
63.5
 30
0.0
 40
1.09999999999998
210
0.0
220
0.0
230
-1.0
  0
CIRCLE
  5
912
  8
DEFAULT
 10
-101.0064518299066
 20
66.04000000000002
 30
0.0
 40
1.09999999999998
210
0.0
220
0.0
230
-1.0
  0
CIRCLE
  5
913
  8
DEFAULT
 10
-101.0064518299066
 20
68.58000000000001
 30
0.0
 40
1.09999999999998
210
0.0
220
0.0
230
-1.0
  0
CIRCLE
  5
914
  8
DEFAULT
 10
-101.0064518299066
 20
73.66
 30
0.0
 40
1.09999999999998
210
0.0
220
0.0
230
-1.0
  0
CIRCLE
  5
915
  8
DEFAULT
 10
-101.0064518299066
 20
76.20000000000002
 30
0.0
 40
1.09999999999998
210
0.0
220
0.0
230
-1.0
  0
CIRCLE
  5
916
  8
DEFAULT
 10
-101.0064518299066
 20
78.73999999999998
 30
0.0
 40
1.09999999999998
210
0.0
220
0.0
230
-1.0
  0
CIRCLE
  5
917
  8
DEFAULT
 10
-101.0064518299066
 20
81.28
 30
0.0
 40
1.09999999999998
210
0.0
220
0.0
230
-1.0
  0
CIRCLE
  5
918
  8
DEFAULT
 10
-101.0064518299065
 20
83.81999999999998
 30
0.0
 40
1.099999999999966
210
0.0
220
0.0
230
-1.0
  0
CIRCLE
  5
919
  8
DEFAULT
 10
-101.0064518299065
 20
86.36
 30
0.0
 40
1.099999999999966
210
0.0
220
0.0
230
-1.0
  0
CIRCLE
  5
91A
  8
DEFAULT
 10
-101.0064518299066
 20
88.9
 30
0.0
 40
1.09999999999998
210
0.0
220
0.0
230
-1.0
  0
CIRCLE
  5
91B
  8
DEFAULT
 10
-101.0064518299066
 20
91.44
 30
0.0
 40
1.100000000000009
210
0.0
220
0.0
230
-1.0
  0
CIRCLE
  5
91C
  8
DEFAULT
 10
-149.2664518299065
 20
81.27999999999997
 30
0.0
 40
1.099999999999994
210
0.0
220
0.0
230
-1.0
  0
CIRCLE
  5
91D
  8
DEFAULT
 10
-149.2664518299065
 20
78.74
 30
0.0
 40
1.099999999999994
210
0.0
220
0.0
230
-1.0
  0
CIRCLE
  5
91E
  8
DEFAULT
 10
-149.2664518299065
 20
71.12
 30
0.0
 40
1.099999999999994
210
0.0
220
0.0
230
-1.0
  0
CIRCLE
  5
91F
  8
DEFAULT
 10
-149.2664518299065
 20
68.58
 30
0.0
 40
1.099999999999994
210
0.0
220
0.0
230
-1.0
  0
CIRCLE
  5
920
  8
DEFAULT
 10
-149.2664518299065
 20
63.49999999999998
 30
0.0
 40
1.099999999999994
210
0.0
220
0.0
230
-1.0
  0
CIRCLE
  5
921
  8
DEFAULT
 10
-149.2664518299065
 20
60.96
 30
0.0
 40
1.099999999999994
210
0.0
220
0.0
230
-1.0
  0
CIRCLE
  5
922
  8
DEFAULT
 10
-149.2664518299065
 20
58.41999999999999
 30
0.0
 40
1.099999999999994
210
0.0
220
0.0
230
-1.0
  0
CIRCLE
  5
923
  8
DEFAULT
 10
-149.2664518299065
 20
55.88
 30
0.0
 40
1.099999999999994
210
0.0
220
0.0
230
-1.0
  0
CIRCLE
  5
924
  8
DEFAULT
 10
-149.2664518299065
 20
23.87599999999999
 30
0.0
 40
1.099999999999994
210
0.0
220
0.0
230
-1.0
  0
ENDSEC
  0
EOF
