  0
SECTION
  2
HEADER
  9
$ACADVER
  1
AC1009
  9
$DWGCODEPAGE
  3
ansi_1252
  9
$INSBASE
 10
0.0
 20
0.0
 30
0.0
  9
$EXTMIN
 10
83.5314
 20
23.72491811127182
 30
0.0
  9
$EXTMAX
 10
115.7724
 20
82.89219999999999
 30
0.0
  9
$LIMMIN
 10
0.0
 20
0.0
  9
$LIMMAX
 10
12.0
 20
9.0
  9
$ORTHOMODE
 70
     0
  9
$REGENMODE
 70
     1
  9
$FILLMODE
 70
     1
  9
$QTEXTMODE
 70
     0
  9
$MIRRTEXT
 70
     1
  9
$DRAGMODE
 70
     2
  9
$LTSCALE
 40
1.0
  9
$OSMODE
 70
    37
  9
$ATTMODE
 70
     1
  9
$TEXTSIZE
 40
0.2
  9
$TRACEWID
 40
0.05
  9
$TEXTSTYLE
  7
STANDARD
  9
$CLAYER
  8
16
  9
$CELTYPE
  6
BYLAYER
  9
$CECOLOR
 62
   256
  9
$DIMSCALE
 40
1.0
  9
$DIMASZ
 40
0.18
  9
$DIMEXO
 40
0.0625
  9
$DIMDLI
 40
0.38
  9
$DIMRND
 40
0.0
  9
$DIMDLE
 40
0.0
  9
$DIMEXE
 40
0.18
  9
$DIMTP
 40
0.0
  9
$DIMTM
 40
0.0
  9
$DIMTXT
 40
0.18
  9
$DIMCEN
 40
0.09
  9
$DIMTSZ
 40
0.0
  9
$DIMTOL
 70
     0
  9
$DIMLIM
 70
     0
  9
$DIMTIH
 70
     1
  9
$DIMTOH
 70
     1
  9
$DIMSE1
 70
     0
  9
$DIMSE2
 70
     0
  9
$DIMTAD
 70
     0
  9
$DIMZIN
 70
     0
  9
$DIMBLK
  1

  9
$DIMASO
 70
     1
  9
$DIMSHO
 70
     1
  9
$DIMPOST
  1

  9
$DIMAPOST
  1

  9
$DIMALT
 70
     0
  9
$DIMALTD
 70
     2
  9
$DIMALTF
 40
25.4
  9
$DIMLFAC
 40
1.0
  9
$DIMTOFL
 70
     0
  9
$DIMTVP
 40
0.0
  9
$DIMTIX
 70
     0
  9
$DIMSOXD
 70
     0
  9
$DIMSAH
 70
     0
  9
$DIMBLK1
  1

  9
$DIMBLK2
  1

  9
$DIMSTYLE
  2
STANDARD
  9
$DIMCLRD
 70
     0
  9
$DIMCLRE
 70
     0
  9
$DIMCLRT
 70
     0
  9
$DIMTFAC
 40
1.0
  9
$DIMGAP
 40
0.09
  9
$LUNITS
 70
     2
  9
$LUPREC
 70
     3
  9
$SKETCHINC
 40
0.1
  9
$FILLETRAD
 40
0.5
  9
$AUNITS
 70
     0
  9
$AUPREC
 70
     0
  9
$MENU
  1
.
  9
$ELEVATION
 40
0.0
  9
$PELEVATION
 40
0.0
  9
$THICKNESS
 40
0.0
  9
$LIMCHECK
 70
     0
  9
$CHAMFERA
 40
0.0
  9
$CHAMFERB
 40
0.0
  9
$SKPOLY
 70
     0
  9
$TDCREATE
 40
2458316.522137176
  9
$TDUPDATE
 40
2458316.522232847
  9
$TDINDWG
 40
0.0000000116
  9
$TDUSRTIMER
 40
0.0000000116
  9
$USRTIMER
 70
     1
  9
$ANGBASE
 50
0.0
  9
$ANGDIR
 70
     0
  9
$PDMODE
 70
     0
  9
$PDSIZE
 40
0.0
  9
$PLINEWID
 40
0.0
  9
$COORDS
 70
     1
  9
$SPLFRAME
 70
     0
  9
$SPLINETYPE
 70
     6
  9
$SPLINESEGS
 70
     8
  9
$ATTDIA
 70
     0
  9
$ATTREQ
 70
     1
  9
$HANDLING
 70
     1
  9
$HANDSEED
  5
247
  9
$SURFTAB1
 70
     6
  9
$SURFTAB2
 70
     6
  9
$SURFTYPE
 70
     6
  9
$SURFU
 70
     6
  9
$SURFV
 70
     6
  9
$UCSNAME
  2

  9
$UCSORG
 10
0.0
 20
0.0
 30
0.0
  9
$UCSXDIR
 10
1.0
 20
0.0
 30
0.0
  9
$UCSYDIR
 10
0.0
 20
1.0
 30
0.0
  9
$PUCSNAME
  2

  9
$PUCSORG
 10
0.0
 20
0.0
 30
0.0
  9
$PUCSXDIR
 10
1.0
 20
0.0
 30
0.0
  9
$PUCSYDIR
 10
0.0
 20
1.0
 30
0.0
  9
$USERI1
 70
     0
  9
$USERI2
 70
     0
  9
$USERI3
 70
     0
  9
$USERI4
 70
     0
  9
$USERI5
 70
     0
  9
$USERR1
 40
0.0
  9
$USERR2
 40
0.0
  9
$USERR3
 40
0.0
  9
$USERR4
 40
0.0
  9
$USERR5
 40
0.0
  9
$WORLDVIEW
 70
     1
  9
$SHADEDGE
 70
     3
  9
$SHADEDIF
 70
    70
  9
$TILEMODE
 70
     1
  9
$MAXACTVP
 70
    64
  9
$PLIMCHECK
 70
     0
  9
$PEXTMIN
 10
1.000000000000000E+20
 20
1.000000000000000E+20
 30
1.000000000000000E+20
  9
$PEXTMAX
 10
-1.000000000000000E+20
 20
-1.000000000000000E+20
 30
-1.000000000000000E+20
  9
$PLIMMIN
 10
0.0
 20
0.0
  9
$PLIMMAX
 10
12.0
 20
9.0
  9
$UNITMODE
 70
     0
  9
$VISRETAIN
 70
     1
  9
$PLINEGEN
 70
     0
  9
$PSLTSCALE
 70
     1
  0
ENDSEC
  0
SECTION
  2
TABLES
  0
TABLE
  2
VPORT
 70
     1
  0
VPORT
  2
*ACTIVE
 70
     0
 10
0.0
 20
0.0
 11
1.0
 21
1.0
 12
99.65190000000001
 22
53.3085590556359
 13
0.0
 23
0.0
 14
0.5
 24
0.5
 15
0.5
 25
0.5
 16
0.0
 26
0.0
 36
1.0
 17
0.0
 27
0.0
 37
0.0
 40
60.35062752650273
 41
0.5449126437924496
 42
50.0
 43
0.0
 44
0.0
 50
0.0
 51
0.0
 71
     0
 72
   100
 73
     1
 74
     3
 75
     0
 76
     0
 77
     0
 78
     0
  0
ENDTAB
  0
TABLE
  2
LTYPE
 70
     1
  0
LTYPE
  2
CONTINUOUS
 70
     0
  3
Solid line
 72
    65
 73
     0
 40
0.0
  0
ENDTAB
  0
TABLE
  2
LAYER
 70
     4
  0
LAYER
  2
0
 70
     0
 62
     7
  6
CONTINUOUS
  0
LAYER
  2
16
 70
     0
 62
   132
  6
CONTINUOUS
  0
LAYER
  2
44
 70
     0
 62
     4
  6
CONTINUOUS
  0
LAYER
  2
20
 70
     0
 62
    31
  6
CONTINUOUS
  0
ENDTAB
  0
TABLE
  2
STYLE
 70
     1
  0
STYLE
  2
STANDARD
 70
     0
 40
0.0
 41
1.0
 50
0.0
 71
     0
 42
0.2
  3
txt
  4

  0
ENDTAB
  0
TABLE
  2
VIEW
 70
     0
  0
ENDTAB
  0
TABLE
  2
UCS
 70
     0
  0
ENDTAB
  0
TABLE
  2
APPID
 70
     1
  0
APPID
  2
ACAD
 70
     0
  0
ENDTAB
  0
TABLE
  2
DIMSTYLE
 70
     1
  0
DIMSTYLE
  2
STANDARD
 70
     0
  3

  4

  5

  6

  7

 40
1.0
 41
0.18
 42
0.0625
 43
0.38
 44
0.18
 45
0.0
 46
0.0
 47
0.0
 48
0.0
140
0.18
141
0.09
142
0.0
143
25.4
144
1.0
145
0.0
146
1.0
147
0.09
 71
     0
 72
     0
 73
     1
 74
     1
 75
     0
 76
     0
 77
     0
 78
     0
170
     0
171
     2
172
     0
173
     0
174
     0
175
     0
176
     0
177
     0
178
     0
  0
ENDTAB
  0
ENDSEC
  0
SECTION
  2
BLOCKS
  0
BLOCK
  8
0
  2
$MODEL_SPACE
 70
     0
 10
0.0
 20
0.0
 30
0.0
  3
$MODEL_SPACE
  1

  0
ENDBLK
  5
21
  8
0
  0
BLOCK
 67
     1
  8
0
  2
$PAPER_SPACE
 70
     0
 10
0.0
 20
0.0
 30
0.0
  3
$PAPER_SPACE
  1

  0
ENDBLK
  5
1D
 67
     1
  8
0
  0
ENDSEC
  0
SECTION
  2
ENTITIES
  0
POLYLINE
  5
6B
  8
16
 66
     1
 10
0.0
 20
0.0
 30
0.0
  0
VERTEX
  5
6C
  8
16
 10
107.3149909447528
 20
41.27500251101988
 30
0.0
  0
VERTEX
  5
6D
  8
16
 10
107.3148406827658
 20
52.08422348429437
 30
0.0
  0
VERTEX
  5
6E
  8
16
 10
107.3143570212938
 20
52.09856868102129
 30
0.0
  0
VERTEX
  5
6F
  8
16
 10
107.3135406553528
 20
52.11302601556164
 30
0.0
  0
VERTEX
  5
70
  8
16
 10
107.3123835272279
 20
52.12758536698458
 30
0.0
  0
VERTEX
  5
71
  8
16
 10
107.3108779196736
 20
52.14223607456317
 30
0.0
  0
VERTEX
  5
72
  8
16
 10
107.3090164943061
 20
52.15696694711706
 30
0.0
  0
VERTEX
  5
73
  8
16
 10
107.3067923302121
 20
52.17176627529424
 30
0.0
  0
VERTEX
  5
74
  8
16
 10
107.3041989625343
 20
52.1866218468859
 30
0.0
  0
VERTEX
  5
75
  8
16
 10
107.3012304207782
 20
52.20152096524793
 30
0.0
  0
VERTEX
  5
76
  8
16
 10
107.2978812665706
 20
52.21645047088022
 30
0.0
  0
VERTEX
  5
77
  8
16
 10
107.2941466305887
 20
52.2313967661897
 30
0.0
  0
VERTEX
  5
78
  8
16
 10
107.290022248367
 20
52.24634584343625
 30
0.0
  0
VERTEX
  5
79
  8
16
 10
107.2855044946855
 20
52.26128331583195
 30
0.0
  0
VERTEX
  5
7A
  8
16
 10
107.2805904162358
 20
52.27619445173369
 30
0.0
  0
VERTEX
  5
7B
  8
16
 10
107.2752777622627
 20
52.29106421183781
 30
0.0
  0
VERTEX
  5
7C
  8
16
 10
107.269565012882
 20
52.30587728925327
 30
0.0
  0
VERTEX
  5
7D
  8
16
 10
107.2634514047795
 20
52.32061815229716
 30
0.0
  0
VERTEX
  5
7E
  8
16
 10
107.2569369540113
 20
52.33527108982362
 30
0.0
  0
VERTEX
  5
7F
  8
16
 10
107.2500224756343
 20
52.34982025886595
 30
0.0
  0
VERTEX
  5
80
  8
16
 10
107.2427095999189
 20
52.36424973434
 30
0.0
  0
VERTEX
  5
81
  8
16
 10
107.2350007849152
 20
52.37854356052843
 30
0.0
  0
VERTEX
  5
82
  8
16
 10
107.2268993251709
 20
52.39268580403791
 30
0.0
  0
VERTEX
  5
83
  8
16
 10
107.2184093564291
 20
52.40666060789707
 30
0.0
  0
VERTEX
  5
84
  8
16
 10
107.2095358561647
 20
52.4204522464416
 30
0.0
  0
VERTEX
  5
85
  8
16
 10
107.2002846398566
 20
52.43404518061541
 30
0.0
  0
VERTEX
  5
86
  8
16
 10
107.1906623529277
 20
52.44742411330268
 30
0.0
  0
VERTEX
  5
87
  8
16
 10
107.1806764583261
 20
52.46057404429638
 30
0.0
  0
VERTEX
  5
88
  8
16
 10
107.1703352197609
 20
52.47348032450422
 30
0.0
  0
VERTEX
  5
89
  8
16
 10
107.1596476806492
 20
52.48612870899264
 30
0.0
  0
VERTEX
  5
8A
  8
16
 10
107.1486236388705
 20
52.49850540847436
 30
0.0
  0
VERTEX
  5
8B
  8
16
 10
107.1372736174685
 20
52.51059713885511
 30
0.0
  0
VERTEX
  5
8C
  8
16
 10
107.1256088314776
 20
52.52239116846949
 30
0.0
  0
VERTEX
  5
8D
  8
16
 10
105.2273911684918
 20
54.42060883150818
 30
0.0
 42
0.2008759561873881
  0
VERTEX
  5
8E
  8
16
 10
104.775
 20
54.61000000000001
 30
0.0
  0
VERTEX
  5
8F
  8
16
 10
101.863
 20
54.61000000000001
 30
0.0
  0
VERTEX
  5
90
  8
16
 10
101.6
 20
54.87300000000002
 30
0.0
  0
VERTEX
  5
91
  8
16
 10
101.6
 20
55.5173803697873
 30
0.0
 42
0.2102471214594944
  0
VERTEX
  5
92
  8
16
 10
101.9048
 20
56.21020000000001
 30
0.0
  0
VERTEX
  5
93
  8
16
 10
101.9048
 20
58.08980000000001
 30
0.0
 42
1.000000000000012
  0
VERTEX
  5
94
  8
16
 10
100.0252
 20
58.08980000000003
 30
0.0
  0
VERTEX
  5
95
  8
16
 10
100.0252
 20
56.21020000000001
 30
0.0
 42
0.2102471214624055
  0
VERTEX
  5
96
  8
16
 10
100.3300000000039
 20
55.51738036978949
 30
0.0
  0
VERTEX
  5
97
  8
16
 10
100.33
 20
54.61000000000001
 30
0.0
 42
0.2008759562274684
  0
VERTEX
  5
98
  8
16
 10
100.5193911685188
 20
54.15760883153412
 30
0.0
  0
VERTEX
  5
99
  8
16
 10
101.151
 20
53.526
 30
0.0
 42
0.2119530198188287
  0
VERTEX
  5
9A
  8
16
 10
101.6328552440123
 20
53.34043433923651
 30
0.0
 42
0.0000754284960543
  0
VERTEX
  5
9B
  8
16
 10
104.512
 20
53.34000000000196
 30
0.0
  0
VERTEX
  5
9C
  8
16
 10
106.045
 20
51.80700000000001
 30
0.0
  0
VERTEX
  5
9D
  8
16
 10
106.045
 20
41.538
 30
0.0
  0
VERTEX
  5
9E
  8
16
 10
100.516
 20
36.009
 30
0.0
 42
0.2119530198203491
  0
VERTEX
  5
9F
  8
16
 10
100.3304343392369
 20
35.52714475598774
 30
0.0
 42
0.0001438661713379
  0
VERTEX
  5
A0
  8
16
 10
100.3300000000004
 20
34.01761963021269
 30
0.0
 42
0.2102471214596023
  0
VERTEX
  5
A1
  8
16
 10
100.0252
 20
33.3248
 30
0.0
  0
VERTEX
  5
A2
  8
16
 10
100.0252
 20
31.4452
 30
0.0
 42
0.9999999999999923
  0
VERTEX
  5
A3
  8
16
 10
101.9048
 20
31.44519999999997
 30
0.0
  0
VERTEX
  5
A4
  8
16
 10
101.9048
 20
33.3248
 30
0.0
 42
0.2102471214624136
  0
VERTEX
  5
A5
  8
16
 10
101.599999999996
 20
34.01761963021054
 30
0.0
  0
VERTEX
  5
A6
  8
16
 10
101.6
 20
35.29700000000001
 30
0.0
  0
VERTEX
  5
A7
  8
16
 10
107.129
 20
40.82600000000001
 30
0.0
 42
0.198902676970878
  0
VERTEX
  5
A8
  8
16
 10
107.3149909447528
 20
41.27500251101988
 30
0.0
  0
SEQEND
  5
A9
  8
16
  0
POLYLINE
  5
AA
  8
16
 66
     1
 10
0.0
 20
0.0
 30
0.0
  0
VERTEX
  5
AB
  8
16
 10
99.06000007197886
 20
55.51738043576205
 30
0.0
 42
0.2102470683340303
  0
VERTEX
  5
AC
  8
16
 10
99.3648
 20
56.21020000000001
 30
0.0
  0
VERTEX
  5
AD
  8
16
 10
99.3648
 20
58.08980000000001
 30
0.0
 42
0.9999999999999923
  0
VERTEX
  5
AE
  8
16
 10
97.48519999999999
 20
58.08980000000001
 30
0.0
  0
VERTEX
  5
AF
  8
16
 10
97.48519999999999
 20
56.21020000000001
 30
0.0
 42
0.2102471214623626
  0
VERTEX
  5
B0
  8
16
 10
97.79000000000396
 20
55.51738036978949
 30
0.0
  0
VERTEX
  5
B1
  8
16
 10
97.79
 20
55.50800000000003
 30
0.0
  0
VERTEX
  5
B2
  8
16
 10
96.89199999999998
 20
54.61000000000001
 30
0.0
  0
VERTEX
  5
B3
  8
16
 10
94.59856412195236
 20
54.60977763735679
 30
0.0
  0
VERTEX
  5
B4
  8
16
 10
94.58214475598774
 20
54.60913927490946
 30
0.0
  0
VERTEX
  5
B5
  8
16
 10
94.56575835893997
 20
54.60807713819943
 30
0.0
  0
VERTEX
  5
B6
  8
16
 10
94.54942127753216
 20
54.60659335436176
 30
0.0
  0
VERTEX
  5
B7
  8
16
 10
94.53314969428621
 20
54.60469088624913
 30
0.0
  0
VERTEX
  5
B8
  8
16
 10
94.5169595745768
 20
54.60237351769123
 30
0.0
  0
VERTEX
  5
B9
  8
16
 10
94.50086661519062
 20
54.59964583477865
 30
0.0
  0
VERTEX
  5
BA
  8
16
 10
94.48488619473275
 20
54.59651320334319
 30
0.0
  0
VERTEX
  5
BB
  8
16
 10
94.46903332620144
 20
54.59298174283914
 30
0.0
  0
VERTEX
  5
BC
  8
16
 10
94.45332261202668
 20
54.58905829686043
 30
0.0
  0
VERTEX
  5
BD
  8
16
 10
94.43776820184048
 20
54.58475040055519
 30
0.0
  0
VERTEX
  5
BE
  8
16
 10
94.42238375321558
 20
54.58006624522157
 30
0.0
  0
VERTEX
  5
BF
  8
16
 10
94.4071823955771
 20
54.57501464038854
 30
0.0
  0
VERTEX
  5
C0
  8
16
 10
94.39217669745736
 20
54.56960497370004
 30
0.0
  0
VERTEX
  5
C1
  8
16
 10
94.37737863722907
 20
54.56384716893134
 30
0.0
  0
VERTEX
  5
C2
  8
16
 10
94.36279957741624
 20
54.55775164247367
 30
0.0
  0
VERTEX
  5
C3
  8
16
 10
94.34845024264766
 20
54.55132925862536
 30
0.0
  0
VERTEX
  5
C4
  8
16
 10
94.33434070128224
 20
54.54459128402645
 30
0.0
  0
VERTEX
  5
C5
  8
16
 10
94.32048035070244
 20
54.53754934156849
 30
0.0
  0
VERTEX
  5
C6
  8
16
 10
94.30687790623959
 20
54.53021536410251
 30
0.0
  0
VERTEX
  5
C7
  8
16
 10
94.29354139366497
 20
54.52260154825628
 30
0.0
  0
VERTEX
  5
C8
  8
16
 10
94.2804781451523
 20
54.51472030865704
 30
0.0
  0
VERTEX
  5
C9
  8
16
 10
94.2676947985919
 20
54.50658423283866
 30
0.0
  0
VERTEX
  5
CA
  8
16
 10
94.25519730011399
 20
54.49820603709247
 30
0.0
  0
VERTEX
  5
CB
  8
16
 10
94.24299090965853
 20
54.48959852350001
 30
0.0
  0
VERTEX
  5
CC
  8
16
 10
94.23108020941181
 20
54.48077453836328
 30
0.0
  0
VERTEX
  5
CD
  8
16
 10
94.21946911491634
 20
54.47174693222457
 30
0.0
  0
VERTEX
  5
CE
  8
16
 10
94.20816088864888
 20
54.46252852164352
 30
0.0
  0
VERTEX
  5
CF
  8
16
 10
94.19715815585363
 20
54.45313205287557
 30
0.0
  0
VERTEX
  5
D0
  8
16
 10
94.18646292241188
 20
54.44357016757062
 30
0.0
  0
VERTEX
  5
D1
  8
16
 10
94.17607659452653
 20
54.43385537058798
 30
0.0
  0
VERTEX
  5
D2
  8
16
 10
94.166
 20
54.42400000000001
 30
0.0
  0
VERTEX
  5
D3
  8
16
 10
90.35600000000001
 20
50.61400000000001
 30
0.0
 42
0.2119530196877892
  0
VERTEX
  5
D4
  8
16
 10
90.17043433923678
 20
50.13214475635283
 30
0.0
  0
VERTEX
  5
D5
  8
16
 10
90.17015931723422
 20
42.53077651570582
 30
0.0
  0
VERTEX
  5
D6
  8
16
 10
90.17064297870621
 20
42.51643131897906
 30
0.0
  0
VERTEX
  5
D7
  8
16
 10
90.17145934464716
 20
42.50197398443888
 30
0.0
  0
VERTEX
  5
D8
  8
16
 10
90.172616472772
 20
42.48741463301609
 30
0.0
  0
VERTEX
  5
D9
  8
16
 10
90.17412208032631
 20
42.47276392543768
 30
0.0
  0
VERTEX
  5
DA
  8
16
 10
90.17598350569375
 20
42.45803305288396
 30
0.0
  0
VERTEX
  5
DB
  8
16
 10
90.17820766978768
 20
42.44323372470696
 30
0.0
  0
VERTEX
  5
DC
  8
16
 10
90.18080103746543
 20
42.42837815311546
 30
0.0
  0
VERTEX
  5
DD
  8
16
 10
90.18376957922148
 20
42.4134790347536
 30
0.0
  0
VERTEX
  5
DE
  8
16
 10
90.18711873342895
 20
42.39854952912148
 30
0.0
  0
VERTEX
  5
DF
  8
16
 10
90.19085336941079
 20
42.38360323381218
 30
0.0
  0
VERTEX
  5
E0
  8
16
 10
90.19497775163241
 20
42.3686541565658
 30
0.0
  0
VERTEX
  5
E1
  8
16
 10
90.19949550531382
 20
42.35371668417026
 30
0.0
  0
VERTEX
  5
E2
  8
16
 10
90.20440958376342
 20
42.3388055482687
 30
0.0
  0
VERTEX
  5
E3
  8
16
 10
90.20972223773632
 20
42.32393578816473
 30
0.0
  0
VERTEX
  5
E4
  8
16
 10
90.21543498711695
 20
42.30912271074942
 30
0.0
  0
VERTEX
  5
E5
  8
16
 10
90.2215485952193
 20
42.29438184770569
 30
0.0
  0
VERTEX
  5
E6
  8
16
 10
90.22806304598737
 20
42.27972891017937
 30
0.0
  0
VERTEX
  5
E7
  8
16
 10
90.23497752436423
 20
42.26517974113719
 30
0.0
  0
VERTEX
  5
E8
  8
16
 10
90.24229040007944
 20
42.25075026566328
 30
0.0
  0
VERTEX
  5
E9
  8
16
 10
90.249999215083
 20
42.23645643947498
 30
0.0
  0
VERTEX
  5
EA
  8
16
 10
90.25810067482702
 20
42.22231419596561
 30
0.0
  0
VERTEX
  5
EB
  8
16
 10
90.26659064356868
 20
42.20833939210657
 30
0.0
  0
VERTEX
  5
EC
  8
16
 10
90.27546414383288
 20
42.19454775356214
 30
0.0
  0
VERTEX
  5
ED
  8
16
 10
90.28471536014075
 20
42.18095481938842
 30
0.0
  0
VERTEX
  5
EE
  8
16
 10
90.29433764706938
 20
42.16757588670124
 30
0.0
  0
VERTEX
  5
EF
  8
16
 10
90.3043235416708
 20
42.15442595570762
 30
0.0
  0
VERTEX
  5
F0
  8
16
 10
90.31466478023579
 20
42.14151967549984
 30
0.0
  0
VERTEX
  5
F1
  8
16
 10
90.32535231934729
 20
42.12887129101148
 30
0.0
  0
VERTEX
  5
F2
  8
16
 10
90.33637636112573
 20
42.11649459152981
 30
0.0
  0
VERTEX
  5
F3
  8
16
 10
90.34772638252753
 20
42.10440286114909
 30
0.0
  0
VERTEX
  5
F4
  8
16
 10
90.35939116851814
 20
42.09260883153474
 30
0.0
  0
VERTEX
  5
F5
  8
16
 10
97.79
 20
34.66199999999998
 30
0.0
  0
VERTEX
  5
F6
  8
16
 10
97.79
 20
34.01761963021269
 30
0.0
 42
0.2102471214594079
  0
VERTEX
  5
F7
  8
16
 10
97.48519999999999
 20
33.3248
 30
0.0
  0
VERTEX
  5
F8
  8
16
 10
97.48519999999999
 20
31.4452
 30
0.0
 42
1.000000000000008
  0
VERTEX
  5
F9
  8
16
 10
99.36479999999997
 20
31.44519999999997
 30
0.0
  0
VERTEX
  5
FA
  8
16
 10
99.36479999999999
 20
33.3248
 30
0.0
 42
0.2102471214624433
  0
VERTEX
  5
FB
  8
16
 10
99.05999999999601
 20
34.01761963021053
 30
0.0
  0
VERTEX
  5
FC
  8
16
 10
99.0597776373568
 20
34.94143559393244
 30
0.0
  0
VERTEX
  5
FD
  8
16
 10
99.05913927490946
 20
34.95785497806509
 30
0.0
  0
VERTEX
  5
FE
  8
16
 10
99.05807713819944
 20
34.97424139275507
 30
0.0
  0
VERTEX
  5
FF
  8
16
 10
99.05659335436177
 20
34.99057849126287
 30
0.0
  0
VERTEX
  5
100
  8
16
 10
99.05469088624913
 20
35.0068500910514
 30
0.0
  0
VERTEX
  5
101
  8
16
 10
99.05237351769122
 20
35.02304022673194
 30
0.0
  0
VERTEX
  5
102
  8
16
 10
99.04964583477867
 20
35.03913320150501
 30
0.0
  0
VERTEX
  5
103
  8
16
 10
99.0465132033432
 20
35.05511363675399
 30
0.0
  0
VERTEX
  5
104
  8
16
 10
99.04298174283913
 20
35.07096651947044
 30
0.0
  0
VERTEX
  5
105
  8
16
 10
99.0390582968604
 20
35.08667724721538
 30
0.0
  0
VERTEX
  5
106
  8
16
 10
99.03475040055518
 20
35.10223167034923
 30
0.0
  0
VERTEX
  5
107
  8
16
 10
99.03006624522155
 20
35.11761613129296
 30
0.0
  0
VERTEX
  5
108
  8
16
 10
99.02501464038853
 20
35.13281750061646
 30
0.0
  0
VERTEX
  5
109
  8
16
 10
99.01960497370004
 20
35.1478232097837
 30
0.0
  0
VERTEX
  5
10A
  8
16
 10
99.01384716893135
 20
35.16262128041968
 30
0.0
  0
VERTEX
  5
10B
  8
16
 10
99.00775164247368
 20
35.17720034999924
 30
0.0
  0
VERTEX
  5
10C
  8
16
 10
99.00132925862538
 20
35.1915496938938
 30
0.0
  0
VERTEX
  5
10D
  8
16
 10
98.99459128402648
 20
35.20565924374581
 30
0.0
  0
VERTEX
  5
10E
  8
16
 10
98.98754934156855
 20
35.21951960217537
 30
0.0
  0
VERTEX
  5
10F
  8
16
 10
98.98021536410253
 20
35.23312205385484
 30
0.0
  0
VERTEX
  5
110
  8
16
 10
98.97260154825626
 20
35.24645857301776
 30
0.0
  0
VERTEX
  5
111
  8
16
 10
98.96472030865704
 20
35.25952182749627
 30
0.0
  0
VERTEX
  5
112
  8
16
 10
98.95658423283867
 20
35.27230517940689
 30
0.0
  0
VERTEX
  5
113
  8
16
 10
98.94820603709248
 20
35.28480268262717
 30
0.0
  0
VERTEX
  5
114
  8
16
 10
98.9395985235
 20
35.29700907722587
 30
0.0
  0
VERTEX
  5
115
  8
16
 10
98.93077453836328
 20
35.3089197810262
 30
0.0
  0
VERTEX
  5
116
  8
16
 10
98.92174693222456
 20
35.32053087849594
 30
0.0
  0
VERTEX
  5
117
  8
16
 10
98.91252852164352
 20
35.33183910716932
 30
0.0
  0
VERTEX
  5
118
  8
16
 10
98.90313205287559
 20
35.34284184181378
 30
0.0
  0
VERTEX
  5
119
  8
16
 10
98.89357016757064
 20
35.35353707656031
 30
0.0
  0
VERTEX
  5
11A
  8
16
 10
98.883855370588
 20
35.36392340521877
 30
0.0
  0
VERTEX
  5
11B
  8
16
 10
98.874
 20
35.374
 30
0.0
  0
VERTEX
  5
11C
  8
16
 10
91.43999999999998
 20
42.80800000000001
 30
0.0
  0
VERTEX
  5
11D
  8
16
 10
91.44
 20
49.90200000000001
 30
0.0
  0
VERTEX
  5
11E
  8
16
 10
94.878
 20
53.34000000000002
 30
0.0
  0
VERTEX
  5
11F
  8
16
 10
97.171435982253
 20
53.34022236578759
 30
0.0
  0
VERTEX
  5
120
  8
16
 10
97.18785534522513
 20
53.34086073117029
 30
0.0
  0
VERTEX
  5
121
  8
16
 10
97.20424173914687
 20
53.34192287060143
 30
0.0
  0
VERTEX
  5
122
  8
16
 10
97.22057881730672
 20
53.34340665694157
 30
0.0
  0
VERTEX
  5
123
  8
16
 10
97.2368503971948
 20
53.34530912733453
 30
0.0
  0
VERTEX
  5
124
  8
16
 10
97.2530405134485
 20
53.34762649794796
 30
0.0
  0
VERTEX
  5
125
  8
16
 10
97.2691334692935
 20
53.35035418268956
 30
0.0
  0
VERTEX
  5
126
  8
16
 10
97.28511388613711
 20
53.35348681572674
 30
0.0
  0
VERTEX
  5
127
  8
16
 10
97.30096675099342
 20
53.35701827760525
 30
0.0
  0
VERTEX
  5
128
  8
16
 10
97.31667746144478
 20
53.36094172473202
 30
0.0
  0
VERTEX
  5
129
  8
16
 10
97.33223186787137
 20
53.36524962196075
 30
0.0
  0
VERTEX
  5
12A
  8
16
 10
97.3476163127125
 20
53.3699337779959
 30
0.0
  0
VERTEX
  5
12B
  8
16
 10
97.36281766655476
 20
53.37498538331183
 30
0.0
  0
VERTEX
  5
12C
  8
16
 10
97.37782336087723
 20
53.38039505026874
 30
0.0
  0
VERTEX
  5
12D
  8
16
 10
97.39262141731834
 20
53.38615285509616
 30
0.0
  0
VERTEX
  5
12E
  8
16
 10
97.40720047336477
 20
53.39224838140838
 30
0.0
  0
VERTEX
  5
12F
  8
16
 10
97.42154980439793
 20
53.39867076491313
 30
0.0
  0
VERTEX
  5
130
  8
16
 10
97.43565934206865
 20
53.40540873897706
 30
0.0
  0
VERTEX
  5
131
  8
16
 10
97.44951968900367
 20
53.41245068071576
 30
0.0
  0
VERTEX
  5
132
  8
16
 10
97.46312212988036
 20
53.41978465728581
 30
0.0
  0
VERTEX
  5
133
  8
16
 10
97.4764586389355
 20
53.42739847206744
 30
0.0
  0
VERTEX
  5
134
  8
16
 10
97.48952188400293
 20
53.43527971044175
 30
0.0
  0
VERTEX
  5
135
  8
16
 10
97.50230522719917
 20
53.44341578488349
 30
0.0
  0
VERTEX
  5
136
  8
16
 10
97.5148027224003
 20
53.45179397911021
 30
0.0
  0
VERTEX
  5
137
  8
16
 10
97.52700910967208
 20
53.46040149104938
 30
0.0
  0
VERTEX
  5
138
  8
16
 10
97.53891980683322
 20
53.46922547440811
 30
0.0
  0
VERTEX
  5
139
  8
16
 10
97.55053089834568
 20
53.47825307865337
 30
0.0
  0
VERTEX
  5
13A
  8
16
 10
97.56183912173654
 20
53.48747148723471
 30
0.0
  0
VERTEX
  5
13B
  8
16
 10
97.57284185176488
 20
53.49686795390595
 30
0.0
  0
VERTEX
  5
13C
  8
16
 10
97.58353708255208
 20
53.50642983702628
 30
0.0
  0
VERTEX
  5
13D
  8
16
 10
97.59392340789739
 20
53.51614463174546
 30
0.0
  0
VERTEX
  5
13E
  8
16
 10
97.604
 20
53.52600000000001
 30
0.0
  0
VERTEX
  5
13F
  8
16
 10
98.87060883150546
 20
54.79260883150548
 30
0.0
 42
0.2008759561889238
  0
VERTEX
  5
140
  8
16
 10
99.05999999999999
 20
55.24500000000001
 30
0.0
  0
VERTEX
  5
141
  8
16
 10
99.06000007197886
 20
55.51738043576204
 30
0.0
  0
SEQEND
  5
142
  8
16
  0
POLYLINE
  5
143
  8
16
 66
     1
 10
0.0
 20
0.0
 30
0.0
  0
VERTEX
  5
144
  8
16
 10
109.2199909447528
 20
39.37000166535377
 30
0.0
  0
VERTEX
  5
145
  8
16
 10
109.2198406827658
 20
53.35422348429422
 30
0.0
  0
VERTEX
  5
146
  8
16
 10
109.2193570212938
 20
53.36856868102099
 30
0.0
  0
VERTEX
  5
147
  8
16
 10
109.2185406553529
 20
53.38302601556119
 30
0.0
  0
VERTEX
  5
148
  8
16
 10
109.217383527228
 20
53.39758536698398
 30
0.0
  0
VERTEX
  5
149
  8
16
 10
109.2158779196737
 20
53.41223607456242
 30
0.0
  0
VERTEX
  5
14A
  8
16
 10
109.2140164943062
 20
53.42696694711616
 30
0.0
  0
VERTEX
  5
14B
  8
16
 10
109.2117923302123
 20
53.44176627529317
 30
0.0
  0
VERTEX
  5
14C
  8
16
 10
109.2091989625346
 20
53.45662184688467
 30
0.0
  0
VERTEX
  5
14D
  8
16
 10
109.2062304207785
 20
53.47152096524653
 30
0.0
  0
VERTEX
  5
14E
  8
16
 10
109.202881266571
 20
53.48645047087867
 30
0.0
  0
VERTEX
  5
14F
  8
16
 10
109.1991466305892
 20
53.50139676618799
 30
0.0
  0
VERTEX
  5
150
  8
16
 10
109.1950222483676
 20
53.51634584343439
 30
0.0
  0
VERTEX
  5
151
  8
16
 10
109.1905044946861
 20
53.53128331582994
 30
0.0
  0
VERTEX
  5
152
  8
16
 10
109.1855904162365
 20
53.54619445173153
 30
0.0
  0
VERTEX
  5
153
  8
16
 10
109.1802777622636
 20
53.5610642118355
 30
0.0
  0
VERTEX
  5
154
  8
16
 10
109.174565012883
 20
53.57587728925082
 30
0.0
  0
VERTEX
  5
155
  8
16
 10
109.1684514047806
 20
53.59061815229456
 30
0.0
  0
VERTEX
  5
156
  8
16
 10
109.1619369540125
 20
53.6052710898209
 30
0.0
  0
VERTEX
  5
157
  8
16
 10
109.1550224756357
 20
53.6198202588631
 30
0.0
  0
VERTEX
  5
158
  8
16
 10
109.1477095999204
 20
53.63424973433703
 30
0.0
  0
VERTEX
  5
159
  8
16
 10
109.1400007849169
 20
53.64854356052533
 30
0.0
  0
VERTEX
  5
15A
  8
16
 10
109.1318993251728
 20
53.6626858040347
 30
0.0
  0
VERTEX
  5
15B
  8
16
 10
109.1234093564312
 20
53.67666060789376
 30
0.0
  0
VERTEX
  5
15C
  8
16
 10
109.1145358561669
 20
53.69045224643819
 30
0.0
  0
VERTEX
  5
15D
  8
16
 10
109.105284639859
 20
53.70404518061191
 30
0.0
  0
VERTEX
  5
15E
  8
16
 10
109.0956623529304
 20
53.7174241132991
 30
0.0
  0
VERTEX
  5
15F
  8
16
 10
109.085676458329
 20
53.73057404429272
 30
0.0
  0
VERTEX
  5
160
  8
16
 10
109.075335219764
 20
53.74348032450051
 30
0.0
  0
VERTEX
  5
161
  8
16
 10
109.0646476806524
 20
53.75612870898888
 30
0.0
  0
VERTEX
  5
162
  8
16
 10
109.053623638874
 20
53.76850540847056
 30
0.0
  0
VERTEX
  5
163
  8
16
 10
109.0422736174722
 20
53.78059713885128
 30
0.0
  0
VERTEX
  5
164
  8
16
 10
109.0306088314815
 20
53.79239116846563
 30
0.0
  0
VERTEX
  5
165
  8
16
 10
105.2273911684947
 20
57.59560883150528
 30
0.0
 42
0.2008759561890648
  0
VERTEX
  5
166
  8
16
 10
104.775
 20
57.785
 30
0.0
  0
VERTEX
  5
167
  8
16
 10
104.4448
 20
57.78500000000001
 30
0.0
  0
VERTEX
  5
168
  8
16
 10
104.4448
 20
58.08980000000001
 30
0.0
 42
0.9999999999999999
  0
VERTEX
  5
169
  8
16
 10
102.5652
 20
58.08979999999998
 30
0.0
  0
VERTEX
  5
16A
  8
16
 10
102.5652
 20
56.21020000000001
 30
0.0
 42
0.9999999999999999
  0
VERTEX
  5
16B
  8
16
 10
104.4448
 20
56.21020000000001
 30
0.0
  0
VERTEX
  5
16C
  8
16
 10
104.4448
 20
56.51500000000001
 30
0.0
  0
VERTEX
  5
16D
  8
16
 10
104.512
 20
56.51500000000001
 30
0.0
  0
VERTEX
  5
16E
  8
16
 10
107.95
 20
53.07699999999999
 30
0.0
  0
VERTEX
  5
16F
  8
16
 10
107.9499999999972
 20
39.63300000000473
 30
0.0
 42
0.0000302135897426
  0
VERTEX
  5
170
  8
16
 10
103.0795271551906
 20
34.76193850170239
 30
0.0
 42
0.2119716997827116
  0
VERTEX
  5
171
  8
16
 10
102.87
 20
34.29000000000001
 30
0.0
  0
VERTEX
  5
172
  8
16
 10
102.87
 20
34.01761963021269
 30
0.0
 42
0.210247121459348
  0
VERTEX
  5
173
  8
16
 10
102.5652
 20
33.3248
 30
0.0
  0
VERTEX
  5
174
  8
16
 10
102.5652
 20
31.4452
 30
0.0
 42
1.0
  0
VERTEX
  5
175
  8
16
 10
104.4448
 20
31.44520000000002
 30
0.0
  0
VERTEX
  5
176
  8
16
 10
104.4448
 20
33.3248
 30
0.0
 42
0.2102471214623827
  0
VERTEX
  5
177
  8
16
 10
104.139999999996
 20
34.01761963021053
 30
0.0
  0
VERTEX
  5
178
  8
16
 10
104.14
 20
34.02700000000001
 30
0.0
  0
VERTEX
  5
179
  8
16
 10
109.034
 20
38.92100000000001
 30
0.0
 42
0.1989027119253531
  0
VERTEX
  5
17A
  8
16
 10
109.2199909447528
 20
39.37000166535377
 30
0.0
  0
SEQEND
  5
17B
  8
16
  0
POLYLINE
  5
17C
  8
16
 66
     1
 10
0.0
 20
0.0
 30
0.0
  0
VERTEX
  5
17D
  8
16
 10
94.9452
 20
56.51499996366501
 30
0.0
  0
VERTEX
  5
17E
  8
16
 10
94.9452
 20
56.21020000000001
 30
0.0
 42
0.9999999999999999
  0
VERTEX
  5
17F
  8
16
 10
96.82479999999998
 20
56.21019999999996
 30
0.0
  0
VERTEX
  5
180
  8
16
 10
96.82480000000001
 20
58.08980000000001
 30
0.0
 42
1.000000000000008
  0
VERTEX
  5
181
  8
16
 10
94.94519999999997
 20
58.08979999999998
 30
0.0
  0
VERTEX
  5
182
  8
16
 10
94.9452
 20
57.78500000000001
 30
0.0
  0
VERTEX
  5
183
  8
16
 10
92.69356447709637
 20
57.78477763735679
 30
0.0
  0
VERTEX
  5
184
  8
16
 10
92.67714508842172
 20
57.78413927490946
 30
0.0
  0
VERTEX
  5
185
  8
16
 10
92.66075866932121
 20
57.78307713819943
 30
0.0
  0
VERTEX
  5
186
  8
16
 10
92.64442156653838
 20
57.78159335436175
 30
0.0
  0
VERTEX
  5
187
  8
16
 10
92.62814996261422
 20
57.77969088624913
 30
0.0
  0
VERTEX
  5
188
  8
16
 10
92.61195982294092
 20
57.77737351769122
 30
0.0
  0
VERTEX
  5
189
  8
16
 10
92.59586684432112
 20
57.77464583477866
 30
0.0
  0
VERTEX
  5
18A
  8
16
 10
92.57988640537432
 20
57.7715132033432
 30
0.0
  0
VERTEX
  5
18B
  8
16
 10
92.5640335191116
 20
57.76798174283914
 30
0.0
  0
VERTEX
  5
18C
  8
16
 10
92.5483227879741
 20
57.76405829686044
 30
0.0
  0
VERTEX
  5
18D
  8
16
 10
92.53276836160335
 20
57.75975040055521
 30
0.0
  0
VERTEX
  5
18E
  8
16
 10
92.51738389757989
 20
57.75506624522156
 30
0.0
  0
VERTEX
  5
18F
  8
16
 10
92.50218252533516
 20
57.75001464038854
 30
0.0
  0
VERTEX
  5
190
  8
16
 10
92.48717681340604
 20
57.74460497370004
 30
0.0
  0
VERTEX
  5
191
  8
16
 10
92.47237874016815
 20
57.73884716893134
 30
0.0
  0
VERTEX
  5
192
  8
16
 10
92.4577996681469
 20
57.73275164247368
 30
0.0
  0
VERTEX
  5
193
  8
16
 10
92.44345032197087
 20
57.72632925862538
 30
0.0
  0
VERTEX
  5
194
  8
16
 10
92.42934076999722
 20
57.71959128402647
 30
0.0
  0
VERTEX
  5
195
  8
16
 10
92.41548040960522
 20
57.71254934156851
 30
0.0
  0
VERTEX
  5
196
  8
16
 10
92.40187795612158
 20
57.70521536410252
 30
0.0
  0
VERTEX
  5
197
  8
16
 10
92.38854143531158
 20
57.69760154825628
 30
0.0
  0
VERTEX
  5
198
  8
16
 10
92.37547817934161
 20
57.68972030865706
 30
0.0
  0
VERTEX
  5
199
  8
16
 10
92.36269482609345
 20
57.68158423283869
 30
0.0
  0
VERTEX
  5
19A
  8
16
 10
92.35019732168756
 20
57.67320603709248
 30
0.0
  0
VERTEX
  5
19B
  8
16
 10
92.33799092605305
 20
57.66459852350002
 30
0.0
  0
VERTEX
  5
19C
  8
16
 10
92.32608022136431
 20
57.6557745383633
 30
0.0
  0
VERTEX
  5
19D
  8
16
 10
92.31446912315099
 20
57.64674693222456
 30
0.0
  0
VERTEX
  5
19E
  8
16
 10
92.30316089387614
 20
57.63752852164352
 30
0.0
  0
VERTEX
  5
19F
  8
16
 10
92.2921581587694
 20
57.62813205287559
 30
0.0
  0
VERTEX
  5
1A0
  8
16
 10
92.28146292369667
 20
57.61857016757064
 30
0.0
  0
VERTEX
  5
1A1
  8
16
 10
92.27107659484491
 20
57.60885537058801
 30
0.0
  0
VERTEX
  5
1A2
  8
16
 10
92.261
 20
57.59900000000001
 30
0.0
  0
VERTEX
  5
1A3
  8
16
 10
87.81599999999999
 20
53.154
 30
0.0
 42
0.2119530198203992
  0
VERTEX
  5
1A4
  8
16
 10
87.63043433923676
 20
52.67214475598774
 30
0.0
  0
VERTEX
  5
1A5
  8
16
 10
87.6301593172342
 20
38.72077651570585
 30
0.0
  0
VERTEX
  5
1A6
  8
16
 10
87.6306429787062
 20
38.70643131897913
 30
0.0
  0
VERTEX
  5
1A7
  8
16
 10
87.63145934464713
 20
38.691973984439
 30
0.0
  0
VERTEX
  5
1A8
  8
16
 10
87.63261647277197
 20
38.67741463301627
 30
0.0
  0
VERTEX
  5
1A9
  8
16
 10
87.63412208032628
 20
38.66276392543789
 30
0.0
  0
VERTEX
  5
1AA
  8
16
 10
87.63598350569373
 20
38.64803305288421
 30
0.0
  0
VERTEX
  5
1AB
  8
16
 10
87.63820766978765
 20
38.63323372470725
 30
0.0
  0
VERTEX
  5
1AC
  8
16
 10
87.64080103746535
 20
38.61837815311581
 30
0.0
  0
VERTEX
  5
1AD
  8
16
 10
87.64376957922138
 20
38.60347903475401
 30
0.0
  0
VERTEX
  5
1AE
  8
16
 10
87.6471187334288
 20
38.58854952912192
 30
0.0
  0
VERTEX
  5
1AF
  8
16
 10
87.65085336941061
 20
38.57360323381266
 30
0.0
  0
VERTEX
  5
1B0
  8
16
 10
87.65497775163222
 20
38.55865415656633
 30
0.0
  0
VERTEX
  5
1B1
  8
16
 10
87.65949550531361
 20
38.54371668417083
 30
0.0
  0
VERTEX
  5
1B2
  8
16
 10
87.6644095837632
 20
38.52880554826931
 30
0.0
  0
VERTEX
  5
1B3
  8
16
 10
87.66972223773607
 20
38.5139357881654
 30
0.0
  0
VERTEX
  5
1B4
  8
16
 10
87.67543498711663
 20
38.49912271075011
 30
0.0
  0
VERTEX
  5
1B5
  8
16
 10
87.68154859521894
 20
38.48438184770642
 30
0.0
  0
VERTEX
  5
1B6
  8
16
 10
87.68806304598696
 20
38.46972891018013
 30
0.0
  0
VERTEX
  5
1B7
  8
16
 10
87.6949775243638
 20
38.455179741138
 30
0.0
  0
VERTEX
  5
1B8
  8
16
 10
87.70229040007897
 20
38.44075026566412
 30
0.0
  0
VERTEX
  5
1B9
  8
16
 10
87.70999921508243
 20
38.42645643947584
 30
0.0
  0
VERTEX
  5
1BA
  8
16
 10
87.71810067482645
 20
38.41231419596652
 30
0.0
  0
VERTEX
  5
1BB
  8
16
 10
87.72659064356803
 20
38.3983393921075
 30
0.0
  0
VERTEX
  5
1BC
  8
16
 10
87.73546414383222
 20
38.3845477535631
 30
0.0
  0
VERTEX
  5
1BD
  8
16
 10
87.74471536014
 20
38.37095481938941
 30
0.0
  0
VERTEX
  5
1BE
  8
16
 10
87.7543376470686
 20
38.35757588670226
 30
0.0
  0
VERTEX
  5
1BF
  8
16
 10
87.76432354166995
 20
38.34442595570865
 30
0.0
  0
VERTEX
  5
1C0
  8
16
 10
87.77466478023487
 20
38.33151967550089
 30
0.0
  0
VERTEX
  5
1C1
  8
16
 10
87.78535231934632
 20
38.31887129101254
 30
0.0
  0
VERTEX
  5
1C2
  8
16
 10
87.79637636112469
 20
38.30649459153089
 30
0.0
  0
VERTEX
  5
1C3
  8
16
 10
87.80772638252641
 20
38.29440286115019
 30
0.0
  0
VERTEX
  5
1C4
  8
16
 10
87.81939116851699
 20
38.28260883153584
 30
0.0
  0
VERTEX
  5
1C5
  8
16
 10
92.46025658445814
 20
33.64174341554185
 30
0.0
 42
0.0862100173769427
  0
VERTEX
  5
1C6
  8
16
 10
92.4052
 20
33.3248
 30
0.0
  0
VERTEX
  5
1C7
  8
16
 10
92.4052
 20
31.4452
 30
0.0
 42
1.000000000000006
  0
VERTEX
  5
1C8
  8
16
 10
94.28479999999998
 20
31.44519999999999
 30
0.0
  0
VERTEX
  5
1C9
  8
16
 10
94.2848
 20
33.3248
 30
0.0
 42
0.3031897802165149
  0
VERTEX
  5
1CA
  8
16
 10
93.7051448661672
 20
34.19285513383276
 30
0.0
  0
VERTEX
  5
1CB
  8
16
 10
88.89999999999998
 20
38.99799999999999
 30
0.0
  0
VERTEX
  5
1CC
  8
16
 10
88.89999999999998
 20
52.44200000000001
 30
0.0
  0
VERTEX
  5
1CD
  8
16
 10
92.97299999999998
 20
56.51500000000001
 30
0.0
  0
VERTEX
  5
1CE
  8
16
 10
94.94519999999999
 20
56.51499996366501
 30
0.0
  0
SEQEND
  5
1CF
  8
16
  0
POLYLINE
  5
1D0
  8
16
 66
     1
 10
0.0
 20
0.0
 30
0.0
  0
VERTEX
  5
1D1
  8
16
 10
102.5652
 20
51.1048
 30
0.0
  0
VERTEX
  5
1D2
  8
16
 10
102.5652
 20
49.22520000000001
 30
0.0
 42
0.9999999999999999
  0
VERTEX
  5
1D3
  8
16
 10
104.4448
 20
49.22519999999998
 30
0.0
  0
VERTEX
  5
1D4
  8
16
 10
104.4448
 20
51.1048
 30
0.0
 42
1.000000000000019
  0
VERTEX
  5
1D5
  8
16
 10
102.5652
 20
51.10480000000002
 30
0.0
  0
SEQEND
  5
1D6
  8
16
  0
POLYLINE
  5
1D7
  8
16
 66
     1
 10
0.0
 20
0.0
 30
0.0
  0
VERTEX
  5
1D8
  8
16
 10
100.0252
 20
51.1048
 30
0.0
  0
VERTEX
  5
1D9
  8
16
 10
100.0252
 20
49.22520000000001
 30
0.0
 42
0.9999999999999999
  0
VERTEX
  5
1DA
  8
16
 10
101.9048
 20
49.22519999999998
 30
0.0
  0
VERTEX
  5
1DB
  8
16
 10
101.9048
 20
51.1048
 30
0.0
 42
1.000000000000019
  0
VERTEX
  5
1DC
  8
16
 10
100.0252
 20
51.10480000000002
 30
0.0
  0
SEQEND
  5
1DD
  8
16
  0
POLYLINE
  5
1DE
  8
16
 66
     1
 10
0.0
 20
0.0
 30
0.0
  0
VERTEX
  5
1DF
  8
16
 10
97.48519999999999
 20
51.1048
 30
0.0
  0
VERTEX
  5
1E0
  8
16
 10
97.48519999999999
 20
49.22520000000001
 30
0.0
 42
0.9999999999999999
  0
VERTEX
  5
1E1
  8
16
 10
99.3648
 20
49.22520000000004
 30
0.0
  0
VERTEX
  5
1E2
  8
16
 10
99.3648
 20
51.1048
 30
0.0
 42
0.9999999999999923
  0
VERTEX
  5
1E3
  8
16
 10
97.48519999999999
 20
51.1048
 30
0.0
  0
SEQEND
  5
1E4
  8
16
  0
POLYLINE
  5
1E5
  8
16
 66
     1
 10
0.0
 20
0.0
 30
0.0
  0
VERTEX
  5
1E6
  8
16
 10
94.9452
 20
51.1048
 30
0.0
  0
VERTEX
  5
1E7
  8
16
 10
94.9452
 20
49.22520000000001
 30
0.0
 42
0.9999999999999961
  0
VERTEX
  5
1E8
  8
16
 10
96.82479999999998
 20
49.22520000000002
 30
0.0
  0
VERTEX
  5
1E9
  8
16
 10
96.82480000000001
 20
51.1048
 30
0.0
 42
1.000000000000008
  0
VERTEX
  5
1EA
  8
16
 10
94.94519999999997
 20
51.10479999999998
 30
0.0
  0
SEQEND
  5
1EB
  8
16
  0
POLYLINE
  5
1EC
  8
16
 66
     1
 10
0.0
 20
0.0
 30
0.0
  0
VERTEX
  5
1ED
  8
16
 10
96.82480000000001
 20
31.4452
 30
0.0
  0
VERTEX
  5
1EE
  8
16
 10
96.82480000000001
 20
33.3248
 30
0.0
 42
1.000000000000008
  0
VERTEX
  5
1EF
  8
16
 10
94.94519999999997
 20
33.32479999999997
 30
0.0
  0
VERTEX
  5
1F0
  8
16
 10
94.9452
 20
31.4452
 30
0.0
 42
0.9999999999999868
  0
VERTEX
  5
1F1
  8
16
 10
96.82479999999998
 20
31.44520000000004
 30
0.0
  0
SEQEND
  5
1F2
  8
16
  0
POLYLINE
  5
1F3
  8
16
 66
     1
 10
0.0
 20
0.0
 30
0.0
  0
VERTEX
  5
1F4
  8
16
 10
106.9848
 20
31.4452
 30
0.0
  0
VERTEX
  5
1F5
  8
16
 10
106.9848
 20
33.3248
 30
0.0
 42
1.000000000000008
  0
VERTEX
  5
1F6
  8
16
 10
105.1052
 20
33.32479999999997
 30
0.0
  0
VERTEX
  5
1F7
  8
16
 10
105.1052
 20
31.4452
 30
0.0
 42
0.9999999999999923
  0
VERTEX
  5
1F8
  8
16
 10
106.9848
 20
31.44520000000001
 30
0.0
  0
SEQEND
  5
1F9
  8
16
  0
CIRCLE
  5
1FB
  8
44
 10
95.885
 20
57.15
 30
0.0
 40
0.5588
  0
CIRCLE
  5
1FC
  8
44
 10
98.425
 20
57.15
 30
0.0
 40
0.5588
  0
CIRCLE
  5
1FD
  8
44
 10
100.965
 20
57.15
 30
0.0
 40
0.5588
  0
CIRCLE
  5
1FE
  8
44
 10
103.505
 20
57.15
 30
0.0
 40
0.5588
  0
CIRCLE
  5
1FF
  8
44
 10
106.045
 20
32.385
 30
0.0
 40
0.5588
  0
CIRCLE
  5
200
  8
44
 10
103.505
 20
32.385
 30
0.0
 40
0.5588
  0
CIRCLE
  5
201
  8
44
 10
100.965
 20
32.385
 30
0.0
 40
0.5588
  0
CIRCLE
  5
202
  8
44
 10
98.425
 20
32.385
 30
0.0
 40
0.5588
  0
CIRCLE
  5
203
  8
44
 10
95.885
 20
32.385
 30
0.0
 40
0.5588
  0
CIRCLE
  5
204
  8
44
 10
93.345
 20
32.385
 30
0.0
 40
0.5588
  0
CIRCLE
  5
205
  8
44
 10
95.885
 20
50.165
 30
0.0
 40
0.5588
  0
CIRCLE
  5
206
  8
44
 10
98.425
 20
50.165
 30
0.0
 40
0.5588
  0
CIRCLE
  5
207
  8
44
 10
100.965
 20
50.165
 30
0.0
 40
0.5588
  0
CIRCLE
  5
208
  8
44
 10
103.505
 20
50.165
 30
0.0
 40
0.5588
  0
CIRCLE
  5
20A
  8
20
 10
99.6519
 20
66.7717
 30
0.0
 40
6.0005
  0
CIRCLE
  5
20B
  8
20
 10
99.6519
 20
66.7717
 30
0.0
 40
5.9995
  0
CIRCLE
  5
20C
  8
20
 10
99.6027
 20
27.1258
 30
0.0
 40
1.6005
  0
CIRCLE
  5
20D
  8
20
 10
99.6027
 20
27.1258
 30
0.0
 40
1.5995
  0
CIRCLE
  5
20E
  8
20
 10
99.6519
 20
78.2917
 30
0.0
 40
1.6005
  0
CIRCLE
  5
20F
  8
20
 10
99.6519
 20
78.2917
 30
0.0
 40
1.5995
  0
CIRCLE
  5
210
  8
20
 10
112.1719
 20
66.7717
 30
0.0
 40
1.6005
  0
CIRCLE
  5
211
  8
20
 10
112.1719
 20
66.7717
 30
0.0
 40
1.5995
  0
CIRCLE
  5
212
  8
20
 10
87.1319
 20
66.7717
 30
0.0
 40
1.6005
  0
CIRCLE
  5
213
  8
20
 10
87.1319
 20
66.7717
 30
0.0
 40
1.5995
  0
POLYLINE
  5
214
  8
20
 66
     1
 10
0.0
 20
0.0
 30
0.0
  0
VERTEX
  5
215
  8
20
 10
115.7714
 20
66.7717
 30
0.0
 42
0.9999999999715784
  0
VERTEX
  5
216
  8
20
 10
115.7724
 20
66.7717
 30
0.0
 42
0.9999999999999999
  0
VERTEX
  5
217
  8
20
 10
83.53140000000002
 20
66.7717
 30
0.0
 42
0.9999999999999999
  0
VERTEX
  5
218
  8
20
 10
83.5324
 20
66.7717
 30
0.0
 42
-1.000000000000001
  0
VERTEX
  5
219
  8
20
 10
115.7714
 20
66.7717
 30
0.0
  0
SEQEND
  5
21A
  8
20
  0
POLYLINE
  5
21B
  8
20
 66
     1
 10
0.0
 20
0.0
 30
0.0
  0
VERTEX
  5
21C
  8
20
 10
115.7724
 20
27.1255
 30
0.0
  0
VERTEX
  5
21D
  8
20
 10
115.7724
 20
66.7717
 30
0.0
 42
0.9999999999715784
  0
VERTEX
  5
21E
  8
20
 10
115.7714
 20
66.7717
 30
0.0
  0
VERTEX
  5
21F
  8
20
 10
115.7714
 20
27.1255
 30
0.0
 42
0.9999999999857893
  0
VERTEX
  5
220
  8
20
 10
115.7724
 20
27.1255
 30
0.0
  0
SEQEND
  5
221
  8
20
  0
POLYLINE
  5
222
  8
20
 66
     1
 10
0.0
 20
0.0
 30
0.0
  0
VERTEX
  5
223
  8
20
 10
112.3718
 20
23.726
 30
0.0
 42
0.999999999989342
  0
VERTEX
  5
224
  8
20
 10
112.3718
 20
23.725
 30
0.0
 42
0.4142
  0
VERTEX
  5
225
  8
20
 10
115.7724
 20
27.1255
 30
0.0
 42
0.9999999999715784
  0
VERTEX
  5
226
  8
20
 10
115.7714
 20
27.1255
 30
0.0
 42
-0.4141999999999988
  0
VERTEX
  5
227
  8
20
 10
112.3718
 20
23.726
 30
0.0
  0
SEQEND
  5
228
  8
20
  0
POLYLINE
  5
229
  8
20
 66
     1
 10
0.0
 20
0.0
 30
0.0
  0
VERTEX
  5
22A
  8
20
 10
87.005
 20
23.7257
 30
0.0
  0
VERTEX
  5
22B
  8
20
 10
112.3718
 20
23.725
 30
0.0
 42
0.999999999989342
  0
VERTEX
  5
22C
  8
20
 10
112.3718
 20
23.726
 30
0.0
  0
VERTEX
  5
22D
  8
20
 10
87.005
 20
23.7267
 30
0.0
 42
1.000000000014211
  0
VERTEX
  5
22E
  8
20
 10
87.005
 20
23.7257
 30
0.0
  0
SEQEND
  5
22F
  8
20
  0
POLYLINE
  5
230
  8
20
 66
     1
 10
0.0
 20
0.0
 30
0.0
  0
VERTEX
  5
231
  8
20
 10
83.5324
 20
27.1255
 30
0.0
 42
0.9999999999999999
  0
VERTEX
  5
232
  8
20
 10
83.53140000000003
 20
27.1255
 30
0.0
 42
0.4205000000000011
  0
VERTEX
  5
233
  8
20
 10
87.005
 20
23.7257
 30
0.0
 42
1.000000000014211
  0
VERTEX
  5
234
  8
20
 10
87.005
 20
23.7267
 30
0.0
 42
-0.4205
  0
VERTEX
  5
235
  8
20
 10
83.5324
 20
27.1255
 30
0.0
  0
SEQEND
  5
236
  8
20
  0
POLYLINE
  5
237
  8
20
 66
     1
 10
0.0
 20
0.0
 30
0.0
  0
VERTEX
  5
238
  8
20
 10
83.5314
 20
66.7717
 30
0.0
  0
VERTEX
  5
239
  8
20
 10
83.53140000000002
 20
27.1255
 30
0.0
 42
0.9999999999999999
  0
VERTEX
  5
23A
  8
20
 10
83.5324
 20
27.1255
 30
0.0
  0
VERTEX
  5
23B
  8
20
 10
83.5324
 20
66.7717
 30
0.0
 42
0.9999999999999999
  0
VERTEX
  5
23C
  8
20
 10
83.53140000000002
 20
66.7717
 30
0.0
  0
SEQEND
  5
23D
  8
20
  0
ENDSEC
  0
EOF
