  0
SECTION
  2
HEADER
  9
$ACADVER
  1
AC1009
  9
$DWGCODEPAGE
  3
ansi_1252
  9
$INSBASE
 10
0.0
 20
0.0
 30
0.0
  9
$EXTMIN
 10
125.5211366030613
 20
23.72491811127182
 30
0.0
  9
$EXTMAX
 10
157.7621366030613
 20
82.89219999999999
 30
0.0
  9
$LIMMIN
 10
0.0
 20
0.0
  9
$LIMMAX
 10
12.0
 20
9.0
  9
$ORTHOMODE
 70
     0
  9
$REGENMODE
 70
     1
  9
$FILLMODE
 70
     1
  9
$QTEXTMODE
 70
     0
  9
$MIRRTEXT
 70
     1
  9
$DRAGMODE
 70
     2
  9
$LTSCALE
 40
1.0
  9
$OSMODE
 70
    37
  9
$ATTMODE
 70
     1
  9
$TEXTSIZE
 40
0.2
  9
$TRACEWID
 40
0.05
  9
$TEXTSTYLE
  7
STANDARD
  9
$CLAYER
  8
16
  9
$CELTYPE
  6
BYLAYER
  9
$CECOLOR
 62
   256
  9
$DIMSCALE
 40
1.0
  9
$DIMASZ
 40
0.18
  9
$DIMEXO
 40
0.0625
  9
$DIMDLI
 40
0.38
  9
$DIMRND
 40
0.0
  9
$DIMDLE
 40
0.0
  9
$DIMEXE
 40
0.18
  9
$DIMTP
 40
0.0
  9
$DIMTM
 40
0.0
  9
$DIMTXT
 40
0.18
  9
$DIMCEN
 40
0.09
  9
$DIMTSZ
 40
0.0
  9
$DIMTOL
 70
     0
  9
$DIMLIM
 70
     0
  9
$DIMTIH
 70
     1
  9
$DIMTOH
 70
     1
  9
$DIMSE1
 70
     0
  9
$DIMSE2
 70
     0
  9
$DIMTAD
 70
     0
  9
$DIMZIN
 70
     0
  9
$DIMBLK
  1

  9
$DIMASO
 70
     1
  9
$DIMSHO
 70
     1
  9
$DIMPOST
  1

  9
$DIMAPOST
  1

  9
$DIMALT
 70
     0
  9
$DIMALTD
 70
     2
  9
$DIMALTF
 40
25.4
  9
$DIMLFAC
 40
1.0
  9
$DIMTOFL
 70
     0
  9
$DIMTVP
 40
0.0
  9
$DIMTIX
 70
     0
  9
$DIMSOXD
 70
     0
  9
$DIMSAH
 70
     0
  9
$DIMBLK1
  1

  9
$DIMBLK2
  1

  9
$DIMSTYLE
  2
STANDARD
  9
$DIMCLRD
 70
     0
  9
$DIMCLRE
 70
     0
  9
$DIMCLRT
 70
     0
  9
$DIMTFAC
 40
1.0
  9
$DIMGAP
 40
0.09
  9
$LUNITS
 70
     2
  9
$LUPREC
 70
     3
  9
$SKETCHINC
 40
0.1
  9
$FILLETRAD
 40
0.5
  9
$AUNITS
 70
     0
  9
$AUPREC
 70
     0
  9
$MENU
  1
.
  9
$ELEVATION
 40
0.0
  9
$PELEVATION
 40
0.0
  9
$THICKNESS
 40
0.0
  9
$LIMCHECK
 70
     0
  9
$CHAMFERA
 40
0.0
  9
$CHAMFERB
 40
0.0
  9
$SKPOLY
 70
     0
  9
$TDCREATE
 40
2458318.671076007
  9
$TDUPDATE
 40
2458318.672695382
  9
$TDINDWG
 40
0.0000000116
  9
$TDUSRTIMER
 40
0.0000000116
  9
$USRTIMER
 70
     1
  9
$ANGBASE
 50
0.0
  9
$ANGDIR
 70
     0
  9
$PDMODE
 70
     0
  9
$PDSIZE
 40
0.0
  9
$PLINEWID
 40
0.0
  9
$COORDS
 70
     1
  9
$SPLFRAME
 70
     0
  9
$SPLINETYPE
 70
     6
  9
$SPLINESEGS
 70
     8
  9
$ATTDIA
 70
     0
  9
$ATTREQ
 70
     1
  9
$HANDLING
 70
     1
  9
$HANDSEED
  5
23E
  9
$SURFTAB1
 70
     6
  9
$SURFTAB2
 70
     6
  9
$SURFTYPE
 70
     6
  9
$SURFU
 70
     6
  9
$SURFV
 70
     6
  9
$UCSNAME
  2

  9
$UCSORG
 10
0.0
 20
0.0
 30
0.0
  9
$UCSXDIR
 10
1.0
 20
0.0
 30
0.0
  9
$UCSYDIR
 10
0.0
 20
1.0
 30
0.0
  9
$PUCSNAME
  2

  9
$PUCSORG
 10
0.0
 20
0.0
 30
0.0
  9
$PUCSXDIR
 10
1.0
 20
0.0
 30
0.0
  9
$PUCSYDIR
 10
0.0
 20
1.0
 30
0.0
  9
$USERI1
 70
     0
  9
$USERI2
 70
     0
  9
$USERI3
 70
     0
  9
$USERI4
 70
     0
  9
$USERI5
 70
     0
  9
$USERR1
 40
0.0
  9
$USERR2
 40
0.0
  9
$USERR3
 40
0.0
  9
$USERR4
 40
0.0
  9
$USERR5
 40
0.0
  9
$WORLDVIEW
 70
     1
  9
$SHADEDGE
 70
     3
  9
$SHADEDIF
 70
    70
  9
$TILEMODE
 70
     1
  9
$MAXACTVP
 70
    64
  9
$PLIMCHECK
 70
     0
  9
$PEXTMIN
 10
1.000000000000000E+20
 20
1.000000000000000E+20
 30
1.000000000000000E+20
  9
$PEXTMAX
 10
-1.000000000000000E+20
 20
-1.000000000000000E+20
 30
-1.000000000000000E+20
  9
$PLIMMIN
 10
0.0
 20
0.0
  9
$PLIMMAX
 10
12.0
 20
9.0
  9
$UNITMODE
 70
     0
  9
$VISRETAIN
 70
     1
  9
$PLINEGEN
 70
     0
  9
$PSLTSCALE
 70
     1
  0
ENDSEC
  0
SECTION
  2
TABLES
  0
TABLE
  2
VPORT
 70
     1
  0
VPORT
  2
*ACTIVE
 70
     0
 10
0.0
 20
0.0
 11
1.0
 21
1.0
 12
141.6416366030613
 22
53.3085590556359
 13
0.0
 23
0.0
 14
0.5
 24
0.5
 15
0.5
 25
0.5
 16
0.0
 26
0.0
 36
1.0
 17
0.0
 27
0.0
 37
0.0
 40
60.35062752650273
 41
0.5449126437924496
 42
50.0
 43
0.0
 44
0.0
 50
0.0
 51
0.0
 71
     0
 72
   100
 73
     1
 74
     3
 75
     0
 76
     0
 77
     0
 78
     0
  0
ENDTAB
  0
TABLE
  2
LTYPE
 70
     1
  0
LTYPE
  2
CONTINUOUS
 70
     0
  3
Solid line
 72
    65
 73
     0
 40
0.0
  0
ENDTAB
  0
TABLE
  2
LAYER
 70
     4
  0
LAYER
  2
0
 70
     0
 62
     7
  6
CONTINUOUS
  0
LAYER
  2
44
 70
     0
 62
     4
  6
CONTINUOUS
  0
LAYER
  2
20
 70
     0
 62
    31
  6
CONTINUOUS
  0
LAYER
  2
16
 70
     0
 62
   132
  6
CONTINUOUS
  0
ENDTAB
  0
TABLE
  2
STYLE
 70
     1
  0
STYLE
  2
STANDARD
 70
     0
 40
0.0
 41
1.0
 50
0.0
 71
     0
 42
0.2
  3
txt
  4

  0
ENDTAB
  0
TABLE
  2
VIEW
 70
     0
  0
ENDTAB
  0
TABLE
  2
UCS
 70
     0
  0
ENDTAB
  0
TABLE
  2
APPID
 70
     1
  0
APPID
  2
ACAD
 70
     0
  0
ENDTAB
  0
TABLE
  2
DIMSTYLE
 70
     1
  0
DIMSTYLE
  2
STANDARD
 70
     0
  3

  4

  5

  6

  7

 40
1.0
 41
0.18
 42
0.0625
 43
0.38
 44
0.18
 45
0.0
 46
0.0
 47
0.0
 48
0.0
140
0.18
141
0.09
142
0.0
143
25.4
144
1.0
145
0.0
146
1.0
147
0.09
 71
     0
 72
     0
 73
     1
 74
     1
 75
     0
 76
     0
 77
     0
 78
     0
170
     0
171
     2
172
     0
173
     0
174
     0
175
     0
176
     0
177
     0
178
     0
  0
ENDTAB
  0
ENDSEC
  0
SECTION
  2
BLOCKS
  0
BLOCK
  8
0
  2
$MODEL_SPACE
 70
     0
 10
0.0
 20
0.0
 30
0.0
  3
$MODEL_SPACE
  1

  0
ENDBLK
  5
21
  8
0
  0
BLOCK
 67
     1
  8
0
  2
$PAPER_SPACE
 70
     0
 10
0.0
 20
0.0
 30
0.0
  3
$PAPER_SPACE
  1

  0
ENDBLK
  5
1D
 67
     1
  8
0
  0
ENDSEC
  0
SECTION
  2
ENTITIES
  0
CIRCLE
  5
6B
  8
44
 10
-145.4085366030613
 20
57.15
 30
0.0
 40
0.5588
210
0.0
220
0.0
230
-1.0
  0
CIRCLE
  5
6C
  8
44
 10
-142.8685366030613
 20
57.15
 30
0.0
 40
0.5588
210
0.0
220
0.0
230
-1.0
  0
CIRCLE
  5
6D
  8
44
 10
-140.3285366030613
 20
57.15
 30
0.0
 40
0.5588
210
0.0
220
0.0
230
-1.0
  0
CIRCLE
  5
6E
  8
44
 10
-137.7885366030613
 20
57.15
 30
0.0
 40
0.5588
210
0.0
220
0.0
230
-1.0
  0
CIRCLE
  5
6F
  8
44
 10
-135.2485366030613
 20
32.385
 30
0.0
 40
0.5588
210
0.0
220
0.0
230
-1.0
  0
CIRCLE
  5
70
  8
44
 10
-137.7885366030613
 20
32.385
 30
0.0
 40
0.5588
210
0.0
220
0.0
230
-1.0
  0
CIRCLE
  5
71
  8
44
 10
-140.3285366030613
 20
32.385
 30
0.0
 40
0.5588
210
0.0
220
0.0
230
-1.0
  0
CIRCLE
  5
72
  8
44
 10
-142.8685366030613
 20
32.385
 30
0.0
 40
0.5588
210
0.0
220
0.0
230
-1.0
  0
CIRCLE
  5
73
  8
44
 10
-145.4085366030613
 20
32.385
 30
0.0
 40
0.5588
210
0.0
220
0.0
230
-1.0
  0
CIRCLE
  5
74
  8
44
 10
-147.9485366030613
 20
32.385
 30
0.0
 40
0.5588
210
0.0
220
0.0
230
-1.0
  0
CIRCLE
  5
75
  8
44
 10
-145.4085366030613
 20
50.165
 30
0.0
 40
0.5588
210
0.0
220
0.0
230
-1.0
  0
CIRCLE
  5
76
  8
44
 10
-142.8685366030613
 20
50.165
 30
0.0
 40
0.5588
210
0.0
220
0.0
230
-1.0
  0
CIRCLE
  5
77
  8
44
 10
-140.3285366030613
 20
50.165
 30
0.0
 40
0.5588
210
0.0
220
0.0
230
-1.0
  0
CIRCLE
  5
78
  8
44
 10
-137.7885366030613
 20
50.165
 30
0.0
 40
0.5588
210
0.0
220
0.0
230
-1.0
  0
CIRCLE
  5
7A
  8
20
 10
-141.6416366030613
 20
66.7717
 30
0.0
 40
6.0005
210
0.0
220
0.0
230
-1.0
  0
CIRCLE
  5
7B
  8
20
 10
-141.6416366030613
 20
66.7717
 30
0.0
 40
5.9995
210
0.0
220
0.0
230
-1.0
  0
CIRCLE
  5
7C
  8
20
 10
-141.6908366030613
 20
27.1258
 30
0.0
 40
1.6005
210
0.0
220
0.0
230
-1.0
  0
CIRCLE
  5
7D
  8
20
 10
-141.6908366030613
 20
27.1258
 30
0.0
 40
1.5995
210
0.0
220
0.0
230
-1.0
  0
CIRCLE
  5
7E
  8
20
 10
-141.6416366030613
 20
78.2917
 30
0.0
 40
1.6005
210
0.0
220
0.0
230
-1.0
  0
CIRCLE
  5
7F
  8
20
 10
-141.6416366030613
 20
78.2917
 30
0.0
 40
1.5995
210
0.0
220
0.0
230
-1.0
  0
CIRCLE
  5
80
  8
20
 10
-129.1216366030613
 20
66.7717
 30
0.0
 40
1.6005
210
0.0
220
0.0
230
-1.0
  0
CIRCLE
  5
81
  8
20
 10
-129.1216366030613
 20
66.7717
 30
0.0
 40
1.5995
210
0.0
220
0.0
230
-1.0
  0
CIRCLE
  5
82
  8
20
 10
-154.1616366030613
 20
66.7717
 30
0.0
 40
1.6005
210
0.0
220
0.0
230
-1.0
  0
CIRCLE
  5
83
  8
20
 10
-154.1616366030613
 20
66.7717
 30
0.0
 40
1.5995
210
0.0
220
0.0
230
-1.0
  0
POLYLINE
  5
84
  8
20
 66
     1
 10
0.0
 20
0.0
 30
0.0
  0
VERTEX
  5
85
  8
20
 10
125.5221366030613
 20
27.1255
 30
0.0
 42
-0.9999999999857893
  0
VERTEX
  5
86
  8
20
 10
125.5211366030613
 20
27.1255
 30
0.0
  0
VERTEX
  5
87
  8
20
 10
125.5211366030613
 20
66.7717
 30
0.0
 42
-0.9999999999715784
  0
VERTEX
  5
88
  8
20
 10
125.5221366030613
 20
66.7717
 30
0.0
  0
VERTEX
  5
89
  8
20
 10
125.5221366030613
 20
27.1255
 30
0.0
 42
0.9999999999857893
  0
VERTEX
  5
8A
  8
20
 10
125.5211366030613
 20
27.1255
 30
0.0
 42
0.4142000000000037
  0
VERTEX
  5
8B
  8
20
 10
128.9217366030614
 20
23.72500000000001
 30
0.0
 42
0.9999999999999999
  0
VERTEX
  5
8C
  8
20
 10
128.9217366030613
 20
23.726
 30
0.0
  0
VERTEX
  5
8D
  8
20
 10
154.2885366030613
 20
23.7267
 30
0.0
 42
-0.9999999999999999
  0
VERTEX
  5
8E
  8
20
 10
154.2885366030613
 20
23.7257
 30
0.0
  0
VERTEX
  5
8F
  8
20
 10
128.9217366030613
 20
23.725
 30
0.0
 42
-1.000000000003553
  0
VERTEX
  5
90
  8
20
 10
128.9217366030613
 20
23.72599999999999
 30
0.0
 42
-0.414199999999997
  0
VERTEX
  5
91
  8
20
 10
125.5221366030614
 20
27.1255
 30
0.0
  0
SEQEND
  5
92
  8
20
  0
POLYLINE
  5
94
  8
16
 66
     1
 10
0.0
 20
0.0
 30
0.0
  0
VERTEX
  5
95
  8
16
 10
134.1645366030614
 20
40.826
 30
0.0
 42
-0.1989026769710222
  0
VERTEX
  5
96
  8
16
 10
133.9785456583085
 20
41.27500251101988
 30
0.0
  0
VERTEX
  5
97
  8
16
 10
133.9786959202956
 20
52.08422348429437
 30
0.0
  0
VERTEX
  5
98
  8
16
 10
133.9791795817676
 20
52.09856868102129
 30
0.0
  0
VERTEX
  5
99
  8
16
 10
133.9799959477085
 20
52.11302601556164
 30
0.0
  0
VERTEX
  5
9A
  8
16
 10
133.9811530758334
 20
52.12758536698458
 30
0.0
  0
VERTEX
  5
9B
  8
16
 10
133.9826586833877
 20
52.14223607456317
 30
0.0
  0
VERTEX
  5
9C
  8
16
 10
133.9845201087552
 20
52.15696694711706
 30
0.0
  0
VERTEX
  5
9D
  8
16
 10
133.9867442728492
 20
52.17176627529424
 30
0.0
  0
VERTEX
  5
9E
  8
16
 10
133.989337640527
 20
52.1866218468859
 30
0.0
  0
VERTEX
  5
9F
  8
16
 10
133.9923061822831
 20
52.20152096524793
 30
0.0
  0
VERTEX
  5
A0
  8
16
 10
133.9956553364907
 20
52.21645047088022
 30
0.0
  0
VERTEX
  5
A1
  8
16
 10
133.9993899724726
 20
52.2313967661897
 30
0.0
  0
VERTEX
  5
A2
  8
16
 10
134.0035143546943
 20
52.24634584343625
 30
0.0
  0
VERTEX
  5
A3
  8
16
 10
134.0080321083758
 20
52.26128331583195
 30
0.0
  0
VERTEX
  5
A4
  8
16
 10
134.0129461868256
 20
52.27619445173369
 30
0.0
  0
VERTEX
  5
A5
  8
16
 10
134.0182588407986
 20
52.29106421183781
 30
0.0
  0
VERTEX
  5
A6
  8
16
 10
134.0239715901793
 20
52.30587728925327
 30
0.0
  0
VERTEX
  5
A7
  8
16
 10
134.0300851982818
 20
52.32061815229716
 30
0.0
  0
VERTEX
  5
A8
  8
16
 10
134.0365996490501
 20
52.33527108982362
 30
0.0
  0
VERTEX
  5
A9
  8
16
 10
134.0435141274271
 20
52.34982025886595
 30
0.0
  0
VERTEX
  5
AA
  8
16
 10
134.0508270031424
 20
52.36424973434
 30
0.0
  0
VERTEX
  5
AB
  8
16
 10
134.0585358181461
 20
52.37854356052843
 30
0.0
  0
VERTEX
  5
AC
  8
16
 10
134.0666372778904
 20
52.39268580403791
 30
0.0
  0
VERTEX
  5
AD
  8
16
 10
134.0751272466322
 20
52.40666060789707
 30
0.0
  0
VERTEX
  5
AE
  8
16
 10
134.0840007468967
 20
52.4204522464416
 30
0.0
  0
VERTEX
  5
AF
  8
16
 10
134.0932519632047
 20
52.43404518061541
 30
0.0
  0
VERTEX
  5
B0
  8
16
 10
134.1028742501336
 20
52.44742411330268
 30
0.0
  0
VERTEX
  5
B1
  8
16
 10
134.1128601447352
 20
52.46057404429638
 30
0.0
  0
VERTEX
  5
B2
  8
16
 10
134.1232013833004
 20
52.47348032450422
 30
0.0
  0
VERTEX
  5
B3
  8
16
 10
134.1338889224122
 20
52.48612870899264
 30
0.0
  0
VERTEX
  5
B4
  8
16
 10
134.1449129641908
 20
52.49850540847436
 30
0.0
  0
VERTEX
  5
B5
  8
16
 10
134.1562629855928
 20
52.51059713885511
 30
0.0
  0
VERTEX
  5
B6
  8
16
 10
134.1679277715837
 20
52.52239116846949
 30
0.0
  0
VERTEX
  5
B7
  8
16
 10
136.0661454345695
 20
54.42060883150818
 30
0.0
 42
-0.2008759561874072
  0
VERTEX
  5
B8
  8
16
 10
136.5185366030613
 20
54.61000000000001
 30
0.0
  0
VERTEX
  5
B9
  8
16
 10
139.4305366030613
 20
54.61000000000001
 30
0.0
  0
VERTEX
  5
BA
  8
16
 10
139.6935366030613
 20
54.87300000000002
 30
0.0
  0
VERTEX
  5
BB
  8
16
 10
139.6935366030613
 20
55.51738036978731
 30
0.0
 42
-0.2102471214594815
  0
VERTEX
  5
BC
  8
16
 10
139.3887366030613
 20
56.21020000000001
 30
0.0
  0
VERTEX
  5
BD
  8
16
 10
139.3887366030613
 20
58.08980000000001
 30
0.0
 42
-0.9999999999999963
  0
VERTEX
  5
BE
  8
16
 10
141.2683366030614
 20
58.08980000000003
 30
0.0
  0
VERTEX
  5
BF
  8
16
 10
141.2683366030613
 20
56.21020000000001
 30
0.0
 42
-0.210247121462393
  0
VERTEX
  5
C0
  8
16
 10
140.9635366030574
 20
55.51738036978949
 30
0.0
  0
VERTEX
  5
C1
  8
16
 10
140.9635366030613
 20
54.61000000000001
 30
0.0
 42
-0.2008759562274607
  0
VERTEX
  5
C2
  8
16
 10
140.7741454345426
 20
54.15760883153412
 30
0.0
  0
VERTEX
  5
C3
  8
16
 10
140.1425366030614
 20
53.526
 30
0.0
 42
-0.2119530198196731
  0
VERTEX
  5
C4
  8
16
 10
139.6606813590491
 20
53.34043433923758
 30
0.0
 42
-0.0000754284966492
  0
VERTEX
  5
C5
  8
16
 10
136.7815366030613
 20
53.34000000000196
 30
0.0
  0
VERTEX
  5
C6
  8
16
 10
135.2485366030613
 20
51.80700000000001
 30
0.0
  0
VERTEX
  5
C7
  8
16
 10
135.2485366030613
 20
41.538
 30
0.0
  0
VERTEX
  5
C8
  8
16
 10
140.7775366030613
 20
36.009
 30
0.0
 42
-0.2119530198206209
  0
VERTEX
  5
C9
  8
16
 10
140.9631022638241
 20
35.52714475598774
 30
0.0
 42
-0.0001438661709431
  0
VERTEX
  5
CA
  8
16
 10
140.9635366030611
 20
34.0176196302127
 30
0.0
 42
-0.2102471214594929
  0
VERTEX
  5
CB
  8
16
 10
141.2683366030614
 20
33.3248
 30
0.0
  0
VERTEX
  5
CC
  8
16
 10
141.2683366030614
 20
31.4452
 30
0.0
 42
-1.000000000000015
  0
VERTEX
  5
CD
  8
16
 10
139.3887366030614
 20
31.44519999999997
 30
0.0
  0
VERTEX
  5
CE
  8
16
 10
139.3887366030613
 20
33.3248
 30
0.0
 42
-0.2102471214624181
  0
VERTEX
  5
CF
  8
16
 10
139.6935366030653
 20
34.01761963021054
 30
0.0
  0
VERTEX
  5
D0
  8
16
 10
139.6935366030613
 20
35.29700000000001
 30
0.0
  0
VERTEX
  5
D1
  8
16
 10
134.1645366030613
 20
40.826
 30
0.0
  0
SEQEND
  5
D2
  8
16
  0
POLYLINE
  5
D3
  8
16
 66
     1
 10
0.0
 20
0.0
 30
0.0
  0
VERTEX
  5
D4
  8
16
 10
142.2335366030613
 20
55.24500000000001
 30
0.0
  0
VERTEX
  5
D5
  8
16
 10
142.2335365310825
 20
55.51738043576206
 30
0.0
 42
-0.2102470683340167
  0
VERTEX
  5
D6
  8
16
 10
141.9287366030613
 20
56.21020000000001
 30
0.0
  0
VERTEX
  5
D7
  8
16
 10
141.9287366030613
 20
58.08980000000001
 30
0.0
 42
-0.9999999999999999
  0
VERTEX
  5
D8
  8
16
 10
143.8083366030613
 20
58.08980000000001
 30
0.0
  0
VERTEX
  5
D9
  8
16
 10
143.8083366030613
 20
56.21020000000001
 30
0.0
 42
-0.2102471214623579
  0
VERTEX
  5
DA
  8
16
 10
143.5035366030574
 20
55.51738036978949
 30
0.0
  0
VERTEX
  5
DB
  8
16
 10
143.5035366030613
 20
55.50800000000003
 30
0.0
  0
VERTEX
  5
DC
  8
16
 10
144.4015366030613
 20
54.61000000000001
 30
0.0
  0
VERTEX
  5
DD
  8
16
 10
146.694972481109
 20
54.60977763735679
 30
0.0
  0
VERTEX
  5
DE
  8
16
 10
146.7113918470736
 20
54.60913927490946
 30
0.0
  0
VERTEX
  5
DF
  8
16
 10
146.7277782441214
 20
54.60807713819943
 30
0.0
  0
VERTEX
  5
E0
  8
16
 10
146.7441153255292
 20
54.60659335436176
 30
0.0
  0
VERTEX
  5
E1
  8
16
 10
146.7603869087752
 20
54.60469088624913
 30
0.0
  0
VERTEX
  5
E2
  8
16
 10
146.7765770284846
 20
54.60237351769123
 30
0.0
  0
VERTEX
  5
E3
  8
16
 10
146.7926699878707
 20
54.59964583477865
 30
0.0
  0
VERTEX
  5
E4
  8
16
 10
146.8086504083286
 20
54.59651320334319
 30
0.0
  0
VERTEX
  5
E5
  8
16
 10
146.8245032768599
 20
54.59298174283914
 30
0.0
  0
VERTEX
  5
E6
  8
16
 10
146.8402139910347
 20
54.58905829686043
 30
0.0
  0
VERTEX
  5
E7
  8
16
 10
146.8557684012208
 20
54.58475040055519
 30
0.0
  0
VERTEX
  5
E8
  8
16
 10
146.8711528498458
 20
54.58006624522157
 30
0.0
  0
VERTEX
  5
E9
  8
16
 10
146.8863542074843
 20
54.57501464038854
 30
0.0
  0
VERTEX
  5
EA
  8
16
 10
146.901359905604
 20
54.56960497370004
 30
0.0
  0
VERTEX
  5
EB
  8
16
 10
146.9161579658323
 20
54.56384716893134
 30
0.0
  0
VERTEX
  5
EC
  8
16
 10
146.9307370256451
 20
54.55775164247367
 30
0.0
  0
VERTEX
  5
ED
  8
16
 10
146.9450863604137
 20
54.55132925862536
 30
0.0
  0
VERTEX
  5
EE
  8
16
 10
146.9591959017791
 20
54.54459128402645
 30
0.0
  0
VERTEX
  5
EF
  8
16
 10
146.9730562523589
 20
54.53754934156849
 30
0.0
  0
VERTEX
  5
F0
  8
16
 10
146.9866586968217
 20
54.53021536410251
 30
0.0
  0
VERTEX
  5
F1
  8
16
 10
146.9999952093964
 20
54.52260154825628
 30
0.0
  0
VERTEX
  5
F2
  8
16
 10
147.013058457909
 20
54.51472030865704
 30
0.0
  0
VERTEX
  5
F3
  8
16
 10
147.0258418044694
 20
54.50658423283866
 30
0.0
  0
VERTEX
  5
F4
  8
16
 10
147.0383393029473
 20
54.49820603709247
 30
0.0
  0
VERTEX
  5
F5
  8
16
 10
147.0505456934028
 20
54.48959852350001
 30
0.0
  0
VERTEX
  5
F6
  8
16
 10
147.0624563936495
 20
54.48077453836328
 30
0.0
  0
VERTEX
  5
F7
  8
16
 10
147.074067488145
 20
54.47174693222457
 30
0.0
  0
VERTEX
  5
F8
  8
16
 10
147.0853757144124
 20
54.46252852164352
 30
0.0
  0
VERTEX
  5
F9
  8
16
 10
147.0963784472077
 20
54.45313205287557
 30
0.0
  0
VERTEX
  5
FA
  8
16
 10
147.1070736806494
 20
54.44357016757062
 30
0.0
  0
VERTEX
  5
FB
  8
16
 10
147.1174600085348
 20
54.43385537058798
 30
0.0
  0
VERTEX
  5
FC
  8
16
 10
147.1275366030613
 20
54.42400000000001
 30
0.0
  0
VERTEX
  5
FD
  8
16
 10
150.9375366030613
 20
50.614
 30
0.0
 42
-0.2119530196875896
  0
VERTEX
  5
FE
  8
16
 10
151.1231022638246
 20
50.13214475635283
 30
0.0
  0
VERTEX
  5
FF
  8
16
 10
151.1233772858271
 20
42.53077651570582
 30
0.0
  0
VERTEX
  5
100
  8
16
 10
151.1228936243551
 20
42.51643131897906
 30
0.0
  0
VERTEX
  5
101
  8
16
 10
151.1220772584142
 20
42.50197398443888
 30
0.0
  0
VERTEX
  5
102
  8
16
 10
151.1209201302893
 20
42.48741463301609
 30
0.0
  0
VERTEX
  5
103
  8
16
 10
151.119414522735
 20
42.47276392543768
 30
0.0
  0
VERTEX
  5
104
  8
16
 10
151.1175530973676
 20
42.45803305288396
 30
0.0
  0
VERTEX
  5
105
  8
16
 10
151.1153289332736
 20
42.44323372470696
 30
0.0
  0
VERTEX
  5
106
  8
16
 10
151.1127355655959
 20
42.42837815311546
 30
0.0
  0
VERTEX
  5
107
  8
16
 10
151.1097670238398
 20
42.4134790347536
 30
0.0
  0
VERTEX
  5
108
  8
16
 10
151.1064178696324
 20
42.39854952912148
 30
0.0
  0
VERTEX
  5
109
  8
16
 10
151.1026832336506
 20
42.38360323381218
 30
0.0
  0
VERTEX
  5
10A
  8
16
 10
151.0985588514289
 20
42.3686541565658
 30
0.0
  0
VERTEX
  5
10B
  8
16
 10
151.0940410977475
 20
42.35371668417026
 30
0.0
  0
VERTEX
  5
10C
  8
16
 10
151.0891270192979
 20
42.3388055482687
 30
0.0
  0
VERTEX
  5
10D
  8
16
 10
151.083814365325
 20
42.32393578816473
 30
0.0
  0
VERTEX
  5
10E
  8
16
 10
151.0781016159444
 20
42.30912271074942
 30
0.0
  0
VERTEX
  5
10F
  8
16
 10
151.0719880078421
 20
42.29438184770569
 30
0.0
  0
VERTEX
  5
110
  8
16
 10
151.0654735570739
 20
42.27972891017937
 30
0.0
  0
VERTEX
  5
111
  8
16
 10
151.0585590786971
 20
42.26517974113719
 30
0.0
  0
VERTEX
  5
112
  8
16
 10
151.0512462029819
 20
42.25075026566328
 30
0.0
  0
VERTEX
  5
113
  8
16
 10
151.0435373879784
 20
42.23645643947498
 30
0.0
  0
VERTEX
  5
114
  8
16
 10
151.0354359282343
 20
42.22231419596561
 30
0.0
  0
VERTEX
  5
115
  8
16
 10
151.0269459594927
 20
42.20833939210657
 30
0.0
  0
VERTEX
  5
116
  8
16
 10
151.0180724592284
 20
42.19454775356214
 30
0.0
  0
VERTEX
  5
117
  8
16
 10
151.0088212429206
 20
42.18095481938842
 30
0.0
  0
VERTEX
  5
118
  8
16
 10
150.9991989559919
 20
42.16757588670124
 30
0.0
  0
VERTEX
  5
119
  8
16
 10
150.9892130613906
 20
42.15442595570762
 30
0.0
  0
VERTEX
  5
11A
  8
16
 10
150.9788718228256
 20
42.14151967549984
 30
0.0
  0
VERTEX
  5
11B
  8
16
 10
150.968184283714
 20
42.12887129101148
 30
0.0
  0
VERTEX
  5
11C
  8
16
 10
150.9571602419356
 20
42.11649459152981
 30
0.0
  0
VERTEX
  5
11D
  8
16
 10
150.9458102205338
 20
42.10440286114909
 30
0.0
  0
VERTEX
  5
11E
  8
16
 10
150.9341454345432
 20
42.09260883153474
 30
0.0
  0
VERTEX
  5
11F
  8
16
 10
143.5035366030613
 20
34.66199999999998
 30
0.0
  0
VERTEX
  5
120
  8
16
 10
143.5035366030613
 20
34.01761963021269
 30
0.0
 42
-0.2102471214594463
  0
VERTEX
  5
121
  8
16
 10
143.8083366030614
 20
33.3248
 30
0.0
  0
VERTEX
  5
122
  8
16
 10
143.8083366030613
 20
31.4452
 30
0.0
 42
-0.9999999999999697
  0
VERTEX
  5
123
  8
16
 10
141.9287366030614
 20
31.44519999999997
 30
0.0
  0
VERTEX
  5
124
  8
16
 10
141.9287366030613
 20
33.3248
 30
0.0
 42
-0.2102471214624183
  0
VERTEX
  5
125
  8
16
 10
142.2335366030653
 20
34.01761963021053
 30
0.0
  0
VERTEX
  5
126
  8
16
 10
142.2337589657045
 20
34.94143559393244
 30
0.0
  0
VERTEX
  5
127
  8
16
 10
142.2343973281519
 20
34.95785497806509
 30
0.0
  0
VERTEX
  5
128
  8
16
 10
142.2354594648619
 20
34.97424139275507
 30
0.0
  0
VERTEX
  5
129
  8
16
 10
142.2369432486996
 20
34.99057849126287
 30
0.0
  0
VERTEX
  5
12A
  8
16
 10
142.2388457168122
 20
35.0068500910514
 30
0.0
  0
VERTEX
  5
12B
  8
16
 10
142.2411630853701
 20
35.02304022673194
 30
0.0
  0
VERTEX
  5
12C
  8
16
 10
142.2438907682827
 20
35.03913320150501
 30
0.0
  0
VERTEX
  5
12D
  8
16
 10
142.2470233997181
 20
35.05511363675399
 30
0.0
  0
VERTEX
  5
12E
  8
16
 10
142.2505548602222
 20
35.07096651947044
 30
0.0
  0
VERTEX
  5
12F
  8
16
 10
142.2544783062009
 20
35.08667724721538
 30
0.0
  0
VERTEX
  5
130
  8
16
 10
142.2587862025061
 20
35.10223167034923
 30
0.0
  0
VERTEX
  5
131
  8
16
 10
142.2634703578398
 20
35.11761613129296
 30
0.0
  0
VERTEX
  5
132
  8
16
 10
142.2685219626728
 20
35.13281750061646
 30
0.0
  0
VERTEX
  5
133
  8
16
 10
142.2739316293613
 20
35.1478232097837
 30
0.0
  0
VERTEX
  5
134
  8
16
 10
142.27968943413
 20
35.16262128041968
 30
0.0
  0
VERTEX
  5
135
  8
16
 10
142.2857849605877
 20
35.17720034999924
 30
0.0
  0
VERTEX
  5
136
  8
16
 10
142.292207344436
 20
35.1915496938938
 30
0.0
  0
VERTEX
  5
137
  8
16
 10
142.2989453190349
 20
35.20565924374581
 30
0.0
  0
VERTEX
  5
138
  8
16
 10
142.3059872614929
 20
35.21951960217537
 30
0.0
  0
VERTEX
  5
139
  8
16
 10
142.3133212389588
 20
35.23312205385484
 30
0.0
  0
VERTEX
  5
13A
  8
16
 10
142.3209350548051
 20
35.24645857301776
 30
0.0
  0
VERTEX
  5
13B
  8
16
 10
142.3288162944043
 20
35.25952182749627
 30
0.0
  0
VERTEX
  5
13C
  8
16
 10
142.3369523702227
 20
35.27230517940689
 30
0.0
  0
VERTEX
  5
13D
  8
16
 10
142.3453305659689
 20
35.28480268262717
 30
0.0
  0
VERTEX
  5
13E
  8
16
 10
142.3539380795613
 20
35.29700907722587
 30
0.0
  0
VERTEX
  5
13F
  8
16
 10
142.362762064698
 20
35.3089197810262
 30
0.0
  0
VERTEX
  5
140
  8
16
 10
142.3717896708368
 20
35.32053087849594
 30
0.0
  0
VERTEX
  5
141
  8
16
 10
142.3810080814178
 20
35.33183910716932
 30
0.0
  0
VERTEX
  5
142
  8
16
 10
142.3904045501858
 20
35.34284184181378
 30
0.0
  0
VERTEX
  5
143
  8
16
 10
142.3999664354907
 20
35.35353707656031
 30
0.0
  0
VERTEX
  5
144
  8
16
 10
142.4096812324734
 20
35.36392340521877
 30
0.0
  0
VERTEX
  5
145
  8
16
 10
142.4195366030613
 20
35.374
 30
0.0
  0
VERTEX
  5
146
  8
16
 10
149.8535366030613
 20
42.80800000000001
 30
0.0
  0
VERTEX
  5
147
  8
16
 10
149.8535366030613
 20
49.90200000000001
 30
0.0
  0
VERTEX
  5
148
  8
16
 10
146.4155366030614
 20
53.34000000000002
 30
0.0
  0
VERTEX
  5
149
  8
16
 10
144.1221006208083
 20
53.34022236578759
 30
0.0
  0
VERTEX
  5
14A
  8
16
 10
144.1056812578362
 20
53.34086073117029
 30
0.0
  0
VERTEX
  5
14B
  8
16
 10
144.0892948639145
 20
53.34192287060143
 30
0.0
  0
VERTEX
  5
14C
  8
16
 10
144.0729577857546
 20
53.34340665694157
 30
0.0
  0
VERTEX
  5
14D
  8
16
 10
144.0566862058666
 20
53.34530912733453
 30
0.0
  0
VERTEX
  5
14E
  8
16
 10
144.0404960896129
 20
53.34762649794796
 30
0.0
  0
VERTEX
  5
14F
  8
16
 10
144.0244031337678
 20
53.35035418268956
 30
0.0
  0
VERTEX
  5
150
  8
16
 10
144.0084227169243
 20
53.35348681572674
 30
0.0
  0
VERTEX
  5
151
  8
16
 10
143.9925698520679
 20
53.35701827760525
 30
0.0
  0
VERTEX
  5
152
  8
16
 10
143.9768591416166
 20
53.36094172473202
 30
0.0
  0
VERTEX
  5
153
  8
16
 10
143.9613047351899
 20
53.36524962196075
 30
0.0
  0
VERTEX
  5
154
  8
16
 10
143.9459202903488
 20
53.3699337779959
 30
0.0
  0
VERTEX
  5
155
  8
16
 10
143.9307189365066
 20
53.37498538331183
 30
0.0
  0
VERTEX
  5
156
  8
16
 10
143.9157132421841
 20
53.38039505026874
 30
0.0
  0
VERTEX
  5
157
  8
16
 10
143.900915185743
 20
53.38615285509616
 30
0.0
  0
VERTEX
  5
158
  8
16
 10
143.8863361296966
 20
53.39224838140838
 30
0.0
  0
VERTEX
  5
159
  8
16
 10
143.8719867986634
 20
53.39867076491313
 30
0.0
  0
VERTEX
  5
15A
  8
16
 10
143.8578772609927
 20
53.40540873897706
 30
0.0
  0
VERTEX
  5
15B
  8
16
 10
143.8440169140577
 20
53.41245068071576
 30
0.0
  0
VERTEX
  5
15C
  8
16
 10
143.830414473181
 20
53.41978465728581
 30
0.0
  0
VERTEX
  5
15D
  8
16
 10
143.8170779641258
 20
53.42739847206744
 30
0.0
  0
VERTEX
  5
15E
  8
16
 10
143.8040147190584
 20
53.43527971044175
 30
0.0
  0
VERTEX
  5
15F
  8
16
 10
143.7912313758622
 20
53.44341578488349
 30
0.0
  0
VERTEX
  5
160
  8
16
 10
143.778733880661
 20
53.45179397911021
 30
0.0
  0
VERTEX
  5
161
  8
16
 10
143.7665274933892
 20
53.46040149104938
 30
0.0
  0
VERTEX
  5
162
  8
16
 10
143.7546167962281
 20
53.46922547440811
 30
0.0
  0
VERTEX
  5
163
  8
16
 10
143.7430057047156
 20
53.47825307865337
 30
0.0
  0
VERTEX
  5
164
  8
16
 10
143.7316974813247
 20
53.48747148723471
 30
0.0
  0
VERTEX
  5
165
  8
16
 10
143.7206947512964
 20
53.49686795390595
 30
0.0
  0
VERTEX
  5
166
  8
16
 10
143.7099995205092
 20
53.50642983702628
 30
0.0
  0
VERTEX
  5
167
  8
16
 10
143.6996131951639
 20
53.51614463174546
 30
0.0
  0
VERTEX
  5
168
  8
16
 10
143.6895366030614
 20
53.52600000000001
 30
0.0
  0
VERTEX
  5
169
  8
16
 10
142.4229277715559
 20
54.79260883150549
 30
0.0
 42
-0.200875956188884
  0
VERTEX
  5
16A
  8
16
 10
142.2335366030614
 20
55.24500000000001
 30
0.0
  0
SEQEND
  5
16B
  8
16
  0
POLYLINE
  5
16C
  8
16
 66
     1
 10
0.0
 20
0.0
 30
0.0
  0
VERTEX
  5
16D
  8
16
 10
132.2595366030613
 20
38.92100000000001
 30
0.0
 42
-0.1989027119253124
  0
VERTEX
  5
16E
  8
16
 10
132.0735456583086
 20
39.37000166535377
 30
0.0
  0
VERTEX
  5
16F
  8
16
 10
132.0736959202956
 20
53.35422348429422
 30
0.0
  0
VERTEX
  5
170
  8
16
 10
132.0741795817676
 20
53.36856868102099
 30
0.0
  0
VERTEX
  5
171
  8
16
 10
132.0749959477085
 20
53.38302601556119
 30
0.0
  0
VERTEX
  5
172
  8
16
 10
132.0761530758333
 20
53.39758536698398
 30
0.0
  0
VERTEX
  5
173
  8
16
 10
132.0776586833877
 20
53.41223607456242
 30
0.0
  0
VERTEX
  5
174
  8
16
 10
132.0795201087551
 20
53.42696694711616
 30
0.0
  0
VERTEX
  5
175
  8
16
 10
132.0817442728491
 20
53.44176627529317
 30
0.0
  0
VERTEX
  5
176
  8
16
 10
132.0843376405268
 20
53.45662184688467
 30
0.0
  0
VERTEX
  5
177
  8
16
 10
132.0873061822828
 20
53.47152096524653
 30
0.0
  0
VERTEX
  5
178
  8
16
 10
132.0906553364903
 20
53.48645047087867
 30
0.0
  0
VERTEX
  5
179
  8
16
 10
132.0943899724721
 20
53.50139676618799
 30
0.0
  0
VERTEX
  5
17A
  8
16
 10
132.0985143546937
 20
53.51634584343439
 30
0.0
  0
VERTEX
  5
17B
  8
16
 10
132.1030321083752
 20
53.53128331582994
 30
0.0
  0
VERTEX
  5
17C
  8
16
 10
132.1079461868248
 20
53.54619445173153
 30
0.0
  0
VERTEX
  5
17D
  8
16
 10
132.1132588407977
 20
53.5610642118355
 30
0.0
  0
VERTEX
  5
17E
  8
16
 10
132.1189715901784
 20
53.57587728925082
 30
0.0
  0
VERTEX
  5
17F
  8
16
 10
132.1250851982807
 20
53.59061815229456
 30
0.0
  0
VERTEX
  5
180
  8
16
 10
132.1315996490488
 20
53.6052710898209
 30
0.0
  0
VERTEX
  5
181
  8
16
 10
132.1385141274257
 20
53.6198202588631
 30
0.0
  0
VERTEX
  5
182
  8
16
 10
132.1458270031409
 20
53.63424973433703
 30
0.0
  0
VERTEX
  5
183
  8
16
 10
132.1535358181445
 20
53.64854356052533
 30
0.0
  0
VERTEX
  5
184
  8
16
 10
132.1616372778885
 20
53.6626858040347
 30
0.0
  0
VERTEX
  5
185
  8
16
 10
132.1701272466302
 20
53.67666060789376
 30
0.0
  0
VERTEX
  5
186
  8
16
 10
132.1790007468944
 20
53.69045224643819
 30
0.0
  0
VERTEX
  5
187
  8
16
 10
132.1882519632023
 20
53.70404518061191
 30
0.0
  0
VERTEX
  5
188
  8
16
 10
132.197874250131
 20
53.7174241132991
 30
0.0
  0
VERTEX
  5
189
  8
16
 10
132.2078601447324
 20
53.73057404429272
 30
0.0
  0
VERTEX
  5
18A
  8
16
 10
132.2182013832974
 20
53.74348032450051
 30
0.0
  0
VERTEX
  5
18B
  8
16
 10
132.2288889224089
 20
53.75612870898888
 30
0.0
  0
VERTEX
  5
18C
  8
16
 10
132.2399129641874
 20
53.76850540847056
 30
0.0
  0
VERTEX
  5
18D
  8
16
 10
132.2512629855892
 20
53.78059713885128
 30
0.0
  0
VERTEX
  5
18E
  8
16
 10
132.2629277715798
 20
53.79239116846563
 30
0.0
  0
VERTEX
  5
18F
  8
16
 10
136.0661454345666
 20
57.59560883150528
 30
0.0
 42
-0.2008759561890755
  0
VERTEX
  5
190
  8
16
 10
136.5185366030613
 20
57.785
 30
0.0
  0
VERTEX
  5
191
  8
16
 10
136.8487366030614
 20
57.78500000000001
 30
0.0
  0
VERTEX
  5
192
  8
16
 10
136.8487366030614
 20
58.08980000000001
 30
0.0
 42
-0.999999999999985
  0
VERTEX
  5
193
  8
16
 10
138.7283366030613
 20
58.08979999999998
 30
0.0
  0
VERTEX
  5
194
  8
16
 10
138.7283366030613
 20
56.21020000000001
 30
0.0
 42
-0.9999999999999999
  0
VERTEX
  5
195
  8
16
 10
136.8487366030614
 20
56.21020000000001
 30
0.0
  0
VERTEX
  5
196
  8
16
 10
136.8487366030614
 20
56.51500000000001
 30
0.0
  0
VERTEX
  5
197
  8
16
 10
136.7815366030613
 20
56.51500000000001
 30
0.0
  0
VERTEX
  5
198
  8
16
 10
133.3435366030613
 20
53.07699999999999
 30
0.0
  0
VERTEX
  5
199
  8
16
 10
133.3435366030582
 20
39.63300000000017
 30
0.0
 42
-0.0000302135888302
  0
VERTEX
  5
19A
  8
16
 10
138.21400944786
 20
34.76193850169512
 30
0.0
 42
-0.2119716473644669
  0
VERTEX
  5
19B
  8
16
 10
138.4235366030613
 20
34.29000000000001
 30
0.0
  0
VERTEX
  5
19C
  8
16
 10
138.4235366030613
 20
34.01761963021269
 30
0.0
 42
-0.2102471214593525
  0
VERTEX
  5
19D
  8
16
 10
138.7283366030613
 20
33.3248
 30
0.0
  0
VERTEX
  5
19E
  8
16
 10
138.7283366030613
 20
31.4452
 30
0.0
 42
-0.9999999999999923
  0
VERTEX
  5
19F
  8
16
 10
136.8487366030614
 20
31.44520000000002
 30
0.0
  0
VERTEX
  5
1A0
  8
16
 10
136.8487366030614
 20
33.3248
 30
0.0
 42
-0.2102471214624006
  0
VERTEX
  5
1A1
  8
16
 10
137.1535366030653
 20
34.01761963021053
 30
0.0
  0
VERTEX
  5
1A2
  8
16
 10
137.1535366030614
 20
34.02700000000001
 30
0.0
  0
VERTEX
  5
1A3
  8
16
 10
132.2595366030613
 20
38.92100000000001
 30
0.0
  0
SEQEND
  5
1A4
  8
16
  0
POLYLINE
  5
1A5
  8
16
 66
     1
 10
0.0
 20
0.0
 30
0.0
  0
VERTEX
  5
1A6
  8
16
 10
148.3205366030614
 20
56.51500000000001
 30
0.0
  0
VERTEX
  5
1A7
  8
16
 10
146.3483366030613
 20
56.514999963665
 30
0.0
  0
VERTEX
  5
1A8
  8
16
 10
146.3483366030613
 20
56.21020000000001
 30
0.0
 42
-1.000000000000015
  0
VERTEX
  5
1A9
  8
16
 10
144.4687366030614
 20
56.21019999999996
 30
0.0
  0
VERTEX
  5
1AA
  8
16
 10
144.4687366030613
 20
58.08980000000001
 30
0.0
 42
-0.9999999999999999
  0
VERTEX
  5
1AB
  8
16
 10
146.3483366030614
 20
58.08979999999998
 30
0.0
  0
VERTEX
  5
1AC
  8
16
 10
146.3483366030613
 20
57.78500000000001
 30
0.0
  0
VERTEX
  5
1AD
  8
16
 10
148.599972125965
 20
57.78477763735679
 30
0.0
  0
VERTEX
  5
1AE
  8
16
 10
148.6163915146396
 20
57.78413927490946
 30
0.0
  0
VERTEX
  5
1AF
  8
16
 10
148.6327779337401
 20
57.78307713819943
 30
0.0
  0
VERTEX
  5
1B0
  8
16
 10
148.6491150365229
 20
57.78159335436175
 30
0.0
  0
VERTEX
  5
1B1
  8
16
 10
148.6653866404472
 20
57.77969088624913
 30
0.0
  0
VERTEX
  5
1B2
  8
16
 10
148.6815767801205
 20
57.77737351769122
 30
0.0
  0
VERTEX
  5
1B3
  8
16
 10
148.6976697587403
 20
57.77464583477866
 30
0.0
  0
VERTEX
  5
1B4
  8
16
 10
148.713650197687
 20
57.7715132033432
 30
0.0
  0
VERTEX
  5
1B5
  8
16
 10
148.7295030839497
 20
57.76798174283914
 30
0.0
  0
VERTEX
  5
1B6
  8
16
 10
148.7452138150872
 20
57.76405829686044
 30
0.0
  0
VERTEX
  5
1B7
  8
16
 10
148.760768241458
 20
57.75975040055521
 30
0.0
  0
VERTEX
  5
1B8
  8
16
 10
148.7761527054814
 20
57.75506624522156
 30
0.0
  0
VERTEX
  5
1B9
  8
16
 10
148.7913540777261
 20
57.75001464038854
 30
0.0
  0
VERTEX
  5
1BA
  8
16
 10
148.8063597896553
 20
57.74460497370004
 30
0.0
  0
VERTEX
  5
1BB
  8
16
 10
148.8211578628931
 20
57.73884716893134
 30
0.0
  0
VERTEX
  5
1BC
  8
16
 10
148.8357369349144
 20
57.73275164247368
 30
0.0
  0
VERTEX
  5
1BD
  8
16
 10
148.8500862810905
 20
57.72632925862538
 30
0.0
  0
VERTEX
  5
1BE
  8
16
 10
148.8641958330641
 20
57.71959128402647
 30
0.0
  0
VERTEX
  5
1BF
  8
16
 10
148.8780561934561
 20
57.71254934156851
 30
0.0
  0
VERTEX
  5
1C0
  8
16
 10
148.8916586469398
 20
57.70521536410252
 30
0.0
  0
VERTEX
  5
1C1
  8
16
 10
148.9049951677498
 20
57.69760154825628
 30
0.0
  0
VERTEX
  5
1C2
  8
16
 10
148.9180584237198
 20
57.68972030865706
 30
0.0
  0
VERTEX
  5
1C3
  8
16
 10
148.9308417769679
 20
57.68158423283869
 30
0.0
  0
VERTEX
  5
1C4
  8
16
 10
148.9433392813738
 20
57.67320603709248
 30
0.0
  0
VERTEX
  5
1C5
  8
16
 10
148.9555456770083
 20
57.66459852350002
 30
0.0
  0
VERTEX
  5
1C6
  8
16
 10
148.967456381697
 20
57.6557745383633
 30
0.0
  0
VERTEX
  5
1C7
  8
16
 10
148.9790674799103
 20
57.64674693222456
 30
0.0
  0
VERTEX
  5
1C8
  8
16
 10
148.9903757091852
 20
57.63752852164352
 30
0.0
  0
VERTEX
  5
1C9
  8
16
 10
149.001378444292
 20
57.62813205287559
 30
0.0
  0
VERTEX
  5
1CA
  8
16
 10
149.0120736793647
 20
57.61857016757064
 30
0.0
  0
VERTEX
  5
1CB
  8
16
 10
149.0224600082164
 20
57.60885537058801
 30
0.0
  0
VERTEX
  5
1CC
  8
16
 10
149.0325366030613
 20
57.59900000000001
 30
0.0
  0
VERTEX
  5
1CD
  8
16
 10
153.4775366030614
 20
53.154
 30
0.0
 42
-0.2119530198204477
  0
VERTEX
  5
1CE
  8
16
 10
153.6631022638246
 20
52.67214475598774
 30
0.0
  0
VERTEX
  5
1CF
  8
16
 10
153.6633772858271
 20
38.72077651570585
 30
0.0
  0
VERTEX
  5
1D0
  8
16
 10
153.6628936243551
 20
38.70643131897913
 30
0.0
  0
VERTEX
  5
1D1
  8
16
 10
153.6620772584142
 20
38.691973984439
 30
0.0
  0
VERTEX
  5
1D2
  8
16
 10
153.6609201302894
 20
38.67741463301627
 30
0.0
  0
VERTEX
  5
1D3
  8
16
 10
153.6594145227351
 20
38.66276392543789
 30
0.0
  0
VERTEX
  5
1D4
  8
16
 10
153.6575530973676
 20
38.64803305288421
 30
0.0
  0
VERTEX
  5
1D5
  8
16
 10
153.6553289332738
 20
38.63323372470725
 30
0.0
  0
VERTEX
  5
1D6
  8
16
 10
153.652735565596
 20
38.61837815311581
 30
0.0
  0
VERTEX
  5
1D7
  8
16
 10
153.64976702384
 20
38.60347903475401
 30
0.0
  0
VERTEX
  5
1D8
  8
16
 10
153.6464178696325
 20
38.58854952912192
 30
0.0
  0
VERTEX
  5
1D9
  8
16
 10
153.6426832336507
 20
38.57360323381266
 30
0.0
  0
VERTEX
  5
1DA
  8
16
 10
153.6385588514291
 20
38.55865415656633
 30
0.0
  0
VERTEX
  5
1DB
  8
16
 10
153.6340410977477
 20
38.54371668417083
 30
0.0
  0
VERTEX
  5
1DC
  8
16
 10
153.6291270192982
 20
38.52880554826931
 30
0.0
  0
VERTEX
  5
1DD
  8
16
 10
153.6238143653253
 20
38.5139357881654
 30
0.0
  0
VERTEX
  5
1DE
  8
16
 10
153.6181016159447
 20
38.49912271075011
 30
0.0
  0
VERTEX
  5
1DF
  8
16
 10
153.6119880078424
 20
38.48438184770642
 30
0.0
  0
VERTEX
  5
1E0
  8
16
 10
153.6054735570744
 20
38.46972891018013
 30
0.0
  0
VERTEX
  5
1E1
  8
16
 10
153.5985590786976
 20
38.455179741138
 30
0.0
  0
VERTEX
  5
1E2
  8
16
 10
153.5912462029824
 20
38.44075026566412
 30
0.0
  0
VERTEX
  5
1E3
  8
16
 10
153.5835373879789
 20
38.42645643947584
 30
0.0
  0
VERTEX
  5
1E4
  8
16
 10
153.575435928235
 20
38.41231419596652
 30
0.0
  0
VERTEX
  5
1E5
  8
16
 10
153.5669459594933
 20
38.3983393921075
 30
0.0
  0
VERTEX
  5
1E6
  8
16
 10
153.5580724592292
 20
38.3845477535631
 30
0.0
  0
VERTEX
  5
1E7
  8
16
 10
153.5488212429213
 20
38.37095481938941
 30
0.0
  0
VERTEX
  5
1E8
  8
16
 10
153.5391989559928
 20
38.35757588670226
 30
0.0
  0
VERTEX
  5
1E9
  8
16
 10
153.5292130613914
 20
38.34442595570865
 30
0.0
  0
VERTEX
  5
1EA
  8
16
 10
153.5188718228265
 20
38.33151967550089
 30
0.0
  0
VERTEX
  5
1EB
  8
16
 10
153.5081842837151
 20
38.31887129101254
 30
0.0
  0
VERTEX
  5
1EC
  8
16
 10
153.4971602419367
 20
38.30649459153089
 30
0.0
  0
VERTEX
  5
1ED
  8
16
 10
153.485810220535
 20
38.29440286115019
 30
0.0
  0
VERTEX
  5
1EE
  8
16
 10
153.4741454345444
 20
38.28260883153584
 30
0.0
  0
VERTEX
  5
1EF
  8
16
 10
148.8332800186032
 20
33.64174341554185
 30
0.0
 42
-0.0862100173769155
  0
VERTEX
  5
1F0
  8
16
 10
148.8883366030613
 20
33.3248
 30
0.0
  0
VERTEX
  5
1F1
  8
16
 10
148.8883366030614
 20
31.4452
 30
0.0
 42
-1.000000000000006
  0
VERTEX
  5
1F2
  8
16
 10
147.0087366030614
 20
31.44519999999999
 30
0.0
  0
VERTEX
  5
1F3
  8
16
 10
147.0087366030613
 20
33.3248
 30
0.0
 42
-0.3031897802165079
  0
VERTEX
  5
1F4
  8
16
 10
147.5883917368941
 20
34.19285513383276
 30
0.0
  0
VERTEX
  5
1F5
  8
16
 10
152.3935366030614
 20
38.99799999999999
 30
0.0
  0
VERTEX
  5
1F6
  8
16
 10
152.3935366030614
 20
52.44200000000001
 30
0.0
  0
VERTEX
  5
1F7
  8
16
 10
148.3205366030614
 20
56.51500000000001
 30
0.0
  0
SEQEND
  5
1F8
  8
16
  0
POLYLINE
  5
1F9
  8
16
 66
     1
 10
0.0
 20
0.0
 30
0.0
  0
VERTEX
  5
1FA
  8
16
 10
136.8487366030614
 20
51.1048
 30
0.0
 42
-1.000000000000004
  0
VERTEX
  5
1FB
  8
16
 10
138.7283366030613
 20
51.10480000000002
 30
0.0
  0
VERTEX
  5
1FC
  8
16
 10
138.7283366030613
 20
49.22520000000001
 30
0.0
 42
-1.000000000000015
  0
VERTEX
  5
1FD
  8
16
 10
136.8487366030614
 20
49.22519999999998
 30
0.0
  0
VERTEX
  5
1FE
  8
16
 10
136.8487366030614
 20
51.1048
 30
0.0
  0
SEQEND
  5
1FF
  8
16
  0
POLYLINE
  5
200
  8
20
 66
     1
 10
0.0
 20
0.0
 30
0.0
  0
VERTEX
  5
201
  8
20
 10
154.2885366030613
 20
23.7267
 30
0.0
 42
0.4204999999999927
  0
VERTEX
  5
202
  8
20
 10
157.7611366030613
 20
27.1255
 30
0.0
 42
-0.9999999999999999
  0
VERTEX
  5
203
  8
20
 10
157.7621366030613
 20
27.1255
 30
0.0
 42
-0.9999999999999999
  0
VERTEX
  5
204
  8
20
 10
157.7611366030613
 20
27.1255
 30
0.0
  0
VERTEX
  5
205
  8
20
 10
157.7611366030613
 20
66.7717
 30
0.0
 42
-0.9999999999999999
  0
VERTEX
  5
206
  8
20
 10
157.7621366030613
 20
66.7717
 30
0.0
  0
VERTEX
  5
207
  8
20
 10
157.7621366030613
 20
27.1255
 30
0.0
 42
-0.4204999999999913
  0
VERTEX
  5
208
  8
20
 10
154.2885366030613
 20
23.7257
 30
0.0
 42
-0.9999999999999999
  0
VERTEX
  5
209
  8
20
 10
154.2885366030613
 20
23.7267
 30
0.0
  0
SEQEND
  5
20A
  8
20
  0
POLYLINE
  5
20B
  8
16
 66
     1
 10
0.0
 20
0.0
 30
0.0
  0
VERTEX
  5
20C
  8
16
 10
139.3887366030613
 20
51.1048
 30
0.0
 42
-0.9999999999999506
  0
VERTEX
  5
20D
  8
16
 10
141.2683366030614
 20
51.10479999999993
 30
0.0
  0
VERTEX
  5
20E
  8
16
 10
141.2683366030614
 20
49.22520000000001
 30
0.0
 42
-0.999999999999985
  0
VERTEX
  5
20F
  8
16
 10
139.3887366030613
 20
49.22519999999998
 30
0.0
  0
VERTEX
  5
210
  8
16
 10
139.3887366030613
 20
51.1048
 30
0.0
  0
SEQEND
  5
211
  8
16
  0
POLYLINE
  5
212
  8
16
 66
     1
 10
0.0
 20
0.0
 30
0.0
  0
VERTEX
  5
213
  8
16
 10
141.9287366030613
 20
51.1048
 30
0.0
 42
-1.000000000000004
  0
VERTEX
  5
214
  8
16
 10
143.8083366030613
 20
51.10480000000002
 30
0.0
  0
VERTEX
  5
215
  8
16
 10
143.8083366030613
 20
49.22520000000001
 30
0.0
 42
-0.999999999999985
  0
VERTEX
  5
216
  8
16
 10
141.9287366030613
 20
49.22520000000004
 30
0.0
  0
VERTEX
  5
217
  8
16
 10
141.9287366030613
 20
51.1048
 30
0.0
  0
SEQEND
  5
218
  8
16
  0
POLYLINE
  5
219
  8
16
 66
     1
 10
0.0
 20
0.0
 30
0.0
  0
VERTEX
  5
21A
  8
16
 10
144.4687366030613
 20
51.1048
 30
0.0
 42
-0.9999999999999886
  0
VERTEX
  5
21B
  8
16
 10
146.3483366030613
 20
51.10480000000002
 30
0.0
  0
VERTEX
  5
21C
  8
16
 10
146.3483366030613
 20
49.22520000000001
 30
0.0
 42
-0.9999999999999961
  0
VERTEX
  5
21D
  8
16
 10
144.4687366030614
 20
49.22520000000002
 30
0.0
  0
VERTEX
  5
21E
  8
16
 10
144.4687366030613
 20
51.1048
 30
0.0
  0
SEQEND
  5
21F
  8
16
  0
POLYLINE
  5
220
  8
16
 66
     1
 10
0.0
 20
0.0
 30
0.0
  0
VERTEX
  5
221
  8
16
 10
146.3483366030613
 20
31.4452
 30
0.0
 42
-1.000000000000008
  0
VERTEX
  5
222
  8
16
 10
144.4687366030614
 20
31.44519999999999
 30
0.0
  0
VERTEX
  5
223
  8
16
 10
144.4687366030613
 20
33.3248
 30
0.0
 42
-0.9999999999999999
  0
VERTEX
  5
224
  8
16
 10
146.3483366030614
 20
33.32479999999997
 30
0.0
  0
VERTEX
  5
225
  8
16
 10
146.3483366030613
 20
31.4452
 30
0.0
  0
SEQEND
  5
226
  8
16
  0
POLYLINE
  5
227
  8
16
 66
     1
 10
0.0
 20
0.0
 30
0.0
  0
VERTEX
  5
228
  8
16
 10
136.1883366030613
 20
31.4452
 30
0.0
 42
-1.000000000000023
  0
VERTEX
  5
229
  8
16
 10
134.3087366030613
 20
31.44519999999999
 30
0.0
  0
VERTEX
  5
22A
  8
16
 10
134.3087366030613
 20
33.3248
 30
0.0
 42
-1.000000000000015
  0
VERTEX
  5
22B
  8
16
 10
136.1883366030614
 20
33.32479999999997
 30
0.0
  0
VERTEX
  5
22C
  8
16
 10
136.1883366030613
 20
31.4452
 30
0.0
  0
SEQEND
  5
22D
  8
16
  0
POLYLINE
  5
22E
  8
20
 66
     1
 10
0.0
 20
0.0
 30
0.0
  0
VERTEX
  5
22F
  8
20
 10
157.7611366030613
 20
66.7717
 30
0.0
 42
0.9999999999999999
  0
VERTEX
  5
230
  8
20
 10
125.5221366030613
 20
66.7717
 30
0.0
 42
-0.9999999999999999
  0
VERTEX
  5
231
  8
20
 10
125.5211366030613
 20
66.7717
 30
0.0
 42
-0.9999999999999999
  0
VERTEX
  5
232
  8
20
 10
157.7621366030613
 20
66.7717
 30
0.0
 42
-0.9999999999999999
  0
VERTEX
  5
233
  8
20
 10
157.7611366030613
 20
66.7717
 30
0.0
  0
SEQEND
  5
234
  8
20
  0
ENDSEC
  0
EOF
