  0
SECTION
  2
HEADER
  9
$ACADVER
  1
AC1009
  9
$FILLMODE
 70
0
  9
$EXTMIN
 10
40.0452
 20
23.7250
 30
0.0000
  9
$EXTMAX
 10
115.7724
 20
82.8922
 30
0.0000
  0
ENDSEC
  0
SECTION
  2
TABLES
  0
TABLE
  2
LTYPE
 70
1
  0
LTYPE
  2
CONTINUOUS
 70
64
  3
Solid line
 72
65
 73
0
 40
0
  0
ENDTAB
  0
TABLE
  2
LAYER
 70
255
  0
LAYER
  2
16
 70
64
 62
132
  6
CONTINUOUS
  0
LAYER
  2
17
 70
64
 62
110
  6
CONTINUOUS
  0
LAYER
  2
19
 70
64
 62
53
  6
CONTINUOUS
  0
LAYER
  2
20
 70
64
 62
31
  6
CONTINUOUS
  0
LAYER
  2
44
 70
64
 62
253
  6
CONTINUOUS
  0
ENDTAB
  0
ENDSEC
  0
SECTION
  2
BLOCKS
  0
BLOCK
  8
0
  2
RECT
 70
64
 10
0.0000
 20
0.0000
 30
0.0000
  3
RECT
  0
SOLID
  8
0
 10
-0.5000
 20
-0.5000
 30
0.0000
 11
0.5000
 21
-0.5000
 31
0.0000
 12
-0.5000
 22
0.5000
 32
0.0000
 13
0.5000
 23
0.5000
 33
0.0000
  0
ENDBLK
  8
0
  0
BLOCK
  8
0
  2
PIE
 70
64
 10
0.0000
 20
0.0000
 30
0.0000
  3
PIE
  0
CIRCLE
  8
0
 10
0.0000
 20
0.0000
 30
0.0000
 40
0.5000
  0
ENDBLK
  8
0
  0
BLOCK
  8
0
  2
OCTAGONP
 70
64
 10
0.0000
 20
0.0000
 30
0.0000
  3
OCTAGONP
  0
POLYLINE
  8
0
 66
1
 10
0.0000
 20
0.0000
 30
0.0000
 40
0.0000
 41
0.0000
 70
1
  0
VERTEX
  8
0
 10
-0.5000
 20
-0.2071
 30
0.0000
  0
VERTEX
  8
0
 10
-0.5000
 20
0.2071
 30
0.0000
  0
VERTEX
  8
0
 10
-0.2071
 20
0.5000
 30
0.0000
  0
VERTEX
  8
0
 10
0.2071
 20
0.5000
 30
0.0000
  0
VERTEX
  8
0
 10
0.5000
 20
0.2071
 30
0.0000
  0
VERTEX
  8
0
 10
0.5000
 20
-0.2071
 30
0.0000
  0
VERTEX
  8
0
 10
0.2071
 20
-0.5000
 30
0.0000
  0
VERTEX
  8
0
 10
-0.2071
 20
-0.5000
 30
0.0000
  0
SEQEND
  8
0
  0
ENDBLK
  8
0
  0
BLOCK
  8
0
  2
SQUAREP
 70
64
 10
0.0000
 20
0.0000
 30
0.0000
  3
SQUAREP
  0
SOLID
  8
0
 10
-0.5000
 20
-0.5000
 30
0.0000
 11
0.5000
 21
-0.5000
 31
0.0000
 12
-0.5000
 22
0.5000
 32
0.0000
 13
0.5000
 23
0.5000
 33
0.0000
  0
ENDBLK
  8
0
  0
BLOCK
  8
0
  2
ROUNDP
 70
64
 10
0.0000
 20
0.0000
 30
0.0000
  3
ROUNDP
  0
CIRCLE
  8
0
 10
0.0000
 20
0.0000
 30
0.0000
 40
0.5000
  0
ENDBLK
  8
0
  0
BLOCK
  8
0
  2
ANNULUSP
 70
64
 10
0.0000
 20
0.0000
 30
0.0000
  3
ANNULUSP
  0
CIRCLE
  8
0
 10
0.0000
 20
0.0000
 30
0.0000
 40
0.5000
  0
ENDBLK
  8
0
  0
BLOCK
  8
0
  2
THERMALP
 70
64
 10
0.0000
 20
0.0000
 30
0.0000
  3
THERMALP
  0
POLYLINE
  8
0
 66
1
 10
0.0000
 20
0.0000
 30
0.0000
 40
0.0000
 41
0.0000
 70
1
  0
VERTEX
  8
0
 10
-0.2379
 20
0.4000
 30
0.0000
  0
VERTEX
  8
0
 10
0.2379
 20
0.4000
 30
0.0000
 42
1.0000
  0
VERTEX
  8
0
 10
0.2379
 20
0.5000
 30
0.0000
  0
VERTEX
  8
0
 10
-0.2379
 20
0.5000
 30
0.0000
 42
1.0000
  0
SEQEND
  8
0
  0
POLYLINE
  8
0
 66
1
 10
0.0000
 20
0.0000
 30
0.0000
 40
0.0000
 41
0.0000
 70
1
  0
VERTEX
  8
0
 10
0.4000
 20
0.2379
 30
0.0000
  0
VERTEX
  8
0
 10
0.4000
 20
-0.2379
 30
0.0000
 42
1.0000
  0
VERTEX
  8
0
 10
0.5000
 20
-0.2379
 30
0.0000
  0
VERTEX
  8
0
 10
0.5000
 20
0.2379
 30
0.0000
 42
1.0000
  0
SEQEND
  8
0
  0
POLYLINE
  8
0
 66
1
 10
0.0000
 20
0.0000
 30
0.0000
 40
0.0000
 41
0.0000
 70
1
  0
VERTEX
  8
0
 10
0.2379
 20
-0.4000
 30
0.0000
  0
VERTEX
  8
0
 10
-0.2379
 20
-0.4000
 30
0.0000
 42
1.0000
  0
VERTEX
  8
0
 10
-0.2379
 20
-0.5000
 30
0.0000
  0
VERTEX
  8
0
 10
0.2379
 20
-0.5000
 30
0.0000
 42
1.0000
  0
SEQEND
  8
0
  0
POLYLINE
  8
0
 66
1
 10
0.0000
 20
0.0000
 30
0.0000
 40
0.0000
 41
0.0000
 70
1
  0
VERTEX
  8
0
 10
-0.4000
 20
-0.2379
 30
0.0000
  0
VERTEX
  8
0
 10
-0.4000
 20
0.2379
 30
0.0000
 42
1.0000
  0
VERTEX
  8
0
 10
-0.5000
 20
0.2379
 30
0.0000
  0
VERTEX
  8
0
 10
-0.5000
 20
-0.2379
 30
0.0000
 42
1.0000
  0
SEQEND
  8
0
  0
ENDBLK
  8
0
  0
BLOCK
  8
0
  2
OCTAGONV
 70
64
 10
0.0000
 20
0.0000
 30
0.0000
  3
OCTAGONV
  0
POLYLINE
  8
0
 66
1
 10
0.0000
 20
0.0000
 30
0.0000
 40
0.0000
 41
0.0000
 70
1
  0
VERTEX
  8
0
 10
-0.5000
 20
-0.2071
 30
0.0000
  0
VERTEX
  8
0
 10
-0.5000
 20
0.2071
 30
0.0000
  0
VERTEX
  8
0
 10
-0.2071
 20
0.5000
 30
0.0000
  0
VERTEX
  8
0
 10
0.2071
 20
0.5000
 30
0.0000
  0
VERTEX
  8
0
 10
0.5000
 20
0.2071
 30
0.0000
  0
VERTEX
  8
0
 10
0.5000
 20
-0.2071
 30
0.0000
  0
VERTEX
  8
0
 10
0.2071
 20
-0.5000
 30
0.0000
  0
VERTEX
  8
0
 10
-0.2071
 20
-0.5000
 30
0.0000
  0
SEQEND
  8
0
  0
ENDBLK
  8
0
  0
BLOCK
  8
0
  2
SQUAREV
 70
64
 10
0.0000
 20
0.0000
 30
0.0000
  3
SQUAREV
  0
SOLID
  8
0
 10
-0.5000
 20
-0.5000
 30
0.0000
 11
0.5000
 21
-0.5000
 31
0.0000
 12
-0.5000
 22
0.5000
 32
0.0000
 13
0.5000
 23
0.5000
 33
0.0000
  0
ENDBLK
  8
0
  0
BLOCK
  8
0
  2
ROUNDV
 70
64
 10
0.0000
 20
0.0000
 30
0.0000
  3
ROUNDV
  0
CIRCLE
  8
0
 10
0.0000
 20
0.0000
 30
0.0000
 40
0.5000
  0
ENDBLK
  8
0
  0
BLOCK
  8
0
  2
ANNULUSV
 70
64
 10
0.0000
 20
0.0000
 30
0.0000
  3
ANNULUSV
  0
CIRCLE
  8
0
 10
0.0000
 20
0.0000
 30
0.0000
 40
0.5000
  0
ENDBLK
  8
0
  0
BLOCK
  8
0
  2
THERMALV
 70
64
 10
0.0000
 20
0.0000
 30
0.0000
  3
THERMALV
  0
POLYLINE
  8
0
 66
1
 10
0.0000
 20
0.0000
 30
0.0000
 40
0.0000
 41
0.0000
 70
1
  0
VERTEX
  8
0
 10
-0.2379
 20
0.4000
 30
0.0000
  0
VERTEX
  8
0
 10
0.2379
 20
0.4000
 30
0.0000
 42
1.0000
  0
VERTEX
  8
0
 10
0.2379
 20
0.5000
 30
0.0000
  0
VERTEX
  8
0
 10
-0.2379
 20
0.5000
 30
0.0000
 42
1.0000
  0
SEQEND
  8
0
  0
POLYLINE
  8
0
 66
1
 10
0.0000
 20
0.0000
 30
0.0000
 40
0.0000
 41
0.0000
 70
1
  0
VERTEX
  8
0
 10
0.4000
 20
0.2379
 30
0.0000
  0
VERTEX
  8
0
 10
0.4000
 20
-0.2379
 30
0.0000
 42
1.0000
  0
VERTEX
  8
0
 10
0.5000
 20
-0.2379
 30
0.0000
  0
VERTEX
  8
0
 10
0.5000
 20
0.2379
 30
0.0000
 42
1.0000
  0
SEQEND
  8
0
  0
POLYLINE
  8
0
 66
1
 10
0.0000
 20
0.0000
 30
0.0000
 40
0.0000
 41
0.0000
 70
1
  0
VERTEX
  8
0
 10
0.2379
 20
-0.4000
 30
0.0000
  0
VERTEX
  8
0
 10
-0.2379
 20
-0.4000
 30
0.0000
 42
1.0000
  0
VERTEX
  8
0
 10
-0.2379
 20
-0.5000
 30
0.0000
  0
VERTEX
  8
0
 10
0.2379
 20
-0.5000
 30
0.0000
 42
1.0000
  0
SEQEND
  8
0
  0
POLYLINE
  8
0
 66
1
 10
0.0000
 20
0.0000
 30
0.0000
 40
0.0000
 41
0.0000
 70
1
  0
VERTEX
  8
0
 10
-0.4000
 20
-0.2379
 30
0.0000
  0
VERTEX
  8
0
 10
-0.4000
 20
0.2379
 30
0.0000
 42
1.0000
  0
VERTEX
  8
0
 10
-0.5000
 20
0.2379
 30
0.0000
  0
VERTEX
  8
0
 10
-0.5000
 20
-0.2379
 30
0.0000
 42
1.0000
  0
SEQEND
  8
0
  0
ENDBLK
  8
0
  0
BLOCK
  8
0
  2
LONGP100
 70
64
 10
0.0000
 20
0.0000
 30
0.0000
  3
LONGP100
  0
POLYLINE
  8
0
 66
1
 10
0.0000
 20
0.0000
 30
0.0000
 40
0.0000
 41
0.0000
 70
1
  0
VERTEX
  8
0
 10
-0.5000
 20
-0.5000
 30
0.0000
  0
VERTEX
  8
0
 10
0.5000
 20
-0.5000
 30
0.0000
 42
1.0000
  0
VERTEX
  8
0
 10
0.5000
 20
0.5000
 30
0.0000
  0
VERTEX
  8
0
 10
-0.5000
 20
0.5000
 30
0.0000
 42
1.0000
  0
SEQEND
  8
0
  0
ENDBLK
  8
0
  0
ENDSEC
  0
SECTION
  2
ENTITIES
  0
POLYLINE
  8
20
 66
1
 10
0.0000
 20
0.0000
 30
0.0000
 40
0.0000
 41
0.0000
 70
1
  0
VERTEX
  8
20
 10
83.5314
 20
66.7717
 30
0.0000
  0
VERTEX
  8
20
 10
83.5314
 20
27.1255
 30
0.0000
 42
1.0000
  0
VERTEX
  8
20
 10
83.5324
 20
27.1255
 30
0.0000
  0
VERTEX
  8
20
 10
83.5324
 20
66.7717
 30
0.0000
 42
1.0000
  0
SEQEND
  8
0
  0
POLYLINE
  8
20
 66
1
 10
0.0000
 20
0.0000
 30
0.0000
 40
0.0000
 41
0.0000
 70
1
  0
VERTEX
  8
20
 10
83.5324
 20
27.1255
 30
0.0000
 42
1.0000
  0
VERTEX
  8
20
 10
83.5314
 20
27.1255
 30
0.0000
 42
0.4205
  0
VERTEX
  8
20
 10
87.0050
 20
23.7257
 30
0.0000
 42
1.0000
  0
VERTEX
  8
20
 10
87.0050
 20
23.7267
 30
0.0000
 42
-0.4205
  0
SEQEND
  8
0
  0
POLYLINE
  8
20
 66
1
 10
0.0000
 20
0.0000
 30
0.0000
 40
0.0000
 41
0.0000
 70
1
  0
VERTEX
  8
20
 10
87.0050
 20
23.7257
 30
0.0000
  0
VERTEX
  8
20
 10
112.3718
 20
23.7250
 30
0.0000
 42
1.0000
  0
VERTEX
  8
20
 10
112.3718
 20
23.7260
 30
0.0000
  0
VERTEX
  8
20
 10
87.0050
 20
23.7267
 30
0.0000
 42
1.0000
  0
SEQEND
  8
0
  0
POLYLINE
  8
20
 66
1
 10
0.0000
 20
0.0000
 30
0.0000
 40
0.0000
 41
0.0000
 70
1
  0
VERTEX
  8
20
 10
112.3718
 20
23.7260
 30
0.0000
 42
1.0000
  0
VERTEX
  8
20
 10
112.3718
 20
23.7250
 30
0.0000
 42
0.4142
  0
VERTEX
  8
20
 10
115.7724
 20
27.1255
 30
0.0000
 42
1.0000
  0
VERTEX
  8
20
 10
115.7714
 20
27.1255
 30
0.0000
 42
-0.4142
  0
SEQEND
  8
0
  0
POLYLINE
  8
20
 66
1
 10
0.0000
 20
0.0000
 30
0.0000
 40
0.0000
 41
0.0000
 70
1
  0
VERTEX
  8
20
 10
115.7724
 20
27.1255
 30
0.0000
  0
VERTEX
  8
20
 10
115.7724
 20
66.7717
 30
0.0000
 42
1.0000
  0
VERTEX
  8
20
 10
115.7714
 20
66.7717
 30
0.0000
  0
VERTEX
  8
20
 10
115.7714
 20
27.1255
 30
0.0000
 42
1.0000
  0
SEQEND
  8
0
  0
POLYLINE
  8
20
 66
1
 10
0.0000
 20
0.0000
 30
0.0000
 40
0.0000
 41
0.0000
 70
1
  0
VERTEX
  8
20
 10
115.7714
 20
66.7717
 30
0.0000
 42
1.0000
  0
VERTEX
  8
20
 10
115.7724
 20
66.7717
 30
0.0000
 42
1.0000
  0
VERTEX
  8
20
 10
83.5314
 20
66.7717
 30
0.0000
 42
1.0000
  0
VERTEX
  8
20
 10
83.5324
 20
66.7717
 30
0.0000
 42
-1.0000
  0
SEQEND
  8
0
  0
CIRCLE
  8
20
 10
87.1319
 20
66.7717
 30
0.0000
 40
1.5995
  0
CIRCLE
  8
20
 10
87.1319
 20
66.7717
 30
0.0000
 40
1.6005
  0
CIRCLE
  8
20
 10
112.1719
 20
66.7717
 30
0.0000
 40
1.5995
  0
CIRCLE
  8
20
 10
112.1719
 20
66.7717
 30
0.0000
 40
1.6005
  0
CIRCLE
  8
20
 10
99.6519
 20
78.2917
 30
0.0000
 40
1.5995
  0
CIRCLE
  8
20
 10
99.6519
 20
78.2917
 30
0.0000
 40
1.6005
  0
CIRCLE
  8
20
 10
99.6027
 20
27.1258
 30
0.0000
 40
1.5995
  0
CIRCLE
  8
20
 10
99.6027
 20
27.1258
 30
0.0000
 40
1.6005
  0
CIRCLE
  8
20
 10
99.6519
 20
66.7717
 30
0.0000
 40
5.9995
  0
CIRCLE
  8
20
 10
99.6519
 20
66.7717
 30
0.0000
 40
6.0005
  0
INSERT
  8
17
  2
LONGP100
 10
103.5050
 20
50.1650
 30
0.0000
 41
1.8796
 42
1.8796
 43
1.0000
 50
270.0000
  0
CIRCLE
  8
44
 10
103.5050
 20
50.1650
 30
0.0000
 40
0.5588
  0
INSERT
  8
17
  2
LONGP100
 10
100.9650
 20
50.1650
 30
0.0000
 41
1.8796
 42
1.8796
 43
1.0000
 50
270.0000
  0
CIRCLE
  8
44
 10
100.9650
 20
50.1650
 30
0.0000
 40
0.5588
  0
INSERT
  8
17
  2
LONGP100
 10
98.4250
 20
50.1650
 30
0.0000
 41
1.8796
 42
1.8796
 43
1.0000
 50
270.0000
  0
CIRCLE
  8
44
 10
98.4250
 20
50.1650
 30
0.0000
 40
0.5588
  0
INSERT
  8
17
  2
LONGP100
 10
95.8850
 20
50.1650
 30
0.0000
 41
1.8796
 42
1.8796
 43
1.0000
 50
270.0000
  0
CIRCLE
  8
44
 10
95.8850
 20
50.1650
 30
0.0000
 40
0.5588
  0
INSERT
  8
17
  2
LONGP100
 10
93.3450
 20
32.3850
 30
0.0000
 41
1.8796
 42
1.8796
 43
1.0000
 50
90.0000
  0
CIRCLE
  8
44
 10
93.3450
 20
32.3850
 30
0.0000
 40
0.5588
  0
INSERT
  8
17
  2
LONGP100
 10
95.8850
 20
32.3850
 30
0.0000
 41
1.8796
 42
1.8796
 43
1.0000
 50
90.0000
  0
CIRCLE
  8
44
 10
95.8850
 20
32.3850
 30
0.0000
 40
0.5588
  0
INSERT
  8
17
  2
LONGP100
 10
98.4250
 20
32.3850
 30
0.0000
 41
1.8796
 42
1.8796
 43
1.0000
 50
90.0000
  0
CIRCLE
  8
44
 10
98.4250
 20
32.3850
 30
0.0000
 40
0.5588
  0
INSERT
  8
17
  2
LONGP100
 10
100.9650
 20
32.3850
 30
0.0000
 41
1.8796
 42
1.8796
 43
1.0000
 50
90.0000
  0
CIRCLE
  8
44
 10
100.9650
 20
32.3850
 30
0.0000
 40
0.5588
  0
INSERT
  8
17
  2
LONGP100
 10
103.5050
 20
32.3850
 30
0.0000
 41
1.8796
 42
1.8796
 43
1.0000
 50
90.0000
  0
CIRCLE
  8
44
 10
103.5050
 20
32.3850
 30
0.0000
 40
0.5588
  0
INSERT
  8
17
  2
LONGP100
 10
106.0450
 20
32.3850
 30
0.0000
 41
1.8796
 42
1.8796
 43
1.0000
 50
90.0000
  0
CIRCLE
  8
44
 10
106.0450
 20
32.3850
 30
0.0000
 40
0.5588
  0
INSERT
  8
17
  2
LONGP100
 10
103.5050
 20
57.1500
 30
0.0000
 41
1.8796
 42
1.8796
 43
1.0000
 50
270.0000
  0
CIRCLE
  8
44
 10
103.5050
 20
57.1500
 30
0.0000
 40
0.5588
  0
INSERT
  8
17
  2
LONGP100
 10
100.9650
 20
57.1500
 30
0.0000
 41
1.8796
 42
1.8796
 43
1.0000
 50
270.0000
  0
CIRCLE
  8
44
 10
100.9650
 20
57.1500
 30
0.0000
 40
0.5588
  0
INSERT
  8
17
  2
LONGP100
 10
98.4250
 20
57.1500
 30
0.0000
 41
1.8796
 42
1.8796
 43
1.0000
 50
270.0000
  0
CIRCLE
  8
44
 10
98.4250
 20
57.1500
 30
0.0000
 40
0.5588
  0
INSERT
  8
17
  2
LONGP100
 10
95.8850
 20
57.1500
 30
0.0000
 41
1.8796
 42
1.8796
 43
1.0000
 50
270.0000
  0
CIRCLE
  8
44
 10
95.8850
 20
57.1500
 30
0.0000
 40
0.5588
  0
POLYLINE
  8
16
 66
1
 10
0.0000
 20
0.0000
 30
0.0000
 40
0.0000
 41
0.0000
 70
1
  0
VERTEX
  8
16
 10
93.9800
 20
32.3850
 30
0.0000
  0
VERTEX
  8
16
 10
93.9800
 20
33.6550
 30
0.0000
 42
1.0000
  0
VERTEX
  8
16
 10
92.7100
 20
33.6550
 30
0.0000
  0
VERTEX
  8
16
 10
92.7100
 20
32.3850
 30
0.0000
 42
1.0000
  0
SEQEND
  8
0
  0
POLYLINE
  8
16
 66
1
 10
0.0000
 20
0.0000
 30
0.0000
 40
0.0000
 41
0.0000
 70
1
  0
VERTEX
  8
16
 10
93.7940
 20
34.1040
 30
0.0000
  0
VERTEX
  8
16
 10
88.7140
 20
39.1840
 30
0.0000
 42
1.0000
  0
VERTEX
  8
16
 10
87.8160
 20
38.2860
 30
0.0000
  0
VERTEX
  8
16
 10
92.8960
 20
33.2060
 30
0.0000
 42
1.0000
  0
SEQEND
  8
0
  0
POLYLINE
  8
16
 66
1
 10
0.0000
 20
0.0000
 30
0.0000
 40
0.0000
 41
0.0000
 70
1
  0
VERTEX
  8
16
 10
88.9000
 20
38.7350
 30
0.0000
  0
VERTEX
  8
16
 10
88.9000
 20
52.7050
 30
0.0000
 42
1.0000
  0
VERTEX
  8
16
 10
87.6300
 20
52.7050
 30
0.0000
  0
VERTEX
  8
16
 10
87.6300
 20
38.7350
 30
0.0000
 42
1.0000
  0
SEQEND
  8
0
  0
POLYLINE
  8
16
 66
1
 10
0.0000
 20
0.0000
 30
0.0000
 40
0.0000
 41
0.0000
 70
1
  0
VERTEX
  8
16
 10
92.7100
 20
56.5150
 30
0.0000
  0
VERTEX
  8
16
 10
95.8850
 20
56.5150
 30
0.0000
 42
1.0000
  0
VERTEX
  8
16
 10
95.8850
 20
57.7850
 30
0.0000
  0
VERTEX
  8
16
 10
92.7100
 20
57.7850
 30
0.0000
 42
1.0000
  0
SEQEND
  8
0
  0
POLYLINE
  8
16
 66
1
 10
0.0000
 20
0.0000
 30
0.0000
 40
0.0000
 41
0.0000
 70
1
  0
VERTEX
  8
16
 10
88.7140
 20
52.2560
 30
0.0000
  0
VERTEX
  8
16
 10
93.1590
 20
56.7010
 30
0.0000
 42
1.0000
  0
VERTEX
  8
16
 10
92.2610
 20
57.5990
 30
0.0000
  0
VERTEX
  8
16
 10
87.8160
 20
53.1540
 30
0.0000
 42
1.0000
  0
SEQEND
  8
0
  0
POLYLINE
  8
16
 66
1
 10
0.0000
 20
0.0000
 30
0.0000
 40
0.0000
 41
0.0000
 70
1
  0
VERTEX
  8
16
 10
99.0600
 20
32.3850
 30
0.0000
  0
VERTEX
  8
16
 10
99.0600
 20
34.9250
 30
0.0000
 42
1.0000
  0
VERTEX
  8
16
 10
97.7900
 20
34.9250
 30
0.0000
  0
VERTEX
  8
16
 10
97.7900
 20
32.3850
 30
0.0000
 42
1.0000
  0
SEQEND
  8
0
  0
POLYLINE
  8
16
 66
1
 10
0.0000
 20
0.0000
 30
0.0000
 40
0.0000
 41
0.0000
 70
1
  0
VERTEX
  8
16
 10
98.8740
 20
35.3740
 30
0.0000
  0
VERTEX
  8
16
 10
91.2540
 20
42.9940
 30
0.0000
 42
1.0000
  0
VERTEX
  8
16
 10
90.3560
 20
42.0960
 30
0.0000
  0
VERTEX
  8
16
 10
97.9760
 20
34.4760
 30
0.0000
 42
1.0000
  0
SEQEND
  8
0
  0
POLYLINE
  8
16
 66
1
 10
0.0000
 20
0.0000
 30
0.0000
 40
0.0000
 41
0.0000
 70
1
  0
VERTEX
  8
16
 10
91.4400
 20
42.5450
 30
0.0000
  0
VERTEX
  8
16
 10
91.4400
 20
50.1650
 30
0.0000
 42
1.0000
  0
VERTEX
  8
16
 10
90.1700
 20
50.1650
 30
0.0000
  0
VERTEX
  8
16
 10
90.1700
 20
42.5450
 30
0.0000
 42
1.0000
  0
SEQEND
  8
0
  0
POLYLINE
  8
16
 66
1
 10
0.0000
 20
0.0000
 30
0.0000
 40
0.0000
 41
0.0000
 70
1
  0
VERTEX
  8
16
 10
94.6150
 20
53.3400
 30
0.0000
  0
VERTEX
  8
16
 10
97.1550
 20
53.3400
 30
0.0000
 42
1.0000
  0
VERTEX
  8
16
 10
97.1550
 20
54.6100
 30
0.0000
  0
VERTEX
  8
16
 10
94.6150
 20
54.6100
 30
0.0000
 42
1.0000
  0
SEQEND
  8
0
  0
POLYLINE
  8
16
 66
1
 10
0.0000
 20
0.0000
 30
0.0000
 40
0.0000
 41
0.0000
 70
1
  0
VERTEX
  8
16
 10
97.6040
 20
53.5260
 30
0.0000
  0
VERTEX
  8
16
 10
98.8740
 20
54.7960
 30
0.0000
 42
1.0000
  0
VERTEX
  8
16
 10
97.9760
 20
55.6940
 30
0.0000
  0
VERTEX
  8
16
 10
96.7060
 20
54.4240
 30
0.0000
 42
1.0000
  0
SEQEND
  8
0
  0
POLYLINE
  8
16
 66
1
 10
0.0000
 20
0.0000
 30
0.0000
 40
0.0000
 41
0.0000
 70
1
  0
VERTEX
  8
16
 10
99.0600
 20
55.2450
 30
0.0000
  0
VERTEX
  8
16
 10
99.0600
 20
57.1500
 30
0.0000
 42
1.0000
  0
VERTEX
  8
16
 10
97.7900
 20
57.1500
 30
0.0000
  0
VERTEX
  8
16
 10
97.7900
 20
55.2450
 30
0.0000
 42
1.0000
  0
SEQEND
  8
0
  0
POLYLINE
  8
16
 66
1
 10
0.0000
 20
0.0000
 30
0.0000
 40
0.0000
 41
0.0000
 70
1
  0
VERTEX
  8
16
 10
91.2540
 20
49.7160
 30
0.0000
  0
VERTEX
  8
16
 10
95.0640
 20
53.5260
 30
0.0000
 42
1.0000
  0
VERTEX
  8
16
 10
94.1660
 20
54.4240
 30
0.0000
  0
VERTEX
  8
16
 10
90.3560
 20
50.6140
 30
0.0000
 42
1.0000
  0
SEQEND
  8
0
  0
POLYLINE
  8
16
 66
1
 10
0.0000
 20
0.0000
 30
0.0000
 40
0.0000
 41
0.0000
 70
1
  0
VERTEX
  8
16
 10
101.6000
 20
32.3850
 30
0.0000
  0
VERTEX
  8
16
 10
101.6000
 20
35.5600
 30
0.0000
 42
1.0000
  0
VERTEX
  8
16
 10
100.3300
 20
35.5600
 30
0.0000
  0
VERTEX
  8
16
 10
100.3300
 20
32.3850
 30
0.0000
 42
1.0000
  0
SEQEND
  8
0
  0
POLYLINE
  8
16
 66
1
 10
0.0000
 20
0.0000
 30
0.0000
 40
0.0000
 41
0.0000
 70
1
  0
VERTEX
  8
16
 10
104.7750
 20
54.6100
 30
0.0000
  0
VERTEX
  8
16
 10
101.6000
 20
54.6100
 30
0.0000
 42
1.0000
  0
VERTEX
  8
16
 10
101.6000
 20
53.3400
 30
0.0000
  0
VERTEX
  8
16
 10
104.7750
 20
53.3400
 30
0.0000
 42
1.0000
  0
SEQEND
  8
0
  0
POLYLINE
  8
16
 66
1
 10
0.0000
 20
0.0000
 30
0.0000
 40
0.0000
 41
0.0000
 70
1
  0
VERTEX
  8
16
 10
102.0490
 20
54.4240
 30
0.0000
  0
VERTEX
  8
16
 10
101.4140
 20
55.0590
 30
0.0000
 42
1.0000
  0
VERTEX
  8
16
 10
100.5160
 20
54.1610
 30
0.0000
  0
VERTEX
  8
16
 10
101.1510
 20
53.5260
 30
0.0000
 42
1.0000
  0
SEQEND
  8
0
  0
POLYLINE
  8
16
 66
1
 10
0.0000
 20
0.0000
 30
0.0000
 40
0.0000
 41
0.0000
 70
1
  0
VERTEX
  8
16
 10
101.6000
 20
54.6100
 30
0.0000
  0
VERTEX
  8
16
 10
101.6000
 20
57.1500
 30
0.0000
 42
1.0000
  0
VERTEX
  8
16
 10
100.3300
 20
57.1500
 30
0.0000
  0
VERTEX
  8
16
 10
100.3300
 20
54.6100
 30
0.0000
 42
1.0000
  0
SEQEND
  8
0
  0
POLYLINE
  8
16
 66
1
 10
0.0000
 20
0.0000
 30
0.0000
 40
0.0000
 41
0.0000
 70
1
  0
VERTEX
  8
16
 10
101.4140
 20
35.1110
 30
0.0000
  0
VERTEX
  8
16
 10
107.1290
 20
40.8260
 30
0.0000
 42
1.0000
  0
VERTEX
  8
16
 10
106.2310
 20
41.7240
 30
0.0000
  0
VERTEX
  8
16
 10
100.5160
 20
36.0090
 30
0.0000
 42
1.0000
  0
SEQEND
  8
0
  0
POLYLINE
  8
16
 66
1
 10
0.0000
 20
0.0000
 30
0.0000
 40
0.0000
 41
0.0000
 70
1
  0
VERTEX
  8
16
 10
107.3150
 20
41.2750
 30
0.0000
  0
VERTEX
  8
16
 10
107.3150
 20
52.0700
 30
0.0000
 42
1.0000
  0
VERTEX
  8
16
 10
106.0450
 20
52.0700
 30
0.0000
  0
VERTEX
  8
16
 10
106.0450
 20
41.2750
 30
0.0000
 42
1.0000
  0
SEQEND
  8
0
  0
POLYLINE
  8
16
 66
1
 10
0.0000
 20
0.0000
 30
0.0000
 40
0.0000
 41
0.0000
 70
1
  0
VERTEX
  8
16
 10
107.1290
 20
52.5190
 30
0.0000
  0
VERTEX
  8
16
 10
105.2240
 20
54.4240
 30
0.0000
 42
1.0000
  0
VERTEX
  8
16
 10
104.3260
 20
53.5260
 30
0.0000
  0
VERTEX
  8
16
 10
106.2310
 20
51.6210
 30
0.0000
 42
1.0000
  0
SEQEND
  8
0
  0
POLYLINE
  8
16
 66
1
 10
0.0000
 20
0.0000
 30
0.0000
 40
0.0000
 41
0.0000
 70
1
  0
VERTEX
  8
16
 10
104.1400
 20
32.3850
 30
0.0000
  0
VERTEX
  8
16
 10
104.1400
 20
34.2900
 30
0.0000
 42
1.0000
  0
VERTEX
  8
16
 10
102.8700
 20
34.2900
 30
0.0000
  0
VERTEX
  8
16
 10
102.8700
 20
32.3850
 30
0.0000
 42
1.0000
  0
SEQEND
  8
0
  0
POLYLINE
  8
16
 66
1
 10
0.0000
 20
0.0000
 30
0.0000
 40
0.0000
 41
0.0000
 70
1
  0
VERTEX
  8
16
 10
103.9540
 20
33.8410
 30
0.0000
  0
VERTEX
  8
16
 10
109.0340
 20
38.9210
 30
0.0000
 42
1.0000
  0
VERTEX
  8
16
 10
108.1360
 20
39.8190
 30
0.0000
  0
VERTEX
  8
16
 10
103.0560
 20
34.7390
 30
0.0000
 42
1.0000
  0
SEQEND
  8
0
  0
POLYLINE
  8
16
 66
1
 10
0.0000
 20
0.0000
 30
0.0000
 40
0.0000
 41
0.0000
 70
1
  0
VERTEX
  8
16
 10
109.2200
 20
39.3700
 30
0.0000
  0
VERTEX
  8
16
 10
109.2200
 20
53.3400
 30
0.0000
 42
1.0000
  0
VERTEX
  8
16
 10
107.9500
 20
53.3400
 30
0.0000
  0
VERTEX
  8
16
 10
107.9500
 20
39.3700
 30
0.0000
 42
1.0000
  0
SEQEND
  8
0
  0
POLYLINE
  8
16
 66
1
 10
0.0000
 20
0.0000
 30
0.0000
 40
0.0000
 41
0.0000
 70
1
  0
VERTEX
  8
16
 10
104.7750
 20
57.7850
 30
0.0000
  0
VERTEX
  8
16
 10
103.5050
 20
57.7850
 30
0.0000
 42
1.0000
  0
VERTEX
  8
16
 10
103.5050
 20
56.5150
 30
0.0000
  0
VERTEX
  8
16
 10
104.7750
 20
56.5150
 30
0.0000
 42
1.0000
  0
SEQEND
  8
0
  0
POLYLINE
  8
16
 66
1
 10
0.0000
 20
0.0000
 30
0.0000
 40
0.0000
 41
0.0000
 70
1
  0
VERTEX
  8
16
 10
109.0340
 20
53.7890
 30
0.0000
  0
VERTEX
  8
16
 10
105.2240
 20
57.5990
 30
0.0000
 42
1.0000
  0
VERTEX
  8
16
 10
104.3260
 20
56.7010
 30
0.0000
  0
VERTEX
  8
16
 10
108.1360
 20
52.8910
 30
0.0000
 42
1.0000
  0
SEQEND
  8
0
  0
ENDSEC
  0
EOF
